<svg width="44" height="50" viewBox="0 0 44 50" fill="none" xmlns="http://www.w3.org/2000/svg">
<path d="M21.1 42.3901C21.1 36.3901 25.67 32.9401 30.1 29.6201C34.53 26.3001 38.7 23.1702 38.7 17.5502C38.7 10.4102 32.97 5.97009 23.7 5.97009V0.760132C37.62 0.760132 43.86 9.19017 43.86 17.5502C43.86 25.9102 37.93 30.2202 33.17 33.7902C29.46 36.5702 21.05 42.3901 21.05 42.3901" fill="white"/>
<path d="M20.9999 49.8901C7.06988 49.8901 0.839844 41.4601 0.839844 33.1001C0.839844 24.7401 6.83988 20.1001 11.7499 16.4001C15.3399 13.6901 23.6499 8.27014 23.6499 8.27014C23.6499 13.9501 19.1999 17.2702 14.8899 20.5602C10.3499 23.9902 6.04993 27.2301 6.04993 33.1001C6.04993 40.2401 11.7799 44.6802 21.0499 44.6802L20.9999 49.8901Z" fill="white"/>
</svg>
