<svg width="62" height="62" viewBox="0 0 62 62" fill="none" xmlns="http://www.w3.org/2000/svg">
<path d="M26.8301 35.3301C26.2001 35.8301 25.5701 36.3201 24.9501 36.8101C23.5301 37.9201 22.1101 39.0401 20.6901 40.1401C20.5301 40.2601 20.4901 40.3601 20.5701 40.5601C21.2201 42.1001 20.7201 43.7501 19.3101 44.7901C18.1001 45.6801 16.2901 45.6101 15.0901 44.6201C13.8301 43.5901 13.4101 41.9101 14.0501 40.4701C14.7201 38.9701 16.2501 38.1301 17.8701 38.3901C18.4101 38.4801 18.9101 38.6801 19.3401 39.0201C19.5101 39.1601 19.6401 39.1701 19.8201 39.0301C21.7601 37.4901 23.7201 35.9601 25.6701 34.4401C25.8801 34.2701 25.9201 34.1601 25.7901 33.9101C24.9201 32.2701 24.8601 30.6001 25.6401 28.9101C25.6801 28.8201 25.7201 28.7301 25.7701 28.6101C25.3301 28.2401 24.8801 27.8801 24.4401 27.5101C23.3101 26.5801 22.1701 25.6601 21.0501 24.7201C20.8401 24.5501 20.7201 24.5701 20.5301 24.7101C18.0701 26.5501 14.6001 25.2901 13.8901 22.3101C13.4401 20.4501 14.3101 18.5201 16.0001 17.5901C17.6501 16.6901 19.7401 17.0001 21.0601 18.3601C22.3201 19.6601 22.6301 21.5501 21.8201 23.1601C21.7301 23.3501 21.7401 23.4501 21.9101 23.5801C23.4101 24.8001 24.9001 26.0301 26.3901 27.2601C26.5601 27.4001 26.6501 27.3901 26.8101 27.2401C28.5401 25.6001 30.5401 25.1701 32.7901 25.9501C32.9901 26.0201 33.0701 25.9801 33.1701 25.8101C34.1501 24.0801 35.1301 22.3401 36.1201 20.6201C36.2101 20.4601 36.1801 20.3701 36.0601 20.2401C35.0101 19.1601 34.7401 17.6001 35.3801 16.2601C36.0001 14.9401 37.3901 14.1201 38.8601 14.2501C40.2501 14.3701 41.2601 15.1001 41.8201 16.3601C42.3801 17.6301 42.2301 18.8601 41.3501 19.9501C40.4101 21.1201 39.1801 21.5401 37.7001 21.1801C37.5401 21.1401 37.4501 21.1501 37.3601 21.3101C36.3401 23.1101 35.3201 24.9101 34.2901 26.7101C34.2801 26.7301 34.2801 26.7501 34.2801 26.7401C34.6301 27.1201 35.0001 27.4801 35.3101 27.8801C36.0101 28.7801 36.3801 29.8001 36.4301 30.9401C36.4401 31.1201 36.5001 31.2001 36.6801 31.2201C38.4501 31.4201 40.2201 31.6301 41.9901 31.8401C42.1901 31.8601 42.2701 31.8001 42.3401 31.6201C42.9301 30.1301 44.5601 29.4301 46.0301 30.0301C47.4701 30.6201 48.1601 32.2901 47.5701 33.7301C47.1401 34.7801 45.9901 35.5301 44.8801 35.4801C43.6801 35.4301 42.6401 34.6701 42.2901 33.5601C42.2301 33.3601 42.1301 33.2801 41.9201 33.2601C40.1401 33.0601 38.3601 32.8501 36.5801 32.6301C36.3301 32.6001 36.2401 32.6701 36.1601 32.9101C35.8601 33.9201 35.3001 34.7601 34.5101 35.4601C34.4301 35.5301 34.3501 35.6001 34.2501 35.6801C34.2901 35.7701 34.3301 35.8501 34.3701 35.9201C35.6201 38.1201 36.8801 40.3101 38.1301 42.5101C38.2401 42.7101 38.3401 42.7401 38.5501 42.6801C39.8901 42.2901 41.3601 43.0201 41.8901 44.3101C42.4301 45.6401 41.9101 47.1601 40.6801 47.8501C38.9901 48.7901 36.9101 47.8601 36.5201 45.9801C36.3601 45.2101 36.4901 44.4701 36.9601 43.8201C37.0801 43.6501 37.1001 43.5301 36.9901 43.3401C35.7101 41.1201 34.4501 38.9001 33.1801 36.6701C33.0701 36.4801 32.9901 36.4301 32.7601 36.5101C30.6701 37.2501 28.7701 36.8901 27.0601 35.4801C26.9801 35.4501 26.9101 35.4001 26.8301 35.3301ZM30.7801 35.5001C33.1101 35.4901 35.0201 33.5801 35.0201 31.2501C35.0301 28.9101 33.0901 26.9801 30.7601 26.9901C28.4301 27.0001 26.5201 28.9101 26.5201 31.2401C26.5101 33.5801 28.4401 35.5101 30.7801 35.5001ZM18.0601 24.1501C19.6201 24.1101 20.8801 22.8201 20.8501 21.3001C20.8201 19.7301 19.5301 18.4601 17.9901 18.4901C16.4301 18.5201 15.1501 19.8301 15.1901 21.3501C15.2301 22.9301 16.5201 24.1901 18.0601 24.1501ZM15.1901 41.8801C15.1901 43.0501 16.1701 44.0201 17.3301 44.0001C18.4901 43.9801 19.4301 43.0301 19.4301 41.8701C19.4301 40.7001 18.4601 39.7401 17.2901 39.7601C16.1301 39.7701 15.1801 40.7301 15.1901 41.8801ZM40.6801 17.7901C40.6801 16.6301 39.7501 15.6801 38.5901 15.6701C37.4101 15.6601 36.4501 16.6201 36.4401 17.8101C36.4301 18.9201 37.4201 19.9101 38.5401 19.9101C39.7301 19.9001 40.6801 18.9601 40.6801 17.7901ZM40.6801 45.4201C40.6801 44.6401 40.0601 44.0101 39.2801 44.0101C38.5101 44.0101 37.8701 44.6301 37.8601 45.4101C37.8501 46.2001 38.4901 46.8401 39.2801 46.8401C40.0601 46.8301 40.6801 46.2001 40.6801 45.4201ZM43.5301 32.6701C43.5301 33.4401 44.1601 34.0801 44.9401 34.0801C45.7101 34.0801 46.3501 33.4601 46.3601 32.6801C46.3701 31.9001 45.7201 31.2501 44.9401 31.2601C44.1601 31.2601 43.5301 31.9001 43.5301 32.6701Z" fill="black"/>
<path d="M30.7597 61.0299C47.2123 61.0299 60.5497 47.6925 60.5497 31.24C60.5497 14.7874 47.2123 1.44995 30.7597 1.44995C14.3072 1.44995 0.969727 14.7874 0.969727 31.24C0.969727 47.6925 14.3072 61.0299 30.7597 61.0299Z" stroke="black" stroke-miterlimit="10"/>
</svg>
