<svg width="71" height="71" viewBox="0 0 71 71" fill="none" xmlns="http://www.w3.org/2000/svg">
<path d="M35.24 70.48C54.7025 70.48 70.48 54.7025 70.48 35.24C70.48 15.7775 54.7025 0 35.24 0C15.7775 0 0 15.7775 0 35.24C0 54.7025 15.7775 70.48 35.24 70.48Z" fill="#28348A"/>
<path d="M29.9495 40.73C29.0995 41.4 28.2595 42.06 27.4195 42.72C25.5095 44.21 23.6095 45.71 21.6995 47.2C21.4895 47.37 21.4295 47.49 21.5395 47.76C22.4095 49.83 21.7395 52.05 19.8495 53.44C18.2195 54.64 15.7895 54.54 14.1795 53.21C12.4895 51.82 11.9295 49.57 12.7895 47.64C13.6895 45.62 15.7495 44.49 17.9295 44.84C18.6495 44.96 19.3195 45.22 19.8995 45.69C20.1295 45.88 20.2995 45.9 20.5495 45.7C23.1595 43.63 25.7795 41.57 28.4095 39.53C28.6995 39.31 28.7395 39.15 28.5695 38.82C27.3995 36.62 27.3195 34.38 28.3595 32.11C28.4195 31.99 28.4695 31.86 28.5295 31.71C27.9295 31.22 27.3395 30.73 26.7395 30.24C25.2195 28.99 23.6895 27.75 22.1795 26.49C21.8995 26.26 21.7395 26.28 21.4695 26.48C18.1595 28.95 13.4995 27.26 12.5395 23.25C11.9395 20.75 13.0995 18.16 15.3795 16.91C17.5995 15.69 20.3995 16.12 22.1795 17.95C23.8795 19.69 24.2895 22.24 23.1995 24.4C23.0695 24.65 23.0895 24.79 23.3095 24.97C25.3195 26.61 27.3295 28.26 29.3295 29.91C29.5495 30.09 29.6795 30.09 29.8895 29.89C32.2095 27.69 34.8995 27.11 37.9195 28.16C38.1795 28.25 38.2995 28.19 38.4195 27.97C39.7395 25.64 41.0595 23.31 42.3895 20.99C42.5195 20.77 42.4695 20.65 42.3095 20.48C40.8995 19.03 40.5395 16.94 41.3895 15.14C42.2195 13.37 44.0796 12.26 46.0596 12.44C47.9196 12.6 49.2795 13.58 50.0295 15.28C50.7795 16.98 50.5796 18.64 49.3996 20.11C48.1296 21.69 46.4795 22.25 44.4995 21.76C44.2896 21.71 44.1595 21.72 44.0395 21.93C42.6695 24.35 41.2895 26.77 39.9195 29.19C39.9095 29.21 39.9095 29.24 39.9095 29.24C40.3795 29.76 40.8695 30.23 41.2895 30.77C42.2295 31.97 42.7295 33.35 42.7995 34.88C42.8095 35.13 42.8895 35.23 43.1395 35.26C45.5195 35.53 47.8995 35.81 50.2795 36.09C50.5395 36.12 50.6595 36.04 50.7495 35.8C51.5396 33.8 53.7395 32.86 55.7095 33.66C57.6395 34.45 58.5795 36.7 57.7795 38.63C57.1995 40.05 55.6595 41.05 54.1595 40.98C52.5396 40.91 51.1595 39.89 50.6796 38.4C50.5896 38.13 50.4595 38.02 50.1895 37.99C47.7995 37.72 45.4095 37.44 43.0195 37.15C42.6895 37.11 42.5595 37.2 42.4595 37.52C42.0495 38.87 41.2995 40.01 40.2395 40.95C40.1295 41.05 40.0195 41.14 39.8895 41.25C39.9495 41.37 39.9995 41.48 40.0495 41.58C41.7295 44.53 43.4195 47.48 45.0995 50.44C45.2495 50.71 45.3895 50.75 45.6695 50.66C47.4695 50.14 49.4396 51.11 50.1496 52.85C50.8796 54.63 50.1696 56.68 48.5196 57.6C46.2596 58.86 43.4595 57.62 42.9295 55.09C42.7095 54.06 42.8895 53.06 43.5195 52.19C43.6795 51.97 43.7095 51.8 43.5595 51.55C41.8495 48.57 40.1395 45.58 38.4495 42.59C38.3095 42.34 38.1895 42.26 37.8895 42.37C35.0795 43.36 32.5195 42.88 30.2295 40.98C30.1595 40.9 30.0695 40.83 29.9495 40.73ZM35.2595 40.96C38.3895 40.95 40.9495 38.38 40.9595 35.26C40.9695 32.12 38.3695 29.53 35.2395 29.54C32.1096 29.55 29.5495 32.12 29.5395 35.24C29.5295 38.38 32.1295 40.97 35.2595 40.96ZM18.1695 25.72C20.2595 25.67 21.9595 23.93 21.9195 21.9C21.8795 19.79 20.1395 18.09 18.0795 18.12C15.9895 18.16 14.2695 19.91 14.3195 21.97C14.3695 24.08 16.0995 25.77 18.1695 25.72ZM14.3195 49.53C14.3295 51.1 15.6395 52.4 17.1895 52.38C18.7395 52.36 20.0095 51.07 20.0095 49.52C20.0095 47.95 18.7095 46.66 17.1395 46.68C15.5795 46.7 14.3095 47.98 14.3195 49.53ZM48.5596 17.17C48.5596 15.61 47.3096 14.34 45.7495 14.32C44.1695 14.3 42.8795 15.59 42.8695 17.2C42.8595 18.69 44.1896 20.02 45.6996 20.02C47.2896 20.01 48.5596 18.75 48.5596 17.17ZM48.5596 54.29C48.5596 53.24 47.7196 52.4 46.6796 52.39C45.6395 52.38 44.7795 53.23 44.7696 54.26C44.7596 55.32 45.6095 56.18 46.6695 56.18C47.7295 56.18 48.5596 55.34 48.5596 54.29ZM52.3895 37.16C52.3895 38.2 53.2395 39.05 54.2795 39.05C55.3195 39.05 56.1696 38.21 56.1796 37.17C56.1895 36.12 55.3195 35.25 54.2696 35.26C53.2396 35.27 52.3895 36.12 52.3895 37.16Z" fill="white"/>
</svg>
