<svg width="72" height="72" viewBox="0 0 72 72" fill="none" xmlns="http://www.w3.org/2000/svg">
<path d="M36.1101 71.3699C55.5726 71.3699 71.3501 55.5924 71.3501 36.1299C71.3501 16.6674 55.5726 0.889893 36.1101 0.889893C16.6476 0.889893 0.870117 16.6674 0.870117 36.1299C0.870117 55.5924 16.6476 71.3699 36.1101 71.3699Z" fill="#28348A"/>
<path d="M18.5597 53.1798C18.3497 53.1798 18.1897 53.1798 18.0197 53.1798C16.3997 53.1798 14.7897 53.1798 13.1697 53.1798C11.1597 53.1698 9.94974 51.9298 9.94974 49.8698C9.94974 43.6098 9.97974 37.3398 9.92974 31.0798C9.91974 29.1798 11.2997 27.7498 13.1797 27.7798C17.8097 27.8398 22.4397 27.7998 27.0697 27.7998C27.6697 27.7998 27.6697 27.7998 27.6697 27.1698C27.6697 23.6598 27.6697 20.1598 27.6697 16.6498C27.6697 14.5498 28.8597 13.3098 30.8997 13.3098C40.2697 13.3098 49.6297 13.3098 58.9997 13.3098C61.0597 13.3098 62.2697 14.5598 62.2697 16.6798C62.2697 23.6798 62.2697 30.6798 62.2697 37.6698C62.2697 39.7898 61.0597 41.0298 59.0097 41.0398C58.1697 41.0398 57.3297 41.0598 56.4897 41.0298C56.0897 41.0198 55.9897 41.1598 55.9997 41.5498C56.0197 42.8998 55.9997 44.2598 56.0097 45.6098C56.0097 46.0998 55.9397 46.5498 55.4697 46.7898C54.9797 47.0398 54.5497 46.8898 54.1197 46.5798C51.8297 44.9098 49.4997 43.2898 47.2497 41.5698C46.4697 40.9698 45.6797 41.0198 44.7797 41.0598C44.7697 41.2498 44.7597 41.4398 44.7597 41.6198C44.7597 44.3498 44.7597 47.0698 44.7597 49.7998C44.7597 51.9298 43.5597 53.1598 41.4997 53.1598C37.8197 53.1598 34.1397 53.1498 30.4597 53.1698C30.1497 53.1698 29.8097 53.2598 29.5397 53.4098C26.4497 55.1498 23.3697 56.9098 20.2897 58.6598C20.1897 58.7098 20.0997 58.7698 19.9997 58.8198C19.1597 59.2298 18.4297 58.7698 18.4497 57.8198C18.4697 56.4798 18.5197 55.1398 18.5597 53.7998C18.5697 53.6198 18.5597 53.4298 18.5597 53.1798ZM53.9397 43.8498C53.9397 43.5398 53.9397 43.3698 53.9397 43.1998C53.9397 42.1998 53.9297 41.1898 53.9397 40.1898C53.9497 39.3098 54.3097 38.9398 55.1697 38.9398C56.3997 38.9298 57.6197 38.9398 58.8497 38.9398C59.9297 38.9398 60.2097 38.6598 60.2097 37.5598C60.2097 30.6298 60.2097 23.6898 60.2097 16.7598C60.2097 15.6498 59.9497 15.3798 58.8597 15.3798C50.7397 15.3798 42.6097 15.3798 34.4897 15.3798C33.2497 15.3798 31.9997 15.3698 30.7597 15.3798C30.0697 15.3798 29.7397 15.7198 29.7097 16.4298C29.7097 16.5398 29.7097 16.6498 29.7097 16.7598C29.7097 23.6798 29.7097 30.5998 29.7097 37.5098C29.7097 38.6598 29.9697 38.9198 31.0797 38.9198C36.2197 38.9198 41.3597 38.9098 46.5097 38.9398C46.8897 38.9398 47.3097 39.0798 47.6297 39.2998C49.2097 40.3998 50.7597 41.5398 52.3197 42.6698C52.8197 43.0398 53.3197 43.4098 53.9397 43.8498ZM42.6897 41.0198C42.4397 41.0198 42.2597 41.0198 42.0697 41.0198C38.3297 41.0198 34.5797 41.0198 30.8397 41.0198C28.8897 41.0198 27.6797 39.7598 27.6797 37.7598C27.6797 35.3098 27.6697 32.8498 27.6897 30.3998C27.6897 29.9898 27.5897 29.8598 27.1697 29.8598C22.5097 29.8698 17.8497 29.8698 13.1897 29.8698C12.3297 29.8698 11.9897 30.2098 11.9897 31.0798C11.9897 37.3398 11.9897 43.6098 11.9897 49.8698C11.9897 50.7598 12.3097 51.0798 13.1797 51.0798C15.1997 51.0798 17.2197 51.0798 19.2397 51.0798C20.3097 51.0798 20.6497 51.4498 20.6197 52.5598C20.5897 53.5798 20.5597 54.5998 20.5297 55.6198C20.5297 55.7498 20.5397 55.8898 20.5497 56.0798C20.7297 55.9898 20.8697 55.9298 20.9997 55.8498C23.6197 54.3598 26.2397 52.8598 28.8697 51.3798C29.1897 51.1998 29.5997 51.0898 29.9697 51.0798C33.8097 51.0598 37.6397 51.0698 41.4797 51.0698C42.4197 51.0698 42.7097 50.7698 42.7097 49.8198C42.7097 47.0598 42.7097 44.2998 42.7097 41.5498C42.7097 41.3998 42.6997 41.2398 42.6897 41.0198Z" fill="white"/>
<path d="M43.4297 27.3297C43.4297 26.1297 44.3497 25.1697 45.5197 25.1497C46.6697 25.1397 47.6397 26.1097 47.6497 27.2897C47.6597 28.4997 46.6997 29.4997 45.5297 29.4997C44.3697 29.4997 43.4297 28.5297 43.4297 27.3297Z" fill="white"/>
<path d="M39.1897 27.3597C39.1797 28.5597 38.2297 29.5197 37.0697 29.5097C35.9197 29.4997 34.9697 28.5097 34.9697 27.3297C34.9697 26.1197 35.9397 25.1497 37.1197 25.1597C38.2897 25.1697 39.2097 26.1497 39.1897 27.3597Z" fill="white"/>
<path d="M56.0802 27.3597C56.0602 28.5597 55.1102 29.5197 53.9602 29.4997C52.8102 29.4897 51.8602 28.4897 51.8702 27.3097C51.8802 26.1097 52.8502 25.1297 54.0302 25.1497C55.1802 25.1697 56.1002 26.1497 56.0802 27.3597Z" fill="white"/>
</svg>
