<svg width="62" height="62" viewBox="0 0 62 62" fill="none" xmlns="http://www.w3.org/2000/svg">
<path d="M31.1006 61.0299C47.5531 61.0299 60.8905 47.6925 60.8905 31.24C60.8905 14.7874 47.5531 1.44995 31.1006 1.44995C14.648 1.44995 1.31055 14.7874 1.31055 31.24C1.31055 47.6925 14.648 61.0299 31.1006 61.0299Z" stroke="black" stroke-miterlimit="10"/>
<path d="M18.7704 43.93C18.6204 43.93 18.4904 43.93 18.3704 43.93C17.1704 43.93 15.9604 43.93 14.7604 43.93C13.2704 43.93 12.3704 43 12.3704 41.46C12.3704 36.8 12.3904 32.13 12.3604 27.47C12.3504 26.06 13.3804 24.99 14.7804 25.01C18.2304 25.06 21.6704 25.02 25.1204 25.02C25.5704 25.02 25.5704 25.02 25.5704 24.55C25.5704 21.94 25.5704 19.33 25.5704 16.72C25.5704 15.16 26.4604 14.23 27.9804 14.23C34.9504 14.23 41.9304 14.23 48.9004 14.23C50.4404 14.23 51.3304 15.16 51.3304 16.74C51.3304 21.95 51.3304 27.16 51.3304 32.37C51.3304 33.95 50.4304 34.87 48.9004 34.88C48.2804 34.88 47.6504 34.9 47.0304 34.87C46.7304 34.86 46.6604 34.97 46.6604 35.26C46.6704 36.27 46.6604 37.28 46.6704 38.29C46.6704 38.65 46.6204 38.99 46.2704 39.17C45.9104 39.36 45.5804 39.25 45.2704 39.01C43.5604 37.77 41.8304 36.56 40.1504 35.28C39.5704 34.84 38.9804 34.87 38.3104 34.9C38.3004 35.04 38.2904 35.18 38.2904 35.32C38.2904 37.35 38.2904 39.38 38.2904 41.41C38.2904 42.99 37.4004 43.91 35.8604 43.91C33.1204 43.91 30.3804 43.91 27.6404 43.92C27.4104 43.92 27.1604 43.99 26.9604 44.1C24.6604 45.39 22.3704 46.7 20.0704 48.01C20.0004 48.05 19.9304 48.09 19.8604 48.13C19.2404 48.44 18.7004 48.09 18.7104 47.39C18.7304 46.39 18.7604 45.4 18.7904 44.4C18.7704 44.26 18.7704 44.12 18.7704 43.93ZM45.1004 36.99C45.1004 36.76 45.1004 36.63 45.1004 36.5C45.1004 35.75 45.1004 35 45.1004 34.26C45.1104 33.61 45.3804 33.33 46.0104 33.33C46.9204 33.33 47.8404 33.33 48.7504 33.33C49.5504 33.33 49.7604 33.12 49.7604 32.3C49.7604 27.14 49.7604 21.98 49.7604 16.82C49.7604 16 49.5604 15.8 48.7504 15.8C42.7004 15.8 36.6604 15.8 30.6104 15.8C29.6804 15.8 28.7604 15.8 27.8304 15.8C27.3104 15.8 27.0704 16.05 27.0504 16.58C27.0504 16.66 27.0504 16.75 27.0504 16.83C27.0504 21.98 27.0504 27.13 27.0504 32.28C27.0504 33.13 27.2404 33.33 28.0704 33.33C31.9004 33.33 35.7204 33.32 39.5504 33.34C39.8304 33.34 40.1504 33.44 40.3804 33.61C41.5604 34.43 42.7104 35.28 43.8704 36.12C44.2704 36.39 44.6404 36.66 45.1004 36.99ZM36.7304 34.88C36.5504 34.88 36.4104 34.88 36.2704 34.88C33.4804 34.88 30.7004 34.88 27.9104 34.88C26.4604 34.88 25.5604 33.94 25.5504 32.45C25.5504 30.62 25.5404 28.8 25.5604 26.97C25.5604 26.66 25.4904 26.56 25.1704 26.57C21.7004 26.58 18.2304 26.58 14.7604 26.58C14.1204 26.58 13.8704 26.83 13.8704 27.48C13.8704 32.14 13.8704 36.81 13.8704 41.47C13.8704 42.13 14.1104 42.37 14.7504 42.37C16.2504 42.37 17.7604 42.37 19.2604 42.37C20.0504 42.37 20.3104 42.65 20.2904 43.47C20.2704 44.23 20.2504 44.99 20.2204 45.75C20.2204 45.85 20.2304 45.95 20.2404 46.09C20.3804 46.02 20.4804 45.98 20.5804 45.92C22.5304 44.81 24.4804 43.69 26.4404 42.59C26.6804 42.45 26.9804 42.37 27.2604 42.37C30.1204 42.35 32.9704 42.36 35.8304 42.36C36.5304 42.36 36.7404 42.14 36.7404 41.43C36.7404 39.38 36.7404 37.32 36.7404 35.27C36.7504 35.16 36.7404 35.05 36.7304 34.88Z" fill="black"/>
<path d="M37.2803 24.6899C37.2803 23.7999 37.9603 23.0799 38.8303 23.0699C39.6903 23.0599 40.4103 23.7799 40.4103 24.6599C40.4203 25.5599 39.7003 26.2999 38.8303 26.2999C37.9803 26.3099 37.2803 25.5799 37.2803 24.6899Z" fill="black"/>
<path d="M34.1302 24.7099C34.1202 25.5999 33.4102 26.3199 32.5502 26.3099C31.6902 26.2999 30.9902 25.5699 30.9902 24.6899C30.9902 23.7899 31.7102 23.0699 32.5902 23.0799C33.4502 23.0799 34.1402 23.8099 34.1302 24.7099Z" fill="black"/>
<path d="M46.6908 24.7099C46.6808 25.5999 45.9708 26.3199 45.1108 26.3099C44.2508 26.2999 43.5508 25.5599 43.5508 24.6799C43.5508 23.7799 44.2808 23.0599 45.1608 23.0699C46.0308 23.0899 46.7108 23.8199 46.6908 24.7099Z" fill="black"/>
</svg>
