<svg width="71" height="72" viewBox="0 0 71 72" fill="none" xmlns="http://www.w3.org/2000/svg">
<path d="M35.4597 71.3699C54.9222 71.3699 70.6997 55.5924 70.6997 36.1299C70.6997 16.6674 54.9222 0.889893 35.4597 0.889893C15.9972 0.889893 0.219727 16.6674 0.219727 36.1299C0.219727 55.5924 15.9972 71.3699 35.4597 71.3699Z" fill="#28348A"/>
<path d="M49.7201 17.8698C40.2201 17.8698 30.7201 17.8698 21.2201 17.8698C21.2101 17.8898 21.2001 17.9098 21.1901 17.9298C21.3101 17.9798 21.4301 18.0398 21.5501 18.0798C24.7201 19.1898 27.8901 20.2898 31.0601 21.3998C32.1101 21.7698 32.4301 22.1998 32.4301 23.2898C32.4301 33.3298 32.4301 43.3698 32.4301 53.4098C32.4301 54.5698 32.0801 55.0498 30.9601 55.3298C26.2401 56.5098 21.5201 57.7198 16.7901 58.8298C15.8501 59.0498 14.8201 58.9498 13.8401 58.8798C13.1401 58.8298 12.6501 58.1498 12.6201 57.4398C12.6201 57.3598 12.6201 57.2798 12.6201 57.1998C12.6201 43.6298 12.6201 30.0598 12.6201 16.4998C12.6201 14.8498 13.6101 13.6198 15.1701 13.3298C15.3801 13.2898 15.6001 13.2898 15.8101 13.2898C28.9101 13.2898 42.0201 13.2898 55.1201 13.2898C57.0001 13.2898 58.3101 14.5898 58.3101 16.4598C58.3101 30.0498 58.3101 43.6498 58.3101 57.2398C58.3101 58.3198 57.6901 58.8598 56.6101 58.9398C54.7401 59.0798 52.9801 58.5798 51.2101 58.1298C47.4401 57.1798 43.6601 56.2398 39.8801 55.2998C38.8801 55.0498 38.5001 54.5498 38.5001 53.5298C38.5001 43.4198 38.5001 33.3198 38.5001 23.2098C38.5001 22.2398 38.8401 21.7598 39.7601 21.4398C42.9801 20.3198 46.2001 19.1898 49.4201 18.0698C49.5301 18.0298 49.6301 17.9798 49.7401 17.9398C49.7301 17.9198 49.7301 17.8898 49.7201 17.8698ZM17.2201 57.1598C17.3601 57.1398 17.4601 57.1298 17.5601 57.0998C21.8801 56.0198 26.2001 54.9398 30.5201 53.8698C30.8001 53.7998 30.9101 53.6898 30.9101 53.3898C30.9001 43.3698 30.9001 33.3398 30.9101 23.3198C30.9101 23.0398 30.8201 22.9198 30.5601 22.8298C26.8201 21.5298 23.0901 20.2198 19.3501 18.9198C18.6501 18.6698 17.9401 18.4298 17.2101 18.1798C17.2201 31.1998 17.2201 44.1698 17.2201 57.1598ZM53.7201 57.1798C53.7201 44.1498 53.7201 31.1898 53.7201 18.1798C53.5401 18.2398 53.3901 18.2898 53.2401 18.3398C48.9601 19.8398 44.6901 21.3298 40.4101 22.8198C40.1301 22.9198 40.0201 23.0398 40.0201 23.3498C40.0301 33.3498 40.0301 43.3398 40.0201 53.3398C40.0201 53.6698 40.1301 53.7898 40.4501 53.8698C43.9401 54.7298 47.4301 55.6098 50.9201 56.4798C51.8301 56.7198 52.7501 56.9398 53.7201 57.1798ZM15.6601 57.3798C15.6601 57.1698 15.6601 56.9898 15.6601 56.8098C15.6601 43.9798 15.6601 31.1398 15.6601 18.3098C15.6601 18.1398 15.6501 17.9598 15.6701 17.7898C15.7201 17.1598 16.0301 16.6898 16.6101 16.4598C16.8901 16.3498 17.2101 16.3298 17.5101 16.3298C29.4801 16.3198 41.4401 16.3198 53.4101 16.3298C53.5401 16.3298 53.6801 16.3298 53.8101 16.3398C54.6301 16.3998 55.2201 16.9998 55.2601 17.8298C55.2701 17.9998 55.2601 18.1798 55.2601 18.3498C55.2601 31.1798 55.2601 44.0198 55.2601 56.8498C55.2601 57.0298 55.2601 57.2098 55.2601 57.3898C55.8001 57.3898 56.2801 57.3898 56.7801 57.3898C56.7801 57.2298 56.7801 57.0998 56.7801 56.9698C56.7801 43.5098 56.7801 30.0498 56.7801 16.5898C56.7801 15.4198 56.1901 14.8298 55.0301 14.8298C41.9801 14.8298 28.9301 14.8298 15.8801 14.8298C14.7201 14.8298 14.1301 15.4198 14.1301 16.5798C14.1301 30.0398 14.1301 43.4998 14.1301 56.9598C14.1301 57.0998 14.1301 57.2398 14.1301 57.3998C14.6701 57.3798 15.1401 57.3798 15.6601 57.3798Z" fill="white"/>
<path d="M24.8099 36.4997C24.7999 35.7497 25.0399 35.0797 25.5499 34.5297C26.3999 33.6097 27.7599 33.6097 28.6099 34.5097C29.6199 35.5797 29.6299 37.3697 28.6199 38.4497C27.7399 39.3897 26.3599 39.3697 25.5099 38.4097C25.0299 37.8697 24.7999 37.2297 24.8099 36.4997ZM26.3099 36.5297C26.3699 36.7297 26.3799 36.9797 26.4999 37.1497C26.6499 37.3397 26.8899 37.5797 27.0899 37.5797C27.2899 37.5797 27.5499 37.3397 27.6799 37.1397C27.9099 36.7797 27.8999 36.3497 27.7399 35.9497C27.6299 35.6497 27.4499 35.3797 27.0999 35.3697C26.7199 35.3597 26.5399 35.6397 26.4299 35.9597C26.3699 36.1297 26.3499 36.3197 26.3099 36.5297Z" fill="white"/>
<path d="M46.1198 36.4899C46.1198 37.2699 45.8598 37.9599 45.3098 38.5199C44.4798 39.3599 43.1898 39.3499 42.3598 38.5199C41.2898 37.4399 41.2698 35.5799 42.3298 34.4899C43.1698 33.6199 44.4998 33.6199 45.3298 34.4899C45.8798 35.0499 46.1198 35.7199 46.1198 36.4899ZM44.6298 36.4399C44.5598 36.2299 44.5198 35.9699 44.3998 35.7599C44.1098 35.2299 43.5798 35.2399 43.2798 35.7699C43.0398 36.1899 42.9898 36.6499 43.2198 37.0699C43.3398 37.2999 43.5998 37.5499 43.8398 37.5999C44.1798 37.6799 44.3798 37.3699 44.4898 37.0699C44.5498 36.8799 44.5798 36.6799 44.6298 36.4399Z" fill="white"/>
</svg>
