<svg width="62" height="62" viewBox="0 0 62 62" fill="none" xmlns="http://www.w3.org/2000/svg">
<path d="M31.25 61.0299C47.7025 61.0299 61.04 47.6925 61.04 31.24C61.04 14.7874 47.7025 1.44995 31.25 1.44995C14.7974 1.44995 1.45996 14.7874 1.45996 31.24C1.45996 47.6925 14.7974 61.0299 31.25 61.0299Z" stroke="black" stroke-miterlimit="10"/>
<path d="M41.8602 17.65C34.7902 17.65 27.7202 17.65 20.6402 17.65C20.6302 17.66 20.6302 17.68 20.6202 17.69C20.7102 17.73 20.8002 17.77 20.8902 17.8C23.2502 18.62 25.6102 19.45 27.9702 20.27C28.7502 20.54 28.9902 20.87 28.9902 21.68C28.9902 29.15 28.9902 36.63 28.9902 44.1C28.9902 44.96 28.7302 45.32 27.9002 45.53C24.3902 46.41 20.8802 47.31 17.3502 48.14C16.6502 48.3 15.8802 48.23 15.1502 48.18C14.6302 48.15 14.2602 47.64 14.2402 47.11C14.2402 47.05 14.2402 46.99 14.2402 46.93C14.2402 36.83 14.2402 26.73 14.2402 16.63C14.2402 15.4 14.9802 14.48 16.1402 14.27C16.3002 14.24 16.4602 14.24 16.6202 14.24C26.3702 14.24 36.1302 14.24 45.8802 14.24C47.2802 14.24 48.2602 15.21 48.2602 16.6C48.2602 26.72 48.2602 36.84 48.2602 46.96C48.2602 47.76 47.8002 48.16 47.0002 48.22C45.6102 48.32 44.3002 47.95 42.9802 47.62C40.1702 46.91 37.3602 46.21 34.5502 45.51C33.8102 45.32 33.5202 44.95 33.5202 44.19C33.5202 36.67 33.5202 29.15 33.5202 21.62C33.5202 20.9 33.7702 20.54 34.4602 20.31C36.8602 19.47 39.2502 18.64 41.6502 17.8C41.7302 17.77 41.8102 17.73 41.8902 17.7C41.8702 17.68 41.8702 17.67 41.8602 17.65ZM17.6702 46.9C17.7702 46.88 17.8502 46.88 17.9202 46.86C21.1402 46.06 24.3502 45.25 27.5702 44.46C27.7802 44.41 27.8602 44.33 27.8602 44.1C27.8502 36.64 27.8502 29.18 27.8602 21.72C27.8602 21.51 27.7902 21.42 27.6002 21.36C24.8202 20.39 22.0402 19.42 19.2602 18.45C18.7402 18.27 18.2102 18.09 17.6702 17.9C17.6702 27.57 17.6702 37.22 17.6702 46.9ZM44.8402 46.91C44.8402 37.21 44.8402 27.56 44.8402 17.88C44.7102 17.92 44.5902 17.96 44.4802 18C41.3002 19.11 38.1102 20.23 34.9302 21.34C34.7202 21.41 34.6402 21.51 34.6402 21.74C34.6502 29.18 34.6502 36.62 34.6402 44.06C34.6402 44.31 34.7202 44.4 34.9602 44.46C37.5602 45.1 40.1602 45.75 42.7502 46.4C43.4402 46.57 44.1202 46.73 44.8402 46.91ZM16.5102 47.06C16.5102 46.91 16.5102 46.77 16.5102 46.63C16.5102 37.08 16.5102 27.53 16.5102 17.97C16.5102 17.84 16.5002 17.71 16.5102 17.58C16.5502 17.11 16.7802 16.76 17.2102 16.59C17.4202 16.51 17.6602 16.5 17.8802 16.5C26.7902 16.5 35.6902 16.5 44.6002 16.5C44.7002 16.5 44.8002 16.5 44.9002 16.5C45.5102 16.55 45.9502 16.99 45.9802 17.61C45.9902 17.74 45.9802 17.87 45.9802 18C45.9802 27.55 45.9802 37.1 45.9802 46.66C45.9802 46.79 45.9802 46.93 45.9802 47.06C46.3802 47.06 46.7402 47.06 47.1102 47.06C47.1102 46.94 47.1102 46.84 47.1102 46.74C47.1102 36.72 47.1102 26.7 47.1102 16.68C47.1102 15.81 46.6702 15.37 45.8102 15.37C36.1002 15.37 26.3802 15.37 16.6702 15.37C15.8002 15.37 15.3702 15.81 15.3702 16.67C15.3702 26.69 15.3702 36.71 15.3702 46.73C15.3702 46.84 15.3702 46.94 15.3702 47.05C15.7702 47.06 16.1202 47.06 16.5102 47.06Z" fill="black"/>
<path d="M23.3203 31.5199C23.3203 30.9599 23.4903 30.4599 23.8703 30.0499C24.5003 29.3699 25.5103 29.3599 26.1503 30.0399C26.9003 30.8399 26.9103 32.1699 26.1603 32.9799C25.5103 33.6799 24.4803 33.6699 23.8403 32.9499C23.4903 32.5399 23.3203 32.0599 23.3203 31.5199ZM24.4303 31.5399C24.4703 31.6899 24.4803 31.8799 24.5703 31.9999C24.6803 32.1399 24.8603 32.3199 25.0103 32.3199C25.1603 32.3199 25.3503 32.1399 25.4503 31.9899C25.6203 31.7199 25.6103 31.3999 25.5003 31.0999C25.4203 30.8799 25.2903 30.6799 25.0203 30.6699C24.7403 30.6599 24.6003 30.8699 24.5203 31.1099C24.4803 31.2399 24.4703 31.3799 24.4303 31.5399Z" fill="black"/>
<path d="M39.1903 31.51C39.1903 32.09 39.0002 32.6 38.5902 33.02C37.9702 33.64 37.0102 33.64 36.4002 33.02C35.6002 32.22 35.5903 30.84 36.3803 30.02C37.0103 29.37 37.9902 29.37 38.6202 30.02C39.0002 30.44 39.1903 30.94 39.1903 31.51ZM38.0703 31.47C38.0203 31.31 37.9902 31.12 37.9002 30.96C37.6802 30.57 37.2902 30.57 37.0602 30.96C36.8802 31.27 36.8503 31.62 37.0103 31.93C37.1003 32.1 37.2903 32.28 37.4703 32.33C37.7203 32.39 37.8702 32.16 37.9602 31.93C38.0202 31.8 38.0303 31.65 38.0703 31.47Z" fill="black"/>
</svg>
