<svg width="62" height="62" viewBox="0 0 62 62" fill="none" xmlns="http://www.w3.org/2000/svg">
<path d="M21.5001 20.31C22.4501 20.42 23.3401 20.23 24.2301 20.05C25.6401 19.76 27.0601 19.57 28.4801 20.02C29.0701 20.21 29.6301 20.49 30.2001 20.75C30.3901 20.84 30.5301 20.89 30.7301 20.76C32.6901 19.59 34.7301 19.49 36.8401 20.29C37.5901 20.58 38.3401 20.89 39.1001 21.16C39.5901 21.34 40.1001 21.45 40.6401 21.26C40.6001 21.05 40.5601 20.86 40.5401 20.68C40.4401 19.79 40.8901 19 41.7101 18.68C42.7601 18.26 43.8201 17.87 44.8901 17.5C45.9301 17.15 46.9401 17.69 47.3401 18.78C48.4201 21.67 49.4901 24.56 50.5601 27.45C50.9601 28.54 51.3701 29.62 51.7701 30.71C52.2201 31.95 51.7601 32.96 50.5101 33.43C49.6201 33.76 48.7301 34.09 47.8401 34.42C46.6401 34.86 45.7201 34.49 45.1601 33.35C45.1401 33.31 45.1101 33.27 45.0001 33.24C45.0001 33.35 45.0101 33.47 45.0001 33.58C44.9401 34.12 44.9701 34.69 44.7901 35.19C44.3801 36.38 43.3201 36.88 42.1001 36.56C42.0401 36.54 41.9801 36.53 41.8701 36.5C41.9201 37.51 41.6301 38.37 40.8401 39C40.0401 39.63 39.1401 39.73 38.1501 39.43C38.1401 41.31 37.1901 42.32 35.3101 42.52C35.4201 43.54 35.1201 44.4 34.2501 44.99C33.3501 45.59 32.4701 45.37 31.5701 44.85C31.0001 45.92 30.2301 46.72 28.9201 46.51C27.7101 46.32 26.9901 45.51 26.5901 44.37C24.9301 44.93 23.6901 44.48 22.8801 42.86C21.8601 43.44 20.8401 43.48 19.8701 42.8C18.8901 42.11 18.6501 41.1 18.8601 39.91C18.7101 39.91 18.5901 39.91 18.4601 39.91C16.5501 39.87 15.3201 37.91 16.1301 36.17C16.3401 35.72 16.6001 35.3 16.8201 34.86C16.8901 34.73 16.9101 34.59 16.9601 34.44C16.8701 34.42 16.8401 34.41 16.8301 34.42C16.1301 34.95 15.3801 34.95 14.5801 34.66C13.7701 34.37 12.9501 34.13 12.1301 33.87C10.7801 33.43 10.2801 32.47 10.7201 31.11C12.0101 27.1 13.3101 23.08 14.6101 19.07C14.9901 17.88 16.0001 17.37 17.1901 17.74C18.1001 18.02 18.9901 18.34 19.9001 18.6C20.7701 18.84 21.3201 19.38 21.5001 20.31ZM29.4401 21.61C29.2701 21.52 29.1501 21.45 29.0301 21.39C27.7901 20.8 26.5001 20.78 25.1701 20.99C24.0201 21.17 22.8601 21.32 21.6901 21.43C21.4001 21.46 21.2601 21.51 21.1701 21.8C20.6001 23.62 20.0001 25.44 19.4201 27.26C18.9501 28.72 18.4701 30.18 18.0301 31.65C17.9101 32.05 17.9101 32.49 17.8601 32.91C19.7701 31.41 22.1101 32.44 22.4901 34.75C24.7901 34.86 25.1601 35.13 25.8501 37.27C26.7401 37.08 27.5501 37.24 28.2501 37.84C28.9501 38.44 29.2001 39.24 29.1601 40.13C29.5301 40.13 29.8701 40.13 30.3001 40.13C30.1201 40.01 30.0201 39.95 29.9201 39.88C29.6501 39.68 29.5601 39.43 29.7301 39.13C29.8901 38.86 30.1401 38.78 30.4401 38.9C30.5601 38.95 30.6701 39.01 30.7901 39.07C32.0901 39.76 33.3801 40.46 34.6901 41.14C35.4801 41.55 36.4001 41.26 36.8201 40.51C37.2301 39.77 36.9901 38.88 36.2401 38.4C36.0901 38.3 35.9301 38.21 35.7701 38.13C34.6601 37.53 33.5401 36.94 32.4301 36.34C32.0801 36.15 31.9801 35.86 32.1201 35.57C32.2801 35.26 32.5901 35.18 32.9601 35.36C33.0501 35.41 33.1401 35.46 33.2401 35.51C34.9401 36.42 36.6301 37.34 38.3301 38.25C38.9301 38.57 39.5401 38.56 40.1001 38.16C40.6401 37.77 40.8301 37.22 40.7201 36.58C40.6301 36.04 40.3001 35.67 39.8301 35.42C38.2001 34.54 36.5801 33.66 34.9601 32.77C34.8301 32.7 34.7001 32.64 34.6001 32.54C34.4001 32.35 34.3201 32.08 34.5101 31.88C34.6601 31.73 34.9201 31.67 35.1401 31.63C35.2401 31.61 35.3701 31.72 35.4901 31.79C37.0201 32.62 38.5501 33.46 40.0901 34.28C40.7901 34.66 41.4801 35.04 42.2001 35.39C42.9401 35.75 43.5401 35.48 43.8001 34.7C44.0501 33.95 43.9601 33.23 43.3801 32.67C42.9401 32.25 42.4601 31.86 41.9401 31.55C40.8901 30.93 39.8001 30.36 38.7201 29.78C37.7601 29.27 36.7501 28.82 35.8201 28.26C35.1801 27.88 34.5401 27.72 33.8501 27.88C33.2101 28.03 32.5801 28.25 31.9501 28.45C31.1101 28.72 30.2801 29.05 29.4201 29.25C27.4901 29.71 25.9201 29.09 24.7001 27.52C24.4501 27.21 24.4301 26.91 24.6401 26.59C24.8501 26.28 25.0601 25.95 25.3201 25.69C26.5701 24.42 27.8401 23.17 29.1101 21.91C29.1901 21.83 29.3001 21.74 29.4401 21.61ZM41.0601 22.32C40.1301 22.65 39.2901 22.45 38.4601 22.14C37.8301 21.9 37.2001 21.64 36.5801 21.38C34.4301 20.49 32.3901 20.74 30.5901 22.2C29.3101 23.24 28.1501 24.43 26.9601 25.57C26.5701 25.95 26.2101 26.37 25.8601 26.79C25.8001 26.87 25.8001 27.1 25.8601 27.17C26.5501 27.95 27.4101 28.37 28.4501 28.27C28.9801 28.22 29.5001 28.1 30.0101 27.94C30.8801 27.67 31.7301 27.33 32.5901 27.04C33.9701 26.58 35.3201 26.5 36.5701 27.44C36.7001 27.54 36.8601 27.6 37.0201 27.68C38.3901 28.38 39.7601 29.06 41.1201 29.78C42.2501 30.38 43.3401 31.03 44.2501 31.96C44.3401 32.05 44.4901 32.09 44.6101 32.15C44.6001 32.02 44.6201 31.88 44.5701 31.76C43.7301 29.48 42.8801 27.2 42.0301 24.92C41.7201 24.07 41.4001 23.22 41.0601 22.32ZM45.4301 18.53C45.3701 18.54 45.2801 18.54 45.2001 18.58C44.1901 18.95 43.1701 19.32 42.1701 19.72C41.6901 19.91 41.5301 20.33 41.7201 20.85C43.2001 24.85 44.6901 28.85 46.1701 32.85C46.4001 33.46 46.7901 33.63 47.4101 33.41C48.2901 33.09 49.1701 32.76 50.0401 32.43C50.8201 32.14 50.9701 31.81 50.6801 31.02C49.7901 28.62 48.8901 26.22 48.0001 23.81C47.4301 22.26 46.8501 20.71 46.2801 19.16C46.1401 18.77 45.8901 18.54 45.4301 18.53ZM20.3701 20.59C20.3701 20.15 20.1501 19.86 19.7001 19.72C18.7701 19.41 17.8401 19.11 16.9201 18.82C16.2401 18.6 15.8601 18.79 15.6401 19.49C14.3501 23.5 13.0501 27.51 11.7601 31.52C11.5401 32.19 11.7301 32.55 12.4101 32.77C13.3001 33.06 14.1901 33.35 15.0801 33.64C15.8201 33.88 16.1701 33.7 16.4101 32.95C17.7001 28.96 18.9801 24.98 20.2601 20.99C20.3101 20.83 20.3401 20.68 20.3701 20.59ZM19.8601 40.65C19.9201 41.38 20.3301 41.92 21.0001 42.11C21.6701 42.3 22.3701 42.02 22.7301 41.38C23.3301 40.3 23.9101 39.21 24.4801 38.11C24.8801 37.33 24.6001 36.44 23.8701 36.06C23.1201 35.66 22.2301 35.94 21.8001 36.72C21.2301 37.76 20.6701 38.8 20.1301 39.85C20.0001 40.09 19.9501 40.38 19.8601 40.65ZM18.6901 38.78C19.0901 38.77 19.5401 38.53 19.8201 38.04C20.2801 37.21 20.7301 36.38 21.1601 35.53C21.5401 34.78 21.2501 33.97 20.4901 33.53C19.8501 33.16 18.9401 33.39 18.5401 34.06C18.0401 34.91 17.5601 35.78 17.1501 36.67C16.6701 37.68 17.4201 38.79 18.6901 38.78ZM25.5801 43.47C25.9501 43.46 26.3901 43.25 26.6601 42.79C27.1001 42.02 27.5301 41.25 27.9101 40.45C28.2501 39.74 27.9501 38.91 27.2701 38.53C26.5801 38.15 25.6801 38.35 25.2801 39.03C24.8301 39.79 24.4001 40.57 24.0401 41.37C23.5701 42.39 24.3101 43.49 25.5801 43.47ZM29.6301 41.27C29.2101 41.28 28.7301 41.52 28.4101 42.01C28.1501 42.4 27.9301 42.82 27.7501 43.24C27.4501 43.95 27.9001 44.9 28.6901 45.28C29.3701 45.61 29.9601 45.4 30.4101 44.62C30.6801 44.16 30.9301 43.68 31.1301 43.19C31.5401 42.17 30.9001 41.27 29.6301 41.27ZM31.7701 40.9C32.1101 41.33 32.4101 41.77 32.3901 42.3C32.3801 42.81 32.2501 43.32 32.1701 43.85C32.9901 44.47 33.8801 44.26 34.1501 43.33C34.3101 42.79 34.1201 42.22 33.6101 41.9C33.0101 41.55 32.3801 41.24 31.7701 40.9Z" fill="black"/>
<path d="M31.25 61.5299C14.55 61.5299 0.959961 47.94 0.959961 31.24C0.959961 14.54 14.55 0.949951 31.25 0.949951C47.95 0.949951 61.54 14.54 61.54 31.24C61.54 47.94 47.95 61.5299 31.25 61.5299ZM31.25 1.94995C15.1 1.94995 1.95996 15.09 1.95996 31.24C1.95996 47.39 15.1 60.5299 31.25 60.5299C47.4 60.5299 60.54 47.39 60.54 31.24C60.54 15.09 47.4 1.94995 31.25 1.94995Z" fill="black"/>
</svg>
