<svg width="72" height="71" viewBox="0 0 72 71" fill="none" xmlns="http://www.w3.org/2000/svg">
<path d="M35.7703 70.5C55.2328 70.5 71.0103 54.7225 71.0103 35.26C71.0103 15.7975 55.2328 0.0200195 35.7703 0.0200195C16.3078 0.0200195 0.530273 15.7975 0.530273 35.26C0.530273 54.7225 16.3078 70.5 35.7703 70.5Z" fill="#28348A"/>
<path d="M22.4805 19.37C23.7705 19.52 24.9805 19.26 26.2005 19.01C28.1305 18.62 30.0605 18.36 31.9905 18.97C32.7905 19.23 33.5605 19.61 34.3305 19.97C34.5905 20.09 34.7805 20.16 35.0505 19.99C37.7205 18.4 40.5105 18.26 43.3805 19.36C44.4105 19.75 45.4205 20.17 46.4505 20.55C47.1205 20.79 47.8105 20.95 48.5505 20.69C48.5005 20.4 48.4405 20.15 48.4105 19.89C48.2805 18.68 48.8805 17.61 50.0105 17.16C51.4405 16.59 52.8905 16.05 54.3505 15.56C55.7705 15.08 57.1405 15.82 57.6905 17.31C59.1605 21.25 60.6205 25.19 62.0805 29.13C62.6305 30.61 63.1905 32.09 63.7305 33.57C64.3505 35.26 63.7105 36.64 62.0205 37.27C60.8105 37.73 59.5905 38.17 58.3805 38.62C56.7405 39.22 55.5005 38.72 54.7305 37.16C54.7005 37.1 54.6605 37.05 54.5105 37.01C54.5105 37.16 54.5205 37.32 54.5105 37.47C54.4305 38.2 54.4605 38.98 54.2305 39.66C53.6605 41.28 52.2305 41.96 50.5705 41.53C50.4905 41.51 50.4005 41.49 50.2505 41.45C50.3205 42.83 49.9305 44 48.8505 44.86C47.7605 45.72 46.5305 45.85 45.1905 45.44C45.1805 48 43.8805 49.38 41.3205 49.65C41.4705 51.04 41.0605 52.22 39.8705 53.01C38.6505 53.83 37.4405 53.53 36.2205 52.82C35.4405 54.28 34.4005 55.36 32.6105 55.08C30.9605 54.82 29.9805 53.72 29.4305 52.16C27.1705 52.93 25.4705 52.3 24.3805 50.11C22.9905 50.9 21.5905 50.96 20.2805 50.02C18.9505 49.07 18.6105 47.71 18.9005 46.08C18.7005 46.08 18.5305 46.08 18.3605 46.08C15.7605 46.02 14.0805 43.35 15.1805 40.99C15.4605 40.38 15.8105 39.8 16.1205 39.2C16.2105 39.03 16.2505 38.83 16.3105 38.63C16.1905 38.61 16.1505 38.58 16.1305 38.6C15.1705 39.32 14.1505 39.33 13.0605 38.93C11.9605 38.53 10.8405 38.21 9.72051 37.85C7.87051 37.26 7.1905 35.94 7.7905 34.09C9.5505 28.62 11.3205 23.15 13.0905 17.69C13.6105 16.07 14.9805 15.37 16.6105 15.88C17.8405 16.27 19.0705 16.69 20.3105 17.06C21.4905 17.38 22.2305 18.1 22.4805 19.37ZM33.3005 21.15C33.0705 21.03 32.9105 20.93 32.7405 20.85C31.0505 20.04 29.2905 20.02 27.4805 20.31C25.9105 20.56 24.3305 20.76 22.7405 20.91C22.3405 20.95 22.1605 21.02 22.0305 21.41C21.2505 23.9 20.4405 26.37 19.6405 28.86C19.0005 30.85 18.3505 32.84 17.7505 34.85C17.5905 35.4 17.5905 36 17.5105 36.57C20.1105 34.53 23.3105 35.92 23.8105 39.08C26.9505 39.22 27.4505 39.6 28.3905 42.52C29.6005 42.26 30.7105 42.48 31.6705 43.3C32.6305 44.12 32.9605 45.21 32.9105 46.42C33.4205 46.42 33.8805 46.42 34.4605 46.42C34.2205 46.26 34.0705 46.17 33.9405 46.07C33.5705 45.8 33.4505 45.45 33.6805 45.05C33.8905 44.68 34.2405 44.57 34.6405 44.74C34.8005 44.81 34.9605 44.89 35.1205 44.98C36.8905 45.92 38.6505 46.88 40.4305 47.8C41.5105 48.36 42.7605 47.96 43.3305 46.94C43.8905 45.93 43.5605 44.71 42.5505 44.06C42.3405 43.93 42.1205 43.81 41.9005 43.69C40.3805 42.88 38.8605 42.07 37.3505 41.25C36.8805 40.99 36.7305 40.59 36.9305 40.19C37.1405 39.77 37.5705 39.66 38.0705 39.9C38.2005 39.96 38.3205 40.03 38.4505 40.1C40.7605 41.34 43.0705 42.59 45.3905 43.83C46.2105 44.27 47.0405 44.25 47.8005 43.7C48.5305 43.17 48.7905 42.42 48.6505 41.55C48.5305 40.81 48.0805 40.31 47.4405 39.96C45.2305 38.76 43.0105 37.56 40.8005 36.35C40.6305 36.26 40.4505 36.17 40.3105 36.04C40.0305 35.78 39.9305 35.41 40.1905 35.14C40.3905 34.94 40.7505 34.86 41.0505 34.8C41.1905 34.77 41.3705 34.93 41.5205 35.01C43.6105 36.14 45.7005 37.28 47.7905 38.41C48.7405 38.92 49.6905 39.45 50.6605 39.92C51.6705 40.41 52.4905 40.05 52.8505 38.99C53.2005 37.97 53.0705 36.99 52.2805 36.23C51.6805 35.66 51.0205 35.13 50.3105 34.71C48.8805 33.86 47.4005 33.09 45.9305 32.3C44.6205 31.6 43.2505 30.99 41.9805 30.22C41.1105 29.7 40.2405 29.49 39.2905 29.7C38.4105 29.9 37.5605 30.2 36.7005 30.48C35.5505 30.84 34.4305 31.3 33.2605 31.57C30.6205 32.19 28.4805 31.35 26.8205 29.22C26.4905 28.79 26.4505 28.39 26.7405 27.96C27.0305 27.54 27.3105 27.09 27.6605 26.73C29.3705 25 31.1005 23.3 32.8205 21.58C32.9605 21.45 33.1105 21.33 33.3005 21.15ZM49.1405 22.12C47.8705 22.57 46.7205 22.3 45.5905 21.88C44.7305 21.56 43.8805 21.2 43.0205 20.85C40.0805 19.64 37.3105 19.98 34.8605 21.96C33.1205 23.37 31.5405 25 29.9105 26.55C29.3705 27.06 28.8905 27.64 28.4205 28.21C28.3305 28.32 28.3405 28.63 28.4305 28.73C29.3605 29.79 30.5405 30.36 31.9605 30.22C32.6805 30.15 33.4005 29.99 34.0905 29.77C35.2705 29.4 36.4305 28.94 37.6005 28.55C39.4805 27.92 41.3205 27.81 43.0205 29.09C43.2005 29.23 43.4205 29.31 43.6305 29.42C45.4905 30.37 47.3705 31.3 49.2205 32.28C50.7605 33.09 52.2505 33.98 53.4805 35.25C53.6005 35.38 53.8105 35.43 53.9705 35.51C53.9605 35.33 53.9805 35.14 53.9205 34.98C52.7705 31.87 51.6105 28.76 50.4605 25.65C50.0405 24.5 49.6005 23.34 49.1405 22.12ZM55.1005 16.95C55.0205 16.96 54.9005 16.97 54.7805 17.01C53.4005 17.52 52.0205 18.02 50.6505 18.56C50.0005 18.82 49.7805 19.39 50.0405 20.1C52.0605 25.55 54.0805 31 56.1105 36.45C56.4205 37.28 56.9605 37.51 57.7905 37.21C58.9905 36.77 60.1805 36.32 61.3805 35.87C62.4405 35.47 62.6505 35.02 62.2505 33.94C61.0305 30.67 59.8205 27.39 58.6005 24.12C57.8205 22.01 57.0405 19.9 56.2505 17.79C56.0605 17.27 55.7205 16.96 55.1005 16.95ZM20.9405 19.75C20.9405 19.14 20.6305 18.76 20.0305 18.56C18.7705 18.14 17.5005 17.73 16.2405 17.33C15.3105 17.03 14.8005 17.3 14.5005 18.24C12.7405 23.71 10.9805 29.17 9.22051 34.64C8.93051 35.55 9.18051 36.05 10.1005 36.35C11.3105 36.75 12.5305 37.14 13.7405 37.53C14.7405 37.85 15.2205 37.61 15.5505 36.59C17.3005 31.16 19.0505 25.72 20.8005 20.29C20.8605 20.09 20.9105 19.88 20.9405 19.75ZM20.2405 47.09C20.3205 48.08 20.8805 48.82 21.8005 49.08C22.7205 49.34 23.6705 48.96 24.1605 48.08C24.9705 46.6 25.7705 45.12 26.5405 43.62C27.0905 42.56 26.7105 41.35 25.7105 40.82C24.6805 40.28 23.4705 40.65 22.8905 41.72C22.1205 43.14 21.3505 44.56 20.6105 45.99C20.4405 46.33 20.3605 46.72 20.2405 47.09ZM18.6505 44.54C19.2005 44.52 19.8105 44.2 20.1905 43.53C20.8205 42.4 21.4405 41.26 22.0205 40.11C22.5405 39.09 22.1505 37.99 21.1005 37.39C20.2305 36.89 18.9905 37.19 18.4505 38.12C17.7705 39.28 17.1205 40.46 16.5505 41.68C15.9005 43.05 16.9305 44.55 18.6505 44.54ZM28.0505 50.94C28.5505 50.93 29.1605 50.64 29.5205 50.02C30.1205 48.98 30.7005 47.92 31.2205 46.83C31.6905 45.87 31.2705 44.73 30.3505 44.22C29.4105 43.7 28.1805 43.97 27.6405 44.9C27.0305 45.94 26.4405 47 25.9405 48.09C25.3005 49.47 26.3105 50.96 28.0505 50.94ZM33.5505 47.93C32.9705 47.94 32.3205 48.27 31.8805 48.93C31.5305 49.46 31.2205 50.03 30.9705 50.61C30.5605 51.57 31.1805 52.87 32.2505 53.4C33.1705 53.85 33.9805 53.56 34.5905 52.5C34.9505 51.87 35.2905 51.23 35.5705 50.56C36.1605 49.17 35.3005 47.94 33.5505 47.93ZM36.4805 47.44C36.9405 48.03 37.3505 48.62 37.3205 49.35C37.3005 50.04 37.1305 50.74 37.0205 51.47C38.1405 52.31 39.3505 52.02 39.7205 50.76C39.9305 50.02 39.6805 49.24 38.9805 48.81C38.1705 48.31 37.3105 47.89 36.4805 47.44Z" fill="white"/>
</svg>
