<svg width="71" height="72" viewBox="0 0 71 72" fill="none" xmlns="http://www.w3.org/2000/svg">
<path d="M35.7303 71.3699C55.1928 71.3699 70.9702 55.5924 70.9702 36.1299C70.9702 16.6674 55.1928 0.889893 35.7303 0.889893C16.2677 0.889893 0.490234 16.6674 0.490234 36.1299C0.490234 55.5924 16.2677 71.3699 35.7303 71.3699Z" fill="#28348A"/>
<path d="M30.0206 23.2599C32.1706 23.2699 33.7606 23.5999 35.3106 24.2399C35.5606 24.3399 35.9207 24.3499 36.1607 24.2499C42.9207 21.3999 50.4506 24.7899 53.2706 31.9799C53.9306 33.6599 54.2806 35.4099 54.3006 37.2299C54.3206 39.3899 55.0606 41.1799 56.4906 42.6699C57.0906 43.2899 57.6706 43.9199 58.2506 44.5499C59.3406 45.7399 59.7107 47.1699 59.4706 48.7999C59.4407 49.0099 59.5707 49.2499 59.6407 49.4599C59.6707 49.5399 59.7506 49.5899 59.8106 49.6499C61.2506 51.1899 61.3506 53.1099 60.0006 54.7399C59.0706 55.8599 58.0706 56.9299 57.0306 57.9399C55.5206 59.3899 53.7106 59.2799 52.3006 57.7299C52.0306 57.4299 51.8007 57.3199 51.3807 57.4199C50.0407 57.7499 48.8307 57.4099 47.8207 56.3899C47.1807 55.7399 46.5706 55.0599 45.9706 54.3699C44.5906 52.7599 42.9007 51.8399 40.8507 51.7599C39.2007 51.6999 37.6106 51.3499 36.0606 50.6999C35.8506 50.6099 35.5607 50.6199 35.3507 50.7099C33.8207 51.3499 32.2506 51.7099 30.6106 51.7499C28.7806 51.7899 27.2407 52.5299 25.9507 53.9199C25.2507 54.6799 24.5406 55.4299 23.8306 56.1899C22.7206 57.3799 21.4207 57.7899 19.8907 57.3999C19.7207 57.3599 19.5006 57.4999 19.3106 57.5699C19.2506 57.5899 19.2107 57.6699 19.1607 57.7199C17.6807 59.3099 15.9806 59.4199 14.4006 57.9199C13.4006 56.9699 12.5106 55.8999 11.5806 54.8699C11.3906 54.6599 11.2407 54.4099 11.1007 54.1699C10.1207 52.5199 10.2707 51.0699 11.5707 49.6999C11.9007 49.3599 12.0406 49.0799 11.9606 48.5399C11.7206 46.9399 12.2007 45.5699 13.2907 44.4399C13.9807 43.7199 14.6706 42.9899 15.3306 42.2399C16.4706 40.9499 17.0906 39.3999 17.1206 37.6199C17.2006 33.7699 18.3807 30.3899 20.8907 27.6199C23.5507 24.7099 26.7706 23.2999 30.0206 23.2599ZM24.5506 52.5399C24.6606 52.5099 24.6807 52.5099 24.6907 52.4999C24.7807 52.4199 24.8706 52.3399 24.9606 52.2499C26.3006 50.8999 27.8807 50.0899 29.6907 49.8499C30.6407 49.7199 31.6206 49.7399 32.5606 49.5599C39.9206 48.1699 44.0607 39.1799 40.6707 32.0199C40.0707 30.7599 39.3207 29.6299 38.3807 28.6399C38.0907 28.3299 37.9307 27.9399 38.1307 27.5599C38.2707 27.2899 38.5707 26.9699 38.8207 26.9599C39.1207 26.9399 39.5106 27.1399 39.7406 27.3799C45.4106 33.3699 44.7906 43.6399 38.4606 48.8099C38.3006 48.9399 38.1406 49.0799 37.9706 49.2199C37.9806 49.2899 38.0007 49.3599 38.0107 49.4299C39.0607 49.5499 40.1007 49.7299 41.1607 49.7899C42.8507 49.8899 44.3606 50.4599 45.7206 51.5299C46.1106 51.8399 46.4707 52.1899 46.9207 52.5899C49.6407 49.6899 52.3507 46.7999 55.0707 43.8999C54.8907 43.6699 54.8107 43.5699 54.7307 43.4799C53.5107 42.0299 52.7807 40.3399 52.5707 38.4099C52.4907 37.6899 52.5007 36.9599 52.4407 36.2299C51.9506 30.4399 47.5507 25.6499 42.1407 25.1899C37.2807 24.7899 33.5907 27.0699 31.1707 31.5099C28.7407 35.9599 29.1106 40.3999 31.8006 44.6399C32.0006 44.9499 32.2307 45.2399 32.4407 45.5499C32.7907 46.0599 32.7606 46.5999 32.3606 46.9699C31.9806 47.3199 31.4506 47.2599 31.0606 46.7999C30.8506 46.5599 30.6607 46.3099 30.4706 46.0499C28.2407 42.8499 27.4906 39.2399 28.0306 35.3299C28.5706 31.3899 30.3107 28.1799 33.3807 25.8799C33.4507 25.8299 33.5407 25.8299 33.6307 25.8099C33.5907 25.7299 33.5506 25.6599 33.5206 25.5799C32.8306 25.4599 32.1407 25.2799 31.4407 25.2199C24.8607 24.5799 19.1907 30.0199 19.0107 37.1699C18.9507 39.6499 18.2207 41.7899 16.6607 43.6099C16.6107 43.6699 16.5706 43.7599 16.4906 43.8999C16.9006 44.3199 17.3107 44.7199 17.7007 45.1399C18.2907 45.7599 18.8807 46.3899 19.4507 47.0299C19.8407 47.4699 19.8406 47.9999 19.4906 48.3999C19.1306 48.8099 18.6206 48.8099 18.1806 48.3999C18.0506 48.2799 17.9407 48.1499 17.8207 48.0099C16.9707 47.0599 16.1106 46.1099 15.1806 45.0699C14.8406 45.4799 14.5807 45.7899 14.3207 46.0999C13.5507 47.0299 13.5206 48.4899 14.3306 49.3799C16.0306 51.2499 17.7506 53.0999 19.4906 54.9299C20.2506 55.7399 21.4007 55.7999 22.2307 55.1199C22.6307 54.7899 22.9607 54.3899 23.3507 53.9899C23.1907 53.7999 23.0707 53.6599 22.9407 53.5199C22.2407 52.7599 21.5206 52.0099 20.8306 51.2399C20.3606 50.7099 20.4406 49.9799 21.0006 49.6699C21.4506 49.4199 21.8407 49.5799 22.1907 49.9499C22.9707 50.8299 23.7706 51.6899 24.5506 52.5399ZM56.4006 45.3299C53.6606 48.2699 50.9506 51.1799 48.2106 54.1199C48.4406 54.3499 48.7107 54.6299 48.9807 54.8999C49.9107 55.8299 51.1707 55.8499 52.0707 54.8899C53.7707 53.0699 55.4506 51.2299 57.1506 49.4099C57.5306 48.9999 57.6907 48.5099 57.7206 47.9399C57.8007 46.7099 57.1106 45.9599 56.4006 45.3299ZM13.0707 50.9299C12.2207 51.6899 12.1106 52.2399 12.6206 53.1199C12.7006 53.2599 12.7807 53.3999 12.8907 53.5199C13.8007 54.5099 14.6906 55.5399 15.6506 56.4699C16.3706 57.1699 17.2307 57.3999 17.9807 56.2399C16.3507 54.4699 14.7207 52.7099 13.0707 50.9299ZM58.4507 50.9699C56.7907 52.7499 55.1606 54.4999 53.5206 56.2499C54.1706 57.1999 54.8607 57.2999 55.6407 56.5899C56.7607 55.5799 57.7906 54.4499 58.7506 53.2599C59.4806 52.3699 59.2907 51.6699 58.4507 50.9699Z" fill="white"/>
<path d="M40.3502 21.5599C39.4602 21.5399 39.0602 20.7999 39.3902 20.0899C39.7802 19.2499 40.2102 18.4199 40.6302 17.5899C40.8502 17.1599 41.0502 16.7199 41.2802 16.2999C41.5602 15.7899 42.0502 15.6299 42.4902 15.8699C42.9502 16.1199 43.1202 16.6799 42.8602 17.2199C42.2502 18.4799 41.6402 19.7299 40.9802 20.9599C40.8302 21.2599 40.4902 21.4399 40.3502 21.5599Z" fill="white"/>
<path d="M32.2207 20.49C32.1707 21.02 31.9907 21.36 31.5607 21.49C31.1107 21.63 30.7507 21.45 30.5307 21.03C30.1807 20.39 29.8707 19.72 29.5407 19.07C29.2507 18.49 28.9606 17.92 28.6806 17.34C28.3806 16.72 28.5006 16.16 28.9906 15.88C29.4606 15.62 29.9607 15.81 30.2507 16.39C30.8507 17.57 31.4406 18.75 32.0206 19.94C32.1206 20.14 32.1707 20.35 32.2207 20.49Z" fill="white"/>
<path d="M36.641 16.21C36.641 16.84 36.651 17.48 36.641 18.11C36.631 18.78 36.281 19.18 35.741 19.18C35.201 19.17 34.861 18.77 34.861 18.09C34.851 16.86 34.851 15.62 34.861 14.39C34.861 13.72 35.211 13.3 35.741 13.29C36.291 13.28 36.641 13.7 36.651 14.41C36.651 15.01 36.641 15.61 36.641 16.21Z" fill="white"/>
<path d="M44.8302 27.98C44.9502 28.02 45.2102 28.07 45.4302 28.2C47.0602 29.16 48.3902 30.47 49.3702 32.17C49.5002 32.4 49.6102 32.65 49.6802 32.91C49.8602 33.51 49.7002 33.93 49.2502 34.14C48.7702 34.37 48.3402 34.22 48.0602 33.67C47.4402 32.44 46.6402 31.38 45.5602 30.58C45.1602 30.28 44.7202 30.06 44.3002 29.78C43.9102 29.53 43.7202 29.16 43.8502 28.67C43.9602 28.24 44.2502 27.98 44.8302 27.98Z" fill="white"/>
</svg>
