<svg width="61" height="62" viewBox="0 0 61 62" fill="none" xmlns="http://www.w3.org/2000/svg">
<path d="M30.5097 61.0299C46.9623 61.0299 60.2997 47.6925 60.2997 31.24C60.2997 14.7874 46.9623 1.44995 30.5097 1.44995C14.0572 1.44995 0.719727 14.7874 0.719727 31.24C0.719727 47.6925 14.0572 61.0299 30.5097 61.0299Z" stroke="black" stroke-miterlimit="10"/>
<path d="M26.2595 21.66C27.8595 21.67 29.0495 21.91 30.1995 22.39C30.3895 22.47 30.6495 22.47 30.8395 22.39C35.8695 20.27 41.4795 22.79 43.5695 28.14C44.0595 29.39 44.3195 30.69 44.3395 32.05C44.3495 33.66 44.8995 34.99 45.9695 36.1C46.4095 36.56 46.8495 37.03 47.2795 37.5C48.0895 38.38 48.3595 39.45 48.1895 40.67C48.1695 40.82 48.2595 41 48.3195 41.16C48.3395 41.22 48.4095 41.26 48.4495 41.3C49.5195 42.45 49.5995 43.88 48.5895 45.09C47.8895 45.92 47.1495 46.72 46.3795 47.47C45.2595 48.55 43.9095 48.47 42.8595 47.31C42.6595 47.09 42.4895 47.01 42.1795 47.08C41.1795 47.32 40.2795 47.07 39.5295 46.31C39.0595 45.83 38.5995 45.32 38.1595 44.81C37.1295 43.61 35.8795 42.92 34.3495 42.87C33.1195 42.82 31.9395 42.56 30.7895 42.08C30.6395 42.02 30.4195 42.02 30.2595 42.09C29.1195 42.57 27.9495 42.84 26.7295 42.86C25.3695 42.89 24.2195 43.44 23.2595 44.47C22.7395 45.04 22.2095 45.6 21.6795 46.16C20.8595 47.04 19.8795 47.35 18.7495 47.06C18.6195 47.03 18.4595 47.13 18.3195 47.18C18.2795 47.2 18.2495 47.25 18.2095 47.29C17.1095 48.47 15.8395 48.56 14.6695 47.44C13.9295 46.73 13.2595 45.93 12.5695 45.17C12.4295 45.02 12.3195 44.83 12.2095 44.65C11.4795 43.42 11.5895 42.34 12.5595 41.32C12.7995 41.07 12.9095 40.86 12.8495 40.46C12.6695 39.27 13.0295 38.25 13.8395 37.41C14.3495 36.87 14.8595 36.33 15.3595 35.77C16.2095 34.81 16.6695 33.66 16.6995 32.33C16.7595 29.46 17.6395 26.95 19.5095 24.88C21.4495 22.74 23.8395 21.69 26.2595 21.66ZM22.1895 43.46C22.2695 43.44 22.2895 43.44 22.2995 43.43C22.3695 43.37 22.4295 43.31 22.4995 43.24C23.4895 42.24 24.6695 41.64 26.0195 41.45C26.7295 41.35 27.4495 41.37 28.1595 41.23C33.6395 40.19 36.7195 33.51 34.1995 28.17C33.7595 27.23 33.1895 26.39 32.4995 25.66C32.2895 25.43 32.1595 25.14 32.3095 24.85C32.4095 24.65 32.6395 24.41 32.8195 24.4C33.0395 24.39 33.3295 24.53 33.4995 24.71C37.7195 29.17 37.2595 36.81 32.5495 40.66C32.4295 40.76 32.3095 40.86 32.1895 40.96C32.1995 41.01 32.2095 41.07 32.2195 41.12C32.9995 41.21 33.7795 41.34 34.5595 41.39C35.8095 41.47 36.9495 41.89 37.9595 42.68C38.2495 42.91 38.5195 43.17 38.8495 43.47C40.8695 41.31 42.8895 39.16 44.9095 37C44.7695 36.83 44.7195 36.75 44.6595 36.69C43.7595 35.61 43.2095 34.36 43.0495 32.92C42.9895 32.38 42.9995 31.84 42.9495 31.3C42.5895 26.99 39.3095 23.42 35.2795 23.09C31.6595 22.79 28.9195 24.49 27.1095 27.79C25.2995 31.1 25.5695 34.41 27.5795 37.57C27.7295 37.8 27.8995 38.02 28.0595 38.25C28.3195 38.63 28.2995 39.03 27.9995 39.3C27.7095 39.56 27.3195 39.52 27.0295 39.17C26.8795 38.99 26.7295 38.8 26.5895 38.61C24.9295 36.23 24.3795 33.54 24.7795 30.63C25.1795 27.7 26.4695 25.31 28.7595 23.6C28.8095 23.56 28.8795 23.57 28.9395 23.55C28.9095 23.49 28.8795 23.44 28.8595 23.38C28.3395 23.29 27.8295 23.16 27.3095 23.11C22.4095 22.63 18.1895 26.68 18.0595 32C18.0095 33.84 17.4795 35.44 16.3095 36.79C16.2695 36.84 16.2495 36.9 16.1795 37.01C16.4795 37.32 16.7895 37.62 17.0795 37.93C17.5195 38.39 17.9595 38.86 18.3795 39.34C18.6695 39.67 18.6695 40.06 18.4095 40.36C18.1395 40.67 17.7595 40.67 17.4295 40.36C17.3395 40.27 17.2495 40.17 17.1595 40.07C16.5195 39.36 15.8895 38.65 15.1895 37.88C14.9395 38.18 14.7395 38.41 14.5495 38.65C13.9795 39.34 13.9495 40.43 14.5495 41.1C15.8095 42.5 17.0995 43.87 18.3895 45.23C18.9595 45.83 19.8095 45.88 20.4295 45.37C20.7295 45.13 20.9795 44.82 21.2695 44.53C21.1495 44.39 21.0595 44.28 20.9595 44.18C20.4395 43.61 19.8995 43.06 19.3895 42.48C19.0395 42.08 19.0995 41.54 19.5095 41.31C19.8495 41.12 20.1395 41.24 20.3895 41.52C21.0095 42.18 21.6095 42.83 22.1895 43.46ZM45.8995 38.09C43.8595 40.28 41.8395 42.44 39.7995 44.63C39.9695 44.8 40.1695 45.01 40.3695 45.21C41.0595 45.9 41.9995 45.92 42.6695 45.2C43.9395 43.85 45.1895 42.48 46.4495 41.12C46.7295 40.81 46.8495 40.45 46.8795 40.03C46.9395 39.12 46.4195 38.56 45.8995 38.09ZM13.6395 42.26C13.0095 42.83 12.9295 43.23 13.3095 43.89C13.3695 43.99 13.4295 44.1 13.5095 44.18C14.1895 44.92 14.8495 45.68 15.5695 46.37C16.1095 46.89 16.7495 47.06 17.3095 46.2C16.0795 44.89 14.8695 43.59 13.6395 42.26ZM47.4195 42.29C46.1795 43.62 44.9695 44.92 43.7495 46.22C44.2395 46.93 44.7395 47 45.3295 46.47C46.1595 45.72 46.9296 44.88 47.6395 43.99C48.1796 43.33 48.0495 42.81 47.4195 42.29Z" fill="black"/>
<path d="M33.95 20.4C33.29 20.38 32.9899 19.84 33.2399 19.31C33.5299 18.68 33.85 18.07 34.16 17.45C34.32 17.13 34.4699 16.8 34.6499 16.49C34.8599 16.11 35.2199 15.99 35.5499 16.17C35.8999 16.36 36.02 16.77 35.82 17.18C35.37 18.11 34.91 19.05 34.42 19.96C34.3 20.17 34.05 20.3 33.95 20.4Z" fill="black"/>
<path d="M27.8996 19.5999C27.8696 19.9899 27.7296 20.2399 27.4096 20.3399C27.0696 20.4399 26.8096 20.3099 26.6396 19.9999C26.3796 19.5199 26.1496 19.0299 25.8996 18.5399C25.6896 18.1099 25.4696 17.6799 25.2596 17.2499C25.0396 16.7899 25.1296 16.3699 25.4896 16.1699C25.8396 15.9799 26.2096 16.1199 26.4296 16.5499C26.8796 17.4299 27.3096 18.3099 27.7496 19.1899C27.8196 19.3399 27.8596 19.4899 27.8996 19.5999Z" fill="black"/>
<path d="M31.1891 16.41C31.1891 16.88 31.1991 17.36 31.1891 17.83C31.1791 18.33 30.9191 18.63 30.5191 18.62C30.1191 18.62 29.8691 18.32 29.8591 17.81C29.8491 16.89 29.8491 15.97 29.8591 15.06C29.8591 14.56 30.1191 14.25 30.5091 14.24C30.9191 14.23 31.1791 14.55 31.1891 15.07C31.1891 15.52 31.1891 15.97 31.1891 16.41Z" fill="black"/>
<path d="M37.2797 25.1699C37.3697 25.1999 37.5597 25.2399 37.7197 25.3299C38.9297 26.0399 39.9197 27.0199 40.6597 28.2799C40.7597 28.4499 40.8397 28.6399 40.8897 28.8299C41.0197 29.2799 40.9097 29.5899 40.5697 29.7499C40.2097 29.9199 39.8897 29.8099 39.6797 29.3999C39.2197 28.4799 38.6197 27.6899 37.8197 27.0999C37.5197 26.8799 37.1897 26.7099 36.8797 26.5099C36.5897 26.3199 36.4497 26.0499 36.5497 25.6899C36.6397 25.3699 36.8497 25.1799 37.2797 25.1699Z" fill="black"/>
</svg>
