<svg width="105" height="291" viewBox="0 0 105 291" fill="none" xmlns="http://www.w3.org/2000/svg">
<path d="M19.4921 237.58V238.84C18.6281 238.348 17.6561 238.024 16.6601 238.024C14.6801 238.024 13.4201 239.488 13.4201 241.132C13.4201 242.656 14.5001 244.216 16.6721 244.216C17.7041 244.216 18.7121 243.868 19.5761 243.304V244.588C18.6281 245.104 17.6441 245.308 16.6001 245.308C13.5641 245.308 12.1961 243.028 12.1961 241.12C12.1961 238.864 14.0321 236.908 16.6241 236.908C17.8841 236.908 18.9641 237.352 19.4921 237.58ZM20.8242 239.812H21.8922V241.048C22.2402 240.508 22.7442 239.704 23.5002 239.704C23.6562 239.704 24.1362 239.716 24.7602 240.316L24.1962 241.252C24.0642 241.12 23.5842 240.724 23.1642 240.724C22.7682 240.724 21.8922 241.156 21.8922 242.38V245.2H20.8242V239.812ZM27.7764 239.704C29.3844 239.704 30.6324 240.82 30.6324 242.524C30.6324 244.444 29.0724 245.308 27.7404 245.308C26.0124 245.308 24.8724 244.036 24.8724 242.5C24.8724 240.988 25.9764 239.704 27.7764 239.704ZM27.7164 240.664C26.7564 240.664 25.9644 241.324 25.9644 242.512C25.9644 243.868 26.9724 244.348 27.7644 244.348C28.8204 244.348 29.5404 243.592 29.5404 242.5C29.5404 241.144 28.4844 240.664 27.7164 240.664ZM34.9375 240.148V241.204C34.3375 240.832 33.8815 240.628 33.3775 240.628C32.8735 240.628 32.6935 240.904 32.6935 241.108C32.6935 241.456 33.0655 241.648 33.8575 242.092C34.6255 242.512 35.2015 243.064 35.2015 243.784C35.2015 244.288 34.8175 245.308 33.3535 245.308C32.5975 245.308 32.0935 245.08 31.5535 244.816V243.664C32.3215 244.192 32.9815 244.372 33.2695 244.372C33.6055 244.372 34.0855 244.18 34.0855 243.82C34.0855 243.436 33.7615 243.256 33.2575 242.98C32.3695 242.488 31.5895 242.008 31.5895 241.108C31.5895 240.316 32.2735 239.704 33.3055 239.704C34.1095 239.704 34.6855 240.016 34.9375 240.148ZM39.5547 240.148V241.204C38.9547 240.832 38.4987 240.628 37.9947 240.628C37.4907 240.628 37.3107 240.904 37.3107 241.108C37.3107 241.456 37.6827 241.648 38.4747 242.092C39.2427 242.512 39.8187 243.064 39.8187 243.784C39.8187 244.288 39.4347 245.308 37.9707 245.308C37.2147 245.308 36.7107 245.08 36.1707 244.816V243.664C36.9387 244.192 37.5987 244.372 37.8867 244.372C38.2227 244.372 38.7027 244.18 38.7027 243.82C38.7027 243.436 38.3787 243.256 37.8747 242.98C36.9867 242.488 36.2067 242.008 36.2067 241.108C36.2067 240.316 36.8907 239.704 37.9227 239.704C38.7267 239.704 39.3027 240.016 39.5547 240.148ZM43.6919 241.972V243.112H40.7759V241.972H43.6919ZM48.8548 240.076V241.216C48.5548 241.024 48.0508 240.7 47.3548 240.7C46.2388 240.7 45.7108 241.648 45.7108 242.5C45.7108 243.4 46.2388 244.3 47.5588 244.3C48.1228 244.3 48.5788 244.12 48.9748 243.94V244.996C48.7348 245.08 48.1708 245.308 47.4028 245.308C45.5428 245.308 44.6308 244.012 44.6308 242.536C44.6308 241.228 45.3748 239.704 47.2948 239.704C47.9908 239.704 48.4348 239.896 48.8548 240.076ZM54.6691 245.2H53.5891V244.516C53.0971 245.056 52.4611 245.308 51.9571 245.308C51.6211 245.308 50.8771 245.188 50.4331 244.444C50.2651 244.18 50.1331 243.868 50.1331 242.884V239.812H51.2131V242.884C51.2131 243.496 51.2131 244.42 52.3051 244.42C52.8091 244.42 53.2651 244.12 53.5891 243.664V239.812H54.6691V245.2ZM57.4171 238.696V239.812H59.1211V240.772H57.4171V243.124C57.4291 243.796 57.4411 243.916 57.6091 244.108C57.8131 244.324 58.0771 244.336 58.1851 244.336C58.4011 244.336 58.8091 244.312 59.3971 243.952V244.948C58.8931 245.224 58.3291 245.308 58.0171 245.308C57.6451 245.308 56.9851 245.152 56.6131 244.624C56.3491 244.228 56.3491 243.652 56.3491 243.16V240.772H55.4131V240.664L57.4171 238.696ZM61.5772 238.696V239.812H63.2812V240.772H61.5772V243.124C61.5892 243.796 61.6012 243.916 61.7692 244.108C61.9732 244.324 62.2372 244.336 62.3452 244.336C62.5612 244.336 62.9692 244.312 63.5572 243.952V244.948C63.0532 245.224 62.4892 245.308 62.1772 245.308C61.8052 245.308 61.1452 245.152 60.7732 244.624C60.5092 244.228 60.5092 243.652 60.5092 243.16V240.772H59.5732V240.664L61.5772 238.696ZM65.0414 237.544C65.4014 237.544 65.6774 237.832 65.6774 238.168C65.6774 238.504 65.3894 238.804 65.0414 238.804C64.6334 238.804 64.4174 238.432 64.4174 238.168C64.4174 237.868 64.6814 237.544 65.0414 237.544ZM65.5814 239.812V245.2H64.5134V239.812H65.5814ZM67.0904 239.812H68.1824V240.496C68.6624 239.956 69.2984 239.704 69.8024 239.704C70.1384 239.704 70.8824 239.824 71.3264 240.568C71.4944 240.832 71.6264 241.144 71.6264 242.128V245.2H70.5464V242.128C70.5464 241.552 70.5464 241.252 70.2584 240.928C70.0544 240.7 69.8144 240.592 69.4544 240.592C68.9624 240.592 68.5064 240.88 68.1824 241.348V245.2H67.0904V239.812ZM77.4104 239.812V240.64H76.3064C76.7264 241.06 76.8704 241.36 76.8704 241.816C76.8704 242.26 76.6184 242.776 76.3664 243.028C75.6464 243.796 74.1824 243.412 74.1824 244.048C74.1824 244.348 74.7464 244.528 75.8264 244.744C76.9784 244.972 77.3864 245.56 77.3864 246.244C77.3864 247.312 76.4384 247.96 74.8424 247.96C73.3904 247.96 72.3584 247.276 72.3584 246.328C72.3584 245.536 72.7784 245.068 73.7144 244.84C73.3424 244.612 73.1744 244.396 73.1744 244.156C73.1744 243.808 73.5104 243.508 74.0264 243.388V243.364C73.6304 243.196 73.3304 242.968 73.1264 242.68C72.9344 242.404 72.8384 242.068 72.8384 241.672C72.8384 240.52 73.7384 239.812 75.1904 239.812H77.4104ZM75.9104 241.684C75.9104 241.168 75.4304 240.736 74.8664 240.736C74.2784 240.736 73.7984 241.18 73.7984 241.708C73.7984 242.296 74.2304 242.692 74.8784 242.692C75.4784 242.692 75.9104 242.272 75.9104 241.684ZM76.3544 246.328C76.3544 245.644 75.2504 245.464 74.5904 245.464C73.8704 245.464 73.3664 245.8 73.3664 246.28C73.3664 246.82 73.8944 247.108 74.8664 247.108C75.8024 247.108 76.3544 246.82 76.3544 246.328Z" fill="#223072"/>
<path d="M54.0237 249.968L57.6837 258.2H56.4837L55.3917 255.788H51.9117L50.8797 258.2H49.6797L53.1957 249.968H54.0237ZM52.3677 254.732H54.9117L53.5917 251.768L52.3677 254.732ZM58.3916 252.812H59.4596V254.048C59.8076 253.508 60.3116 252.704 61.0676 252.704C61.2236 252.704 61.7036 252.716 62.3276 253.316L61.7636 254.252C61.6316 254.12 61.1516 253.724 60.7316 253.724C60.3356 253.724 59.4596 254.156 59.4596 255.38V258.2H58.3916V252.812ZM67.2638 256.628V257.672C66.8918 257.912 66.2798 258.308 65.1518 258.308C64.5878 258.308 63.9398 258.224 63.2918 257.552C62.5838 256.82 62.4878 255.992 62.4878 255.476C62.4878 253.796 63.5438 252.704 65.0078 252.704C66.2678 252.704 67.1198 253.604 67.2998 254.792C67.3598 255.152 67.3598 255.392 67.3598 255.596H63.5678C63.6038 256.4 64.1318 257.288 65.3078 257.288C66.0038 257.288 66.6878 257.048 67.2638 256.628ZM63.5918 254.96H66.3038C66.2918 254.744 66.2078 253.628 64.9958 253.628C64.6598 253.628 64.2518 253.76 63.9638 254.084C63.6758 254.396 63.6278 254.72 63.5918 254.96ZM72.73 257.24V257.888C72.238 258.212 72.034 258.308 71.698 258.308C71.23 258.308 70.978 258.14 70.882 257.756C70.414 258.128 69.922 258.308 69.43 258.308C68.638 258.308 68.11 257.684 68.11 256.988C68.11 255.92 69.082 255.596 69.946 255.284L70.894 254.948V254.66C70.894 253.988 70.57 253.712 69.922 253.712C69.334 253.712 68.734 253.988 68.218 254.6V253.436C68.638 252.944 69.226 252.704 70.006 252.704C71.098 252.704 71.962 253.256 71.962 254.48V257.252C71.962 257.456 72.034 257.528 72.166 257.528C72.274 257.528 72.49 257.42 72.73 257.24ZM70.894 257.108V255.536C69.982 255.848 69.19 256.16 69.19 256.796C69.19 257.24 69.514 257.552 69.958 257.552C70.294 257.552 70.606 257.384 70.894 257.108ZM76.7471 253.148V254.204C76.1471 253.832 75.6911 253.628 75.1871 253.628C74.6831 253.628 74.5031 253.904 74.5031 254.108C74.5031 254.456 74.8751 254.648 75.6671 255.092C76.4351 255.512 77.0111 256.064 77.0111 256.784C77.0111 257.288 76.6271 258.308 75.1631 258.308C74.4071 258.308 73.9031 258.08 73.3631 257.816V256.664C74.1311 257.192 74.7911 257.372 75.0791 257.372C75.4151 257.372 75.8951 257.18 75.8951 256.82C75.8951 256.436 75.5711 256.256 75.0671 255.98C74.1791 255.488 73.3991 255.008 73.3991 254.108C73.3991 253.316 74.0831 252.704 75.1151 252.704C75.9191 252.704 76.4951 253.016 76.7471 253.148Z" fill="#223072"/>
<path d="M95.1904 170.63V206.13V250.63V286.13" stroke="#223072" stroke-miterlimit="10"/>
<path d="M95.1904 11.1299V170.63" stroke="#223072" stroke-miterlimit="10"/>
<path d="M95.1904 17.1299C98.7803 17.1299 101.69 14.2197 101.69 10.6299C101.69 7.04003 98.7803 4.12988 95.1904 4.12988C91.6006 4.12988 88.6904 7.04003 88.6904 10.6299C88.6904 14.2197 91.6006 17.1299 95.1904 17.1299Z" fill="#F5EFE7" stroke="#ABA7A1" stroke-miterlimit="10"/>
<path d="M95.1904 97.1299C98.7803 97.1299 101.69 94.2197 101.69 90.6299C101.69 87.04 98.7803 84.1299 95.1904 84.1299C91.6006 84.1299 88.6904 87.04 88.6904 90.6299C88.6904 94.2197 91.6006 97.1299 95.1904 97.1299Z" fill="#F5EFE7" stroke="#ABA7A1" stroke-miterlimit="10"/>
<path d="M95.1904 257.13C98.7803 257.13 101.69 254.22 101.69 250.63C101.69 247.04 98.7803 244.13 95.1904 244.13C91.6006 244.13 88.6904 247.04 88.6904 250.63C88.6904 254.22 91.6006 257.13 95.1904 257.13Z" fill="#223072"/>
<path d="M51.3 3.37786L55.032 11.6099H54.096L52.908 8.98186H49.164L48 11.6099H47.064L50.7 3.37786H51.3ZM52.536 8.18986L51 4.79386L49.512 8.18986H52.536ZM55.8357 11.3099V3.42586H56.6637V6.79786C56.9277 6.59386 57.4797 6.11386 58.3677 6.11386C59.8797 6.11386 60.7317 7.40986 60.7317 8.78986C60.7317 10.5539 59.6157 11.7179 57.8277 11.7179C57.1437 11.7179 56.4597 11.5739 55.8357 11.3099ZM56.6637 7.63786V10.7699C57.2757 10.9859 57.7917 10.9859 57.8997 10.9859C59.0277 10.9859 59.8797 10.0859 59.8797 8.86186C59.8797 7.70986 59.1357 6.84586 58.1997 6.84586C57.8037 6.84586 57.2037 7.04986 56.6637 7.63786ZM64.5314 6.11386C66.0794 6.11386 67.3394 7.36186 67.3394 8.90986C67.3394 10.4579 66.0794 11.7179 64.5314 11.7179C62.9834 11.7179 61.7354 10.4579 61.7354 8.90986C61.7354 7.36186 62.9834 6.11386 64.5314 6.11386ZM64.5434 6.84586C63.4154 6.84586 62.5874 7.76986 62.5874 8.90986C62.5874 10.0499 63.4154 10.9859 64.5434 10.9859C65.6714 10.9859 66.4874 10.0499 66.4874 8.90986C66.4874 7.76986 65.6714 6.84586 64.5434 6.84586ZM72.9765 11.6099H72.1485V10.7939C71.7525 11.3219 71.2245 11.7179 70.4565 11.7179C69.2445 11.7179 68.5245 10.8299 68.5245 9.43786V6.22186H69.3525V9.36586C69.3525 10.2779 69.7005 10.9859 70.6485 10.9859C70.9605 10.9859 71.6445 10.8899 72.1485 10.0379V6.22186H72.9765V11.6099ZM73.8788 6.95386V6.82186L75.6308 4.96186V6.22186H77.2508V6.95386H75.6308V9.77386C75.6308 10.4699 75.6788 10.9499 76.4348 10.9499C76.8548 10.9499 77.1188 10.8179 77.5268 10.6259V11.4059C77.2988 11.5139 76.8548 11.7179 76.2668 11.7179C75.1868 11.7179 74.8028 10.9739 74.8028 10.1099V6.95386H73.8788Z" fill="#ABA7A1"/>
<path d="M25.84 84.0619V85.0339C24.916 84.5299 24.028 84.2299 22.996 84.2299C21.052 84.2299 19.564 85.6579 19.564 87.6019C19.564 89.5579 21.04 90.9259 22.96 90.9259C24.04 90.9259 24.976 90.6139 25.924 90.0619V91.0339C25.024 91.5139 24.016 91.7779 22.984 91.7779C20.356 91.7779 18.604 89.8819 18.604 87.6019C18.604 85.0219 20.728 83.3779 22.924 83.3779C23.932 83.3779 24.916 83.6539 25.84 84.0619ZM29.6721 86.1739C31.2201 86.1739 32.4801 87.4219 32.4801 88.9699C32.4801 90.5179 31.2201 91.7779 29.6721 91.7779C28.1241 91.7779 26.8761 90.5179 26.8761 88.9699C26.8761 87.4219 28.1241 86.1739 29.6721 86.1739ZM29.6841 86.9059C28.5561 86.9059 27.7281 87.8299 27.7281 88.9699C27.7281 90.1099 28.5561 91.0459 29.6841 91.0459C30.8121 91.0459 31.6281 90.1099 31.6281 88.9699C31.6281 87.8299 30.8121 86.9059 29.6841 86.9059ZM34.6012 86.2819V87.1099C35.0932 86.5339 35.5372 86.1739 36.2812 86.1739C37.3012 86.1739 37.7692 86.9419 37.9252 87.3019C38.6332 86.3059 39.3172 86.1739 39.7612 86.1739C41.2732 86.1739 41.6092 87.5179 41.6092 88.4419V91.6699H40.7812V88.4419C40.7812 87.8299 40.5892 86.9059 39.6172 86.9059C39.1252 86.9059 38.5012 87.2059 38.1052 87.8779V91.6699H37.2772V88.4659C37.2772 87.4699 36.8932 86.9059 36.0412 86.9059C35.3812 86.9059 34.9612 87.3259 34.6012 87.8299V91.6699H33.7732V86.2819H34.6012ZM43.8941 86.2819V87.1099C44.3861 86.5339 44.8301 86.1739 45.5741 86.1739C46.5941 86.1739 47.0621 86.9419 47.2181 87.3019C47.9261 86.3059 48.6101 86.1739 49.0541 86.1739C50.5661 86.1739 50.9021 87.5179 50.9021 88.4419V91.6699H50.0741V88.4419C50.0741 87.8299 49.8821 86.9059 48.9101 86.9059C48.4181 86.9059 47.7941 87.2059 47.3981 87.8779V91.6699H46.5701V88.4659C46.5701 87.4699 46.1861 86.9059 45.3341 86.9059C44.6741 86.9059 44.2541 87.3259 43.8941 87.8299V91.6699H43.0661V86.2819H43.8941ZM53.1871 86.2819V91.6699H52.3591V86.2819H53.1871ZM52.7791 84.0859C53.0791 84.0859 53.3191 84.3259 53.3191 84.6259C53.3191 84.9259 53.0791 85.1659 52.7791 85.1659C52.4791 85.1659 52.2391 84.9259 52.2391 84.6259C52.2391 84.3259 52.4791 84.0859 52.7791 84.0859ZM54.0897 87.0139V86.8819L55.8417 85.0219V86.2819H57.4617V87.0139H55.8417V89.8339C55.8417 90.5299 55.8897 91.0099 56.6457 91.0099C57.0657 91.0099 57.3297 90.8779 57.7377 90.6859V91.4659C57.5097 91.5739 57.0657 91.7779 56.4777 91.7779C55.3977 91.7779 55.0137 91.0339 55.0137 90.1699V87.0139H54.0897ZM57.8514 87.0139V86.8819L59.6034 85.0219V86.2819H61.2234V87.0139H59.6034V89.8339C59.6034 90.5299 59.6514 91.0099 60.4074 91.0099C60.8274 91.0099 61.0914 90.8779 61.4994 90.6859V91.4659C61.2714 91.5739 60.8274 91.7779 60.2394 91.7779C59.1594 91.7779 58.7754 91.0339 58.7754 90.1699V87.0139H57.8514ZM66.8452 88.8379V89.0299H62.8492C62.8492 90.3259 63.7492 91.0459 64.7812 91.0459C65.8372 91.0459 66.4972 90.5059 66.7612 90.2899V91.1299C66.4252 91.3579 65.8252 91.7779 64.6852 91.7779C62.8852 91.7779 61.9972 90.4099 61.9972 88.9579C61.9972 87.0859 63.2452 86.1739 64.4692 86.1739C65.8012 86.1739 66.8452 87.2659 66.8452 88.8379ZM62.8972 88.4299H65.9932C65.8732 87.2659 65.0812 86.9059 64.4932 86.9059C63.8212 86.9059 63.1012 87.3379 62.8972 88.4299ZM72.6225 88.8379V89.0299H68.6265C68.6265 90.3259 69.5265 91.0459 70.5585 91.0459C71.6145 91.0459 72.2745 90.5059 72.5385 90.2899V91.1299C72.2025 91.3579 71.6025 91.7779 70.4625 91.7779C68.6625 91.7779 67.7745 90.4099 67.7745 88.9579C67.7745 87.0859 69.0225 86.1739 70.2465 86.1739C71.5785 86.1739 72.6225 87.2659 72.6225 88.8379ZM68.6745 88.4299H71.7705C71.6505 87.2659 70.8585 86.9059 70.2705 86.9059C69.5985 86.9059 68.8785 87.3379 68.6745 88.4299ZM76.8759 86.6299V87.4579C76.3479 87.1339 75.8799 86.9059 75.3519 86.9059C74.7999 86.9059 74.4399 87.2299 74.4399 87.6019C74.4399 88.0339 74.8119 88.2139 76.0959 88.8859C76.3839 89.0419 77.0799 89.4259 77.0799 90.2659C77.0799 90.8059 76.6479 91.7779 75.3039 91.7779C74.6679 91.7779 74.1399 91.5859 73.5759 91.2859V90.4339C74.4639 90.9739 75.0279 91.0459 75.3159 91.0459C75.7359 91.0459 76.2279 90.7819 76.2279 90.3259C76.2279 89.8099 75.7359 89.5579 75.0279 89.2219C74.3679 88.9099 73.6119 88.5259 73.6119 87.6259C73.6119 86.9659 74.1519 86.1739 75.3399 86.1739C76.0839 86.1739 76.5999 86.4739 76.8759 86.6299Z" fill="#ABA7A1"/>
<path d="M28.6797 163.486V164.278H25.7277V171.67H24.8277V164.278H21.8757V163.486H28.6797ZM32.9375 170.722V171.286C32.2655 171.766 32.0135 171.778 31.8695 171.778C31.4255 171.778 31.3295 171.418 31.2815 171.166C30.6095 171.67 30.1895 171.778 29.7095 171.778C28.9535 171.778 28.3175 171.202 28.3175 170.41C28.3175 169.534 29.0375 168.826 31.2695 168.43V167.95C31.2695 167.602 31.2095 166.906 30.2015 166.906C29.4935 166.906 28.9895 167.266 28.5215 167.698V166.834C28.7855 166.606 29.3975 166.174 30.2735 166.174C31.8095 166.174 32.0975 167.254 32.0975 167.866V170.818C32.0975 171.046 32.1215 171.106 32.2415 171.106C32.3495 171.106 32.6135 170.986 32.9375 170.722ZM31.2695 170.602V168.97C29.8895 169.222 29.1455 169.678 29.1455 170.35C29.1455 170.998 29.7455 171.178 30.0575 171.178C30.6335 171.178 31.0655 170.794 31.2695 170.602ZM36.9032 166.63V167.458C36.3752 167.134 35.9072 166.906 35.3792 166.906C34.8272 166.906 34.4672 167.23 34.4672 167.602C34.4672 168.034 34.8392 168.214 36.1232 168.886C36.4112 169.042 37.1072 169.426 37.1072 170.266C37.1072 170.806 36.6752 171.778 35.3312 171.778C34.6952 171.778 34.1672 171.586 33.6032 171.286V170.434C34.4912 170.974 35.0552 171.046 35.3432 171.046C35.7632 171.046 36.2552 170.782 36.2552 170.326C36.2552 169.81 35.7632 169.558 35.0552 169.222C34.3952 168.91 33.6392 168.526 33.6392 167.626C33.6392 166.966 34.1792 166.174 35.3672 166.174C36.1112 166.174 36.6272 166.474 36.9032 166.63ZM39.1832 163.486V171.67H38.3552V163.486H39.1832ZM42.9392 166.282L40.3232 168.874L43.4192 171.67H42.2912L39.2432 168.874L41.9192 166.282H42.9392ZM51.3267 163.486V164.278H47.9547V166.966H51.1587V167.758H47.9547V171.67H47.0547V163.486H51.3267ZM54.7268 166.174C56.2748 166.174 57.5348 167.422 57.5348 168.97C57.5348 170.518 56.2748 171.778 54.7268 171.778C53.1788 171.778 51.9308 170.518 51.9308 168.97C51.9308 167.422 53.1788 166.174 54.7268 166.174ZM54.7388 166.906C53.6108 166.906 52.7828 167.83 52.7828 168.97C52.7828 170.11 53.6108 171.046 54.7388 171.046C55.8668 171.046 56.6828 170.11 56.6828 168.97C56.6828 167.83 55.8668 166.906 54.7388 166.906ZM58.8279 166.282H59.6559V167.47C59.7999 167.242 60.1119 166.774 60.5559 166.474C60.6639 166.402 61.0119 166.174 61.3719 166.174C61.8879 166.174 62.4519 166.642 62.6559 166.81L62.2119 167.53C62.0319 167.374 61.6359 167.026 61.1679 167.026C60.6879 167.026 60.0999 167.458 59.8479 168.046C59.6559 168.478 59.6559 169.066 59.6559 169.342V171.67H58.8279V166.282ZM66.8752 166.498V167.386C66.5632 167.206 66.0832 166.942 65.3992 166.942C63.9712 166.942 63.5992 168.298 63.5992 168.994C63.5992 169.894 64.0912 171.01 65.5432 171.01C66.2032 171.01 66.7432 170.77 66.9832 170.662V171.478C66.7312 171.574 66.1672 171.778 65.4592 171.778C63.7072 171.778 62.7472 170.578 62.7472 169.018C62.7472 167.254 63.8992 166.174 65.3992 166.174C66.0472 166.174 66.5272 166.354 66.8752 166.498ZM72.6108 168.838V169.03H68.6148C68.6148 170.326 69.5148 171.046 70.5468 171.046C71.6028 171.046 72.2628 170.506 72.5268 170.29V171.13C72.1908 171.358 71.5908 171.778 70.4508 171.778C68.6508 171.778 67.7628 170.41 67.7628 168.958C67.7628 167.086 69.0108 166.174 70.2348 166.174C71.5668 166.174 72.6108 167.266 72.6108 168.838ZM68.6628 168.43H71.7588C71.6388 167.266 70.8468 166.906 70.2588 166.906C69.5868 166.906 68.8668 167.338 68.6628 168.43ZM76.8641 166.63V167.458C76.3361 167.134 75.8681 166.906 75.3401 166.906C74.7881 166.906 74.4281 167.23 74.4281 167.602C74.4281 168.034 74.8001 168.214 76.0841 168.886C76.3721 169.042 77.0681 169.426 77.0681 170.266C77.0681 170.806 76.6361 171.778 75.2921 171.778C74.6561 171.778 74.1281 171.586 73.5641 171.286V170.434C74.4521 170.974 75.0161 171.046 75.3041 171.046C75.7241 171.046 76.2161 170.782 76.2161 170.326C76.2161 169.81 75.7241 169.558 75.0161 169.222C74.3561 168.91 73.6001 168.526 73.6001 167.626C73.6001 166.966 74.1401 166.174 75.3281 166.174C76.0721 166.174 76.5881 166.474 76.8641 166.63Z" fill="#ABA7A1"/>
<path d="M95.1904 177.13C98.7803 177.13 101.69 174.22 101.69 170.63C101.69 167.04 98.7803 164.13 95.1904 164.13C91.6006 164.13 88.6904 167.04 88.6904 170.63C88.6904 174.22 91.6006 177.13 95.1904 177.13Z" fill="#F5EFE7" stroke="#ABA7A1" stroke-miterlimit="10"/>
</svg>
