<svg width="105" height="291" viewBox="0 0 105 291" fill="none" xmlns="http://www.w3.org/2000/svg">
<g clip-path="url(#clip0_239_70)">
<path d="M95.1904 170.63V206.13V250.63V286.13" stroke="#223072" stroke-miterlimit="10"/>
<path d="M95.1904 11.1299V170.63" stroke="#223072" stroke-miterlimit="10"/>
<path d="M95.1904 17.1299C98.7803 17.1299 101.69 14.2197 101.69 10.6299C101.69 7.04003 98.7803 4.12988 95.1904 4.12988C91.6006 4.12988 88.6904 7.04003 88.6904 10.6299C88.6904 14.2197 91.6006 17.1299 95.1904 17.1299Z" fill="#223072"/>
<path d="M95.1904 97.1299C98.7803 97.1299 101.69 94.2197 101.69 90.6299C101.69 87.04 98.7803 84.1299 95.1904 84.1299C91.6006 84.1299 88.6904 87.04 88.6904 90.6299C88.6904 94.2197 91.6006 97.1299 95.1904 97.1299Z" fill="#F5EFE7" stroke="#ABA7A1" stroke-miterlimit="10"/>
<path d="M95.1904 177.13C98.7803 177.13 101.69 174.22 101.69 170.63C101.69 167.04 98.7803 164.13 95.1904 164.13C91.6006 164.13 88.6904 167.04 88.6904 170.63C88.6904 174.22 91.6006 177.13 95.1904 177.13Z" fill="#F5EFE7" stroke="#ABA7A1" stroke-miterlimit="10"/>
<path d="M95.1904 257.13C98.7803 257.13 101.69 254.22 101.69 250.63C101.69 247.04 98.7803 244.13 95.1904 244.13C91.6006 244.13 88.6904 247.04 88.6904 250.63C88.6904 254.22 91.6006 257.13 95.1904 257.13Z" fill="#F5EFE7" stroke="#ABA7A1" stroke-miterlimit="10"/>
<path d="M51.0637 3.37786L54.7237 11.6099H53.5237L52.4317 9.19786H48.9517L47.9197 11.6099H46.7197L50.2357 3.37786H51.0637ZM49.4077 8.14186H51.9517L50.6317 5.17786L49.4077 8.14186ZM56.4996 3.42586V6.60586C56.6796 6.47386 57.1836 6.11386 57.9876 6.11386C59.4276 6.11386 60.3036 7.34986 60.3036 8.86186C60.3036 10.7579 58.9956 11.7299 57.5196 11.7299C56.8356 11.7299 55.9476 11.5619 55.4316 11.3099V3.42586H56.4996ZM56.4996 7.62586V10.5419C56.9316 10.6739 57.4476 10.7099 57.6276 10.7099C58.2636 10.7099 59.2236 10.2539 59.2236 8.90986C59.2236 7.69786 58.4796 7.09786 57.7116 7.09786C57.1116 7.09786 56.7156 7.43386 56.4996 7.62586ZM64.0596 6.11386C65.6676 6.11386 66.9156 7.22986 66.9156 8.93386C66.9156 10.8539 65.3556 11.7179 64.0236 11.7179C62.2956 11.7179 61.1556 10.4459 61.1556 8.90986C61.1556 7.39786 62.2596 6.11386 64.0596 6.11386ZM63.9996 7.07386C63.0396 7.07386 62.2476 7.73386 62.2476 8.92186C62.2476 10.2779 63.2556 10.7579 64.0476 10.7579C65.1036 10.7579 65.8236 10.0019 65.8236 8.90986C65.8236 7.55386 64.7676 7.07386 63.9996 7.07386ZM72.6007 11.6099H71.5207V10.9259C71.0287 11.4659 70.3927 11.7179 69.8887 11.7179C69.5527 11.7179 68.8087 11.5979 68.3647 10.8539C68.1967 10.5899 68.0647 10.2779 68.0647 9.29386V6.22186H69.1447V9.29386C69.1447 9.90586 69.1447 10.8299 70.2367 10.8299C70.7407 10.8299 71.1967 10.5299 71.5207 10.0739V6.22186H72.6007V11.6099ZM75.3487 5.10586V6.22186H77.0527V7.18186H75.3487V9.53386C75.3607 10.2059 75.3727 10.3259 75.5407 10.5179C75.7447 10.7339 76.0087 10.7459 76.1167 10.7459C76.3327 10.7459 76.7407 10.7219 77.3287 10.3619V11.3579C76.8247 11.6339 76.2607 11.7179 75.9487 11.7179C75.5767 11.7179 74.9167 11.5619 74.5447 11.0339C74.2807 10.6379 74.2807 10.0619 74.2807 9.56986V7.18186H73.3447V7.07386L75.3487 5.10586Z" fill="#223072"/>
<path d="M25.84 84.0619V85.0339C24.916 84.5299 24.028 84.2299 22.996 84.2299C21.052 84.2299 19.564 85.6579 19.564 87.6019C19.564 89.5579 21.04 90.9259 22.96 90.9259C24.04 90.9259 24.976 90.6139 25.924 90.0619V91.0339C25.024 91.5139 24.016 91.7779 22.984 91.7779C20.356 91.7779 18.604 89.8819 18.604 87.6019C18.604 85.0219 20.728 83.3779 22.924 83.3779C23.932 83.3779 24.916 83.6539 25.84 84.0619ZM29.6721 86.1739C31.2201 86.1739 32.4801 87.4219 32.4801 88.9699C32.4801 90.5179 31.2201 91.7779 29.6721 91.7779C28.1241 91.7779 26.8761 90.5179 26.8761 88.9699C26.8761 87.4219 28.1241 86.1739 29.6721 86.1739ZM29.6841 86.9059C28.5561 86.9059 27.7281 87.8299 27.7281 88.9699C27.7281 90.1099 28.5561 91.0459 29.6841 91.0459C30.8121 91.0459 31.6281 90.1099 31.6281 88.9699C31.6281 87.8299 30.8121 86.9059 29.6841 86.9059ZM34.6012 86.2819V87.1099C35.0932 86.5339 35.5372 86.1739 36.2812 86.1739C37.3012 86.1739 37.7692 86.9419 37.9252 87.3019C38.6332 86.3059 39.3172 86.1739 39.7612 86.1739C41.2732 86.1739 41.6092 87.5179 41.6092 88.4419V91.6699H40.7812V88.4419C40.7812 87.8299 40.5892 86.9059 39.6172 86.9059C39.1252 86.9059 38.5012 87.2059 38.1052 87.8779V91.6699H37.2772V88.4659C37.2772 87.4699 36.8932 86.9059 36.0412 86.9059C35.3812 86.9059 34.9612 87.3259 34.6012 87.8299V91.6699H33.7732V86.2819H34.6012ZM43.8941 86.2819V87.1099C44.3861 86.5339 44.8301 86.1739 45.5741 86.1739C46.5941 86.1739 47.0621 86.9419 47.2181 87.3019C47.9261 86.3059 48.6101 86.1739 49.0541 86.1739C50.5661 86.1739 50.9021 87.5179 50.9021 88.4419V91.6699H50.0741V88.4419C50.0741 87.8299 49.8821 86.9059 48.9101 86.9059C48.4181 86.9059 47.7941 87.2059 47.3981 87.8779V91.6699H46.5701V88.4659C46.5701 87.4699 46.1861 86.9059 45.3341 86.9059C44.6741 86.9059 44.2541 87.3259 43.8941 87.8299V91.6699H43.0661V86.2819H43.8941ZM53.1871 86.2819V91.6699H52.3591V86.2819H53.1871ZM52.7791 84.0859C53.0791 84.0859 53.3191 84.3259 53.3191 84.6259C53.3191 84.9259 53.0791 85.1659 52.7791 85.1659C52.4791 85.1659 52.2391 84.9259 52.2391 84.6259C52.2391 84.3259 52.4791 84.0859 52.7791 84.0859ZM54.0897 87.0139V86.8819L55.8417 85.0219V86.2819H57.4617V87.0139H55.8417V89.8339C55.8417 90.5299 55.8897 91.0099 56.6457 91.0099C57.0657 91.0099 57.3297 90.8779 57.7377 90.6859V91.4659C57.5097 91.5739 57.0657 91.7779 56.4777 91.7779C55.3977 91.7779 55.0137 91.0339 55.0137 90.1699V87.0139H54.0897ZM57.8514 87.0139V86.8819L59.6034 85.0219V86.2819H61.2234V87.0139H59.6034V89.8339C59.6034 90.5299 59.6514 91.0099 60.4074 91.0099C60.8274 91.0099 61.0914 90.8779 61.4994 90.6859V91.4659C61.2714 91.5739 60.8274 91.7779 60.2394 91.7779C59.1594 91.7779 58.7754 91.0339 58.7754 90.1699V87.0139H57.8514ZM66.8452 88.8379V89.0299H62.8492C62.8492 90.3259 63.7492 91.0459 64.7812 91.0459C65.8372 91.0459 66.4972 90.5059 66.7612 90.2899V91.1299C66.4252 91.3579 65.8252 91.7779 64.6852 91.7779C62.8852 91.7779 61.9972 90.4099 61.9972 88.9579C61.9972 87.0859 63.2452 86.1739 64.4692 86.1739C65.8012 86.1739 66.8452 87.2659 66.8452 88.8379ZM62.8972 88.4299H65.9932C65.8732 87.2659 65.0812 86.9059 64.4932 86.9059C63.8212 86.9059 63.1012 87.3379 62.8972 88.4299ZM72.6225 88.8379V89.0299H68.6265C68.6265 90.3259 69.5265 91.0459 70.5585 91.0459C71.6145 91.0459 72.2745 90.5059 72.5385 90.2899V91.1299C72.2025 91.3579 71.6025 91.7779 70.4625 91.7779C68.6625 91.7779 67.7745 90.4099 67.7745 88.9579C67.7745 87.0859 69.0225 86.1739 70.2465 86.1739C71.5785 86.1739 72.6225 87.2659 72.6225 88.8379ZM68.6745 88.4299H71.7705C71.6505 87.2659 70.8585 86.9059 70.2705 86.9059C69.5985 86.9059 68.8785 87.3379 68.6745 88.4299ZM76.8759 86.6299V87.4579C76.3479 87.1339 75.8799 86.9059 75.3519 86.9059C74.7999 86.9059 74.4399 87.2299 74.4399 87.6019C74.4399 88.0339 74.8119 88.2139 76.0959 88.8859C76.3839 89.0419 77.0799 89.4259 77.0799 90.2659C77.0799 90.8059 76.6479 91.7779 75.3039 91.7779C74.6679 91.7779 74.1399 91.5859 73.5759 91.2859V90.4339C74.4639 90.9739 75.0279 91.0459 75.3159 91.0459C75.7359 91.0459 76.2279 90.7819 76.2279 90.3259C76.2279 89.8099 75.7359 89.5579 75.0279 89.2219C74.3679 88.9099 73.6119 88.5259 73.6119 87.6259C73.6119 86.9659 74.1519 86.1739 75.3399 86.1739C76.0839 86.1739 76.5999 86.4739 76.8759 86.6299Z" fill="#ABA7A1"/>
<path d="M28.6797 163.486V164.278H25.7277V171.67H24.8277V164.278H21.8757V163.486H28.6797ZM32.9375 170.722V171.286C32.2655 171.766 32.0135 171.778 31.8695 171.778C31.4255 171.778 31.3295 171.418 31.2815 171.166C30.6095 171.67 30.1895 171.778 29.7095 171.778C28.9535 171.778 28.3175 171.202 28.3175 170.41C28.3175 169.534 29.0375 168.826 31.2695 168.43V167.95C31.2695 167.602 31.2095 166.906 30.2015 166.906C29.4935 166.906 28.9895 167.266 28.5215 167.698V166.834C28.7855 166.606 29.3975 166.174 30.2735 166.174C31.8095 166.174 32.0975 167.254 32.0975 167.866V170.818C32.0975 171.046 32.1215 171.106 32.2415 171.106C32.3495 171.106 32.6135 170.986 32.9375 170.722ZM31.2695 170.602V168.97C29.8895 169.222 29.1455 169.678 29.1455 170.35C29.1455 170.998 29.7455 171.178 30.0575 171.178C30.6335 171.178 31.0655 170.794 31.2695 170.602ZM36.9032 166.63V167.458C36.3752 167.134 35.9072 166.906 35.3792 166.906C34.8272 166.906 34.4672 167.23 34.4672 167.602C34.4672 168.034 34.8392 168.214 36.1232 168.886C36.4112 169.042 37.1072 169.426 37.1072 170.266C37.1072 170.806 36.6752 171.778 35.3312 171.778C34.6952 171.778 34.1672 171.586 33.6032 171.286V170.434C34.4912 170.974 35.0552 171.046 35.3432 171.046C35.7632 171.046 36.2552 170.782 36.2552 170.326C36.2552 169.81 35.7632 169.558 35.0552 169.222C34.3952 168.91 33.6392 168.526 33.6392 167.626C33.6392 166.966 34.1792 166.174 35.3672 166.174C36.1112 166.174 36.6272 166.474 36.9032 166.63ZM39.1832 163.486V171.67H38.3552V163.486H39.1832ZM42.9392 166.282L40.3232 168.874L43.4192 171.67H42.2912L39.2432 168.874L41.9192 166.282H42.9392ZM51.3267 163.486V164.278H47.9547V166.966H51.1587V167.758H47.9547V171.67H47.0547V163.486H51.3267ZM54.7268 166.174C56.2748 166.174 57.5348 167.422 57.5348 168.97C57.5348 170.518 56.2748 171.778 54.7268 171.778C53.1788 171.778 51.9308 170.518 51.9308 168.97C51.9308 167.422 53.1788 166.174 54.7268 166.174ZM54.7388 166.906C53.6108 166.906 52.7828 167.83 52.7828 168.97C52.7828 170.11 53.6108 171.046 54.7388 171.046C55.8668 171.046 56.6828 170.11 56.6828 168.97C56.6828 167.83 55.8668 166.906 54.7388 166.906ZM58.8279 166.282H59.6559V167.47C59.7999 167.242 60.1119 166.774 60.5559 166.474C60.6639 166.402 61.0119 166.174 61.3719 166.174C61.8879 166.174 62.4519 166.642 62.6559 166.81L62.2119 167.53C62.0319 167.374 61.6359 167.026 61.1679 167.026C60.6879 167.026 60.0999 167.458 59.8479 168.046C59.6559 168.478 59.6559 169.066 59.6559 169.342V171.67H58.8279V166.282ZM66.8752 166.498V167.386C66.5632 167.206 66.0832 166.942 65.3992 166.942C63.9712 166.942 63.5992 168.298 63.5992 168.994C63.5992 169.894 64.0912 171.01 65.5432 171.01C66.2032 171.01 66.7432 170.77 66.9832 170.662V171.478C66.7312 171.574 66.1672 171.778 65.4592 171.778C63.7072 171.778 62.7472 170.578 62.7472 169.018C62.7472 167.254 63.8992 166.174 65.3992 166.174C66.0472 166.174 66.5272 166.354 66.8752 166.498ZM72.6108 168.838V169.03H68.6148C68.6148 170.326 69.5148 171.046 70.5468 171.046C71.6028 171.046 72.2628 170.506 72.5268 170.29V171.13C72.1908 171.358 71.5908 171.778 70.4508 171.778C68.6508 171.778 67.7628 170.41 67.7628 168.958C67.7628 167.086 69.0108 166.174 70.2348 166.174C71.5668 166.174 72.6108 167.266 72.6108 168.838ZM68.6628 168.43H71.7588C71.6388 167.266 70.8468 166.906 70.2588 166.906C69.5868 166.906 68.8668 167.338 68.6628 168.43ZM76.8641 166.63V167.458C76.3361 167.134 75.8681 166.906 75.3401 166.906C74.7881 166.906 74.4281 167.23 74.4281 167.602C74.4281 168.034 74.8001 168.214 76.0841 168.886C76.3721 169.042 77.0681 169.426 77.0681 170.266C77.0681 170.806 76.6361 171.778 75.2921 171.778C74.6561 171.778 74.1281 171.586 73.5641 171.286V170.434C74.4521 170.974 75.0161 171.046 75.3041 171.046C75.7241 171.046 76.2161 170.782 76.2161 170.326C76.2161 169.81 75.7241 169.558 75.0161 169.222C74.3561 168.91 73.6001 168.526 73.6001 167.626C73.6001 166.966 74.1401 166.174 75.3281 166.174C76.0721 166.174 76.5881 166.474 76.8641 166.63Z" fill="#ABA7A1"/>
<path d="M21.3996 237.592V238.564C20.4756 238.06 19.5876 237.76 18.5556 237.76C16.6116 237.76 15.1236 239.188 15.1236 241.132C15.1236 243.088 16.5996 244.456 18.5196 244.456C19.5996 244.456 20.5356 244.144 21.4836 243.592V244.564C20.5836 245.044 19.5756 245.308 18.5436 245.308C15.9156 245.308 14.1636 243.412 14.1636 241.132C14.1636 238.552 16.2876 236.908 18.4836 236.908C19.4916 236.908 20.4756 237.184 21.3996 237.592ZM22.7116 239.812H23.5396V241C23.6836 240.772 23.9956 240.304 24.4396 240.004C24.5476 239.932 24.8956 239.704 25.2556 239.704C25.7716 239.704 26.3356 240.172 26.5396 240.34L26.0956 241.06C25.9156 240.904 25.5196 240.556 25.0516 240.556C24.5716 240.556 23.9836 240.988 23.7316 241.576C23.5396 242.008 23.5396 242.596 23.5396 242.872V245.2H22.7116V239.812ZM29.427 239.704C30.975 239.704 32.235 240.952 32.235 242.5C32.235 244.048 30.975 245.308 29.427 245.308C27.879 245.308 26.631 244.048 26.631 242.5C26.631 240.952 27.879 239.704 29.427 239.704ZM29.439 240.436C28.311 240.436 27.483 241.36 27.483 242.5C27.483 243.64 28.311 244.576 29.439 244.576C30.567 244.576 31.383 243.64 31.383 242.5C31.383 241.36 30.567 240.436 29.439 240.436ZM36.576 240.16V240.988C36.048 240.664 35.58 240.436 35.052 240.436C34.5 240.436 34.14 240.76 34.14 241.132C34.14 241.564 34.512 241.744 35.796 242.416C36.084 242.572 36.78 242.956 36.78 243.796C36.78 244.336 36.348 245.308 35.004 245.308C34.368 245.308 33.84 245.116 33.276 244.816V243.964C34.164 244.504 34.728 244.576 35.016 244.576C35.436 244.576 35.928 244.312 35.928 243.856C35.928 243.34 35.436 243.088 34.728 242.752C34.068 242.44 33.312 242.056 33.312 241.156C33.312 240.496 33.852 239.704 35.04 239.704C35.784 239.704 36.3 240.004 36.576 240.16ZM41.076 240.16V240.988C40.548 240.664 40.08 240.436 39.552 240.436C39 240.436 38.64 240.76 38.64 241.132C38.64 241.564 39.012 241.744 40.296 242.416C40.584 242.572 41.28 242.956 41.28 243.796C41.28 244.336 40.848 245.308 39.504 245.308C38.868 245.308 38.34 245.116 37.776 244.816V243.964C38.664 244.504 39.228 244.576 39.516 244.576C39.936 244.576 40.428 244.312 40.428 243.856C40.428 243.34 39.936 243.088 39.228 242.752C38.568 242.44 37.812 242.056 37.812 241.156C37.812 240.496 38.352 239.704 39.54 239.704C40.284 239.704 40.8 240.004 41.076 240.16ZM45.132 242.092V242.644H42.24V242.092H45.132ZM50.259 240.028V240.916C49.947 240.736 49.467 240.472 48.783 240.472C47.355 240.472 46.983 241.828 46.983 242.524C46.983 243.424 47.475 244.54 48.927 244.54C49.587 244.54 50.127 244.3 50.367 244.192V245.008C50.115 245.104 49.551 245.308 48.843 245.308C47.091 245.308 46.131 244.108 46.131 242.548C46.131 240.784 47.283 239.704 48.783 239.704C49.431 239.704 49.911 239.884 50.259 240.028ZM55.8135 245.2H54.9855V244.384C54.5895 244.912 54.0615 245.308 53.2935 245.308C52.0815 245.308 51.3615 244.42 51.3615 243.028V239.812H52.1895V242.956C52.1895 243.868 52.5375 244.576 53.4855 244.576C53.7975 244.576 54.4815 244.48 54.9855 243.628V239.812H55.8135V245.2ZM56.7157 240.544V240.412L58.4677 238.552V239.812H60.0877V240.544H58.4677V243.364C58.4677 244.06 58.5157 244.54 59.2717 244.54C59.6917 244.54 59.9557 244.408 60.3637 244.216V244.996C60.1357 245.104 59.6917 245.308 59.1037 245.308C58.0237 245.308 57.6397 244.564 57.6397 243.7V240.544H56.7157ZM60.4774 240.544V240.412L62.2294 238.552V239.812H63.8494V240.544H62.2294V243.364C62.2294 244.06 62.2774 244.54 63.0334 244.54C63.4534 244.54 63.7174 244.408 64.1254 244.216V244.996C63.8974 245.104 63.4534 245.308 62.8654 245.308C61.7854 245.308 61.4014 244.564 61.4014 243.7V240.544H60.4774ZM65.7271 239.812V245.2H64.8991V239.812H65.7271ZM65.3191 237.616C65.6191 237.616 65.8591 237.856 65.8591 238.156C65.8591 238.456 65.6191 238.696 65.3191 238.696C65.0191 238.696 64.7791 238.456 64.7791 238.156C64.7791 237.856 65.0191 237.616 65.3191 237.616ZM67.2898 239.812H68.1178V240.628C68.5138 240.1 69.0418 239.704 69.8098 239.704C71.0218 239.704 71.7418 240.592 71.7418 241.984V245.2H70.9138V242.056C70.9138 241.144 70.5658 240.436 69.6178 240.436C69.3058 240.436 68.6218 240.532 68.1178 241.384V245.2H67.2898V239.812ZM77.444 239.812V240.472H76.28C76.52 240.688 76.94 241.096 76.94 241.792C76.94 242.764 76.232 243.352 75.356 243.556C74.444 243.772 74.048 243.88 74.048 244.216C74.048 244.528 74.348 244.66 75.224 244.768C76.844 244.972 77.432 245.464 77.432 246.34C77.432 247.444 76.292 247.96 74.984 247.96C73.352 247.96 72.524 247.228 72.524 246.388C72.524 245.92 72.788 245.236 73.988 245.02C73.46 244.828 73.268 244.48 73.268 244.3C73.268 243.808 73.76 243.64 74.252 243.46C73.76 243.256 72.944 242.86 72.944 241.72C72.944 240.88 73.364 239.812 75.392 239.812H77.444ZM76.184 241.732C76.184 241.06 75.632 240.52 74.948 240.52C74.264 240.52 73.7 241.06 73.7 241.732C73.7 242.26 74.132 242.932 74.948 242.932C75.728 242.932 76.184 242.38 76.184 241.732ZM76.652 246.376C76.652 246.028 76.328 245.476 74.888 245.476C73.58 245.476 73.304 246.016 73.304 246.376C73.304 247.228 74.48 247.3 75.008 247.3C76.064 247.3 76.652 246.88 76.652 246.376Z" fill="#ABA7A1"/>
<path d="M54.0393 249.968L57.7713 258.2H56.8353L55.6473 255.572H51.9033L50.7393 258.2H49.8033L53.4393 249.968H54.0393ZM55.2753 254.78L53.7393 251.384L52.2513 254.78H55.2753ZM58.5749 252.812H59.4029V254C59.5469 253.772 59.8589 253.304 60.3029 253.004C60.4109 252.932 60.7589 252.704 61.1189 252.704C61.6349 252.704 62.1989 253.172 62.4029 253.34L61.9589 254.06C61.7789 253.904 61.3829 253.556 60.9149 253.556C60.4349 253.556 59.8469 253.988 59.5949 254.576C59.4029 255.008 59.4029 255.596 59.4029 255.872V258.2H58.5749V252.812ZM67.3422 255.368V255.56H63.3462C63.3462 256.856 64.2462 257.576 65.2782 257.576C66.3342 257.576 66.9942 257.036 67.2582 256.82V257.66C66.9222 257.888 66.3222 258.308 65.1822 258.308C63.3822 258.308 62.4942 256.94 62.4942 255.488C62.4942 253.616 63.7422 252.704 64.9662 252.704C66.2982 252.704 67.3422 253.796 67.3422 255.368ZM63.3942 254.96H66.4902C66.3702 253.796 65.5782 253.436 64.9902 253.436C64.3182 253.436 63.5982 253.868 63.3942 254.96ZM72.8916 257.252V257.816C72.2196 258.296 71.9676 258.308 71.8236 258.308C71.3796 258.308 71.2836 257.948 71.2356 257.696C70.5636 258.2 70.1436 258.308 69.6636 258.308C68.9076 258.308 68.2716 257.732 68.2716 256.94C68.2716 256.064 68.9916 255.356 71.2236 254.96V254.48C71.2236 254.132 71.1636 253.436 70.1556 253.436C69.4476 253.436 68.9436 253.796 68.4756 254.228V253.364C68.7396 253.136 69.3516 252.704 70.2276 252.704C71.7636 252.704 72.0516 253.784 72.0516 254.396V257.348C72.0516 257.576 72.0756 257.636 72.1956 257.636C72.3036 257.636 72.5676 257.516 72.8916 257.252ZM71.2236 257.132V255.5C69.8436 255.752 69.0996 256.208 69.0996 256.88C69.0996 257.528 69.6996 257.708 70.0116 257.708C70.5876 257.708 71.0196 257.324 71.2236 257.132ZM76.8573 253.16V253.988C76.3293 253.664 75.8613 253.436 75.3333 253.436C74.7813 253.436 74.4213 253.76 74.4213 254.132C74.4213 254.564 74.7933 254.744 76.0773 255.416C76.3653 255.572 77.0613 255.956 77.0613 256.796C77.0613 257.336 76.6293 258.308 75.2853 258.308C74.6493 258.308 74.1213 258.116 73.5573 257.816V256.964C74.4453 257.504 75.0093 257.576 75.2973 257.576C75.7173 257.576 76.2093 257.312 76.2093 256.856C76.2093 256.34 75.7173 256.088 75.0093 255.752C74.3493 255.44 73.5933 255.056 73.5933 254.156C73.5933 253.496 74.1333 252.704 75.3213 252.704C76.0653 252.704 76.5813 253.004 76.8573 253.16Z" fill="#ABA7A1"/>
</g>
<defs>
<clipPath id="clip0_239_70">
<rect width="104.69" height="290.27" fill="white"/>
</clipPath>
</defs>
</svg>
