<svg width="105" height="291" viewBox="0 0 105 291" fill="none" xmlns="http://www.w3.org/2000/svg">
<g clip-path="url(#clip0_239_4)">
<path d="M21.3996 237.592V238.564C20.4756 238.06 19.5876 237.76 18.5556 237.76C16.6116 237.76 15.1236 239.188 15.1236 241.132C15.1236 243.088 16.5996 244.456 18.5196 244.456C19.5996 244.456 20.5356 244.144 21.4836 243.592V244.564C20.5836 245.044 19.5756 245.308 18.5436 245.308C15.9156 245.308 14.1636 243.412 14.1636 241.132C14.1636 238.552 16.2876 236.908 18.4836 236.908C19.4916 236.908 20.4756 237.184 21.3996 237.592ZM22.7116 239.812H23.5396V241C23.6836 240.772 23.9956 240.304 24.4396 240.004C24.5476 239.932 24.8956 239.704 25.2556 239.704C25.7716 239.704 26.3356 240.172 26.5396 240.34L26.0956 241.06C25.9156 240.904 25.5196 240.556 25.0516 240.556C24.5716 240.556 23.9836 240.988 23.7316 241.576C23.5396 242.008 23.5396 242.596 23.5396 242.872V245.2H22.7116V239.812ZM29.427 239.704C30.975 239.704 32.235 240.952 32.235 242.5C32.235 244.048 30.975 245.308 29.427 245.308C27.879 245.308 26.631 244.048 26.631 242.5C26.631 240.952 27.879 239.704 29.427 239.704ZM29.439 240.436C28.311 240.436 27.483 241.36 27.483 242.5C27.483 243.64 28.311 244.576 29.439 244.576C30.567 244.576 31.383 243.64 31.383 242.5C31.383 241.36 30.567 240.436 29.439 240.436ZM36.576 240.16V240.988C36.048 240.664 35.58 240.436 35.052 240.436C34.5 240.436 34.14 240.76 34.14 241.132C34.14 241.564 34.512 241.744 35.796 242.416C36.084 242.572 36.78 242.956 36.78 243.796C36.78 244.336 36.348 245.308 35.004 245.308C34.368 245.308 33.84 245.116 33.276 244.816V243.964C34.164 244.504 34.728 244.576 35.016 244.576C35.436 244.576 35.928 244.312 35.928 243.856C35.928 243.34 35.436 243.088 34.728 242.752C34.068 242.44 33.312 242.056 33.312 241.156C33.312 240.496 33.852 239.704 35.04 239.704C35.784 239.704 36.3 240.004 36.576 240.16ZM41.076 240.16V240.988C40.548 240.664 40.08 240.436 39.552 240.436C39 240.436 38.64 240.76 38.64 241.132C38.64 241.564 39.012 241.744 40.296 242.416C40.584 242.572 41.28 242.956 41.28 243.796C41.28 244.336 40.848 245.308 39.504 245.308C38.868 245.308 38.34 245.116 37.776 244.816V243.964C38.664 244.504 39.228 244.576 39.516 244.576C39.936 244.576 40.428 244.312 40.428 243.856C40.428 243.34 39.936 243.088 39.228 242.752C38.568 242.44 37.812 242.056 37.812 241.156C37.812 240.496 38.352 239.704 39.54 239.704C40.284 239.704 40.8 240.004 41.076 240.16ZM45.132 242.092V242.644H42.24V242.092H45.132ZM50.259 240.028V240.916C49.947 240.736 49.467 240.472 48.783 240.472C47.355 240.472 46.983 241.828 46.983 242.524C46.983 243.424 47.475 244.54 48.927 244.54C49.587 244.54 50.127 244.3 50.367 244.192V245.008C50.115 245.104 49.551 245.308 48.843 245.308C47.091 245.308 46.131 244.108 46.131 242.548C46.131 240.784 47.283 239.704 48.783 239.704C49.431 239.704 49.911 239.884 50.259 240.028ZM55.8135 245.2H54.9855V244.384C54.5895 244.912 54.0615 245.308 53.2935 245.308C52.0815 245.308 51.3615 244.42 51.3615 243.028V239.812H52.1895V242.956C52.1895 243.868 52.5375 244.576 53.4855 244.576C53.7975 244.576 54.4815 244.48 54.9855 243.628V239.812H55.8135V245.2ZM56.7157 240.544V240.412L58.4677 238.552V239.812H60.0877V240.544H58.4677V243.364C58.4677 244.06 58.5157 244.54 59.2717 244.54C59.6917 244.54 59.9557 244.408 60.3637 244.216V244.996C60.1357 245.104 59.6917 245.308 59.1037 245.308C58.0237 245.308 57.6397 244.564 57.6397 243.7V240.544H56.7157ZM60.4774 240.544V240.412L62.2294 238.552V239.812H63.8494V240.544H62.2294V243.364C62.2294 244.06 62.2774 244.54 63.0334 244.54C63.4534 244.54 63.7174 244.408 64.1254 244.216V244.996C63.8974 245.104 63.4534 245.308 62.8654 245.308C61.7854 245.308 61.4014 244.564 61.4014 243.7V240.544H60.4774ZM65.7271 239.812V245.2H64.8991V239.812H65.7271ZM65.3191 237.616C65.6191 237.616 65.8591 237.856 65.8591 238.156C65.8591 238.456 65.6191 238.696 65.3191 238.696C65.0191 238.696 64.7791 238.456 64.7791 238.156C64.7791 237.856 65.0191 237.616 65.3191 237.616ZM67.2898 239.812H68.1178V240.628C68.5138 240.1 69.0418 239.704 69.8098 239.704C71.0218 239.704 71.7418 240.592 71.7418 241.984V245.2H70.9138V242.056C70.9138 241.144 70.5658 240.436 69.6178 240.436C69.3058 240.436 68.6218 240.532 68.1178 241.384V245.2H67.2898V239.812ZM77.444 239.812V240.472H76.28C76.52 240.688 76.94 241.096 76.94 241.792C76.94 242.764 76.232 243.352 75.356 243.556C74.444 243.772 74.048 243.88 74.048 244.216C74.048 244.528 74.348 244.66 75.224 244.768C76.844 244.972 77.432 245.464 77.432 246.34C77.432 247.444 76.292 247.96 74.984 247.96C73.352 247.96 72.524 247.228 72.524 246.388C72.524 245.92 72.788 245.236 73.988 245.02C73.46 244.828 73.268 244.48 73.268 244.3C73.268 243.808 73.76 243.64 74.252 243.46C73.76 243.256 72.944 242.86 72.944 241.72C72.944 240.88 73.364 239.812 75.392 239.812H77.444ZM76.184 241.732C76.184 241.06 75.632 240.52 74.948 240.52C74.264 240.52 73.7 241.06 73.7 241.732C73.7 242.26 74.132 242.932 74.948 242.932C75.728 242.932 76.184 242.38 76.184 241.732ZM76.652 246.376C76.652 246.028 76.328 245.476 74.888 245.476C73.58 245.476 73.304 246.016 73.304 246.376C73.304 247.228 74.48 247.3 75.008 247.3C76.064 247.3 76.652 246.88 76.652 246.376Z" fill="#ABA7A1"/>
<path d="M54.0393 249.968L57.7713 258.2H56.8353L55.6473 255.572H51.9033L50.7393 258.2H49.8033L53.4393 249.968H54.0393ZM55.2753 254.78L53.7393 251.384L52.2513 254.78H55.2753ZM58.5749 252.812H59.4029V254C59.5469 253.772 59.8589 253.304 60.3029 253.004C60.4109 252.932 60.7589 252.704 61.1189 252.704C61.6349 252.704 62.1989 253.172 62.4029 253.34L61.9589 254.06C61.7789 253.904 61.3829 253.556 60.9149 253.556C60.4349 253.556 59.8469 253.988 59.5949 254.576C59.4029 255.008 59.4029 255.596 59.4029 255.872V258.2H58.5749V252.812ZM67.3422 255.368V255.56H63.3462C63.3462 256.856 64.2462 257.576 65.2782 257.576C66.3342 257.576 66.9942 257.036 67.2582 256.82V257.66C66.9222 257.888 66.3222 258.308 65.1822 258.308C63.3822 258.308 62.4942 256.94 62.4942 255.488C62.4942 253.616 63.7422 252.704 64.9662 252.704C66.2982 252.704 67.3422 253.796 67.3422 255.368ZM63.3942 254.96H66.4902C66.3702 253.796 65.5782 253.436 64.9902 253.436C64.3182 253.436 63.5982 253.868 63.3942 254.96ZM72.8916 257.252V257.816C72.2196 258.296 71.9676 258.308 71.8236 258.308C71.3796 258.308 71.2836 257.948 71.2356 257.696C70.5636 258.2 70.1436 258.308 69.6636 258.308C68.9076 258.308 68.2716 257.732 68.2716 256.94C68.2716 256.064 68.9916 255.356 71.2236 254.96V254.48C71.2236 254.132 71.1636 253.436 70.1556 253.436C69.4476 253.436 68.9436 253.796 68.4756 254.228V253.364C68.7396 253.136 69.3516 252.704 70.2276 252.704C71.7636 252.704 72.0516 253.784 72.0516 254.396V257.348C72.0516 257.576 72.0756 257.636 72.1956 257.636C72.3036 257.636 72.5676 257.516 72.8916 257.252ZM71.2236 257.132V255.5C69.8436 255.752 69.0996 256.208 69.0996 256.88C69.0996 257.528 69.6996 257.708 70.0116 257.708C70.5876 257.708 71.0196 257.324 71.2236 257.132ZM76.8573 253.16V253.988C76.3293 253.664 75.8613 253.436 75.3333 253.436C74.7813 253.436 74.4213 253.76 74.4213 254.132C74.4213 254.564 74.7933 254.744 76.0773 255.416C76.3653 255.572 77.0613 255.956 77.0613 256.796C77.0613 257.336 76.6293 258.308 75.2853 258.308C74.6493 258.308 74.1213 258.116 73.5573 257.816V256.964C74.4453 257.504 75.0093 257.576 75.2973 257.576C75.7173 257.576 76.2093 257.312 76.2093 256.856C76.2093 256.34 75.7173 256.088 75.0093 255.752C74.3493 255.44 73.5933 255.056 73.5933 254.156C73.5933 253.496 74.1333 252.704 75.3213 252.704C76.0653 252.704 76.5813 253.004 76.8573 253.16Z" fill="#ABA7A1"/>
<path d="M95.1904 170.63V206.13V250.63V286.13" stroke="#223072" stroke-miterlimit="10"/>
<path d="M95.1904 11.1299V170.63" stroke="#223072" stroke-miterlimit="10"/>
<path d="M95.1904 177.13C98.7803 177.13 101.69 174.22 101.69 170.63C101.69 167.04 98.7803 164.13 95.1904 164.13C91.6006 164.13 88.6904 167.04 88.6904 170.63C88.6904 174.22 91.6006 177.13 95.1904 177.13Z" fill="#F5EFE7" stroke="#ABA7A1" stroke-miterlimit="10"/>
<path d="M95.1904 17.1299C98.7803 17.1299 101.69 14.2197 101.69 10.6299C101.69 7.04003 98.7803 4.12988 95.1904 4.12988C91.6006 4.12988 88.6904 7.04003 88.6904 10.6299C88.6904 14.2197 91.6006 17.1299 95.1904 17.1299Z" fill="#F5EFE7" stroke="#ABA7A1" stroke-miterlimit="10"/>
<path d="M95.1904 97.1299C98.7803 97.1299 101.69 94.2197 101.69 90.6299C101.69 87.04 98.7803 84.1299 95.1904 84.1299C91.6006 84.1299 88.6904 87.04 88.6904 90.6299C88.6904 94.2197 91.6006 97.1299 95.1904 97.1299Z" fill="#223072"/>
<path d="M95.1904 257.13C98.7803 257.13 101.69 254.22 101.69 250.63C101.69 247.04 98.7803 244.13 95.1904 244.13C91.6006 244.13 88.6904 247.04 88.6904 250.63C88.6904 254.22 91.6006 257.13 95.1904 257.13Z" fill="#F5EFE7" stroke="#ABA7A1" stroke-miterlimit="10"/>
<path d="M51.3 3.37786L55.032 11.6099H54.096L52.908 8.98186H49.164L48 11.6099H47.064L50.7 3.37786H51.3ZM52.536 8.18986L51 4.79386L49.512 8.18986H52.536ZM55.8357 11.3099V3.42586H56.6637V6.79786C56.9277 6.59386 57.4797 6.11386 58.3677 6.11386C59.8797 6.11386 60.7317 7.40986 60.7317 8.78986C60.7317 10.5539 59.6157 11.7179 57.8277 11.7179C57.1437 11.7179 56.4597 11.5739 55.8357 11.3099ZM56.6637 7.63786V10.7699C57.2757 10.9859 57.7917 10.9859 57.8997 10.9859C59.0277 10.9859 59.8797 10.0859 59.8797 8.86186C59.8797 7.70986 59.1357 6.84586 58.1997 6.84586C57.8037 6.84586 57.2037 7.04986 56.6637 7.63786ZM64.5314 6.11386C66.0794 6.11386 67.3394 7.36186 67.3394 8.90986C67.3394 10.4579 66.0794 11.7179 64.5314 11.7179C62.9834 11.7179 61.7354 10.4579 61.7354 8.90986C61.7354 7.36186 62.9834 6.11386 64.5314 6.11386ZM64.5434 6.84586C63.4154 6.84586 62.5874 7.76986 62.5874 8.90986C62.5874 10.0499 63.4154 10.9859 64.5434 10.9859C65.6714 10.9859 66.4874 10.0499 66.4874 8.90986C66.4874 7.76986 65.6714 6.84586 64.5434 6.84586ZM72.9765 11.6099H72.1485V10.7939C71.7525 11.3219 71.2245 11.7179 70.4565 11.7179C69.2445 11.7179 68.5245 10.8299 68.5245 9.43786V6.22186H69.3525V9.36586C69.3525 10.2779 69.7005 10.9859 70.6485 10.9859C70.9605 10.9859 71.6445 10.8899 72.1485 10.0379V6.22186H72.9765V11.6099ZM73.8788 6.95386V6.82186L75.6308 4.96186V6.22186H77.2508V6.95386H75.6308V9.77386C75.6308 10.4699 75.6788 10.9499 76.4348 10.9499C76.8548 10.9499 77.1188 10.8179 77.5268 10.6259V11.4059C77.2988 11.5139 76.8548 11.7179 76.2668 11.7179C75.1868 11.7179 74.8028 10.9739 74.8028 10.1099V6.95386H73.8788Z" fill="#ABA7A1"/>
<path d="M24.8124 84.0499V85.3099C23.9484 84.8179 22.9764 84.4939 21.9804 84.4939C20.0004 84.4939 18.7404 85.9579 18.7404 87.6019C18.7404 89.1259 19.8204 90.6859 21.9924 90.6859C23.0244 90.6859 24.0324 90.3379 24.8964 89.7739V91.0579C23.9484 91.5739 22.9644 91.7779 21.9204 91.7779C18.8844 91.7779 17.5164 89.4979 17.5164 87.5899C17.5164 85.3339 19.3524 83.3779 21.9444 83.3779C23.2044 83.3779 24.2844 83.8219 24.8124 84.0499ZM28.7725 86.1739C30.3805 86.1739 31.6285 87.2899 31.6285 88.9939C31.6285 90.9139 30.0685 91.7779 28.7365 91.7779C27.0085 91.7779 25.8685 90.5059 25.8685 88.9699C25.8685 87.4579 26.9725 86.1739 28.7725 86.1739ZM28.7125 87.1339C27.7525 87.1339 26.9605 87.7939 26.9605 88.9819C26.9605 90.3379 27.9685 90.8179 28.7605 90.8179C29.8165 90.8179 30.5365 90.0619 30.5365 88.9699C30.5365 87.6139 29.4805 87.1339 28.7125 87.1339ZM32.7656 86.2819H33.8216V86.9899C34.4456 86.3659 34.8776 86.1739 35.4296 86.1739C36.0776 86.1739 36.6656 86.5219 37.0136 87.1459C37.7096 86.4499 38.1536 86.1739 38.7896 86.1739C39.9536 86.1739 40.5896 86.9419 40.5896 88.3099V91.6699H39.5336V88.3819C39.5336 87.5299 39.1136 87.0859 38.4176 87.0859C38.0096 87.0859 37.5296 87.3619 37.2056 87.7579V91.6699H36.1496V88.4419C36.1496 87.7219 35.9816 87.0739 35.0816 87.0739C34.5776 87.0739 34.1816 87.3379 33.8216 87.7579V91.6699H32.7656V86.2819ZM42.0234 86.2819H43.0794V86.9899C43.7034 86.3659 44.1354 86.1739 44.6874 86.1739C45.3354 86.1739 45.9234 86.5219 46.2714 87.1459C46.9674 86.4499 47.4114 86.1739 48.0474 86.1739C49.2114 86.1739 49.8474 86.9419 49.8474 88.3099V91.6699H48.7914V88.3819C48.7914 87.5299 48.3714 87.0859 47.6754 87.0859C47.2674 87.0859 46.7874 87.3619 46.4634 87.7579V91.6699H45.4074V88.4419C45.4074 87.7219 45.2394 87.0739 44.3394 87.0739C43.8354 87.0739 43.4394 87.3379 43.0794 87.7579V91.6699H42.0234V86.2819ZM51.8812 84.0139C52.2412 84.0139 52.5172 84.3019 52.5172 84.6379C52.5172 84.9739 52.2292 85.2739 51.8812 85.2739C51.4732 85.2739 51.2572 84.9019 51.2572 84.6379C51.2572 84.3379 51.5212 84.0139 51.8812 84.0139ZM52.4212 86.2819V91.6699H51.3532V86.2819H52.4212ZM55.2022 85.1659V86.2819H56.9062V87.2419H55.2022V89.5939C55.2142 90.2659 55.2262 90.3859 55.3942 90.5779C55.5982 90.7939 55.8622 90.8059 55.9702 90.8059C56.1862 90.8059 56.5942 90.7819 57.1822 90.4219V91.4179C56.6782 91.6939 56.1142 91.7779 55.8022 91.7779C55.4302 91.7779 54.7702 91.6219 54.3982 91.0939C54.1342 90.6979 54.1342 90.1219 54.1342 89.6299V87.2419H53.1982V87.1339L55.2022 85.1659ZM59.3624 85.1659V86.2819H61.0664V87.2419H59.3624V89.5939C59.3744 90.2659 59.3864 90.3859 59.5544 90.5779C59.7584 90.7939 60.0224 90.8059 60.1304 90.8059C60.3464 90.8059 60.7544 90.7819 61.3424 90.4219V91.4179C60.8384 91.6939 60.2744 91.7779 59.9624 91.7779C59.5904 91.7779 58.9304 91.6219 58.5584 91.0939C58.2944 90.6979 58.2944 90.1219 58.2944 89.6299V87.2419H57.3584V87.1339L59.3624 85.1659ZM66.6574 90.0979V91.1419C66.2854 91.3819 65.6734 91.7779 64.5454 91.7779C63.9814 91.7779 63.3334 91.6939 62.6854 91.0219C61.9774 90.2899 61.8814 89.4619 61.8814 88.9459C61.8814 87.2659 62.9374 86.1739 64.4014 86.1739C65.6614 86.1739 66.5134 87.0739 66.6934 88.2619C66.7534 88.6219 66.7534 88.8619 66.7534 89.0659H62.9614C62.9974 89.8699 63.5254 90.7579 64.7014 90.7579C65.3974 90.7579 66.0814 90.5179 66.6574 90.0979ZM62.9854 88.4299H65.6974C65.6854 88.2139 65.6014 87.0979 64.3894 87.0979C64.0534 87.0979 63.6454 87.2299 63.3574 87.5539C63.0694 87.8659 63.0214 88.1899 62.9854 88.4299ZM72.3996 90.0979V91.1419C72.0276 91.3819 71.4156 91.7779 70.2876 91.7779C69.7236 91.7779 69.0756 91.6939 68.4276 91.0219C67.7196 90.2899 67.6236 89.4619 67.6236 88.9459C67.6236 87.2659 68.6796 86.1739 70.1436 86.1739C71.4036 86.1739 72.2556 87.0739 72.4356 88.2619C72.4956 88.6219 72.4956 88.8619 72.4956 89.0659H68.7036C68.7396 89.8699 69.2676 90.7579 70.4436 90.7579C71.1396 90.7579 71.8236 90.5179 72.3996 90.0979ZM68.7276 88.4299H71.4396C71.4276 88.2139 71.3436 87.0979 70.1316 87.0979C69.7956 87.0979 69.3876 87.2299 69.0996 87.5539C68.8116 87.8659 68.7636 88.1899 68.7276 88.4299ZM76.7617 86.6179V87.6739C76.1617 87.3019 75.7057 87.0979 75.2017 87.0979C74.6977 87.0979 74.5177 87.3739 74.5177 87.5779C74.5177 87.9259 74.8897 88.1179 75.6817 88.5619C76.4497 88.9819 77.0257 89.5339 77.0257 90.2539C77.0257 90.7579 76.6417 91.7779 75.1777 91.7779C74.4217 91.7779 73.9177 91.5499 73.3777 91.2859V90.1339C74.1457 90.6619 74.8057 90.8419 75.0937 90.8419C75.4297 90.8419 75.9097 90.6499 75.9097 90.2899C75.9097 89.9059 75.5857 89.7259 75.0817 89.4499C74.1937 88.9579 73.4137 88.4779 73.4137 87.5779C73.4137 86.7859 74.0977 86.1739 75.1297 86.1739C75.9337 86.1739 76.5097 86.4859 76.7617 86.6179Z" fill="#223072"/>
<path d="M28.67 163.486V164.278H25.718V171.67H24.818V164.278H21.866V163.486H28.67ZM32.9277 170.722V171.286C32.2557 171.766 32.0037 171.778 31.8597 171.778C31.4157 171.778 31.3197 171.418 31.2717 171.166C30.5997 171.67 30.1797 171.778 29.6997 171.778C28.9437 171.778 28.3077 171.202 28.3077 170.41C28.3077 169.534 29.0277 168.826 31.2597 168.43V167.95C31.2597 167.602 31.1997 166.906 30.1917 166.906C29.4837 166.906 28.9797 167.266 28.5117 167.698V166.834C28.7757 166.606 29.3877 166.174 30.2637 166.174C31.7997 166.174 32.0877 167.254 32.0877 167.866V170.818C32.0877 171.046 32.1117 171.106 32.2317 171.106C32.3397 171.106 32.6037 170.986 32.9277 170.722ZM31.2597 170.602V168.97C29.8797 169.222 29.1357 169.678 29.1357 170.35C29.1357 170.998 29.7357 171.178 30.0477 171.178C30.6237 171.178 31.0557 170.794 31.2597 170.602ZM36.8934 166.63V167.458C36.3654 167.134 35.8974 166.906 35.3694 166.906C34.8174 166.906 34.4574 167.23 34.4574 167.602C34.4574 168.034 34.8294 168.214 36.1134 168.886C36.4014 169.042 37.0974 169.426 37.0974 170.266C37.0974 170.806 36.6654 171.778 35.3214 171.778C34.6854 171.778 34.1574 171.586 33.5934 171.286V170.434C34.4814 170.974 35.0454 171.046 35.3334 171.046C35.7534 171.046 36.2454 170.782 36.2454 170.326C36.2454 169.81 35.7534 169.558 35.0454 169.222C34.3854 168.91 33.6294 168.526 33.6294 167.626C33.6294 166.966 34.1694 166.174 35.3574 166.174C36.1014 166.174 36.6174 166.474 36.8934 166.63ZM39.1734 163.486V171.67H38.3454V163.486H39.1734ZM42.9294 166.282L40.3134 168.874L43.4094 171.67H42.2814L39.2334 168.874L41.9094 166.282H42.9294ZM51.317 163.486V164.278H47.945V166.966H51.149V167.758H47.945V171.67H47.045V163.486H51.317ZM54.717 166.174C56.265 166.174 57.525 167.422 57.525 168.97C57.525 170.518 56.265 171.778 54.717 171.778C53.169 171.778 51.921 170.518 51.921 168.97C51.921 167.422 53.169 166.174 54.717 166.174ZM54.729 166.906C53.601 166.906 52.773 167.83 52.773 168.97C52.773 170.11 53.601 171.046 54.729 171.046C55.857 171.046 56.673 170.11 56.673 168.97C56.673 167.83 55.857 166.906 54.729 166.906ZM58.8181 166.282H59.6461V167.47C59.7901 167.242 60.1021 166.774 60.5461 166.474C60.6541 166.402 61.0021 166.174 61.3621 166.174C61.8781 166.174 62.4421 166.642 62.6461 166.81L62.2021 167.53C62.0221 167.374 61.6261 167.026 61.1581 167.026C60.6781 167.026 60.0901 167.458 59.8381 168.046C59.6461 168.478 59.6461 169.066 59.6461 169.342V171.67H58.8181V166.282ZM66.8654 166.498V167.386C66.5534 167.206 66.0734 166.942 65.3894 166.942C63.9614 166.942 63.5894 168.298 63.5894 168.994C63.5894 169.894 64.0814 171.01 65.5334 171.01C66.1934 171.01 66.7334 170.77 66.9734 170.662V171.478C66.7214 171.574 66.1574 171.778 65.4494 171.778C63.6974 171.778 62.7374 170.578 62.7374 169.018C62.7374 167.254 63.8894 166.174 65.3894 166.174C66.0374 166.174 66.5174 166.354 66.8654 166.498ZM72.601 168.838V169.03H68.605C68.605 170.326 69.505 171.046 70.537 171.046C71.593 171.046 72.253 170.506 72.517 170.29V171.13C72.181 171.358 71.581 171.778 70.441 171.778C68.641 171.778 67.753 170.41 67.753 168.958C67.753 167.086 69.001 166.174 70.225 166.174C71.557 166.174 72.601 167.266 72.601 168.838ZM68.653 168.43H71.749C71.629 167.266 70.837 166.906 70.249 166.906C69.577 166.906 68.857 167.338 68.653 168.43ZM76.8544 166.63V167.458C76.3264 167.134 75.8584 166.906 75.3304 166.906C74.7784 166.906 74.4184 167.23 74.4184 167.602C74.4184 168.034 74.7904 168.214 76.0744 168.886C76.3624 169.042 77.0584 169.426 77.0584 170.266C77.0584 170.806 76.6264 171.778 75.2824 171.778C74.6464 171.778 74.1184 171.586 73.5544 171.286V170.434C74.4424 170.974 75.0064 171.046 75.2944 171.046C75.7144 171.046 76.2064 170.782 76.2064 170.326C76.2064 169.81 75.7144 169.558 75.0064 169.222C74.3464 168.91 73.5904 168.526 73.5904 167.626C73.5904 166.966 74.1304 166.174 75.3184 166.174C76.0624 166.174 76.5784 166.474 76.8544 166.63Z" fill="#ABA7A1"/>
</g>
<defs>
<clipPath id="clip0_239_4">
<rect width="104.69" height="290.27" fill="white"/>
</clipPath>
</defs>
</svg>
