<svg width="105" height="291" viewBox="0 0 105 291" fill="none" xmlns="http://www.w3.org/2000/svg">
<g clip-path="url(#clip0_239_46)">
<path d="M21.3996 237.592V238.564C20.4756 238.06 19.5876 237.76 18.5556 237.76C16.6116 237.76 15.1236 239.188 15.1236 241.132C15.1236 243.088 16.5996 244.456 18.5196 244.456C19.5996 244.456 20.5356 244.144 21.4836 243.592V244.564C20.5836 245.044 19.5756 245.308 18.5436 245.308C15.9156 245.308 14.1636 243.412 14.1636 241.132C14.1636 238.552 16.2876 236.908 18.4836 236.908C19.4916 236.908 20.4756 237.184 21.3996 237.592ZM22.7116 239.812H23.5396V241C23.6836 240.772 23.9956 240.304 24.4396 240.004C24.5476 239.932 24.8956 239.704 25.2556 239.704C25.7716 239.704 26.3356 240.172 26.5396 240.34L26.0956 241.06C25.9156 240.904 25.5196 240.556 25.0516 240.556C24.5716 240.556 23.9836 240.988 23.7316 241.576C23.5396 242.008 23.5396 242.596 23.5396 242.872V245.2H22.7116V239.812ZM29.427 239.704C30.975 239.704 32.235 240.952 32.235 242.5C32.235 244.048 30.975 245.308 29.427 245.308C27.879 245.308 26.631 244.048 26.631 242.5C26.631 240.952 27.879 239.704 29.427 239.704ZM29.439 240.436C28.311 240.436 27.483 241.36 27.483 242.5C27.483 243.64 28.311 244.576 29.439 244.576C30.567 244.576 31.383 243.64 31.383 242.5C31.383 241.36 30.567 240.436 29.439 240.436ZM36.576 240.16V240.988C36.048 240.664 35.58 240.436 35.052 240.436C34.5 240.436 34.14 240.76 34.14 241.132C34.14 241.564 34.512 241.744 35.796 242.416C36.084 242.572 36.78 242.956 36.78 243.796C36.78 244.336 36.348 245.308 35.004 245.308C34.368 245.308 33.84 245.116 33.276 244.816V243.964C34.164 244.504 34.728 244.576 35.016 244.576C35.436 244.576 35.928 244.312 35.928 243.856C35.928 243.34 35.436 243.088 34.728 242.752C34.068 242.44 33.312 242.056 33.312 241.156C33.312 240.496 33.852 239.704 35.04 239.704C35.784 239.704 36.3 240.004 36.576 240.16ZM41.076 240.16V240.988C40.548 240.664 40.08 240.436 39.552 240.436C39 240.436 38.64 240.76 38.64 241.132C38.64 241.564 39.012 241.744 40.296 242.416C40.584 242.572 41.28 242.956 41.28 243.796C41.28 244.336 40.848 245.308 39.504 245.308C38.868 245.308 38.34 245.116 37.776 244.816V243.964C38.664 244.504 39.228 244.576 39.516 244.576C39.936 244.576 40.428 244.312 40.428 243.856C40.428 243.34 39.936 243.088 39.228 242.752C38.568 242.44 37.812 242.056 37.812 241.156C37.812 240.496 38.352 239.704 39.54 239.704C40.284 239.704 40.8 240.004 41.076 240.16ZM45.132 242.092V242.644H42.24V242.092H45.132ZM50.259 240.028V240.916C49.947 240.736 49.467 240.472 48.783 240.472C47.355 240.472 46.983 241.828 46.983 242.524C46.983 243.424 47.475 244.54 48.927 244.54C49.587 244.54 50.127 244.3 50.367 244.192V245.008C50.115 245.104 49.551 245.308 48.843 245.308C47.091 245.308 46.131 244.108 46.131 242.548C46.131 240.784 47.283 239.704 48.783 239.704C49.431 239.704 49.911 239.884 50.259 240.028ZM55.8135 245.2H54.9855V244.384C54.5895 244.912 54.0615 245.308 53.2935 245.308C52.0815 245.308 51.3615 244.42 51.3615 243.028V239.812H52.1895V242.956C52.1895 243.868 52.5375 244.576 53.4855 244.576C53.7975 244.576 54.4815 244.48 54.9855 243.628V239.812H55.8135V245.2ZM56.7157 240.544V240.412L58.4677 238.552V239.812H60.0877V240.544H58.4677V243.364C58.4677 244.06 58.5157 244.54 59.2717 244.54C59.6917 244.54 59.9557 244.408 60.3637 244.216V244.996C60.1357 245.104 59.6917 245.308 59.1037 245.308C58.0237 245.308 57.6397 244.564 57.6397 243.7V240.544H56.7157ZM60.4774 240.544V240.412L62.2294 238.552V239.812H63.8494V240.544H62.2294V243.364C62.2294 244.06 62.2774 244.54 63.0334 244.54C63.4534 244.54 63.7174 244.408 64.1254 244.216V244.996C63.8974 245.104 63.4534 245.308 62.8654 245.308C61.7854 245.308 61.4014 244.564 61.4014 243.7V240.544H60.4774ZM65.7271 239.812V245.2H64.8991V239.812H65.7271ZM65.3191 237.616C65.6191 237.616 65.8591 237.856 65.8591 238.156C65.8591 238.456 65.6191 238.696 65.3191 238.696C65.0191 238.696 64.7791 238.456 64.7791 238.156C64.7791 237.856 65.0191 237.616 65.3191 237.616ZM67.2898 239.812H68.1178V240.628C68.5138 240.1 69.0418 239.704 69.8098 239.704C71.0218 239.704 71.7418 240.592 71.7418 241.984V245.2H70.9138V242.056C70.9138 241.144 70.5658 240.436 69.6178 240.436C69.3058 240.436 68.6218 240.532 68.1178 241.384V245.2H67.2898V239.812ZM77.444 239.812V240.472H76.28C76.52 240.688 76.94 241.096 76.94 241.792C76.94 242.764 76.232 243.352 75.356 243.556C74.444 243.772 74.048 243.88 74.048 244.216C74.048 244.528 74.348 244.66 75.224 244.768C76.844 244.972 77.432 245.464 77.432 246.34C77.432 247.444 76.292 247.96 74.984 247.96C73.352 247.96 72.524 247.228 72.524 246.388C72.524 245.92 72.788 245.236 73.988 245.02C73.46 244.828 73.268 244.48 73.268 244.3C73.268 243.808 73.76 243.64 74.252 243.46C73.76 243.256 72.944 242.86 72.944 241.72C72.944 240.88 73.364 239.812 75.392 239.812H77.444ZM76.184 241.732C76.184 241.06 75.632 240.52 74.948 240.52C74.264 240.52 73.7 241.06 73.7 241.732C73.7 242.26 74.132 242.932 74.948 242.932C75.728 242.932 76.184 242.38 76.184 241.732ZM76.652 246.376C76.652 246.028 76.328 245.476 74.888 245.476C73.58 245.476 73.304 246.016 73.304 246.376C73.304 247.228 74.48 247.3 75.008 247.3C76.064 247.3 76.652 246.88 76.652 246.376Z" fill="#ABA7A1"/>
<path d="M54.0393 249.968L57.7713 258.2H56.8353L55.6473 255.572H51.9033L50.7393 258.2H49.8033L53.4393 249.968H54.0393ZM55.2753 254.78L53.7393 251.384L52.2513 254.78H55.2753ZM58.5749 252.812H59.4029V254C59.5469 253.772 59.8589 253.304 60.3029 253.004C60.4109 252.932 60.7589 252.704 61.1189 252.704C61.6349 252.704 62.1989 253.172 62.4029 253.34L61.9589 254.06C61.7789 253.904 61.3829 253.556 60.9149 253.556C60.4349 253.556 59.8469 253.988 59.5949 254.576C59.4029 255.008 59.4029 255.596 59.4029 255.872V258.2H58.5749V252.812ZM67.3422 255.368V255.56H63.3462C63.3462 256.856 64.2462 257.576 65.2782 257.576C66.3342 257.576 66.9942 257.036 67.2582 256.82V257.66C66.9222 257.888 66.3222 258.308 65.1822 258.308C63.3822 258.308 62.4942 256.94 62.4942 255.488C62.4942 253.616 63.7422 252.704 64.9662 252.704C66.2982 252.704 67.3422 253.796 67.3422 255.368ZM63.3942 254.96H66.4902C66.3702 253.796 65.5782 253.436 64.9902 253.436C64.3182 253.436 63.5982 253.868 63.3942 254.96ZM72.8916 257.252V257.816C72.2196 258.296 71.9676 258.308 71.8236 258.308C71.3796 258.308 71.2836 257.948 71.2356 257.696C70.5636 258.2 70.1436 258.308 69.6636 258.308C68.9076 258.308 68.2716 257.732 68.2716 256.94C68.2716 256.064 68.9916 255.356 71.2236 254.96V254.48C71.2236 254.132 71.1636 253.436 70.1556 253.436C69.4476 253.436 68.9436 253.796 68.4756 254.228V253.364C68.7396 253.136 69.3516 252.704 70.2276 252.704C71.7636 252.704 72.0516 253.784 72.0516 254.396V257.348C72.0516 257.576 72.0756 257.636 72.1956 257.636C72.3036 257.636 72.5676 257.516 72.8916 257.252ZM71.2236 257.132V255.5C69.8436 255.752 69.0996 256.208 69.0996 256.88C69.0996 257.528 69.6996 257.708 70.0116 257.708C70.5876 257.708 71.0196 257.324 71.2236 257.132ZM76.8573 253.16V253.988C76.3293 253.664 75.8613 253.436 75.3333 253.436C74.7813 253.436 74.4213 253.76 74.4213 254.132C74.4213 254.564 74.7933 254.744 76.0773 255.416C76.3653 255.572 77.0613 255.956 77.0613 256.796C77.0613 257.336 76.6293 258.308 75.2853 258.308C74.6493 258.308 74.1213 258.116 73.5573 257.816V256.964C74.4453 257.504 75.0093 257.576 75.2973 257.576C75.7173 257.576 76.2093 257.312 76.2093 256.856C76.2093 256.34 75.7173 256.088 75.0093 255.752C74.3493 255.44 73.5933 255.056 73.5933 254.156C73.5933 253.496 74.1333 252.704 75.3213 252.704C76.0653 252.704 76.5813 253.004 76.8573 253.16Z" fill="#ABA7A1"/>
<path d="M95.1904 177.13C98.7803 177.13 101.69 174.22 101.69 170.63C101.69 167.04 98.7803 164.13 95.1904 164.13C91.6006 164.13 88.6904 167.04 88.6904 170.63C88.6904 174.22 91.6006 177.13 95.1904 177.13Z" fill="#223072"/>
<path d="M95.1904 170.63V206.13V250.63V286.13" stroke="#223072" stroke-miterlimit="10"/>
<path d="M95.1904 11.1299V170.63" stroke="#223072" stroke-miterlimit="10"/>
<path d="M95.1904 17.1299C98.7803 17.1299 101.69 14.2197 101.69 10.6299C101.69 7.04003 98.7803 4.12988 95.1904 4.12988C91.6006 4.12988 88.6904 7.04003 88.6904 10.6299C88.6904 14.2197 91.6006 17.1299 95.1904 17.1299Z" fill="#F5EFE7" stroke="#ABA7A1" stroke-miterlimit="10"/>
<path d="M95.1904 97.1299C98.7803 97.1299 101.69 94.2197 101.69 90.6299C101.69 87.04 98.7803 84.1299 95.1904 84.1299C91.6006 84.1299 88.6904 87.04 88.6904 90.6299C88.6904 94.2197 91.6006 97.1299 95.1904 97.1299Z" fill="#F5EFE7" stroke="#ABA7A1" stroke-miterlimit="10"/>
<path d="M95.1904 257.13C98.7803 257.13 101.69 254.22 101.69 250.63C101.69 247.04 98.7803 244.13 95.1904 244.13C91.6006 244.13 88.6904 247.04 88.6904 250.63C88.6904 254.22 91.6006 257.13 95.1904 257.13Z" fill="#F5EFE7" stroke="#ABA7A1" stroke-miterlimit="10"/>
<path d="M51.3 3.37786L55.032 11.6099H54.096L52.908 8.98186H49.164L48 11.6099H47.064L50.7 3.37786H51.3ZM52.536 8.18986L51 4.79386L49.512 8.18986H52.536ZM55.8357 11.3099V3.42586H56.6637V6.79786C56.9277 6.59386 57.4797 6.11386 58.3677 6.11386C59.8797 6.11386 60.7317 7.40986 60.7317 8.78986C60.7317 10.5539 59.6157 11.7179 57.8277 11.7179C57.1437 11.7179 56.4597 11.5739 55.8357 11.3099ZM56.6637 7.63786V10.7699C57.2757 10.9859 57.7917 10.9859 57.8997 10.9859C59.0277 10.9859 59.8797 10.0859 59.8797 8.86186C59.8797 7.70986 59.1357 6.84586 58.1997 6.84586C57.8037 6.84586 57.2037 7.04986 56.6637 7.63786ZM64.5314 6.11386C66.0794 6.11386 67.3394 7.36186 67.3394 8.90986C67.3394 10.4579 66.0794 11.7179 64.5314 11.7179C62.9834 11.7179 61.7354 10.4579 61.7354 8.90986C61.7354 7.36186 62.9834 6.11386 64.5314 6.11386ZM64.5434 6.84586C63.4154 6.84586 62.5874 7.76986 62.5874 8.90986C62.5874 10.0499 63.4154 10.9859 64.5434 10.9859C65.6714 10.9859 66.4874 10.0499 66.4874 8.90986C66.4874 7.76986 65.6714 6.84586 64.5434 6.84586ZM72.9765 11.6099H72.1485V10.7939C71.7525 11.3219 71.2245 11.7179 70.4565 11.7179C69.2445 11.7179 68.5245 10.8299 68.5245 9.43786V6.22186H69.3525V9.36586C69.3525 10.2779 69.7005 10.9859 70.6485 10.9859C70.9605 10.9859 71.6445 10.8899 72.1485 10.0379V6.22186H72.9765V11.6099ZM73.8788 6.95386V6.82186L75.6308 4.96186V6.22186H77.2508V6.95386H75.6308V9.77386C75.6308 10.4699 75.6788 10.9499 76.4348 10.9499C76.8548 10.9499 77.1188 10.8179 77.5268 10.6259V11.4059C77.2988 11.5139 76.8548 11.7179 76.2668 11.7179C75.1868 11.7179 74.8028 10.9739 74.8028 10.1099V6.95386H73.8788Z" fill="#ABA7A1"/>
<path d="M25.84 84.0619V85.0339C24.916 84.5299 24.028 84.2299 22.996 84.2299C21.052 84.2299 19.564 85.6579 19.564 87.6019C19.564 89.5579 21.04 90.9259 22.96 90.9259C24.04 90.9259 24.976 90.6139 25.924 90.0619V91.0339C25.024 91.5139 24.016 91.7779 22.984 91.7779C20.356 91.7779 18.604 89.8819 18.604 87.6019C18.604 85.0219 20.728 83.3779 22.924 83.3779C23.932 83.3779 24.916 83.6539 25.84 84.0619ZM29.6721 86.1739C31.2201 86.1739 32.4801 87.4219 32.4801 88.9699C32.4801 90.5179 31.2201 91.7779 29.6721 91.7779C28.1241 91.7779 26.8761 90.5179 26.8761 88.9699C26.8761 87.4219 28.1241 86.1739 29.6721 86.1739ZM29.6841 86.9059C28.5561 86.9059 27.7281 87.8299 27.7281 88.9699C27.7281 90.1099 28.5561 91.0459 29.6841 91.0459C30.8121 91.0459 31.6281 90.1099 31.6281 88.9699C31.6281 87.8299 30.8121 86.9059 29.6841 86.9059ZM34.6012 86.2819V87.1099C35.0932 86.5339 35.5372 86.1739 36.2812 86.1739C37.3012 86.1739 37.7692 86.9419 37.9252 87.3019C38.6332 86.3059 39.3172 86.1739 39.7612 86.1739C41.2732 86.1739 41.6092 87.5179 41.6092 88.4419V91.6699H40.7812V88.4419C40.7812 87.8299 40.5892 86.9059 39.6172 86.9059C39.1252 86.9059 38.5012 87.2059 38.1052 87.8779V91.6699H37.2772V88.4659C37.2772 87.4699 36.8932 86.9059 36.0412 86.9059C35.3812 86.9059 34.9612 87.3259 34.6012 87.8299V91.6699H33.7732V86.2819H34.6012ZM43.8941 86.2819V87.1099C44.3861 86.5339 44.8301 86.1739 45.5741 86.1739C46.5941 86.1739 47.0621 86.9419 47.2181 87.3019C47.9261 86.3059 48.6101 86.1739 49.0541 86.1739C50.5661 86.1739 50.9021 87.5179 50.9021 88.4419V91.6699H50.0741V88.4419C50.0741 87.8299 49.8821 86.9059 48.9101 86.9059C48.4181 86.9059 47.7941 87.2059 47.3981 87.8779V91.6699H46.5701V88.4659C46.5701 87.4699 46.1861 86.9059 45.3341 86.9059C44.6741 86.9059 44.2541 87.3259 43.8941 87.8299V91.6699H43.0661V86.2819H43.8941ZM53.1871 86.2819V91.6699H52.3591V86.2819H53.1871ZM52.7791 84.0859C53.0791 84.0859 53.3191 84.3259 53.3191 84.6259C53.3191 84.9259 53.0791 85.1659 52.7791 85.1659C52.4791 85.1659 52.2391 84.9259 52.2391 84.6259C52.2391 84.3259 52.4791 84.0859 52.7791 84.0859ZM54.0897 87.0139V86.8819L55.8417 85.0219V86.2819H57.4617V87.0139H55.8417V89.8339C55.8417 90.5299 55.8897 91.0099 56.6457 91.0099C57.0657 91.0099 57.3297 90.8779 57.7377 90.6859V91.4659C57.5097 91.5739 57.0657 91.7779 56.4777 91.7779C55.3977 91.7779 55.0137 91.0339 55.0137 90.1699V87.0139H54.0897ZM57.8514 87.0139V86.8819L59.6034 85.0219V86.2819H61.2234V87.0139H59.6034V89.8339C59.6034 90.5299 59.6514 91.0099 60.4074 91.0099C60.8274 91.0099 61.0914 90.8779 61.4994 90.6859V91.4659C61.2714 91.5739 60.8274 91.7779 60.2394 91.7779C59.1594 91.7779 58.7754 91.0339 58.7754 90.1699V87.0139H57.8514ZM66.8452 88.8379V89.0299H62.8492C62.8492 90.3259 63.7492 91.0459 64.7812 91.0459C65.8372 91.0459 66.4972 90.5059 66.7612 90.2899V91.1299C66.4252 91.3579 65.8252 91.7779 64.6852 91.7779C62.8852 91.7779 61.9972 90.4099 61.9972 88.9579C61.9972 87.0859 63.2452 86.1739 64.4692 86.1739C65.8012 86.1739 66.8452 87.2659 66.8452 88.8379ZM62.8972 88.4299H65.9932C65.8732 87.2659 65.0812 86.9059 64.4932 86.9059C63.8212 86.9059 63.1012 87.3379 62.8972 88.4299ZM72.6225 88.8379V89.0299H68.6265C68.6265 90.3259 69.5265 91.0459 70.5585 91.0459C71.6145 91.0459 72.2745 90.5059 72.5385 90.2899V91.1299C72.2025 91.3579 71.6025 91.7779 70.4625 91.7779C68.6625 91.7779 67.7745 90.4099 67.7745 88.9579C67.7745 87.0859 69.0225 86.1739 70.2465 86.1739C71.5785 86.1739 72.6225 87.2659 72.6225 88.8379ZM68.6745 88.4299H71.7705C71.6505 87.2659 70.8585 86.9059 70.2705 86.9059C69.5985 86.9059 68.8785 87.3379 68.6745 88.4299ZM76.8759 86.6299V87.4579C76.3479 87.1339 75.8799 86.9059 75.3519 86.9059C74.7999 86.9059 74.4399 87.2299 74.4399 87.6019C74.4399 88.0339 74.8119 88.2139 76.0959 88.8859C76.3839 89.0419 77.0799 89.4259 77.0799 90.2659C77.0799 90.8059 76.6479 91.7779 75.3039 91.7779C74.6679 91.7779 74.1399 91.5859 73.5759 91.2859V90.4339C74.4639 90.9739 75.0279 91.0459 75.3159 91.0459C75.7359 91.0459 76.2279 90.7819 76.2279 90.3259C76.2279 89.8099 75.7359 89.5579 75.0279 89.2219C74.3679 88.9099 73.6119 88.5259 73.6119 87.6259C73.6119 86.9659 74.1519 86.1739 75.3399 86.1739C76.0839 86.1739 76.5999 86.4739 76.8759 86.6299Z" fill="#ABA7A1"/>
<path d="M27.9639 163.486V164.518H25.1079V171.67H23.9319V164.518H21.1239V163.486H27.9639ZM31.6421 170.71V171.358C31.1501 171.682 30.9461 171.778 30.6101 171.778C30.1421 171.778 29.8901 171.61 29.7941 171.226C29.3261 171.598 28.8341 171.778 28.3421 171.778C27.5501 171.778 27.0221 171.154 27.0221 170.458C27.0221 169.39 27.9941 169.066 28.8581 168.754L29.8061 168.418V168.13C29.8061 167.458 29.4821 167.182 28.8341 167.182C28.2461 167.182 27.6461 167.458 27.1301 168.07V166.906C27.5501 166.414 28.1381 166.174 28.9181 166.174C30.0101 166.174 30.8741 166.726 30.8741 167.95V170.722C30.8741 170.926 30.9461 170.998 31.0781 170.998C31.1861 170.998 31.4021 170.89 31.6421 170.71ZM29.8061 170.578V169.006C28.8941 169.318 28.1021 169.63 28.1021 170.266C28.1021 170.71 28.4261 171.022 28.8701 171.022C29.2061 171.022 29.5181 170.854 29.8061 170.578ZM35.6592 166.618V167.674C35.0592 167.302 34.6032 167.098 34.0992 167.098C33.5952 167.098 33.4152 167.374 33.4152 167.578C33.4152 167.926 33.7872 168.118 34.5792 168.562C35.3472 168.982 35.9232 169.534 35.9232 170.254C35.9232 170.758 35.5392 171.778 34.0752 171.778C33.3192 171.778 32.8152 171.55 32.2752 171.286V170.134C33.0432 170.662 33.7032 170.842 33.9912 170.842C34.3272 170.842 34.8072 170.65 34.8072 170.29C34.8072 169.906 34.4832 169.726 33.9792 169.45C33.0912 168.958 32.3112 168.478 32.3112 167.578C32.3112 166.786 32.9952 166.174 34.0272 166.174C34.8312 166.174 35.4072 166.486 35.6592 166.618ZM41.9324 166.282L39.6284 168.922L42.4004 171.67H40.9724L38.2724 168.922L40.6604 166.282H41.9324ZM38.2244 163.486V171.67H37.1444V163.486H38.2244ZM50.7624 163.486V164.542H47.5704V166.81H50.7624V167.866H47.5704V171.67H46.3944V163.486H50.7624ZM54.2676 166.174C55.8756 166.174 57.1236 167.29 57.1236 168.994C57.1236 170.914 55.5636 171.778 54.2316 171.778C52.5036 171.778 51.3636 170.506 51.3636 168.97C51.3636 167.458 52.4676 166.174 54.2676 166.174ZM54.2076 167.134C53.2476 167.134 52.4556 167.794 52.4556 168.982C52.4556 170.338 53.4636 170.818 54.2556 170.818C55.3116 170.818 56.0316 170.062 56.0316 168.97C56.0316 167.614 54.9756 167.134 54.2076 167.134ZM58.2607 166.282H59.3287V167.518C59.6767 166.978 60.1807 166.174 60.9367 166.174C61.0927 166.174 61.5727 166.186 62.1967 166.786L61.6327 167.722C61.5007 167.59 61.0207 167.194 60.6007 167.194C60.2047 167.194 59.3287 167.626 59.3287 168.85V171.67H58.2607V166.282ZM66.557 166.546V167.686C66.257 167.494 65.753 167.17 65.057 167.17C63.941 167.17 63.413 168.118 63.413 168.97C63.413 169.87 63.941 170.77 65.261 170.77C65.825 170.77 66.281 170.59 66.677 170.41V171.466C66.437 171.55 65.873 171.778 65.105 171.778C63.245 171.778 62.333 170.482 62.333 169.006C62.333 167.698 63.077 166.174 64.997 166.174C65.693 166.174 66.137 166.366 66.557 166.546ZM72.3712 170.098V171.142C71.9992 171.382 71.3872 171.778 70.2592 171.778C69.6952 171.778 69.0472 171.694 68.3992 171.022C67.6912 170.29 67.5952 169.462 67.5952 168.946C67.5952 167.266 68.6512 166.174 70.1152 166.174C71.3752 166.174 72.2272 167.074 72.4072 168.262C72.4672 168.622 72.4672 168.862 72.4672 169.066H68.6752C68.7112 169.87 69.2392 170.758 70.4152 170.758C71.1112 170.758 71.7952 170.518 72.3712 170.098ZM68.6992 168.43H71.4112C71.3992 168.214 71.3152 167.098 70.1032 167.098C69.7672 167.098 69.3592 167.23 69.0712 167.554C68.7832 167.866 68.7352 168.19 68.6992 168.43ZM76.7334 166.618V167.674C76.1334 167.302 75.6774 167.098 75.1734 167.098C74.6694 167.098 74.4894 167.374 74.4894 167.578C74.4894 167.926 74.8614 168.118 75.6534 168.562C76.4214 168.982 76.9974 169.534 76.9974 170.254C76.9974 170.758 76.6134 171.778 75.1494 171.778C74.3934 171.778 73.8894 171.55 73.3494 171.286V170.134C74.1174 170.662 74.7774 170.842 75.0654 170.842C75.4014 170.842 75.8814 170.65 75.8814 170.29C75.8814 169.906 75.5574 169.726 75.0534 169.45C74.1654 168.958 73.3854 168.478 73.3854 167.578C73.3854 166.786 74.0694 166.174 75.1014 166.174C75.9054 166.174 76.4814 166.486 76.7334 166.618Z" fill="#223072"/>
</g>
<defs>
<clipPath id="clip0_239_46">
<rect width="104.69" height="290.27" fill="white"/>
</clipPath>
</defs>
</svg>
