<svg width="71" height="71" viewBox="0 0 71 71" fill="none" xmlns="http://www.w3.org/2000/svg">
<path d="M35.24 70.48C54.7025 70.48 70.48 54.7025 70.48 35.24C70.48 15.7775 54.7025 0 35.24 0C15.7775 0 0 15.7775 0 35.24C0 54.7025 15.7775 70.48 35.24 70.48Z" fill="#28348A"/>
<path d="M28.8904 26.3101C25.6404 22.5401 26.2304 17.1801 29.6104 14.2001C32.8404 11.3601 37.6904 11.3801 40.9004 14.2401C44.2404 17.2201 44.8204 22.5401 41.5904 26.3001C41.7504 26.3801 41.8904 26.4601 42.0404 26.5201C45.7904 27.9601 48.7404 30.3901 50.8604 33.8101C51.0904 34.1801 51.3304 34.3401 51.7604 34.3901C53.6104 34.5801 53.6104 34.5901 53.6104 36.4601C53.6104 37.7701 53.6204 39.0901 53.6004 40.4001C53.5904 40.8001 53.6704 41.0001 54.1204 41.1101C55.8004 41.5201 56.8904 42.9001 56.9704 44.6301C57.0004 45.2301 57.0004 45.8301 56.9704 46.4301C56.8804 48.1501 55.7804 49.5201 54.1004 49.9401C53.6904 50.0401 53.5904 50.2201 53.5904 50.6101C53.6104 52.4501 53.6004 54.2801 53.6004 56.1201C53.6004 57.0801 53.2904 57.3801 52.3304 57.3001C46.6704 56.8401 41.0604 57.1601 35.5004 58.4001C35.2704 58.4501 35.0004 58.4101 34.7604 58.3601C29.3804 57.2001 23.9404 56.8501 18.4504 57.2801C18.3204 57.2901 18.1804 57.3001 18.0504 57.3101C17.1604 57.3601 16.8404 57.0701 16.8304 56.1901C16.8204 54.4301 16.8104 52.6701 16.8404 50.9101C16.8504 50.3401 16.7504 50.0401 16.1104 49.8701C14.6204 49.4801 13.5704 48.1101 13.4704 46.5501C13.4204 45.8801 13.4304 45.2001 13.4704 44.5201C13.5704 42.8601 14.6804 41.5101 16.3104 41.1101C16.7504 41.0001 16.8504 40.8101 16.8404 40.4001C16.8204 38.8301 16.8304 37.2701 16.8304 35.7001C16.8304 34.8101 17.0604 34.5001 17.9304 34.4801C18.8904 34.4501 19.4504 34.0701 19.9804 33.2401C21.9604 30.1901 24.7004 28.0101 28.0804 26.6501C28.3504 26.5401 28.5904 26.4301 28.8904 26.3101ZM34.2804 56.4101C34.3004 56.1801 34.3304 56.0501 34.3304 55.9201C34.3304 49.8301 34.3304 43.7401 34.3404 37.6501C34.3404 37.2501 34.1804 37.1301 33.8304 37.0501C28.9804 35.9201 24.0904 35.6401 19.1404 36.1201C18.7404 36.1601 18.6304 36.3201 18.6304 36.7001C18.6504 38.0301 18.6504 39.3701 18.6304 40.7001C18.6304 41.0501 18.7304 41.2501 19.0604 41.4201C20.1604 41.9901 20.8304 42.9101 21.0104 44.1401C21.1004 44.7701 21.0904 45.4101 21.0904 46.0501C21.1004 47.6601 20.4204 48.8701 19.0104 49.6701C18.8304 49.7701 18.6704 50.0801 18.6604 50.2901C18.6304 51.8401 18.6404 53.3801 18.6504 54.9301C18.6504 55.0801 18.6804 55.2301 18.6904 55.4401C23.9204 55.1001 29.0904 55.3701 34.2804 56.4101ZM51.8504 55.4501C51.8504 53.6001 51.8604 51.8401 51.8304 50.0901C51.8304 49.9301 51.5904 49.7201 51.4204 49.6201C50.3304 48.9901 49.6404 48.0701 49.4704 46.8201C49.3804 46.1501 49.3904 45.4701 49.4104 44.8001C49.4504 43.2901 50.1004 42.1201 51.4504 41.4001C51.7504 41.2401 51.8604 41.0601 51.8604 40.7301C51.8404 39.6901 51.8504 38.6401 51.8504 37.6001C51.8504 36.1901 51.8504 36.1801 50.4604 36.0601C45.8404 35.6601 41.2704 36.0001 36.7504 37.0301C36.2804 37.1401 36.1504 37.3301 36.1504 37.8001C36.1704 43.7701 36.1604 49.7501 36.1604 55.7201C36.1604 55.9301 36.1604 56.1301 36.1604 56.4201C41.3704 55.3801 46.5404 55.0901 51.8504 55.4501ZM35.2904 13.8601C31.5504 13.8501 28.5204 16.8501 28.5204 20.5801C28.5104 24.2801 31.5104 27.3001 35.2204 27.3201C38.9104 27.3401 41.9404 24.3401 41.9704 20.6301C41.9904 16.9301 38.9704 13.8701 35.2904 13.8601ZM21.5504 34.1101C21.7404 34.1201 21.8504 34.1401 21.9504 34.1401C26.3004 33.9801 30.6004 34.4101 34.8304 35.4601C35.1004 35.5301 35.4104 35.5201 35.6804 35.4501C39.8904 34.4001 44.1704 33.9901 48.5004 34.1301C48.6204 34.1301 48.7404 34.1101 48.8904 34.0901C48.8504 33.9901 48.8304 33.9301 48.8004 33.8901C46.6704 30.9001 43.8504 28.8801 40.3404 27.8201C40.0904 27.7401 39.7304 27.8301 39.4904 27.9701C36.6604 29.4901 33.8404 29.5101 31.0304 27.9601C30.6504 27.7501 30.3404 27.7301 29.9404 27.8601C27.8804 28.5401 26.0004 29.5501 24.3504 30.9601C23.3004 31.8701 22.3504 32.8701 21.5504 34.1101ZM15.2704 45.4901H15.2804C15.2804 45.8201 15.2504 46.1501 15.2904 46.4701C15.3904 47.4901 16.2404 48.2501 17.2404 48.2601C18.3104 48.2701 19.1704 47.5501 19.2604 46.5001C19.3204 45.8701 19.3204 45.2301 19.2704 44.5901C19.1904 43.4701 18.3204 42.7301 17.2104 42.7501C16.1604 42.7701 15.3404 43.5801 15.2804 44.6701C15.2504 44.9501 15.2704 45.2201 15.2704 45.4901ZM55.2204 45.4901C55.2104 45.2001 55.2304 44.9101 55.2104 44.6201C55.1304 43.5401 54.2804 42.7501 53.2204 42.7501C52.1304 42.7501 51.3004 43.5001 51.2104 44.5901C51.1704 45.1701 51.1704 45.7501 51.2004 46.3301C51.2704 47.4901 52.1104 48.2701 53.2504 48.2601C54.3104 48.2501 55.1604 47.4201 55.2104 46.3001C55.2304 46.0301 55.2204 45.7601 55.2204 45.4901Z" fill="white"/>
</svg>
