<svg width="61" height="61" viewBox="0 0 61 61" fill="none" xmlns="http://www.w3.org/2000/svg">
<path d="M30.29 60.58C13.59 60.58 0 46.99 0 30.29C0 13.59 13.59 0 30.29 0C46.99 0 60.58 13.59 60.58 30.29C60.58 46.99 46.99 60.58 30.29 60.58ZM30.29 1C14.14 1 1 14.14 1 30.29C1 46.44 14.14 59.58 30.29 59.58C46.44 59.58 59.58 46.44 59.58 30.29C59.58 14.14 46.44 1 30.29 1Z" fill="black"/>
<path d="M25.3504 23.99C22.8304 21.06 23.2804 16.89 25.9104 14.58C28.4204 12.37 32.1904 12.38 34.6904 14.61C37.2904 16.93 37.7404 21.06 35.2304 23.98C35.3504 24.04 35.4604 24.11 35.5804 24.15C38.5004 25.27 40.7904 27.16 42.4404 29.82C42.6204 30.1 42.8004 30.24 43.1404 30.27C44.5804 30.42 44.5804 30.43 44.5804 31.88C44.5804 32.9 44.5904 33.92 44.5704 34.95C44.5704 35.26 44.6304 35.42 44.9804 35.5C46.2804 35.82 47.1304 36.89 47.2004 38.24C47.2204 38.7 47.2204 39.17 47.2004 39.64C47.1304 40.98 46.2704 42.04 44.9704 42.37C44.6504 42.45 44.5704 42.58 44.5804 42.89C44.5904 44.32 44.5904 45.75 44.5804 47.17C44.5804 47.92 44.3404 48.15 43.5904 48.09C39.1904 47.73 34.8304 47.98 30.5104 48.94C30.3304 48.98 30.1204 48.95 29.9404 48.91C25.7504 48.01 21.5304 47.74 17.2604 48.07C17.1604 48.08 17.0504 48.09 16.9504 48.09C16.2504 48.12 16.0004 47.89 16.0004 47.21C15.9904 45.84 15.9804 44.47 16.0104 43.11C16.0204 42.67 15.9404 42.43 15.4504 42.3C14.2904 42 13.4804 40.93 13.4004 39.72C13.3604 39.2 13.3704 38.67 13.4004 38.14C13.4804 36.85 14.3404 35.8 15.6104 35.49C15.9504 35.41 16.0304 35.26 16.0204 34.94C16.0104 33.72 16.0104 32.51 16.0204 31.29C16.0204 30.6 16.2004 30.36 16.8704 30.34C17.6104 30.32 18.0504 30.02 18.4704 29.38C20.0104 27.01 22.1404 25.32 24.7604 24.26C24.9304 24.17 25.1204 24.09 25.3504 23.99ZM29.5404 47.39C29.5604 47.21 29.5804 47.11 29.5804 47.01C29.5804 42.28 29.5804 37.54 29.5904 32.81C29.5904 32.5 29.4704 32.4 29.1904 32.34C25.4204 31.46 21.6204 31.25 17.7704 31.61C17.4604 31.64 17.3704 31.76 17.3804 32.06C17.3904 33.1 17.3904 34.13 17.3804 35.17C17.3804 35.45 17.4604 35.6 17.7104 35.73C18.5604 36.18 19.0904 36.89 19.2204 37.84C19.2904 38.33 19.2804 38.83 19.2804 39.32C19.2804 40.57 18.7604 41.51 17.6604 42.14C17.5204 42.22 17.3904 42.46 17.3904 42.62C17.3704 43.82 17.3804 45.02 17.3804 46.23C17.3804 46.35 17.4004 46.46 17.4104 46.63C21.4904 46.37 25.5104 46.59 29.5404 47.39ZM43.1904 46.64C43.1904 45.2 43.2004 43.84 43.1804 42.47C43.1804 42.35 43.0004 42.19 42.8604 42.11C42.0104 41.62 41.4704 40.91 41.3504 39.94C41.2804 39.42 41.2904 38.89 41.3004 38.37C41.3304 37.2 41.8404 36.29 42.8904 35.73C43.1204 35.61 43.2104 35.47 43.2004 35.21C43.1904 34.4 43.1904 33.59 43.1904 32.78C43.1904 31.69 43.1904 31.67 42.1104 31.58C38.5204 31.27 34.9704 31.54 31.4504 32.33C31.0904 32.41 30.9804 32.56 30.9804 32.93C31.0004 37.57 31.0004 42.21 31.0004 46.86C31.0004 47.02 31.0004 47.18 31.0004 47.41C35.0504 46.59 39.0704 46.37 43.1904 46.64ZM30.3304 14.32C27.4204 14.31 25.0704 16.64 25.0604 19.54C25.0604 22.42 27.3904 24.76 30.2704 24.78C33.1404 24.8 35.4904 22.46 35.5104 19.58C35.5304 16.71 33.1904 14.33 30.3304 14.32ZM19.6504 30.06C19.8004 30.07 19.8804 30.08 19.9604 30.08C23.3404 29.96 26.6804 30.29 29.9704 31.11C30.1804 31.16 30.4204 31.16 30.6304 31.11C33.9004 30.3 37.2304 29.97 40.6004 30.09C40.6904 30.09 40.7904 30.07 40.9004 30.06C40.8704 29.98 40.8504 29.94 40.8304 29.9C39.1804 27.58 36.9804 26.01 34.2604 25.18C34.0704 25.12 33.7904 25.19 33.6004 25.29C31.4004 26.47 29.2104 26.49 27.0204 25.28C26.7304 25.12 26.4804 25.1 26.1704 25.2C24.5704 25.73 23.1104 26.51 21.8304 27.61C21.0004 28.32 20.2704 29.1 19.6504 30.06ZM14.7604 38.91C14.7704 39.17 14.7504 39.42 14.7704 39.67C14.8504 40.46 15.5104 41.05 16.2804 41.06C17.1104 41.07 17.7804 40.51 17.8504 39.69C17.9004 39.2 17.8904 38.7 17.8604 38.21C17.8004 37.34 17.1204 36.76 16.2604 36.78C15.4404 36.8 14.8004 37.43 14.7604 38.28C14.7504 38.49 14.7604 38.7 14.7604 38.91ZM45.8204 38.91C45.8204 38.68 45.8304 38.46 45.8104 38.23C45.7504 37.39 45.0904 36.78 44.2604 36.78C43.4104 36.78 42.7604 37.36 42.7004 38.21C42.6704 38.66 42.6704 39.11 42.6904 39.56C42.7404 40.46 43.4004 41.07 44.2804 41.06C45.1104 41.06 45.7604 40.4 45.8104 39.54C45.8304 39.33 45.8204 39.12 45.8204 38.91Z" fill="black"/>
</svg>
