<svg width="71" height="72" viewBox="0 0 71 72" fill="none" xmlns="http://www.w3.org/2000/svg">
<path d="M35.6404 71.3699C55.1029 71.3699 70.8804 55.5924 70.8804 36.1299C70.8804 16.6674 55.1029 0.889893 35.6404 0.889893C16.1779 0.889893 0.400391 16.6674 0.400391 36.1299C0.400391 55.5924 16.1779 71.3699 35.6404 71.3699Z" fill="#28348A"/>
<path d="M40.3604 44.52C39.7704 44.91 39.2004 45.34 38.5904 45.69C32.9304 48.93 27.1104 49.2 21.3404 46.18C15.7504 43.26 12.6104 38.49 12.0704 32.21C11.3904 24.27 15.9804 17.2 23.4704 14.38C30.6704 11.67 39.2104 14.17 43.6204 20.45C48.0104 26.72 48.1804 33.27 44.4204 39.93C44.2804 40.17 44.2604 40.31 44.4804 40.52C45.7604 41.74 47.0404 42.97 48.3004 44.21C48.4804 44.39 48.6104 44.39 48.8404 44.29C49.7504 43.87 50.6204 43.98 51.3404 44.67C53.7904 47.01 56.2304 49.36 58.6504 51.74C59.5204 52.6 59.5304 53.92 58.6904 54.81C57.5704 56 56.4304 57.17 55.2704 58.32C54.3504 59.23 53.0004 59.2 52.0304 58.26C50.0404 56.34 48.0504 54.42 46.0604 52.49C45.6804 52.12 45.3004 51.76 44.9304 51.39C44.2004 50.66 44.0304 49.8 44.4004 48.84C44.4804 48.65 44.5304 48.5 44.3504 48.33C43.0604 47.1 41.7804 45.86 40.4904 44.62C40.4504 44.57 40.4004 44.55 40.3604 44.52ZM45.5304 30.79C45.5904 22.07 38.4504 14.86 29.6704 14.78C20.7804 14.7 13.5304 21.77 13.4504 30.59C13.3704 39.47 20.4504 46.65 29.3704 46.74C38.2604 46.84 45.4604 39.72 45.5304 30.79ZM57.8804 53.28C57.7204 53.03 57.6204 52.79 57.4504 52.63C55.1204 50.36 52.7804 48.11 50.4404 45.85C49.9904 45.41 49.5804 45.42 49.1404 45.87C48.0904 46.94 47.0504 48.01 46.0104 49.08C45.5604 49.55 45.5704 49.95 46.0304 50.41C46.5504 50.92 47.0804 51.43 47.6104 51.94C49.4004 53.67 51.1904 55.4 52.9804 57.13C53.4904 57.62 53.8804 57.61 54.3704 57.11C55.3904 56.07 56.4004 55.04 57.4104 53.99C57.6004 53.79 57.7104 53.54 57.8804 53.28ZM43.3704 41.5C42.7304 42.2 42.1404 42.85 41.5104 43.53C42.8504 44.83 44.1904 46.12 45.4704 47.36C46.1604 46.73 46.8104 46.13 47.5004 45.5C46.0904 44.14 44.7404 42.83 43.3704 41.5Z" fill="white"/>
<path d="M15.2504 30.77C15.1904 22.98 21.5504 16.64 29.5004 16.58C37.2704 16.52 43.6804 22.86 43.7404 30.66C43.8004 38.51 37.4704 44.9 29.5904 44.96C21.6904 45.02 15.3104 38.71 15.2504 30.77ZM29.5004 18.05C22.5204 18.02 16.7904 23.69 16.7504 30.66C16.7104 37.73 22.3604 43.43 29.4604 43.48C36.4904 43.52 42.2504 37.82 42.2604 30.79C42.2804 23.77 36.5904 18.08 29.5004 18.05Z" fill="white"/>
<path d="M38.3004 30.7899C38.3004 32.2399 38.2904 33.6899 38.3104 35.1399C38.3204 35.5999 38.1604 35.9199 37.7504 36.1499C35.1704 37.6199 32.5904 39.1099 30.0204 40.5999C29.6604 40.8099 29.3304 40.7999 28.9704 40.5899C26.4004 39.0999 23.8204 37.6199 21.2404 36.1399C20.8604 35.9199 20.7004 35.6199 20.7104 35.1899C20.7204 32.2399 20.7204 29.2799 20.7104 26.3299C20.7104 25.8999 20.8704 25.5999 21.2504 25.3899C23.8304 23.9099 26.4104 22.4299 28.9804 20.9399C29.3404 20.7299 29.6704 20.7199 30.0304 20.9299C32.6204 22.4299 35.2104 23.9199 37.8004 25.3999C38.1804 25.6199 38.3304 25.9199 38.3204 26.3499C38.2904 27.8399 38.3004 29.3099 38.3004 30.7899ZM22.9804 26.1299C23.1004 26.2099 23.1804 26.2899 23.2704 26.3399C25.2604 27.4899 27.2504 28.6199 29.2304 29.7799C29.4804 29.9199 29.6404 29.8399 29.8404 29.7299C31.7804 28.6099 33.7204 27.4999 35.6604 26.3799C35.7704 26.3099 35.8804 26.2399 36.0204 26.1399C35.8904 26.0499 35.8204 25.9999 35.7404 25.9499C33.7704 24.8199 31.8104 23.6899 29.8504 22.5499C29.5904 22.3999 29.3904 22.3999 29.1404 22.5499C27.1904 23.6799 25.2404 24.7999 23.2804 25.9299C23.1904 25.9799 23.1004 26.0399 22.9804 26.1299ZM22.2104 27.4599C22.1904 27.6199 22.1704 27.7199 22.1704 27.8299C22.1704 30.1099 22.1704 32.3899 22.1604 34.6599C22.1604 34.8999 22.2504 35.0299 22.4504 35.1499C24.4604 36.2999 26.4604 37.4499 28.4604 38.5999C28.5304 38.6399 28.6004 38.6599 28.7204 38.7099C28.7304 38.5299 28.7404 38.3999 28.7404 38.2699C28.7404 36.0599 28.7304 33.8499 28.7504 31.6399C28.7504 31.3099 28.6504 31.1199 28.3604 30.9599C26.4304 29.8699 24.5204 28.7599 22.6004 27.6599C22.4904 27.5899 22.3704 27.5399 22.2104 27.4599ZM30.2704 38.7299C30.4504 38.6299 30.5804 38.5699 30.6904 38.4999C32.6204 37.3899 34.5504 36.2799 36.4804 35.1799C36.7304 35.0399 36.8204 34.8899 36.8204 34.5999C36.8104 32.3499 36.8104 30.0999 36.8104 27.8499C36.8104 27.7299 36.8004 27.6199 36.7904 27.4599C36.6604 27.5199 36.5704 27.5499 36.4904 27.5999C34.4904 28.7499 32.4804 29.8999 30.4904 31.0699C30.3504 31.1499 30.2504 31.3999 30.2504 31.5599C30.2304 33.8199 30.2404 36.0799 30.2404 38.3499C30.2404 38.4499 30.2604 38.5599 30.2704 38.7299Z" fill="white"/>
</svg>
