<svg width="62" height="62" viewBox="0 0 62 62" fill="none" xmlns="http://www.w3.org/2000/svg">
<path d="M30.9404 61.0299C47.393 61.0299 60.7304 47.6925 60.7304 31.24C60.7304 14.7874 47.393 1.44995 30.9404 1.44995C14.4878 1.44995 1.15039 14.7874 1.15039 31.24C1.15039 47.6925 14.4878 61.0299 30.9404 61.0299Z" stroke="black" stroke-miterlimit="10"/>
<path d="M34.45 37.49C34.01 37.78 33.59 38.1 33.13 38.36C28.92 40.77 24.58 40.97 20.29 38.73C16.13 36.56 13.79 33 13.39 28.33C12.88 22.42 16.3 17.15 21.87 15.06C27.23 13.04 33.59 14.9 36.87 19.58C40.14 24.25 40.27 29.12 37.47 34.08C37.37 34.26 37.35 34.37 37.51 34.52C38.47 35.43 39.41 36.34 40.35 37.27C40.48 37.4 40.58 37.41 40.75 37.33C41.43 37.02 42.08 37.1 42.61 37.61C44.43 39.35 46.25 41.1 48.05 42.87C48.7 43.51 48.7 44.49 48.08 45.16C47.25 46.04 46.4 46.91 45.54 47.77C44.85 48.45 43.85 48.42 43.13 47.73C41.65 46.3 40.17 44.87 38.69 43.44C38.41 43.17 38.12 42.9 37.85 42.62C37.31 42.07 37.18 41.44 37.46 40.72C37.52 40.58 37.56 40.47 37.42 40.34C36.46 39.42 35.51 38.5 34.55 37.58C34.52 37.53 34.48 37.51 34.45 37.49ZM38.3 27.27C38.35 20.78 33.03 15.41 26.5 15.36C19.88 15.3 14.49 20.56 14.43 27.13C14.37 33.74 19.64 39.08 26.28 39.15C32.89 39.21 38.25 33.92 38.3 27.27ZM47.49 44.01C47.37 43.82 47.3 43.65 47.17 43.53C45.44 41.84 43.7 40.16 41.95 38.48C41.61 38.15 41.31 38.16 40.98 38.49C40.2 39.28 39.43 40.08 38.65 40.88C38.31 41.23 38.32 41.53 38.67 41.87C39.06 42.25 39.45 42.63 39.85 43.01C41.18 44.3 42.51 45.59 43.85 46.87C44.23 47.23 44.52 47.23 44.89 46.85C45.65 46.08 46.4 45.31 47.15 44.52C47.28 44.39 47.37 44.2 47.49 44.01ZM36.69 35.24C36.22 35.76 35.77 36.24 35.31 36.75C36.31 37.72 37.3 38.67 38.26 39.6C38.78 39.13 39.26 38.69 39.77 38.22C38.72 37.2 37.71 36.23 36.69 35.24Z" fill="black"/>
<path d="M15.76 27.2501C15.72 21.4501 20.45 16.7401 26.37 16.6901C32.15 16.6401 36.93 21.3601 36.97 27.1701C37.01 33.0101 32.31 37.7701 26.44 37.8201C20.56 37.8601 15.81 33.1601 15.76 27.2501ZM26.37 17.7901C21.18 17.7701 16.91 21.9901 16.88 27.1701C16.85 32.4301 21.06 36.6801 26.34 36.7101C31.57 36.7401 35.86 32.4901 35.87 27.2601C35.88 22.0401 31.64 17.8101 26.37 17.7901Z" fill="black"/>
<path d="M32.9198 27.2699C32.9198 28.3499 32.9098 29.4299 32.9198 30.5099C32.9198 30.8599 32.8098 31.0899 32.4998 31.2699C30.5798 32.3699 28.6598 33.4699 26.7398 34.5799C26.4698 34.7399 26.2198 34.7299 25.9598 34.5699C24.0398 33.4599 22.1298 32.3599 20.1998 31.2599C19.9198 31.0999 19.7998 30.8799 19.7998 30.5599C19.8098 28.3599 19.8098 26.1599 19.7998 23.9699C19.7998 23.6499 19.9198 23.4299 20.1998 23.2699C22.1198 22.1699 24.0398 21.0699 25.9598 19.9599C26.2298 19.7999 26.4698 19.7999 26.7398 19.9499C28.6598 21.0599 30.5898 22.1699 32.5198 23.2799C32.7998 23.4399 32.9098 23.6699 32.9098 23.9899C32.9098 25.0699 32.9198 26.1699 32.9198 27.2699ZM21.5198 23.7999C21.6098 23.8599 21.6698 23.9199 21.7298 23.9499C23.2098 24.7999 24.6898 25.6499 26.1698 26.5099C26.3498 26.6199 26.4698 26.5599 26.6198 26.4699C28.0598 25.6399 29.5098 24.8099 30.9498 23.9699C31.0398 23.9199 31.1098 23.8599 31.2198 23.7899C31.1298 23.7299 31.0698 23.6799 31.0098 23.6499C29.5498 22.8099 28.0798 21.9699 26.6198 21.1199C26.4198 21.0099 26.2798 21.0099 26.0898 21.1199C24.6398 21.9599 23.1798 22.7999 21.7298 23.6299C21.6698 23.6799 21.6098 23.7299 21.5198 23.7999ZM20.9498 24.7899C20.9398 24.9099 20.9198 24.9799 20.9198 25.0599C20.9198 26.7599 20.9198 28.4499 20.9198 30.1499C20.9198 30.3299 20.9798 30.4299 21.1398 30.5099C22.6298 31.3599 24.1198 32.2199 25.6098 33.0799C25.6598 33.1099 25.7198 33.1299 25.8098 33.1599C25.8198 33.0299 25.8298 32.9299 25.8298 32.8299C25.8298 31.1899 25.8298 29.5399 25.8398 27.8999C25.8398 27.6499 25.7598 27.5099 25.5498 27.3899C24.1198 26.5799 22.6898 25.7499 21.2598 24.9299C21.1498 24.8899 21.0598 24.8399 20.9498 24.7899ZM26.9398 33.1799C27.0798 33.1099 27.1698 33.0599 27.2598 33.0099C28.6998 32.1799 30.1298 31.3499 31.5698 30.5399C31.7498 30.4399 31.8198 30.3199 31.8198 30.1099C31.8098 28.4399 31.8198 26.7599 31.8098 25.0899C31.8098 24.9999 31.7998 24.9199 31.7998 24.7999C31.6998 24.8399 31.6398 24.8699 31.5798 24.8999C30.0898 25.7599 28.5998 26.6099 27.1198 27.4799C27.0198 27.5399 26.9398 27.7199 26.9398 27.8499C26.9298 29.5299 26.9298 31.2199 26.9298 32.8999C26.9198 32.9699 26.9298 33.0499 26.9398 33.1799Z" fill="black"/>
</svg>
