<svg width="281" height="90" viewBox="0 0 281 90" fill="none" xmlns="http://www.w3.org/2000/svg">
<path d="M280.25 88.6802L0.759766 2.47998" stroke="#28348A" stroke-miterlimit="10" stroke-linecap="round"/>
<path d="M121.878 2.5779H125.469C126.141 2.5779 127.023 2.6409 127.926 3.0399C129.459 3.6909 130.173 5.1189 130.173 6.5679C130.173 8.2269 129.333 9.4869 127.779 10.0959C129.081 10.9569 129.879 12.2799 130.971 14.0439C131.58 15.0309 131.937 15.5139 132.924 16.8999H130.488C130.005 16.2069 128.01 13.0779 127.548 12.4689C126.141 10.6629 125.448 10.6629 124.461 10.6629H123.915V16.8999H121.878V2.5779ZM124.545 4.3209H123.915V8.8359H124.713C125.028 8.8359 126.141 8.8359 126.708 8.6259C127.674 8.2479 128.073 7.3449 128.073 6.5679C128.073 5.7489 127.653 4.9719 126.981 4.6569C126.456 4.4049 125.784 4.3209 124.545 4.3209ZM141.374 14.1489V15.9759C140.723 16.3959 139.652 17.0889 137.678 17.0889C136.691 17.0889 135.557 16.9419 134.423 15.7659C133.184 14.4849 133.016 13.0359 133.016 12.1329C133.016 9.1929 134.864 7.2819 137.426 7.2819C139.631 7.2819 141.122 8.8569 141.437 10.9359C141.542 11.5659 141.542 11.9859 141.542 12.3429H134.906C134.969 13.7499 135.893 15.3039 137.951 15.3039C139.169 15.3039 140.366 14.8839 141.374 14.1489ZM134.948 11.2299H139.694C139.673 10.8519 139.526 8.8989 137.405 8.8989C136.817 8.8989 136.103 9.1299 135.599 9.6969C135.095 10.2429 135.011 10.8099 134.948 11.2299ZM149.008 8.0589V9.9069C147.958 9.2559 147.16 8.8989 146.278 8.8989C145.396 8.8989 145.081 9.3819 145.081 9.7389C145.081 10.3479 145.732 10.6839 147.118 11.4609C148.462 12.1959 149.47 13.1619 149.47 14.4219C149.47 15.3039 148.798 17.0889 146.236 17.0889C144.913 17.0889 144.031 16.6899 143.086 16.2279V14.2119C144.43 15.1359 145.585 15.4509 146.089 15.4509C146.677 15.4509 147.517 15.1149 147.517 14.4849C147.517 13.8129 146.95 13.4979 146.068 13.0149C144.514 12.1539 143.149 11.3139 143.149 9.7389C143.149 8.3529 144.346 7.2819 146.152 7.2819C147.559 7.2819 148.567 7.8279 149.008 8.0589ZM159.503 14.1489V15.9759C158.852 16.3959 157.781 17.0889 155.807 17.0889C154.82 17.0889 153.686 16.9419 152.552 15.7659C151.313 14.4849 151.145 13.0359 151.145 12.1329C151.145 9.1929 152.993 7.2819 155.555 7.2819C157.76 7.2819 159.251 8.8569 159.566 10.9359C159.671 11.5659 159.671 11.9859 159.671 12.3429H153.035C153.098 13.7499 154.022 15.3039 156.08 15.3039C157.298 15.3039 158.495 14.8839 159.503 14.1489ZM153.077 11.2299H157.823C157.802 10.8519 157.655 8.8989 155.534 8.8989C154.946 8.8989 154.232 9.1299 153.728 9.6969C153.224 10.2429 153.14 10.8099 153.077 11.2299ZM169.069 15.2199V16.3539C168.208 16.9209 167.851 17.0889 167.263 17.0889C166.444 17.0889 166.003 16.7949 165.835 16.1229C165.016 16.7739 164.155 17.0889 163.294 17.0889C161.908 17.0889 160.984 15.9969 160.984 14.7789C160.984 12.9099 162.685 12.3429 164.197 11.7969L165.856 11.2089V10.7049C165.856 9.5289 165.289 9.0459 164.155 9.0459C163.126 9.0459 162.076 9.5289 161.173 10.5999V8.5629C161.908 7.7019 162.937 7.2819 164.302 7.2819C166.213 7.2819 167.725 8.2479 167.725 10.3899V15.2409C167.725 15.5979 167.851 15.7239 168.082 15.7239C168.271 15.7239 168.649 15.5349 169.069 15.2199ZM165.856 14.9889V12.2379C164.26 12.7839 162.874 13.3299 162.874 14.4429C162.874 15.2199 163.441 15.7659 164.218 15.7659C164.806 15.7659 165.352 15.4719 165.856 14.9889ZM170.554 7.4709H172.423V9.6339C173.032 8.6889 173.914 7.2819 175.237 7.2819C175.51 7.2819 176.35 7.3029 177.442 8.3529L176.455 9.9909C176.224 9.7599 175.384 9.0669 174.649 9.0669C173.956 9.0669 172.423 9.8229 172.423 11.9649V16.8999H170.554V7.4709ZM185.073 7.9329V9.9279C184.548 9.5919 183.666 9.0249 182.448 9.0249C180.495 9.0249 179.571 10.6839 179.571 12.1749C179.571 13.7499 180.495 15.3249 182.805 15.3249C183.792 15.3249 184.59 15.0099 185.283 14.6949V16.5429C184.863 16.6899 183.876 17.0889 182.532 17.0889C179.277 17.0889 177.681 14.8209 177.681 12.2379C177.681 9.9489 178.983 7.2819 182.343 7.2819C183.561 7.2819 184.338 7.6179 185.073 7.9329ZM189.2 2.5779V8.7099C189.935 7.8279 190.985 7.2819 192.098 7.2819C193.505 7.2819 194.513 8.1219 194.912 9.0669C195.164 9.6969 195.269 10.5999 195.269 11.5239V16.8999H193.4V11.0619C193.4 10.3059 193.211 9.8649 193.064 9.6129C192.728 9.0669 192.14 8.7519 191.573 8.7519C190.67 8.7519 190.019 9.2139 189.2 10.1379V16.8999H187.331V2.5779H189.2ZM216.528 9.8649V15.9129C215.436 16.3959 213.672 17.0889 211.278 17.0889C205.734 17.0889 203.445 13.1199 203.445 9.8649C203.445 6.0849 206.28 2.3889 211.194 2.3889C213.21 2.3889 214.701 2.9559 216.234 3.6069V5.7069C213.882 4.3419 211.95 4.2159 211.152 4.2159C208.296 4.2159 205.587 6.3579 205.587 9.7389C205.587 12.9099 207.876 15.2829 211.341 15.2829C212.391 15.2829 213.105 15.0939 214.47 14.6529V11.6709H211.719V9.8649H216.528ZM219.178 7.4709H221.047V9.6339C221.656 8.6889 222.538 7.2819 223.861 7.2819C224.134 7.2819 224.974 7.3029 226.066 8.3529L225.079 9.9909C224.848 9.7599 224.008 9.0669 223.273 9.0669C222.58 9.0669 221.047 9.8229 221.047 11.9649V16.8999H219.178V7.4709ZM231.345 7.2819C234.159 7.2819 236.343 9.2349 236.343 12.2169C236.343 15.5769 233.613 17.0889 231.282 17.0889C228.258 17.0889 226.263 14.8629 226.263 12.1749C226.263 9.5289 228.195 7.2819 231.345 7.2819ZM231.24 8.9619C229.56 8.9619 228.174 10.1169 228.174 12.1959C228.174 14.5689 229.938 15.4089 231.324 15.4089C233.172 15.4089 234.432 14.0859 234.432 12.1749C234.432 9.8019 232.584 8.9619 231.24 8.9619ZM246.292 16.8999H244.402V15.7029C243.541 16.6479 242.428 17.0889 241.546 17.0889C240.958 17.0889 239.656 16.8789 238.879 15.5769C238.585 15.1149 238.354 14.5689 238.354 12.8469V7.4709H240.244V12.8469C240.244 13.9179 240.244 15.5349 242.155 15.5349C243.037 15.5349 243.835 15.0099 244.402 14.2119V7.4709H246.292V16.8999ZM248.791 7.4709H252.067C252.172 7.4709 254.146 7.4709 255.427 8.2689C257.107 9.3399 257.38 11.2509 257.38 12.1959C257.38 14.9469 255.511 17.0889 252.697 17.0889C251.731 17.0889 251.143 16.8369 250.702 16.6689V21.7299H248.791V7.4709ZM252.025 9.2139H250.702V15.0099C251.563 15.4509 252.34 15.4509 252.508 15.4509C254.167 15.4509 255.469 14.2119 255.469 12.1959C255.469 9.2139 252.949 9.2139 252.025 9.2139ZM264.877 8.0589V9.9069C263.827 9.2559 263.029 8.8989 262.147 8.8989C261.265 8.8989 260.95 9.3819 260.95 9.7389C260.95 10.3479 261.601 10.6839 262.987 11.4609C264.331 12.1959 265.339 13.1619 265.339 14.4219C265.339 15.3039 264.667 17.0889 262.105 17.0889C260.782 17.0889 259.9 16.6899 258.955 16.2279V14.2119C260.299 15.1359 261.454 15.4509 261.958 15.4509C262.546 15.4509 263.386 15.1149 263.386 14.4849C263.386 13.8129 262.819 13.4979 261.937 13.0149C260.383 12.1539 259.018 11.3139 259.018 9.7389C259.018 8.3529 260.215 7.2819 262.021 7.2819C263.428 7.2819 264.436 7.8279 264.877 8.0589Z" fill="#28348A"/>
<path d="M21.102 62.4939L27.507 76.8999H25.407L23.496 72.6789H17.406L15.6 76.8999H13.5L19.653 62.4939H21.102ZM18.204 70.8309H22.656L20.346 65.6439L18.204 70.8309ZM28.7458 67.4709H30.6148V69.6339C31.2238 68.6889 32.1058 67.2819 33.4288 67.2819C33.7018 67.2819 34.5418 67.3029 35.6338 68.3529L34.6468 69.9909C34.4158 69.7599 33.5758 69.0669 32.8408 69.0669C32.1478 69.0669 30.6148 69.8229 30.6148 71.9649V76.8999H28.7458V67.4709ZM44.2722 74.1489V75.9759C43.6212 76.3959 42.5502 77.0889 40.5762 77.0889C39.5892 77.0889 38.4552 76.9419 37.3212 75.7659C36.0822 74.4849 35.9142 73.0359 35.9142 72.1329C35.9142 69.1929 37.7622 67.2819 40.3242 67.2819C42.5292 67.2819 44.0202 68.8569 44.3352 70.9359C44.4402 71.5659 44.4402 71.9859 44.4402 72.3429H37.8042C37.8672 73.7499 38.7912 75.3039 40.8492 75.3039C42.0672 75.3039 43.2642 74.8839 44.2722 74.1489ZM37.8462 71.2299H42.5922C42.5712 70.8519 42.4242 68.8989 40.3032 68.8989C39.7152 68.8989 39.0012 69.1299 38.4972 69.6969C37.9932 70.2429 37.9092 70.8099 37.8462 71.2299ZM53.838 75.2199V76.3539C52.977 76.9209 52.62 77.0889 52.032 77.0889C51.213 77.0889 50.772 76.7949 50.604 76.1229C49.785 76.7739 48.924 77.0889 48.063 77.0889C46.677 77.0889 45.753 75.9969 45.753 74.7789C45.753 72.9099 47.454 72.3429 48.966 71.7969L50.625 71.2089V70.7049C50.625 69.5289 50.058 69.0459 48.924 69.0459C47.895 69.0459 46.845 69.5289 45.942 70.5999V68.5629C46.677 67.7019 47.706 67.2819 49.071 67.2819C50.982 67.2819 52.494 68.2479 52.494 70.3899V75.2409C52.494 75.5979 52.62 75.7239 52.851 75.7239C53.04 75.7239 53.418 75.5349 53.838 75.2199ZM50.625 74.9889V72.2379C49.029 72.7839 47.643 73.3299 47.643 74.4429C47.643 75.2199 48.21 75.7659 48.987 75.7659C49.575 75.7659 50.121 75.4719 50.625 74.9889ZM60.868 68.0589V69.9069C59.818 69.2559 59.02 68.8989 58.138 68.8989C57.256 68.8989 56.941 69.3819 56.941 69.7389C56.941 70.3479 57.592 70.6839 58.978 71.4609C60.322 72.1959 61.33 73.1619 61.33 74.4219C61.33 75.3039 60.658 77.0889 58.096 77.0889C56.773 77.0889 55.891 76.6899 54.946 76.2279V74.2119C56.29 75.1359 57.445 75.4509 57.949 75.4509C58.537 75.4509 59.377 75.1149 59.377 74.4849C59.377 73.8129 58.81 73.4979 57.928 73.0149C56.374 72.1539 55.009 71.3139 55.009 69.7389C55.009 68.3529 56.206 67.2819 58.012 67.2819C59.419 67.2819 60.427 67.8279 60.868 68.0589Z" fill="#28348A"/>
</svg>
