<svg width="72" height="71" viewBox="0 0 72 71" fill="none" xmlns="http://www.w3.org/2000/svg">
<path d="M35.8904 70.5C55.3529 70.5 71.1304 54.7225 71.1304 35.26C71.1304 15.7975 55.3529 0.0200195 35.8904 0.0200195C16.4279 0.0200195 0.650391 15.7975 0.650391 35.26C0.650391 54.7225 16.4279 70.5 35.8904 70.5Z" fill="#28348A"/>
<path d="M24.2709 25.7599C23.5109 25.5499 22.8009 25.4299 22.1409 25.1499C19.7209 24.1499 18.4309 21.7299 18.8009 18.9599C19.1309 16.4399 21.0709 14.51 23.6109 14.16C23.9309 14.12 24.2509 14.0899 24.5709 14.0899C32.2209 14.0899 39.8809 14.0699 47.5309 14.0899C50.5109 14.0999 52.8009 16.0599 53.3009 18.9299C53.8509 22.0799 51.6209 25.1299 48.4409 25.5799C48.2509 25.6099 48.0709 25.6299 47.7909 25.6699C47.9509 26.3899 48.1009 27.0799 48.2609 27.7699C48.3509 28.1699 48.3209 28.5399 47.9609 28.7799C47.5309 29.0799 47.1409 28.9499 46.8009 28.5899C45.9609 27.7199 45.1209 26.8399 44.2509 26.0099C44.0509 25.8099 43.7009 25.66 43.4309 25.66C38.5209 25.64 33.6009 25.64 28.6909 25.66C28.4009 25.66 28.0409 25.8299 27.8209 26.0399C26.9709 26.8499 26.1609 27.6999 25.3509 28.5399C25.0209 28.8899 24.6509 29.0899 24.2009 28.8299C23.7709 28.5899 23.7409 28.1799 23.8409 27.7399C23.9809 27.0699 24.1309 26.4 24.2709 25.7599ZM45.8909 25.2499C45.9109 24.2299 46.1309 24.0099 47.1209 24.0099C47.3309 24.0099 47.5409 24.0099 47.7409 23.9999C50.0409 23.8799 51.7609 22.0399 51.7109 19.7399C51.6609 17.5199 49.8609 15.7499 47.6009 15.7399C39.8909 15.7299 32.1809 15.7299 24.4609 15.7399C22.3009 15.7399 20.5709 17.3399 20.3709 19.4599C20.1709 21.6299 21.6209 23.5399 23.7809 23.9199C24.2809 24.0099 24.8009 23.9799 25.3009 24.0199C25.8409 24.0599 26.1209 24.3499 26.1509 24.8799C26.1609 24.9999 26.1609 25.1099 26.1809 25.3599C26.4009 25.1099 26.5509 24.96 26.6709 24.8C27.1309 24.21 27.7109 23.9899 28.4909 23.9999C33.2909 24.0399 38.0909 24.0499 42.8909 23.9999C44.0509 23.9899 45.0209 24.1399 45.7009 25.1499C45.7409 25.1799 45.8009 25.1999 45.8909 25.2499Z" fill="white"/>
<path d="M20.3007 41.5799C18.5207 40.3099 17.6307 38.6299 17.6807 36.5199C17.7207 34.8699 18.3207 33.4199 19.5207 32.2599C21.8107 30.0299 25.5507 30.0499 27.8007 32.3299C29.1107 33.6499 29.6807 35.2699 29.5707 37.1199C29.4607 38.9999 28.5307 40.4399 26.9607 41.5999C28.2307 42.0299 29.4007 42.4399 30.5807 42.8199C31.8807 43.2299 32.9607 43.9499 33.5907 45.1499C33.9507 45.8299 34.2007 46.6199 34.3107 47.3899C34.4307 48.2999 34.3807 49.2399 34.3407 50.1599C34.3007 51.2099 33.5207 51.9899 32.4707 52.0999C32.3207 52.1099 32.1707 52.1199 32.0207 52.1199C26.4307 52.1199 20.8307 52.1199 15.2407 52.1199C14.0107 52.1199 13.1207 51.5999 13.0007 50.5499C12.8007 48.8299 12.6507 47.0799 13.4907 45.4399C14.1207 44.2099 15.1207 43.3699 16.4207 42.9199C17.5107 42.5399 18.6007 42.1899 19.7007 41.8199C19.8707 41.7499 20.0407 41.6799 20.3007 41.5799ZM23.6007 50.4499C26.4007 50.4499 29.1907 50.4399 31.9907 50.4599C32.5307 50.4599 32.7507 50.2699 32.7307 49.7299C32.7107 49.1499 32.7307 48.5599 32.7207 47.9699C32.7107 46.2299 31.8307 44.9899 30.1707 44.4199C28.6707 43.8999 27.1607 43.4099 25.6507 42.9199C24.4707 42.5399 23.2607 42.4399 22.0807 42.7999C20.3107 43.3299 18.5407 43.8999 16.8107 44.5399C15.3607 45.0799 14.6107 46.2099 14.5707 47.7699C14.5507 48.3899 14.5607 49.0199 14.5707 49.6399C14.5707 50.3899 14.6207 50.4399 15.3807 50.4399C18.1207 50.4499 20.8607 50.4499 23.6007 50.4499ZM19.3207 36.6099C19.3207 39.0599 21.1807 40.8899 23.6407 40.8899C26.1007 40.8899 27.9707 39.0299 27.9607 36.5999C27.9607 34.1599 26.0807 32.3199 23.6207 32.3199C21.1607 32.3199 19.3207 34.1599 19.3207 36.6099Z" fill="white"/>
<path d="M45.0807 41.5899C43.2807 40.2499 42.3607 38.5399 42.4807 36.3499C42.5807 34.6699 43.2407 33.2499 44.4807 32.1099C46.7707 29.9999 50.5107 30.1599 52.6907 32.4099C54.6607 34.4499 55.5007 38.8399 51.8007 41.6199C52.9207 41.9999 54.0007 42.3799 55.0907 42.7399C57.8807 43.6399 59.1607 45.3899 59.1607 48.3399C59.1607 48.9099 59.1707 49.4699 59.1607 50.0399C59.1307 51.1899 58.3207 52.0299 57.1707 52.1099C56.9807 52.1199 56.7907 52.1199 56.6007 52.1199C51.1407 52.1199 45.6807 52.1199 40.2207 52.1199C38.4407 52.1199 37.7007 51.3799 37.7007 49.6099C37.7007 49.0099 37.6907 48.3999 37.7007 47.7999C37.7307 45.5199 39.0907 43.6399 41.2507 42.9099C42.3207 42.5499 43.4007 42.1899 44.4707 41.8299C44.6607 41.7599 44.8207 41.6899 45.0807 41.5899ZM48.4507 50.4499C51.2307 50.4499 54.0107 50.4399 56.7807 50.4599C57.2807 50.4599 57.5107 50.2999 57.4907 49.7699C57.4607 49.1999 57.4907 48.6399 57.4807 48.0699C57.4807 46.1599 56.6507 44.9899 54.8307 44.3699C53.4007 43.8799 51.9607 43.4199 50.5307 42.9499C49.1607 42.4999 47.7807 42.4799 46.4107 42.9199C44.8507 43.4299 43.2807 43.9299 41.7307 44.4799C40.3707 44.9699 39.5507 45.9599 39.3707 47.3999C39.2807 48.1499 39.3307 48.9099 39.3307 49.6599C39.3307 50.3599 39.4107 50.4499 40.1107 50.4499C42.9007 50.4499 45.6807 50.4499 48.4507 50.4499ZM52.7507 36.5699C52.7307 34.1199 50.8807 32.2999 48.4107 32.3099C45.9507 32.3199 44.0807 34.1899 44.1007 36.6199C44.1207 39.0599 46.0107 40.9099 48.4607 40.8799C50.9207 40.8699 52.7707 39.0199 52.7507 36.5699Z" fill="white"/>
<path d="M43.8611 19.8699C43.8611 20.5499 43.3211 21.0999 42.6411 21.0999C41.9711 21.0999 41.4111 20.5499 41.4111 19.8799C41.4111 19.2099 41.9611 18.6599 42.6411 18.6499C43.3211 18.6499 43.8611 19.1899 43.8611 19.8699Z" fill="white"/>
<path d="M29.4408 21.0999C28.7708 21.1099 28.2208 20.5599 28.2208 19.8799C28.2108 19.1999 28.7608 18.6499 29.4308 18.6499C30.1008 18.6499 30.6508 19.1899 30.6608 19.8699C30.6508 20.5399 30.1108 21.0899 29.4408 21.0999Z" fill="white"/>
<path d="M36.0611 18.65C36.7211 18.66 37.2811 19.24 37.2611 19.9C37.2411 20.57 36.6811 21.12 36.0111 21.1C35.3511 21.09 34.7911 20.51 34.8111 19.85C34.8211 19.19 35.3911 18.64 36.0611 18.65Z" fill="white"/>
</svg>
