<svg width="62" height="62" viewBox="0 0 62 62" fill="none" xmlns="http://www.w3.org/2000/svg">
<path d="M21.421 25.34C20.811 25.17 20.231 25.07 19.711 24.85C17.761 24.04 16.731 22.1 17.021 19.87C17.291 17.84 18.851 16.28 20.891 16.01C21.151 15.98 21.411 15.95 21.661 15.95C27.821 15.95 33.981 15.94 40.141 15.95C42.541 15.96 44.381 17.53 44.781 19.85C45.221 22.38 43.421 24.84 40.871 25.2C40.721 25.22 40.571 25.24 40.341 25.27C40.471 25.85 40.591 26.4 40.721 26.96C40.791 27.28 40.771 27.58 40.481 27.78C40.131 28.02 39.821 27.91 39.541 27.63C38.861 26.93 38.191 26.23 37.491 25.55C37.331 25.39 37.051 25.27 36.831 25.27C32.881 25.25 28.921 25.25 24.971 25.27C24.731 25.27 24.441 25.41 24.271 25.57C23.591 26.22 22.941 26.9 22.281 27.58C22.011 27.86 21.721 28.02 21.351 27.81C21.001 27.61 20.981 27.29 21.061 26.93C21.191 26.39 21.311 25.85 21.421 25.34ZM38.821 24.93C38.841 24.11 39.021 23.94 39.811 23.93C39.981 23.93 40.141 23.93 40.311 23.92C42.161 23.82 43.541 22.34 43.501 20.49C43.461 18.7 42.011 17.28 40.191 17.27C33.981 17.26 27.781 17.26 21.571 17.27C19.831 17.27 18.441 18.56 18.281 20.26C18.121 22 19.291 23.54 21.021 23.85C21.421 23.92 21.841 23.9 22.251 23.93C22.681 23.96 22.911 24.2 22.931 24.63C22.931 24.72 22.941 24.82 22.951 25.01C23.131 24.81 23.251 24.69 23.351 24.56C23.721 24.08 24.181 23.91 24.811 23.91C28.671 23.94 32.541 23.95 36.401 23.91C37.331 23.9 38.111 24.02 38.661 24.84C38.701 24.87 38.751 24.88 38.821 24.93Z" fill="black"/>
<path d="M18.2304 38.07C16.7904 37.05 16.0804 35.7 16.1204 34C16.1504 32.67 16.6404 31.51 17.6004 30.57C19.4404 28.77 22.4604 28.79 24.2704 30.62C25.3204 31.68 25.7904 32.99 25.6904 34.48C25.6004 35.99 24.8604 37.15 23.5904 38.09C24.6104 38.43 25.5504 38.77 26.5004 39.07C27.5404 39.4 28.4104 39.98 28.9304 40.95C29.2204 41.5 29.4204 42.13 29.5104 42.75C29.6104 43.48 29.5604 44.24 29.5404 44.98C29.5104 45.83 28.8804 46.45 28.0304 46.54C27.9104 46.55 27.7904 46.55 27.6704 46.55C23.1704 46.55 18.6704 46.55 14.1704 46.55C13.1804 46.55 12.4604 46.13 12.3604 45.29C12.2004 43.91 12.0704 42.49 12.7504 41.18C13.2604 40.19 14.0604 39.52 15.1104 39.15C15.9904 38.85 16.8704 38.56 17.7504 38.27C17.8804 38.21 18.0204 38.15 18.2304 38.07ZM20.8904 45.21C23.1404 45.21 25.3904 45.2 27.6404 45.22C28.0704 45.22 28.2504 45.07 28.2304 44.63C28.2104 44.16 28.2304 43.69 28.2204 43.22C28.2104 41.82 27.5004 40.82 26.1704 40.36C24.9604 39.94 23.7504 39.55 22.5404 39.15C21.5904 38.84 20.6204 38.77 19.6604 39.05C18.2304 39.48 16.8104 39.93 15.4204 40.45C14.2504 40.89 13.6504 41.8 13.6204 43.05C13.6104 43.55 13.6204 44.05 13.6204 44.56C13.6204 45.16 13.6604 45.21 14.2704 45.21C16.4804 45.21 18.6804 45.21 20.8904 45.21ZM17.4404 34.06C17.4404 36.03 18.9404 37.51 20.9204 37.51C22.9004 37.51 24.4004 36.01 24.4004 34.05C24.4004 32.09 22.8904 30.6 20.9104 30.61C18.9204 30.61 17.4404 32.09 17.4404 34.06Z" fill="black"/>
<path d="M38.17 38.0699C36.72 36.9899 35.98 35.6199 36.08 33.8499C36.16 32.4999 36.69 31.3499 37.69 30.4299C39.54 28.7299 42.55 28.8599 44.29 30.6699C45.88 32.3099 46.55 35.8499 43.58 38.0799C44.48 38.3899 45.35 38.6999 46.23 38.9799C48.48 39.6999 49.51 41.1099 49.51 43.4899C49.51 43.9499 49.52 44.3999 49.51 44.8599C49.48 45.7899 48.83 46.4599 47.91 46.5199C47.76 46.5299 47.61 46.5299 47.45 46.5299C43.05 46.5299 38.66 46.5299 34.26 46.5299C32.83 46.5299 32.23 45.9399 32.23 44.5099C32.23 44.0199 32.22 43.5399 32.23 43.0499C32.26 41.2099 33.35 39.7099 35.09 39.1099C35.95 38.8199 36.82 38.5299 37.68 38.2399C37.83 38.2099 37.97 38.1499 38.17 38.0699ZM40.89 45.2099C43.13 45.2099 45.36 45.1999 47.6 45.2199C48.01 45.2199 48.19 45.0899 48.17 44.6699C48.15 44.2099 48.17 43.7599 48.17 43.2999C48.17 41.7599 47.5 40.8199 46.04 40.3199C44.89 39.9299 43.73 39.5599 42.58 39.1699C41.48 38.7999 40.37 38.7899 39.26 39.1499C38 39.5599 36.74 39.9599 35.5 40.3999C34.4 40.7899 33.75 41.5899 33.6 42.7499C33.53 43.3499 33.57 43.9599 33.56 44.5699C33.56 45.1299 33.63 45.1999 34.19 45.1999C36.42 45.2099 38.65 45.2099 40.89 45.2099ZM44.34 34.0399C44.33 32.0699 42.83 30.5999 40.85 30.6099C38.87 30.6199 37.37 32.1299 37.39 34.0799C37.41 36.0399 38.93 37.5299 40.89 37.5099C42.88 37.4899 44.36 35.9999 44.34 34.0399Z" fill="black"/>
<path d="M37.1907 20.6C37.1907 21.15 36.7507 21.59 36.2107 21.59C35.6707 21.59 35.2207 21.15 35.2207 20.61C35.2207 20.07 35.6607 19.63 36.2107 19.62C36.7507 19.61 37.1907 20.05 37.1907 20.6Z" fill="black"/>
<path d="M25.5806 21.5801C25.0406 21.5801 24.6006 21.1501 24.6006 20.6001C24.6006 20.0601 25.0306 19.6101 25.5706 19.6101C26.1106 19.6101 26.5506 20.0501 26.5606 20.5901C26.5606 21.1301 26.1206 21.5801 25.5806 21.5801Z" fill="black"/>
<path d="M30.9103 19.61C31.4403 19.62 31.8903 20.08 31.8803 20.61C31.8703 21.15 31.4103 21.59 30.8803 21.58C30.3503 21.57 29.9003 21.11 29.9103 20.58C29.9203 20.05 30.3703 19.6 30.9103 19.61Z" fill="black"/>
<path d="M31.1006 61.5299C14.4006 61.5299 0.810547 47.94 0.810547 31.24C0.810547 14.54 14.4006 0.949951 31.1006 0.949951C47.8006 0.949951 61.3905 14.54 61.3905 31.24C61.3905 47.94 47.8006 61.5299 31.1006 61.5299ZM31.1006 1.94995C14.9506 1.94995 1.81055 15.09 1.81055 31.24C1.81055 47.39 14.9506 60.5299 31.1006 60.5299C47.2506 60.5299 60.3905 47.39 60.3905 31.24C60.3905 15.09 47.2506 1.94995 31.1006 1.94995Z" fill="black"/>
</svg>
