<svg width="72" height="71" viewBox="0 0 72 71" fill="none" xmlns="http://www.w3.org/2000/svg">
<path d="M35.99 70.5C55.4525 70.5 71.23 54.7225 71.23 35.26C71.23 15.7975 55.4525 0.0200195 35.99 0.0200195C16.5275 0.0200195 0.75 15.7975 0.75 35.26C0.75 54.7225 16.5275 70.5 35.99 70.5Z" fill="#28348A"/>
<path d="M57.7496 26.96C57.6596 27.67 57.6196 28.4 57.4696 29.1C57.2096 30.32 57.5896 31.34 58.3096 32.3C58.6496 32.75 58.9696 33.22 59.2296 33.71C59.8796 34.93 59.8796 36.17 59.2296 37.4C59.0096 37.82 58.7696 38.24 58.4596 38.6C57.4796 39.76 57.1896 41.06 57.5296 42.54C57.6496 43.07 57.6796 43.62 57.7096 44.16C57.7896 45.47 57.2396 46.48 56.1696 47.21C55.5896 47.61 54.9896 47.98 54.3696 48.31C53.3696 48.84 52.7996 49.68 52.4996 50.74C52.3496 51.3 52.1896 51.86 51.9796 52.4C51.3696 53.91 50.1996 54.71 48.5996 54.89C47.8696 54.97 47.1296 55.01 46.3996 55.09C45.7396 55.16 45.1996 55.48 44.7496 55.95C44.2296 56.48 43.7196 57.01 43.2096 57.54C42.0496 58.72 40.6896 59 39.1496 58.43C38.6696 58.25 38.1896 58.1 37.7196 57.89C36.6096 57.39 35.5196 57.4 34.3996 57.9C33.8696 58.14 33.3196 58.32 32.7696 58.5C31.3496 58.98 30.0996 58.68 29.0296 57.64C28.5396 57.16 28.0596 56.67 27.5996 56.16C26.9096 55.39 26.0496 55.06 25.0396 54.99C24.1996 54.93 23.3496 54.87 22.5296 54.67C21.1196 54.33 19.7896 52.55 19.7496 51.09C19.7396 50.65 19.9396 50.34 20.3796 50.24C20.8296 50.14 21.1696 50.31 21.3596 50.74C21.3696 50.77 21.3796 50.81 21.3896 50.84C22.0496 52.82 22.4596 53.13 24.5496 53.28C25.0196 53.31 25.4996 53.34 25.9696 53.4C26.9196 53.53 27.7596 53.91 28.4296 54.61C28.9096 55.1 29.3996 55.58 29.8496 56.1C30.6996 57.08 31.7196 57.18 32.8496 56.71C33.0796 56.62 33.2996 56.51 33.5196 56.41C35.1996 55.62 36.8796 55.61 38.5596 56.4C40.5996 57.36 41.2896 57.25 42.7796 55.53C43.8096 54.34 44.9596 53.44 46.5896 53.33C47.1496 53.29 47.7096 53.24 48.2696 53.2C49.4396 53.12 50.1996 52.52 50.5496 51.41C50.6496 51.11 50.7196 50.8 50.7896 50.49C51.1996 48.71 52.2296 47.43 53.8596 46.63C54.0496 46.54 54.2496 46.46 54.4196 46.35C55.9296 45.4 56.1696 44.91 55.8896 43.11C55.7396 42.17 55.5496 41.25 55.7396 40.29C55.9196 39.41 56.2696 38.62 56.8196 37.91C57.0396 37.63 57.2596 37.36 57.4496 37.07C58.0896 36.13 58.1296 35.17 57.5096 34.21C57.2696 33.84 57.0396 33.46 56.7696 33.12C55.7196 31.76 55.4196 30.25 55.7796 28.59C55.8696 28.18 55.9096 27.76 55.9596 27.34C56.0796 26.23 55.5896 25.44 54.6396 24.91C54.2696 24.7 53.8896 24.53 53.5196 24.32C52.2396 23.6 51.3096 22.6 50.9296 21.14C50.7896 20.61 50.5796 20.11 50.4296 19.58C50.1196 18.53 49.3796 18.04 48.3496 17.93C47.6196 17.85 46.8696 17.86 46.1496 17.74C44.8296 17.52 43.7596 16.83 42.9196 15.81C41.3196 13.88 40.7096 13.74 38.4396 14.77C36.7896 15.52 35.1396 15.5 33.4896 14.73C33.3896 14.69 33.2996 14.63 33.2096 14.59C31.1996 13.77 30.7796 14.06 29.5896 15.25C29.3196 15.52 29.0496 15.81 28.7996 16.1C27.8196 17.27 26.5396 17.78 25.0396 17.83C24.4396 17.85 23.8496 17.94 23.2596 18.02C22.4896 18.12 21.9696 18.56 21.7096 19.28C21.4296 20.06 21.1596 20.84 20.8996 21.62C20.5596 22.63 19.9396 23.41 19.0296 23.95C18.4596 24.29 17.8996 24.66 17.3096 24.98C16.1496 25.6 15.8896 26.6 16.0796 27.8C16.1696 28.39 16.3196 28.97 16.3596 29.57C16.4496 30.88 16.0596 32.07 15.2696 33.13C15.2096 33.21 15.1396 33.3 15.0796 33.38C13.6996 35.2 13.6896 35.98 15.0996 37.79C16.0696 39.03 16.5096 40.41 16.3396 41.97C16.2896 42.39 16.1696 42.8 16.1096 43.21C15.8596 44.95 16.1896 45.48 17.5896 46.35C17.8696 46.53 18.1896 46.66 18.4596 46.84C18.8696 47.11 18.9796 47.54 18.7796 47.94C18.5696 48.34 18.1496 48.53 17.6996 48.31C16.7196 47.83 15.7496 47.31 15.0396 46.45C14.4396 45.73 14.2996 44.87 14.3796 43.97C14.4396 43.25 14.4996 42.53 14.6096 41.82C14.7496 40.83 14.5796 39.94 13.9696 39.13C13.6096 38.65 13.2996 38.14 12.9796 37.63C12.1096 36.26 12.1096 34.88 12.9796 33.51C13.2996 33 13.6096 32.49 13.9696 32.01C14.6596 31.08 14.7896 30.06 14.5896 28.96C14.4796 28.32 14.3896 27.67 14.3496 27.03C14.2696 25.71 14.8096 24.67 15.9096 23.94C16.6596 23.44 17.3996 22.94 18.1596 22.47C18.8096 22.07 19.1996 21.49 19.4196 20.78C19.5996 20.21 19.7996 19.65 19.9696 19.08C20.5296 17.25 21.7896 16.36 23.6696 16.26C24.1596 16.23 24.6496 16.18 25.1396 16.14C26.0496 16.07 26.8396 15.74 27.4696 15.05C27.9296 14.54 28.4096 14.05 28.8996 13.57C29.9996 12.47 31.2896 12.15 32.7696 12.66C33.3996 12.88 34.0296 13.11 34.6496 13.36C35.5596 13.73 36.4596 13.72 37.3696 13.36C38.0196 13.1 38.6796 12.85 39.3496 12.63C40.7096 12.18 41.9196 12.44 42.9596 13.43C43.4696 13.92 43.9696 14.42 44.4296 14.94C45.1396 15.74 46.0296 16.11 47.0796 16.15C47.7496 16.18 48.4196 16.25 49.0696 16.35C50.3896 16.56 51.3396 17.27 51.8196 18.53C52.0896 19.23 52.3396 19.95 52.5496 20.67C52.8296 21.6 53.3796 22.28 54.2196 22.76C54.8396 23.12 55.4696 23.48 56.0696 23.88C57.1996 24.61 57.7896 25.62 57.7496 26.96Z" fill="white"/>
<path d="M53.0397 35.4101C52.9797 43.3801 47.3397 50.5601 39.6797 52.1001C29.9197 54.0701 21.8398 48.1601 19.6898 39.5401C17.4898 30.7001 22.4798 21.9301 31.2298 19.3901C37.4498 17.5901 43.0098 19.0201 47.7998 23.4001C48.3398 23.9001 48.4097 24.3601 48.0397 24.7701C47.6697 25.1701 47.1398 25.1301 46.6198 24.6101C40.9698 18.9801 31.5597 19.0601 25.7697 24.3301C22.9797 26.8801 21.4298 30.1001 20.9398 33.8101C19.7898 42.5001 26.5897 49.7101 34.2697 50.6801C42.2197 51.6801 49.8098 45.9901 51.0498 38.0901C51.5998 34.6001 51.0598 31.3001 49.3698 28.1901C49.0398 27.5801 49.1098 27.1201 49.5498 26.8501C49.9898 26.5701 50.4797 26.7201 50.7897 27.2501C51.7497 28.9101 52.4198 30.6801 52.7298 32.5701C52.8798 33.5201 52.9398 34.4701 53.0397 35.4101Z" fill="white"/>
<path d="M33.6696 36.79C36.2396 34.22 38.7496 31.71 41.2496 29.19C41.7896 28.64 42.4096 28.28 43.1996 28.29C44.2896 28.3 45.0996 28.81 45.5496 29.79C45.9996 30.78 45.8496 31.75 45.0896 32.52C41.8796 35.76 38.6596 38.98 35.4296 42.19C34.4396 43.18 32.9196 43.16 31.9096 42.17C30.2896 40.58 28.6796 38.98 27.0996 37.36C26.1196 36.36 26.1396 34.83 27.0996 33.84C28.0696 32.84 29.6096 32.8 30.6596 33.77C31.1796 34.25 31.6596 34.76 32.1596 35.26C32.6396 35.74 33.1296 36.24 33.6696 36.79ZM28.9696 34.69C28.7696 34.74 28.6796 34.76 28.5996 34.79C27.9496 35.03 27.8396 35.73 28.3896 36.28C29.8596 37.77 31.3496 39.24 32.8296 40.72C33.4796 41.37 33.8596 41.36 34.5196 40.7C37.5396 37.68 40.5696 34.65 43.5896 31.63C43.6996 31.52 43.8796 31.41 43.8996 31.28C43.9596 30.97 44.0296 30.62 43.9296 30.35C43.7896 29.99 43.3996 29.88 43.0396 29.99C42.8196 30.06 42.6196 30.23 42.4496 30.4C39.7896 33.05 37.1496 35.7 34.4896 38.35C33.8596 38.98 33.4796 38.97 32.8496 38.34C31.7796 37.27 30.7096 36.19 29.6296 35.14C29.4196 34.94 29.1496 34.81 28.9696 34.69Z" fill="white"/>
</svg>
