<svg width="62" height="62" viewBox="0 0 62 62" fill="none" xmlns="http://www.w3.org/2000/svg">
<path d="M47.8101 25.1999C47.7401 25.7599 47.7101 26.3199 47.5901 26.8699C47.3901 27.8199 47.6801 28.6099 48.2401 29.3599C48.5001 29.7099 48.7501 30.0699 48.9601 30.4599C49.4701 31.4099 49.4601 32.3799 48.9601 33.3299C48.7901 33.6599 48.6001 33.9799 48.3601 34.2599C47.6001 35.1599 47.3701 36.1699 47.6401 37.3199C47.7301 37.7299 47.7601 38.1599 47.7801 38.5799C47.8401 39.5999 47.4101 40.3899 46.5901 40.9499C46.1401 41.2599 45.6701 41.5499 45.1901 41.8099C44.4101 42.2199 43.9701 42.8699 43.7401 43.6999C43.6201 44.1299 43.5001 44.5699 43.3301 44.9899C42.8501 46.1699 41.9501 46.7899 40.7001 46.9199C40.1301 46.9799 39.5601 47.0199 38.9901 47.0799C38.4801 47.1399 38.0601 47.3799 37.7101 47.7499C37.3101 48.1599 36.9101 48.5799 36.5101 48.9899C35.6101 49.9099 34.5501 50.1299 33.3501 49.6799C32.9801 49.5399 32.6001 49.4199 32.2401 49.2599C31.3801 48.8699 30.5301 48.8799 29.6601 49.2699C29.2501 49.4499 28.8201 49.5899 28.3901 49.7399C27.2901 50.1099 26.3101 49.8799 25.4801 49.0699C25.1001 48.6999 24.7301 48.3099 24.3701 47.9199C23.8301 47.3199 23.1701 47.0599 22.3801 47.0099C21.7301 46.9699 21.0601 46.9099 20.4301 46.7599C19.3301 46.4999 18.3001 45.1099 18.2701 43.9799C18.2601 43.6399 18.4201 43.3899 18.7601 43.3199C19.1101 43.2399 19.3801 43.3699 19.5201 43.7099C19.5301 43.7299 19.5401 43.7599 19.5401 43.7899C20.0601 45.3299 20.3701 45.5699 21.9901 45.6899C22.3601 45.7199 22.7301 45.7399 23.0901 45.7899C23.8301 45.8899 24.4801 46.1899 25.0001 46.7299C25.3701 47.1099 25.7501 47.4899 26.1001 47.8899C26.7601 48.6499 27.5501 48.7299 28.4401 48.3699C28.6201 48.2999 28.7901 48.2199 28.9601 48.1399C30.2701 47.5199 31.5701 47.5199 32.8801 48.1299C34.4701 48.8799 35.0001 48.7899 36.1601 47.4499C36.9601 46.5299 37.8601 45.8199 39.1201 45.7399C39.5601 45.7099 39.9901 45.6699 40.4301 45.6399C41.3401 45.5799 41.9301 45.1099 42.2101 44.2499C42.2801 44.0199 42.3401 43.7799 42.4001 43.5399C42.7201 42.1599 43.5201 41.1599 44.7901 40.5399C44.9401 40.4699 45.0901 40.4099 45.2301 40.3199C46.4101 39.5799 46.5901 39.1999 46.3701 37.7999C46.2501 37.0699 46.1001 36.3499 46.2501 35.6099C46.3901 34.9299 46.6601 34.3099 47.0901 33.7599C47.2601 33.5399 47.4301 33.3299 47.5801 33.0999C48.0801 32.3699 48.1101 31.6299 47.6301 30.8699C47.4501 30.5799 47.2701 30.2899 47.0601 30.0199C46.2401 28.9699 46.0101 27.7899 46.2901 26.4999C46.3601 26.1799 46.3901 25.8499 46.4301 25.5299C46.5201 24.6699 46.1401 24.0499 45.4101 23.6399C45.1201 23.4799 44.8301 23.3399 44.5401 23.1799C43.5501 22.6199 42.8201 21.8399 42.5301 20.7099C42.4201 20.2999 42.2601 19.9099 42.1401 19.4999C41.9001 18.6899 41.3201 18.2999 40.5201 18.2199C39.9501 18.1599 39.3701 18.1599 38.8101 18.0699C37.7801 17.8999 36.9601 17.3699 36.3001 16.5699C35.0601 15.0699 34.5901 14.9599 32.8201 15.7599C31.5401 16.3399 30.2501 16.3299 28.9801 15.7299C28.9101 15.6999 28.8401 15.6499 28.7601 15.6199C27.1901 14.9799 26.8701 15.2099 25.9501 16.1299C25.7401 16.3399 25.5301 16.5599 25.3401 16.7899C24.5801 17.6999 23.5801 18.0899 22.4201 18.1399C21.9601 18.1599 21.5001 18.2299 21.0401 18.2899C20.4401 18.3699 20.0401 18.7099 19.8401 19.2699C19.6201 19.8699 19.4201 20.4799 19.2101 21.0899C18.9501 21.8799 18.4701 22.4799 17.7601 22.9099C17.3101 23.1799 16.8801 23.4599 16.4201 23.7099C15.5201 24.1899 15.3201 24.9699 15.4701 25.8999C15.5401 26.3599 15.6601 26.8099 15.6901 27.2699C15.7601 28.2899 15.4601 29.2099 14.8501 30.0299C14.8001 30.0999 14.7501 30.1599 14.7001 30.2299C13.6301 31.6399 13.6201 32.2499 14.7201 33.6599C15.4701 34.6199 15.8101 35.6999 15.6801 36.9099C15.6401 37.2299 15.5501 37.5499 15.5001 37.8799C15.3001 39.2399 15.5701 39.6399 16.6501 40.3199C16.8701 40.4599 17.1101 40.5599 17.3301 40.6999C17.6501 40.9099 17.7401 41.2499 17.5801 41.5599C17.4201 41.8699 17.0901 42.0199 16.7401 41.8499C15.9801 41.4699 15.2301 41.0699 14.6701 40.3999C14.2101 39.8399 14.0901 39.1699 14.1501 38.4699C14.2001 37.9099 14.2501 37.3499 14.3301 36.7999C14.4401 36.0299 14.3001 35.3399 13.8301 34.7099C13.5501 34.3399 13.3101 33.9399 13.0601 33.5499C12.3901 32.4799 12.3901 31.4099 13.0601 30.3499C13.3101 29.9599 13.5501 29.5599 13.8301 29.1899C14.3701 28.4699 14.4601 27.6799 14.3101 26.8199C14.2201 26.3199 14.1501 25.8199 14.1201 25.3199C14.0601 24.2899 14.4801 23.4899 15.3301 22.9199C15.9101 22.5299 16.4901 22.1399 17.0801 21.7699C17.5801 21.4599 17.8901 21.0099 18.0601 20.4499C18.2001 20.0099 18.3501 19.5699 18.4901 19.1199C18.9301 17.6999 19.9101 16.9999 21.3701 16.9199C21.7501 16.8999 22.1301 16.8599 22.5201 16.8299C23.2301 16.7799 23.8401 16.5199 24.3301 15.9899C24.6901 15.5999 25.0601 15.2099 25.4401 14.8399C26.2901 13.9799 27.3001 13.7299 28.4501 14.1299C28.9401 14.2999 29.4301 14.4799 29.9101 14.6699C30.6201 14.9599 31.3201 14.9499 32.0301 14.6699C32.5401 14.4699 33.0501 14.2699 33.5701 14.0999C34.6201 13.7499 35.5701 13.9599 36.3801 14.7199C36.7801 15.0999 37.1601 15.4899 37.5201 15.8999C38.0701 16.5199 38.7601 16.8099 39.5801 16.8399C40.1001 16.8599 40.6201 16.9099 41.1301 16.9899C42.1501 17.1499 42.8901 17.7099 43.2701 18.6899C43.4801 19.2399 43.6701 19.7899 43.8401 20.3599C44.0501 21.0799 44.4901 21.6099 45.1301 21.9799C45.6201 22.2599 46.1001 22.5399 46.5701 22.8499C47.3901 23.3799 47.8401 24.1599 47.8101 25.1999Z" fill="black"/>
<path d="M44.1508 31.77C44.1008 37.97 39.7208 43.54 33.7608 44.75C26.1708 46.28 19.8908 41.68 18.2208 34.99C16.5108 28.12 20.3908 21.3 27.1908 19.33C32.0308 17.93 36.3508 19.04 40.0708 22.44C40.4908 22.83 40.5508 23.19 40.2608 23.51C39.9708 23.82 39.5608 23.79 39.1608 23.38C34.7708 19 27.4508 19.07 22.9508 23.17C20.7808 25.15 19.5808 27.66 19.2008 30.54C18.3008 37.3 23.6008 42.9 29.5608 43.65C35.7408 44.43 41.6408 40.01 42.6108 33.87C43.0408 31.15 42.6108 28.59 41.3008 26.18C41.0408 25.71 41.0908 25.35 41.4408 25.14C41.7808 24.93 42.1608 25.04 42.4008 25.45C43.1508 26.74 43.6708 28.11 43.9108 29.59C44.0308 30.3 44.0708 31.04 44.1508 31.77Z" fill="black"/>
<path d="M29.0903 32.84C31.0903 30.84 33.0403 28.89 34.9903 26.93C35.4103 26.5 35.8903 26.22 36.5103 26.23C37.3603 26.24 37.9803 26.63 38.3303 27.4C38.6803 28.17 38.5603 28.92 37.9703 29.52C35.4803 32.04 32.9703 34.54 30.4603 37.03C29.6903 37.8 28.5003 37.78 27.7203 37.02C26.4603 35.79 25.2103 34.54 23.9803 33.28C23.2203 32.5 23.2303 31.31 23.9803 30.54C24.7303 29.76 25.9303 29.73 26.7503 30.49C27.1503 30.86 27.5303 31.26 27.9103 31.65C28.2903 32.03 28.6703 32.42 29.0903 32.84ZM25.4403 31.21C25.2803 31.25 25.2203 31.26 25.1503 31.28C24.6503 31.47 24.5603 32.01 24.9903 32.44C26.1403 33.6 27.2903 34.74 28.4403 35.89C28.9503 36.39 29.2403 36.39 29.7603 35.87C32.1103 33.52 34.4603 31.17 36.8103 28.82C36.9003 28.73 37.0303 28.65 37.0503 28.55C37.0903 28.31 37.1503 28.04 37.0703 27.83C36.9603 27.55 36.6603 27.46 36.3703 27.55C36.2003 27.6 36.0403 27.74 35.9103 27.87C33.8503 29.93 31.7903 31.99 29.7303 34.05C29.2403 34.54 28.9503 34.53 28.4503 34.04C27.6203 33.21 26.7903 32.37 25.9503 31.55C25.7903 31.4 25.5803 31.3 25.4403 31.21Z" fill="black"/>
<path d="M30.9404 61.5299C14.2404 61.5299 0.650391 47.94 0.650391 31.24C0.650391 14.54 14.2404 0.949951 30.9404 0.949951C47.6404 0.949951 61.2304 14.54 61.2304 31.24C61.2304 47.94 47.6404 61.5299 30.9404 61.5299ZM30.9404 1.94995C14.7904 1.94995 1.65039 15.09 1.65039 31.24C1.65039 47.39 14.7904 60.5299 30.9404 60.5299C47.0904 60.5299 60.2304 47.39 60.2304 31.24C60.2304 15.09 47.0904 1.94995 30.9404 1.94995Z" fill="black"/>
</svg>
