<svg width="29" height="29" viewBox="0 0 29 29" fill="none" xmlns="http://www.w3.org/2000/svg">
<path d="M14.82 17.28V8.27002H13.33V17.29L8.93999 12.91L7.89999 13.95L14.07 20.13L20.26 13.94L19.21 12.89L14.82 17.28Z" fill="#2D2D2D"/>
<path d="M14.08 0C6.32 0 0 6.32 0 14.08C0 21.84 6.32 28.16 14.08 28.16C21.84 28.16 28.16 21.84 28.16 14.08C28.16 6.32 21.84 0 14.08 0ZM14.08 26.68C7.13 26.68 1.48 21.03 1.48 14.08C1.48 7.13 7.13 1.48 14.08 1.48C21.03 1.48 26.68 7.13 26.68 14.08C26.68 21.03 21.02 26.68 14.08 26.68Z" fill="#2D2D2D"/>
</svg>
