<svg width="26" height="26" viewBox="0 0 26 26" fill="none" xmlns="http://www.w3.org/2000/svg">
<path d="M8.12 12.86L8.43994 12.54L13.21 17.3199L18.01 12.53L18.33 12.85L13.21 17.96L8.12 12.86Z" fill="#452773"/>
<path d="M13.45 8.03003H13V17.64H13.45V8.03003Z" fill="#452773"/>
<path d="M0.560059 12.9999C0.560059 10.4936 1.30328 8.04357 2.69592 5.95978C4.08856 3.876 6.06794 2.25207 8.38367 1.2934C10.6994 0.334733 13.2474 0.0844765 15.7054 0.574162C18.1635 1.06385 20.4211 2.27157 22.1926 4.0445C23.9642 5.81743 25.17 8.07585 25.6577 10.5342C26.1455 12.9926 25.8932 15.5406 24.9327 17.8555C23.9722 20.1705 22.3467 22.1485 20.2618 23.5395C18.177 24.9305 15.7263 25.672 13.22 25.67C9.86222 25.6647 6.64374 24.3278 4.27039 21.9526C1.89703 19.5774 0.562702 16.3577 0.560059 12.9999ZM25.4399 12.9999C25.4399 10.5831 24.7234 8.22045 23.3806 6.21088C22.0379 4.20131 20.1293 2.63505 17.8964 1.71015C15.6634 0.785246 13.2064 0.543203 10.8359 1.01471C8.46549 1.48623 6.2881 2.65008 4.5791 4.35907C2.8701 6.06807 1.70637 8.24546 1.23486 10.6159C0.763352 12.9864 1.00527 15.4434 1.93018 17.6763C2.85508 19.9092 4.42134 21.8177 6.43091 23.1605C8.44048 24.5032 10.8031 25.2199 13.22 25.2199C16.4601 25.2173 19.5668 23.929 21.8579 21.6379C24.149 19.3468 25.4373 16.2401 25.4399 12.9999Z" fill="#452773"/>
</svg>
