<svg width="211" height="52" viewBox="0 0 211 52" fill="none" xmlns="http://www.w3.org/2000/svg">
<path d="M64.2396 16.21C63.2996 15.69 62.3897 15.39 61.3397 15.39C59.3497 15.39 57.8397 16.85 57.8397 18.83C57.8397 20.83 59.3496 22.22 61.3096 22.22C62.4096 22.22 63.3697 21.9 64.3397 21.34V22.33C63.4197 22.82 62.3897 23.09 61.3397 23.09C58.6597 23.09 56.8696 21.15 56.8696 18.83C56.8696 16.2 59.0397 14.52 61.2797 14.52C62.3097 14.52 63.3096 14.8 64.2596 15.22V16.21H64.2396Z" fill="#5AABB9"/>
<path d="M70.2396 20.2899H66.1595C66.1595 21.6099 67.0796 22.3499 68.1296 22.3499C69.2096 22.3499 69.8796 21.7999 70.1496 21.5799V22.4399C69.8096 22.6699 69.1896 23.0999 68.0296 23.0999C66.1896 23.0999 65.2896 21.6999 65.2896 20.2199C65.2896 18.3099 66.5596 17.3799 67.8096 17.3799C69.1696 17.3799 70.2396 18.4899 70.2396 20.0999V20.2899ZM69.3696 19.6799C69.2496 18.4899 68.4396 18.1199 67.8396 18.1199C67.1496 18.1199 66.4196 18.5599 66.2096 19.6799H69.3696Z" fill="#5AABB9"/>
<path d="M72.3094 17.4801V18.3101C72.7094 17.7701 73.2494 17.3701 74.0394 17.3701C75.2794 17.3701 76.0095 18.2801 76.0095 19.7001V22.9801H75.1594V19.7701C75.1594 18.8401 74.7995 18.1201 73.8395 18.1201C73.5195 18.1201 72.8194 18.2201 72.3094 19.0901V22.9901H71.4595V17.4901H72.3094V17.4801Z" fill="#5AABB9"/>
<path d="M76.8096 18.1L78.5995 16.2V17.49H80.2496V18.24H78.5995V21.12C78.5995 21.83 78.6496 22.32 79.4196 22.32C79.8496 22.32 80.1196 22.19 80.5396 21.99V22.79C80.3096 22.9 79.8496 23.11 79.2496 23.11C78.1496 23.11 77.7596 22.35 77.7596 21.47V18.25H76.8196V18.1H76.8096Z" fill="#5AABB9"/>
<path d="M85.9896 20.2899H81.9095C81.9095 21.6099 82.8296 22.3499 83.8796 22.3499C84.9596 22.3499 85.6296 21.7999 85.8996 21.5799V22.4399C85.5596 22.6699 84.9396 23.0999 83.7796 23.0999C81.9396 23.0999 81.0396 21.6999 81.0396 20.2199C81.0396 18.3099 82.3096 17.3799 83.5596 17.3799C84.9196 17.3799 85.9896 18.4899 85.9896 20.0999V20.2899ZM85.1196 19.6799C84.9996 18.4899 84.1896 18.1199 83.5896 18.1199C82.8996 18.1199 82.1696 18.5599 81.9596 19.6799H85.1196Z" fill="#5AABB9"/>
<path d="M88.0597 17.4801V18.6901C88.2097 18.4601 88.5297 17.9801 88.9797 17.6701C89.0897 17.6001 89.4497 17.3601 89.8097 17.3601C90.3397 17.3601 90.9097 17.8401 91.1197 18.0101L90.6697 18.7501C90.4897 18.5901 90.0797 18.2301 89.5997 18.2301C89.1097 18.2301 88.5097 18.6701 88.2497 19.2701C88.0497 19.7101 88.0497 20.3101 88.0497 20.5901V22.9701H87.1997V17.4701H88.0597V17.4801Z" fill="#5AABB9"/>
<path d="M97.7395 15.47C97.5395 15.4 97.3095 15.32 96.9795 15.32C96.1295 15.32 95.7495 15.82 95.7495 16.94V17.48H96.7795V18.23H95.7495V22.98H94.8995V18.23H94.0195V17.48H94.8995V16.96C94.8995 15.18 95.8395 14.51 96.8195 14.51C97.1995 14.51 97.4795 14.61 97.7295 14.68V15.47H97.7395Z" fill="#5AABB9"/>
<path d="M103.27 20.2299C103.27 21.8099 101.98 23.0999 100.4 23.0999C98.8198 23.0999 97.5498 21.8099 97.5498 20.2299C97.5498 18.6499 98.8198 17.3799 100.4 17.3799C101.99 17.3699 103.27 18.6499 103.27 20.2299ZM98.4198 20.2299C98.4198 21.3899 99.2698 22.3499 100.42 22.3499C101.57 22.3499 102.41 21.3999 102.41 20.2299C102.41 19.0699 101.58 18.1199 100.42 18.1199C99.2698 18.1199 98.4198 19.0699 98.4198 20.2299Z" fill="#5AABB9"/>
<path d="M105.44 17.4801V18.6901C105.59 18.4601 105.91 17.9801 106.36 17.6701C106.47 17.6001 106.83 17.3601 107.19 17.3601C107.72 17.3601 108.29 17.8401 108.5 18.0101L108.05 18.7501C107.87 18.5901 107.46 18.2301 106.98 18.2301C106.49 18.2301 105.89 18.6701 105.63 19.2701C105.43 19.7101 105.43 20.3101 105.43 20.5901V22.9701H104.58V17.4701H105.44V17.4801Z" fill="#5AABB9"/>
<path d="M116.94 15.4399H113.2V18.3699H116.83V19.1799H113.2V22.1799H117.04V22.9899H112.29V14.6299H116.95V15.4399H116.94Z" fill="#5AABB9"/>
<path d="M120.91 22.9901C118.99 22.9901 117.87 22.0101 117.87 20.2401C117.87 18.7001 118.84 17.3701 120.6 17.3701C121.27 17.3701 121.76 17.6001 122 17.7001V14.6201H122.85V22.9801H120.91V22.9901ZM122 18.4801C121.8 18.3701 121.36 18.1201 120.74 18.1201C119.38 18.1201 118.74 19.1101 118.74 20.2201C118.74 21.5401 119.62 22.2401 120.92 22.2401H122V18.4801Z" fill="#5AABB9"/>
<path d="M128.03 22.99V22.16C127.63 22.7 127.09 23.1 126.3 23.1C125.06 23.1 124.33 22.19 124.33 20.77V17.49H125.18V20.7C125.18 21.63 125.54 22.35 126.5 22.35C126.82 22.35 127.52 22.25 128.03 21.38V17.48H128.88V22.98H128.03V22.99Z" fill="#5AABB9"/>
<path d="M134.4 18.6099C134.08 18.4299 133.59 18.1599 132.89 18.1599C131.43 18.1599 131.05 19.5399 131.05 20.2599C131.05 21.1799 131.55 22.3199 133.04 22.3199C133.71 22.3199 134.27 22.0699 134.51 21.9599V22.7899C134.25 22.8899 133.68 23.0999 132.95 23.0999C131.16 23.0999 130.18 21.8699 130.18 20.2799C130.18 18.4799 131.36 17.3799 132.89 17.3799C133.55 17.3799 134.04 17.5599 134.4 17.7099V18.6099Z" fill="#5AABB9"/>
<path d="M140.15 22.5901C139.46 23.0801 139.21 23.0901 139.06 23.0901C138.61 23.0901 138.51 22.7201 138.46 22.4601C137.77 22.9801 137.34 23.0901 136.85 23.0901C136.08 23.0901 135.43 22.5001 135.43 21.6901C135.43 20.8001 136.17 20.0701 138.44 19.6701V19.1801C138.44 18.8201 138.38 18.1101 137.35 18.1101C136.63 18.1101 136.11 18.4801 135.63 18.9201V18.0401C135.9 17.8101 136.52 17.3701 137.42 17.3701C138.99 17.3701 139.28 18.4701 139.28 19.1001V22.1101C139.28 22.3401 139.3 22.4001 139.43 22.4001C139.54 22.4001 139.81 22.2801 140.14 22.0101V22.5901H140.15ZM138.45 20.2301C137.04 20.4901 136.28 20.9501 136.28 21.6401C136.28 22.3001 136.89 22.4901 137.21 22.4901C137.8 22.4901 138.24 22.1001 138.45 21.9001V20.2301Z" fill="#5AABB9"/>
<path d="M140.41 18.1L142.2 16.2V17.49H143.85V18.24H142.2V21.12C142.2 21.83 142.25 22.32 143.02 22.32C143.45 22.32 143.72 22.19 144.14 21.99V22.79C143.91 22.9 143.45 23.11 142.85 23.11C141.75 23.11 141.36 22.35 141.36 21.47V18.25H140.42V18.1H140.41Z" fill="#5AABB9"/>
<path d="M145.9 15.79C145.9 16.1 145.66 16.34 145.35 16.34C145.04 16.34 144.8 16.09 144.8 15.79C144.8 15.49 145.04 15.24 145.35 15.24C145.66 15.24 145.9 15.49 145.9 15.79ZM145.76 22.99H144.91V17.49H145.76V22.99Z" fill="#5AABB9"/>
<path d="M152.79 20.2299C152.79 21.8099 151.5 23.0999 149.92 23.0999C148.34 23.0999 147.07 21.8099 147.07 20.2299C147.07 18.6499 148.34 17.3799 149.92 17.3799C151.51 17.3699 152.79 18.6499 152.79 20.2299ZM147.94 20.2299C147.94 21.3899 148.79 22.3499 149.94 22.3499C151.09 22.3499 151.93 21.3999 151.93 20.2299C151.93 19.0699 151.1 18.1199 149.94 18.1199C148.79 18.1199 147.94 19.0699 147.94 20.2299Z" fill="#5AABB9"/>
<path d="M154.959 17.4801V18.3101C155.359 17.7701 155.899 17.3701 156.689 17.3701C157.929 17.3701 158.659 18.2801 158.659 19.7001V22.9801H157.809V19.7701C157.809 18.8401 157.449 18.1201 156.489 18.1201C156.169 18.1201 155.469 18.2201 154.959 19.0901V22.9901H154.109V17.4901H154.959V17.4801Z" fill="#5AABB9"/>
<path d="M164.579 22.5901C163.889 23.0801 163.639 23.0901 163.489 23.0901C163.039 23.0901 162.939 22.7201 162.889 22.4601C162.199 22.9801 161.769 23.0901 161.279 23.0901C160.509 23.0901 159.859 22.5001 159.859 21.6901C159.859 20.8001 160.599 20.0701 162.869 19.6701V19.1801C162.869 18.8201 162.809 18.1101 161.779 18.1101C161.059 18.1101 160.539 18.4801 160.059 18.9201V18.0401C160.329 17.8101 160.949 17.3701 161.849 17.3701C163.419 17.3701 163.709 18.4701 163.709 19.1001V22.1101C163.709 22.3401 163.729 22.4001 163.859 22.4001C163.969 22.4001 164.239 22.2801 164.569 22.0101V22.5901H164.579ZM162.869 20.2301C161.459 20.4901 160.699 20.9501 160.699 21.6401C160.699 22.3001 161.309 22.4901 161.629 22.4901C162.219 22.4901 162.659 22.1001 162.869 21.9001V20.2301Z" fill="#5AABB9"/>
<path d="M166.349 22.9899H165.5V14.6299H166.349V22.9899Z" fill="#5AABB9"/>
<path d="M59.6395 28.81C61.7395 28.81 62.3995 29.9601 62.3995 31.1001C62.3995 32.2401 61.7395 33.39 59.6395 33.39H58.1695V37.16H57.2495V28.8H59.6395V28.81ZM58.1695 29.62V32.59H59.5395C61.2195 32.59 61.4095 31.71 61.4095 31.11C61.4095 30.51 61.2095 29.6301 59.5395 29.6301H58.1695V29.62Z" fill="#5AABB9"/>
<path d="M66.4999 32.87C65.9599 32.54 65.4799 32.31 64.9399 32.31C64.3799 32.31 64.0099 32.6401 64.0099 33.0201C64.0099 33.4601 64.3899 33.65 65.6999 34.33C65.9899 34.49 66.6999 34.8801 66.6999 35.7401C66.6999 36.2901 66.2599 37.28 64.8899 37.28C64.2399 37.28 63.6999 37.08 63.1299 36.78V35.91C64.0399 36.46 64.6099 36.53 64.9099 36.53C65.3399 36.53 65.8399 36.26 65.8399 35.79C65.8399 35.26 65.3399 35.01 64.6099 34.66C63.9399 34.34 63.1599 33.95 63.1599 33.03C63.1599 32.36 63.7099 31.55 64.9199 31.55C65.6799 31.55 66.2099 31.8601 66.4899 32.0201V32.87H66.4999Z" fill="#5AABB9"/>
<path d="M68.3997 39.9899H67.4897L69.3897 36.0399L67.1597 31.6699H68.0797L69.8297 35.1399L71.4797 31.6699H72.3997L68.3997 39.9899Z" fill="#5AABB9"/>
<path d="M76.9895 32.7901C76.6695 32.6101 76.1795 32.3401 75.4795 32.3401C74.0195 32.3401 73.6395 33.7201 73.6395 34.4401C73.6395 35.3601 74.1395 36.5001 75.6295 36.5001C76.2995 36.5001 76.8595 36.2501 77.0995 36.1401V36.9701C76.8395 37.0701 76.2695 37.2801 75.5395 37.2801C73.7495 37.2801 72.7695 36.0501 72.7695 34.4601C72.7695 32.6601 73.9495 31.5601 75.4795 31.5601C76.1395 31.5601 76.6295 31.7401 76.9895 31.8901V32.7901Z" fill="#5AABB9"/>
<path d="M79.0698 28.8101V32.5001C79.4698 31.9601 80.0097 31.5601 80.7997 31.5601C82.0397 31.5601 82.7698 32.4701 82.7698 33.8901V37.1701H81.9197V33.9601C81.9197 33.0301 81.5597 32.3101 80.5997 32.3101C80.2797 32.3101 79.5798 32.4101 79.0698 33.2801V37.1801H78.2197V28.8201H79.0698V28.8101Z" fill="#5AABB9"/>
<path d="M89.6898 34.4101C89.6898 35.9901 88.3998 37.2801 86.8198 37.2801C85.2398 37.2801 83.9697 35.9901 83.9697 34.4101C83.9697 32.8301 85.2398 31.5601 86.8198 31.5601C88.3998 31.5601 89.6898 32.8301 89.6898 34.4101ZM84.8398 34.4101C84.8398 35.5701 85.6898 36.5301 86.8398 36.5301C87.9898 36.5301 88.8298 35.5801 88.8298 34.4101C88.8298 33.2501 87.9998 32.3001 86.8398 32.3001C85.6798 32.3001 84.8398 33.2501 84.8398 34.4101Z" fill="#5AABB9"/>
<path d="M91.8597 37.1701H91.0098V28.8101H91.8597V37.1701Z" fill="#5AABB9"/>
<path d="M98.8895 34.4101C98.8895 35.9901 97.5995 37.2801 96.0195 37.2801C94.4395 37.2801 93.1694 35.9901 93.1694 34.4101C93.1694 32.8301 94.4395 31.5601 96.0195 31.5601C97.5995 31.5601 98.8895 32.8301 98.8895 34.4101ZM94.0394 34.4101C94.0394 35.5701 94.8894 36.5301 96.0394 36.5301C97.1894 36.5301 98.0295 35.5801 98.0295 34.4101C98.0295 33.2501 97.1994 32.3001 96.0394 32.3001C94.8794 32.3001 94.0394 33.2501 94.0394 34.4101Z" fill="#5AABB9"/>
<path d="M104.55 32.3401H103.36C103.6 32.5601 104.03 32.9801 104.03 33.6901C104.03 34.6801 103.31 35.2801 102.41 35.4901C101.48 35.7101 101.07 35.8201 101.07 36.1601C101.07 36.4801 101.38 36.6101 102.27 36.7201C103.92 36.9301 104.52 37.4301 104.52 38.3201C104.52 39.4501 103.36 39.9701 102.02 39.9701C100.35 39.9701 99.5098 39.2201 99.5098 38.3601C99.5098 37.8801 99.7798 37.1801 101.01 36.9601C100.47 36.7601 100.27 36.4101 100.27 36.2201C100.27 35.7201 100.77 35.5501 101.28 35.3601C100.78 35.1501 99.9398 34.7501 99.9398 33.5801C99.9398 32.7201 100.37 31.6301 102.44 31.6301H104.54V32.3401H104.55ZM101.94 37.4501C100.6 37.4501 100.32 38.0001 100.32 38.3701C100.32 39.2401 101.52 39.3101 102.06 39.3101C103.14 39.3101 103.74 38.8801 103.74 38.3701C103.74 38.0101 103.41 37.4501 101.94 37.4501ZM102 32.3901C101.3 32.3901 100.73 32.9401 100.73 33.6301C100.73 34.1701 101.17 34.8601 102 34.8601C102.8 34.8601 103.26 34.3001 103.26 33.6301C103.26 32.9401 102.7 32.3901 102 32.3901Z" fill="#5AABB9"/>
<path d="M106.26 39.9899H105.349L107.25 36.0399L105.02 31.6699H105.94L107.69 35.1399L109.34 31.6699H110.26L106.26 39.9899Z" fill="#5AABB9"/>
<path d="M118.579 36.7801C117.889 37.2701 117.639 37.2801 117.489 37.2801C117.039 37.2801 116.939 36.9101 116.889 36.6501C116.199 37.1701 115.769 37.2801 115.279 37.2801C114.509 37.2801 113.859 36.6901 113.859 35.8801C113.859 34.9901 114.599 34.2601 116.869 33.8601V33.3701C116.869 33.0101 116.809 32.3001 115.779 32.3001C115.059 32.3001 114.539 32.6701 114.059 33.1101V32.2301C114.329 32.0001 114.949 31.5601 115.849 31.5601C117.419 31.5601 117.709 32.6601 117.709 33.2901V36.3001C117.709 36.5301 117.729 36.5901 117.859 36.5901C117.969 36.5901 118.239 36.4701 118.569 36.2001V36.7801H118.579ZM116.879 34.4101C115.469 34.6701 114.709 35.1301 114.709 35.8201C114.709 36.4801 115.319 36.6701 115.639 36.6701C116.229 36.6701 116.669 36.2801 116.879 36.0801V34.4101Z" fill="#5AABB9"/>
<path d="M120.36 31.6701V32.5001C120.76 31.9601 121.3 31.5601 122.09 31.5601C123.33 31.5601 124.06 32.4701 124.06 33.8901V37.1701H123.21V33.9601C123.21 33.0301 122.85 32.3101 121.89 32.3101C121.57 32.3101 120.87 32.4101 120.36 33.2801V37.1801H119.51V31.6801H120.36V31.6701Z" fill="#5AABB9"/>
<path d="M128.3 37.17C126.38 37.17 125.26 36.19 125.26 34.42C125.26 32.88 126.23 31.55 127.99 31.55C128.66 31.55 129.15 31.7801 129.39 31.8801V28.8H130.24V37.16H128.3V37.17ZM129.39 32.66C129.19 32.55 128.75 32.3 128.13 32.3C126.77 32.3 126.13 33.29 126.13 34.4C126.13 35.72 127.01 36.42 128.31 36.42H129.39V32.66Z" fill="#5AABB9"/>
<path d="M142.05 30.39C141.11 29.87 140.2 29.57 139.15 29.57C137.16 29.57 135.65 31.0299 135.65 33.0099C135.65 35.0099 137.16 36.3999 139.12 36.3999C140.22 36.3999 141.18 36.08 142.15 35.52V36.5099C141.23 36.9999 140.2 37.27 139.15 37.27C136.47 37.27 134.68 35.3299 134.68 33.0099C134.68 30.3799 136.85 28.7 139.09 28.7C140.12 28.7 141.12 28.9799 142.07 29.3999V30.39H142.05Z" fill="#5AABB9"/>
<path d="M144.23 28.8101V32.5001C144.63 31.9601 145.17 31.5601 145.96 31.5601C147.2 31.5601 147.93 32.4701 147.93 33.8901V37.1701H147.08V33.9601C147.08 33.0301 146.72 32.3101 145.76 32.3101C145.44 32.3101 144.74 32.4101 144.23 33.2801V37.1801H143.38V28.8201H144.23V28.8101Z" fill="#5AABB9"/>
<path d="M150.39 29.9799C150.39 30.2899 150.14 30.5299 149.84 30.5299C149.54 30.5299 149.29 30.2799 149.29 29.9799C149.29 29.6699 149.53 29.4299 149.84 29.4299C150.15 29.4299 150.39 29.6699 150.39 29.9799ZM150.26 37.1699H149.41V31.6699H150.26V37.1699Z" fill="#5AABB9"/>
<path d="M152.7 37.1701H151.85V28.8101H152.7V37.1701Z" fill="#5AABB9"/>
<path d="M157.039 37.17C155.119 37.17 154 36.19 154 34.42C154 32.88 154.969 31.55 156.729 31.55C157.399 31.55 157.89 31.7801 158.13 31.8801V28.8H158.979V37.16H157.039V37.17ZM158.13 32.66C157.93 32.55 157.49 32.3 156.87 32.3C155.51 32.3 154.87 33.29 154.87 34.4C154.87 35.72 155.749 36.42 157.049 36.42H158.13V32.66Z" fill="#5AABB9"/>
<path d="M168.47 29.6201H164.73V32.5501H168.36V33.3601H164.73V36.3601H168.57V37.1701H163.82V28.8101H168.48V29.6201H168.47Z" fill="#5AABB9"/>
<path d="M172.439 37.17C170.519 37.17 169.399 36.19 169.399 34.42C169.399 32.88 170.369 31.55 172.129 31.55C172.799 31.55 173.289 31.7801 173.529 31.8801V28.8H174.379V37.16H172.439V37.17ZM173.529 32.66C173.329 32.55 172.889 32.3 172.269 32.3C170.909 32.3 170.269 33.29 170.269 34.4C170.269 35.72 171.149 36.42 172.449 36.42H173.529V32.66Z" fill="#5AABB9"/>
<path d="M179.559 37.1699V36.3399C179.159 36.8799 178.619 37.2799 177.829 37.2799C176.589 37.2799 175.859 36.3699 175.859 34.9499V31.6699H176.709V34.8799C176.709 35.8099 177.069 36.5299 178.029 36.5299C178.349 36.5299 179.049 36.4299 179.559 35.5599V31.6599H180.409V37.1599H179.559V37.1699Z" fill="#5AABB9"/>
<path d="M185.929 32.7901C185.609 32.6101 185.119 32.3401 184.419 32.3401C182.959 32.3401 182.579 33.7201 182.579 34.4401C182.579 35.3601 183.079 36.5001 184.569 36.5001C185.239 36.5001 185.799 36.2501 186.039 36.1401V36.9701C185.779 37.0701 185.209 37.2801 184.479 37.2801C182.689 37.2801 181.709 36.0501 181.709 34.4601C181.709 32.6601 182.889 31.5601 184.419 31.5601C185.079 31.5601 185.569 31.7401 185.929 31.8901V32.7901Z" fill="#5AABB9"/>
<path d="M191.679 36.7801C190.989 37.2701 190.739 37.2801 190.589 37.2801C190.139 37.2801 190.039 36.9101 189.989 36.6501C189.299 37.1701 188.869 37.2801 188.379 37.2801C187.609 37.2801 186.959 36.6901 186.959 35.8801C186.959 34.9901 187.699 34.2601 189.969 33.8601V33.3701C189.969 33.0101 189.909 32.3001 188.879 32.3001C188.159 32.3001 187.639 32.6701 187.159 33.1101V32.2301C187.429 32.0001 188.049 31.5601 188.949 31.5601C190.519 31.5601 190.809 32.6601 190.809 33.2901V36.3001C190.809 36.5301 190.829 36.5901 190.959 36.5901C191.069 36.5901 191.339 36.4701 191.669 36.2001V36.7801H191.679ZM189.979 34.4101C188.569 34.6701 187.809 35.1301 187.809 35.8201C187.809 36.4801 188.419 36.6701 188.739 36.6701C189.329 36.6701 189.769 36.2801 189.979 36.0801V34.4101Z" fill="#5AABB9"/>
<path d="M191.939 32.2801L193.729 30.3801V31.6701H195.379V32.4201H193.729V35.3001C193.729 36.0101 193.779 36.5001 194.549 36.5001C194.979 36.5001 195.249 36.3701 195.669 36.1701V36.9701C195.439 37.0801 194.979 37.2901 194.379 37.2901C193.279 37.2901 192.889 36.5301 192.889 35.6501V32.4301H191.949V32.2801H191.939Z" fill="#5AABB9"/>
<path d="M197.43 29.9799C197.43 30.2899 197.18 30.5299 196.88 30.5299C196.58 30.5299 196.33 30.2799 196.33 29.9799C196.33 29.6699 196.57 29.4299 196.88 29.4299C197.19 29.4299 197.43 29.6699 197.43 29.9799ZM197.29 37.1699H196.44V31.6699H197.29V37.1699Z" fill="#5AABB9"/>
<path d="M204.32 34.4101C204.32 35.9901 203.03 37.2801 201.45 37.2801C199.87 37.2801 198.6 35.9901 198.6 34.4101C198.6 32.8301 199.87 31.5601 201.45 31.5601C203.04 31.5601 204.32 32.8301 204.32 34.4101ZM199.47 34.4101C199.47 35.5701 200.32 36.5301 201.47 36.5301C202.62 36.5301 203.46 35.5801 203.46 34.4101C203.46 33.2501 202.63 32.3001 201.47 32.3001C200.32 32.3001 199.47 33.2501 199.47 34.4101Z" fill="#5AABB9"/>
<path d="M206.49 31.6701V32.5001C206.89 31.9601 207.43 31.5601 208.22 31.5601C209.46 31.5601 210.19 32.4701 210.19 33.8901V37.1701H209.34V33.9601C209.34 33.0301 208.98 32.3101 208.02 32.3101C207.7 32.3101 207 32.4101 206.49 33.2801V37.1801H205.64V31.6801H206.49V31.6701Z" fill="#5AABB9"/>
<path d="M21.2798 44.0401C21.2798 37.7901 26.0298 34.2301 30.6198 30.7901C35.2098 27.3501 39.5498 24.1001 39.5498 18.2601C39.5498 10.8501 33.5998 6.24007 24.0298 6.24007V0.830078C38.4798 0.830078 44.9598 9.58008 44.9598 18.2601C44.9598 26.8001 38.8098 31.4201 33.8698 35.1201C30.0098 38.0001 21.2798 44.0401 21.2798 44.0401Z" fill="#5AABB9"/>
<path d="M21.2198 51.8301C6.75982 51.8301 0.299805 43.0801 0.299805 34.4001C0.299805 25.6101 6.57982 20.8701 11.6298 17.0601C15.3598 14.2501 23.9798 8.62012 23.9798 8.62012C23.9798 14.5201 19.3598 18.0101 14.8798 21.3801C10.1598 24.9401 5.70981 28.3101 5.70981 34.4001C5.70981 41.8101 11.6498 46.4201 21.2298 46.4201V51.8301H21.2198Z" fill="#5AABB9"/>
</svg>
