<svg width="64" height="68" viewBox="0 0 64 68" fill="none" xmlns="http://www.w3.org/2000/svg">
<path d="M28.3701 57C28.3701 48.75 34.6401 44 40.7001 39.5C46.7601 35 52.4901 30.67 52.4901 22.96C52.4901 13.18 44.6401 7.09998 32.0101 7.09998V0C51.0801 0 59.6301 11.55 59.6301 23C59.6301 34.28 51.5101 40.37 44.9901 45.26C39.9001 49.07 28.3701 57.04 28.3701 57.04" fill="white"/>
<path d="M28.2899 67.3101C9.20992 67.3101 0.669922 55.7601 0.669922 44.3101C0.669922 32.8601 8.9599 26.45 15.6199 21.42C20.5399 17.71 31.9299 10.28 31.9299 10.28C31.9299 18.06 25.8199 22.67 19.9299 27.12C13.6999 31.82 7.81992 36.2701 7.81992 44.3101C7.81992 54.1001 15.6699 60.1801 28.2999 60.1801L28.2899 67.3101Z" fill="white"/>
<path d="M62.4898 62.34C62.5017 62.4953 62.4771 62.6512 62.4181 62.7953C62.3591 62.9394 62.2672 63.0678 62.1498 63.1701C61.8784 63.378 61.5411 63.4809 61.1998 63.46H60.0998V61.25H61.0998C61.9998 61.25 62.4498 61.61 62.4498 62.34M60.0598 67.4101V64.35H60.8098C61.3282 64.3712 61.8463 64.3001 62.3398 64.1401C62.6885 64.0095 62.984 63.7667 63.1798 63.45C63.3899 63.1259 63.4979 62.7462 63.4898 62.36C63.5023 62.0876 63.4551 61.8159 63.3514 61.5636C63.2478 61.3114 63.0902 61.085 62.8898 60.9001C62.4442 60.5159 61.8673 60.3188 61.2798 60.35H59.0498V67.4101H60.0598Z" fill="white"/>
<path d="M54.34 64.28C54.3569 64.6777 54.313 65.0755 54.21 65.46C54.1218 65.6914 53.9734 65.8952 53.78 66.05C53.3659 66.3776 52.8475 66.5445 52.32 66.52C51.9407 66.5275 51.5646 66.4489 51.22 66.29C50.9335 66.1519 50.6936 65.9329 50.53 65.66C50.3457 65.2246 50.2669 64.7517 50.3 64.28V60.28H49.3V64.28C49.2867 64.6996 49.3236 65.1192 49.41 65.53C49.4748 65.769 49.5724 65.9978 49.7 66.21C49.8186 66.3935 49.9635 66.5586 50.13 66.7C50.7681 67.1679 51.5387 67.4203 52.33 67.4203C53.1213 67.4203 53.892 67.1679 54.53 66.7C54.8842 66.3905 55.1325 65.9779 55.24 65.52C55.3333 65.117 55.3736 64.7035 55.36 64.29V60.29H54.36L54.34 64.28Z" fill="white"/>
<path d="M44.5098 62.34C44.5185 62.494 44.4935 62.6482 44.4365 62.7916C44.3795 62.9349 44.2919 63.0641 44.1798 63.1701C43.9084 63.378 43.5711 63.4809 43.2298 63.46H42.1298V61.25H43.1298C44.0298 61.25 44.4698 61.61 44.4698 62.34M42.0898 67.4101V64.35H42.8298C43.3515 64.3718 43.873 64.3007 44.3698 64.1401C44.7153 64.0039 45.0091 63.7624 45.2098 63.45C45.4161 63.1242 45.5237 62.7457 45.5198 62.36C45.5323 62.0876 45.4851 61.8159 45.3814 61.5636C45.2778 61.3114 45.1202 61.085 44.9198 60.9001C44.4742 60.5159 43.8973 60.3188 43.3098 60.35H41.0698V67.4101H42.0898Z" fill="white"/>
<path d="M34.8801 66.4799C34.143 66.5003 33.4265 66.2352 32.8801 65.7399C32.3751 65.2305 32.0917 64.5422 32.0917 63.8249C32.0917 63.1076 32.3751 62.4194 32.8801 61.91C33.1468 61.6575 33.4608 61.4602 33.8041 61.3298C34.1474 61.1993 34.5131 61.1383 34.8801 61.15C35.732 61.1699 36.5635 61.4148 37.2901 61.8599V60.77C36.5167 60.4155 35.6804 60.2183 34.8301 60.1899C34.3348 60.1697 33.8404 60.2478 33.3753 60.4194C32.9102 60.591 32.4836 60.8528 32.1201 61.1899C31.7651 61.5201 31.4836 61.9215 31.2941 62.3677C31.1045 62.814 31.0112 63.2952 31.0201 63.78C31.0184 64.41 31.1831 65.0293 31.4974 65.5754C31.8116 66.1215 32.2645 66.5749 32.8101 66.89C33.4245 67.2181 34.1139 67.3801 34.8101 67.3599C35.7017 67.3804 36.5835 67.1703 37.3701 66.7499V65.64C36.6331 66.1445 35.7632 66.4194 34.8701 66.43" fill="white"/>
</svg>
