<svg width="142" height="51" viewBox="0 0 142 51" fill="none" xmlns="http://www.w3.org/2000/svg">
<path d="M58.5299 21.3101H62.4699V22.11H57.6099V13.76H58.5299V21.3101Z" fill="#8777B5"/>
<path d="M67.7598 21.7199C67.0798 22.2099 66.8198 22.2199 66.6698 22.2199C66.2198 22.2199 66.1198 21.8599 66.0698 21.5999C65.6296 21.9943 65.0608 22.2147 64.4698 22.2199C64.2848 22.2239 64.1008 22.1909 63.9287 22.1229C63.7566 22.0548 63.5998 21.953 63.4675 21.8236C63.3352 21.6941 63.2301 21.5395 63.1584 21.3688C63.0867 21.1982 63.0498 21.015 63.0498 20.8299C63.0498 19.9299 63.7798 19.2099 66.0498 18.8299V18.3399C66.0498 17.9799 65.9898 17.27 64.9598 17.27C64.6354 17.2854 64.3173 17.365 64.0238 17.504C63.7303 17.643 63.4673 17.8387 63.2498 18.0799V17.1999C63.7398 16.7628 64.3732 16.5209 65.0298 16.52C65.2708 16.4889 65.5156 16.5111 65.7471 16.585C65.9785 16.659 66.1909 16.7828 66.3692 16.9478C66.5476 17.1128 66.6875 17.315 66.7792 17.54C66.8709 17.765 66.912 18.0073 66.8998 18.2499V21.2499C66.8998 21.4899 66.8998 21.55 67.0398 21.55C67.3069 21.4852 67.5519 21.3506 67.7498 21.16L67.7598 21.7199ZM66.0598 19.3599C64.6498 19.6199 63.8898 20.08 63.8898 20.77C63.8936 20.8869 63.9209 21.0018 63.9701 21.108C64.0193 21.2141 64.0894 21.3092 64.1762 21.3876C64.263 21.4661 64.3648 21.5262 64.4754 21.5644C64.586 21.6026 64.7031 21.6181 64.8198 21.6099C65.2933 21.5786 65.7369 21.3676 66.0598 21.02V19.3599Z" fill="#8777B5"/>
<path d="M68.6899 13.76H69.5399V17.2C70.0167 16.7647 70.6346 16.5161 71.2799 16.5C71.6204 16.5122 71.9549 16.5937 72.2628 16.7394C72.5708 16.885 72.846 17.0919 73.0714 17.3473C73.2969 17.6027 73.468 17.9013 73.5744 18.225C73.6807 18.5487 73.72 18.8906 73.6899 19.23C73.7233 19.6324 73.6685 20.0373 73.5296 20.4164C73.3906 20.7955 73.1707 21.1398 72.8852 21.4253C72.5997 21.7108 72.2554 21.9306 71.8763 22.0696C71.4972 22.2086 71.0923 22.2633 70.6899 22.23C70.0029 22.225 69.3235 22.0857 68.6899 21.8199V13.76ZM69.5399 21.26C69.9446 21.4035 70.3706 21.4778 70.7999 21.48C71.0775 21.481 71.3523 21.4242 71.6067 21.3132C71.8612 21.2023 72.0897 21.0396 72.2778 20.8354C72.466 20.6313 72.6095 20.3903 72.6994 20.1277C72.7893 19.8651 72.8235 19.5866 72.7999 19.3101C72.8247 19.0622 72.8 18.8118 72.7271 18.5736C72.6543 18.3354 72.5349 18.114 72.3758 17.9224C72.2167 17.7307 72.0211 17.5726 71.8004 17.4572C71.5796 17.3417 71.3381 17.2713 71.0899 17.25C70.7871 17.2721 70.4919 17.3553 70.2221 17.4945C69.9523 17.6337 69.7134 17.8261 69.5199 18.0601L69.5399 21.26Z" fill="#8777B5"/>
<path d="M80.4402 19.36C80.4402 19.9256 80.2725 20.4787 79.9582 20.949C79.644 21.4193 79.1973 21.7859 78.6747 22.0023C78.1521 22.2188 77.577 22.2754 77.0222 22.165C76.4675 22.0547 75.9579 21.7823 75.5579 21.3823C75.1579 20.9823 74.8855 20.4728 74.7752 19.918C74.6648 19.3632 74.7215 18.7881 74.9379 18.2655C75.1544 17.7429 75.5209 17.2963 75.9913 16.9821C76.4616 16.6678 77.0145 16.5 77.5802 16.5C78.3387 16.5 79.0662 16.8013 79.6025 17.3376C80.1389 17.874 80.4402 18.6015 80.4402 19.36ZM75.5902 19.36C75.5902 19.8904 75.8009 20.3991 76.176 20.7742C76.5511 21.1492 77.0598 21.36 77.5902 21.36C78.1206 21.36 78.6293 21.1492 79.0044 20.7742C79.3795 20.3991 79.5902 19.8904 79.5902 19.36C79.5902 18.8296 79.3795 18.3209 79.0044 17.9458C78.6293 17.5707 78.1206 17.36 77.5902 17.36C77.0598 17.36 76.5511 17.5707 76.176 17.9458C75.8009 18.3209 75.5902 18.8296 75.5902 19.36Z" fill="#8777B5"/>
<path d="M82.6097 16.61V17.83C82.8432 17.4361 83.1566 17.0954 83.5298 16.83C83.773 16.6529 84.06 16.5458 84.3597 16.52C84.8524 16.5983 85.3095 16.8251 85.6698 17.17L85.2198 17.91C84.9338 17.6184 84.5557 17.4347 84.1497 17.39C83.8568 17.4235 83.5778 17.5336 83.3408 17.7091C83.1038 17.8846 82.9172 18.1195 82.7997 18.39C82.6542 18.8177 82.5898 19.2687 82.6097 19.72V22.09H81.7598V16.59L82.6097 16.61Z" fill="#8777B5"/>
<path d="M90.6502 21.72C89.9602 22.21 89.7002 22.22 89.5602 22.22C89.1002 22.22 89.0002 21.86 88.9502 21.6C88.51 21.9944 87.9412 22.2148 87.3502 22.22C87.1651 22.224 86.9811 22.191 86.809 22.1229C86.6369 22.0549 86.4801 21.9531 86.3478 21.8236C86.2156 21.6941 86.1105 21.5395 86.0388 21.3689C85.9671 21.1983 85.9301 21.0151 85.9302 20.83C85.9302 19.93 86.6602 19.21 88.9302 18.83V18.34C88.9302 17.98 88.8702 17.27 87.8402 17.27C87.5158 17.2855 87.1977 17.365 86.9042 17.504C86.6107 17.6431 86.3476 17.8388 86.1302 18.08V17.2C86.6233 16.7614 87.2603 16.5195 87.9202 16.52C88.1604 16.4906 88.4041 16.514 88.6343 16.5886C88.8645 16.6633 89.0756 16.7874 89.2528 16.9522C89.43 17.117 89.569 17.3185 89.6601 17.5427C89.7512 17.7669 89.7922 18.0083 89.7802 18.25V21.25C89.7802 21.49 89.7802 21.5501 89.9202 21.5501C90.1905 21.486 90.4389 21.3514 90.6402 21.16L90.6502 21.72ZM88.9402 19.36C87.5302 19.62 86.7702 20.08 86.7702 20.77C86.7739 20.887 86.8012 21.0019 86.8504 21.108C86.8996 21.2142 86.9698 21.3093 87.0566 21.3877C87.1434 21.4661 87.2452 21.5263 87.3557 21.5645C87.4663 21.6027 87.5835 21.6181 87.7002 21.61C88.1737 21.5787 88.6172 21.3677 88.9402 21.02V19.36Z" fill="#8777B5"/>
<path d="M90.8999 17.23L92.6899 15.33V16.61H94.3399V17.36H92.6899V20.24C92.6899 20.95 92.7399 21.4399 93.5099 21.4399C93.9049 21.4251 94.2899 21.3117 94.6299 21.11V21.91C94.2284 22.1083 93.7877 22.2142 93.3399 22.22C92.2399 22.22 91.8399 21.46 91.8399 20.58V17.36H90.8999V17.23Z" fill="#8777B5"/>
<path d="M100.85 19.36C100.85 19.9252 100.682 20.4778 100.369 20.9479C100.055 21.418 99.6087 21.7846 99.0866 22.0013C98.5646 22.2181 97.9901 22.2753 97.4356 22.1658C96.8811 22.0562 96.3715 21.7848 95.9711 21.3859C95.5707 20.9869 95.2975 20.4782 95.1861 19.9241C95.0746 19.3699 95.1298 18.7952 95.3447 18.2725C95.5597 17.7497 95.9247 17.3023 96.3937 16.9868C96.8627 16.6714 97.4147 16.502 97.9799 16.5C98.7393 16.5 99.4678 16.801 100.006 17.337C100.544 17.8731 100.847 18.6005 100.85 19.36ZM95.9999 19.36C95.9999 19.8904 96.2106 20.3991 96.5857 20.7742C96.9607 21.1492 97.4694 21.36 97.9999 21.36C98.5303 21.36 99.039 21.1492 99.4141 20.7742C99.7892 20.3991 99.9999 19.8904 99.9999 19.36C99.9999 18.8296 99.7892 18.3209 99.4141 17.9458C99.039 17.5707 98.5303 17.36 97.9999 17.36C97.4694 17.36 96.9607 17.5707 96.5857 17.9458C96.2106 18.3209 95.9999 18.8296 95.9999 19.36Z" fill="#8777B5"/>
<path d="M103 16.61V17.83C103.237 17.4384 103.55 17.0984 103.92 16.83C104.167 16.653 104.457 16.546 104.76 16.52C105.252 16.6007 105.708 16.8271 106.07 17.17L105.61 17.91C105.33 17.6163 104.954 17.432 104.55 17.39C104.257 17.4235 103.978 17.5336 103.741 17.7091C103.504 17.8846 103.318 18.1195 103.2 18.39C103.047 18.816 102.979 19.2678 103 19.72V22.09H102.16V16.59L103 16.61Z" fill="#8777B5"/>
<path d="M107.37 24.9301H106.47L108.37 20.99L106.14 16.61H107.06L108.81 20.08L110.46 16.61H111.38L107.37 24.9301Z" fill="#8777B5"/>
<path d="M120.7 19.36C120.7 19.9256 120.532 20.4787 120.218 20.949C119.904 21.4193 119.457 21.7859 118.934 22.0023C118.412 22.2188 117.837 22.2754 117.282 22.165C116.727 22.0547 116.218 21.7823 115.818 21.3823C115.418 20.9823 115.145 20.4728 115.035 19.918C114.925 19.3632 114.981 18.7881 115.198 18.2655C115.414 17.7429 115.781 17.2963 116.251 16.9821C116.721 16.6678 117.274 16.5 117.84 16.5C118.599 16.5 119.326 16.8013 119.862 17.3376C120.399 17.874 120.7 18.6015 120.7 19.36ZM115.85 19.36C115.85 19.8904 116.061 20.3991 116.436 20.7742C116.811 21.1492 117.32 21.36 117.85 21.36C118.38 21.36 118.889 21.1492 119.264 20.7742C119.639 20.3991 119.85 19.8904 119.85 19.36C119.85 18.8296 119.639 18.3209 119.264 17.9458C118.889 17.5707 118.38 17.36 117.85 17.36C117.32 17.36 116.811 17.5707 116.436 17.9458C116.061 18.3209 115.85 18.8296 115.85 19.36Z" fill="#8777B5"/>
<path d="M125 14.6C124.757 14.5078 124.5 14.4603 124.24 14.46C123.39 14.46 123.01 14.9599 123.01 16.0699V16.61H124.01V17.36H123.01V22.11H122.17V17.36H121.29V16.61H122.17V16.1C122.17 14.32 123.11 13.65 124.09 13.65C124.401 13.6554 124.708 13.7128 125 13.8199V14.6Z" fill="#8777B5"/>
<path d="M61.4799 29.42C60.9449 28.9687 60.2785 28.7021 59.5798 28.66C59.3856 28.6298 59.1872 28.6418 58.9981 28.6951C58.809 28.7484 58.6335 28.8418 58.4836 28.9689C58.3338 29.096 58.213 29.2539 58.1295 29.4318C58.0461 29.6097 58.0018 29.8034 57.9998 29.9999C57.9998 30.8499 58.8398 31.27 59.5798 31.64C61.2098 32.45 61.7899 32.93 61.7899 34.17C61.7876 34.482 61.7221 34.7903 61.5974 35.0764C61.4727 35.3624 61.2913 35.6202 61.0642 35.8342C60.8371 36.0482 60.569 36.2139 60.2761 36.3215C59.9831 36.429 59.6715 36.4761 59.3598 36.4599C58.5665 36.4352 57.7993 36.1701 57.1599 35.6999V34.5699C57.7311 35.165 58.5063 35.5222 59.3298 35.5699C59.5246 35.5863 59.7207 35.5629 59.9062 35.501C60.0916 35.4392 60.2626 35.3402 60.4085 35.2102C60.5545 35.0801 60.6724 34.9217 60.7552 34.7446C60.8379 34.5675 60.8838 34.3754 60.8899 34.18C60.8899 33.65 60.7299 33.1799 59.0099 32.3399C57.5999 31.6799 57.0898 30.98 57.0898 30.05C57.0984 29.7394 57.17 29.4338 57.3004 29.1518C57.4308 28.8698 57.6171 28.6173 57.8482 28.4096C58.0793 28.2019 58.3502 28.0435 58.6444 27.9438C58.9387 27.8441 59.2501 27.8054 59.5598 27.8299C60.2289 27.833 60.8836 28.0236 61.4499 28.38L61.4799 29.42Z" fill="#8777B5"/>
<path d="M68.4802 33.54C68.4822 34.1081 68.3156 34.6639 68.0014 35.1372C67.6873 35.6105 67.2397 35.9799 66.7155 36.1986C66.1912 36.4174 65.6138 36.4757 65.0565 36.3661C64.4991 36.2565 63.9868 35.9839 63.5844 35.5829C63.182 35.1819 62.9077 34.6706 62.7961 34.1136C62.6846 33.5567 62.7408 32.979 62.9577 32.454C63.1747 31.929 63.5425 31.4802 64.0147 31.1644C64.4869 30.8486 65.0421 30.6801 65.6102 30.6801C66.3688 30.6827 67.0958 30.9845 67.6332 31.52C68.1706 32.0555 68.475 32.7814 68.4802 33.54ZM63.6202 33.54C63.6417 33.9302 63.777 34.3055 64.0094 34.6196C64.2419 34.9337 64.5612 35.1728 64.928 35.3075C65.2948 35.4421 65.693 35.4663 66.0735 35.3772C66.4539 35.288 66.7999 35.0895 67.0687 34.8059C67.3375 34.5223 67.5174 34.1662 67.5861 33.7815C67.6547 33.3968 67.6092 33.0004 67.4551 32.6414C67.3011 32.2823 67.0452 31.9761 66.7191 31.7609C66.393 31.5456 66.011 31.4306 65.6202 31.4301C65.3481 31.4296 65.0787 31.4847 64.8286 31.592C64.5784 31.6994 64.3529 31.8565 64.1657 32.0541C63.9784 32.2516 63.8335 32.4854 63.7397 32.7408C63.6459 32.9963 63.6052 33.2683 63.6202 33.54Z" fill="#8777B5"/>
<path d="M73.7301 31.92C73.2773 31.6349 72.7551 31.4792 72.2201 31.4699C71.6922 31.5204 71.2035 31.7707 70.8539 32.1695C70.5043 32.5683 70.3203 33.0857 70.3395 33.6157C70.3586 34.1457 70.5795 34.6483 70.957 35.0208C71.3344 35.3934 71.8399 35.6077 72.3701 35.6199C72.8792 35.6077 73.3801 35.4885 73.8401 35.27V36.0999C73.344 36.2996 72.8149 36.4048 72.2801 36.41C71.907 36.4311 71.5336 36.3721 71.1852 36.237C70.8367 36.1019 70.5212 35.8939 70.2597 35.6268C69.9983 35.3597 69.7971 35.0397 69.6695 34.6884C69.5419 34.3371 69.491 33.9625 69.5201 33.5899C69.4864 33.2171 69.5315 32.8414 69.6524 32.4871C69.7734 32.1329 69.9674 31.808 70.222 31.5336C70.4766 31.2592 70.7861 31.0414 71.1303 30.8944C71.4745 30.7473 71.8458 30.6743 72.2201 30.68C72.7417 30.6868 73.256 30.8026 73.7301 31.02V31.92Z" fill="#8777B5"/>
<path d="M75.9998 29.1C76.0018 29.2111 75.9706 29.3204 75.9103 29.4138C75.85 29.5072 75.7632 29.5805 75.6611 29.6244C75.559 29.6683 75.4461 29.6809 75.3368 29.6604C75.2275 29.6399 75.1268 29.5874 75.0475 29.5095C74.9682 29.4316 74.9138 29.3319 74.8914 29.223C74.869 29.1141 74.8795 29.001 74.9215 28.8981C74.9636 28.7952 75.0354 28.7071 75.1277 28.6451C75.22 28.5832 75.3286 28.5501 75.4398 28.55C75.5866 28.55 75.7275 28.6076 75.8323 28.7104C75.937 28.8133 75.9972 28.9532 75.9998 29.1ZM75.8598 36.3H74.9998V30.8H75.8398L75.8598 36.3Z" fill="#8777B5"/>
<path d="M81.8401 35.9C81.1501 36.4 80.9001 36.41 80.7501 36.41C80.2901 36.41 80.2001 36.04 80.1501 35.78C79.7083 36.1795 79.1357 36.4036 78.5401 36.41C78.3546 36.4127 78.1704 36.3784 77.9982 36.3092C77.8261 36.24 77.6694 36.1374 77.5372 36.0071C77.4051 35.8768 77.3002 35.7216 77.2286 35.5504C77.157 35.3793 77.1201 35.1956 77.1201 35.01C77.1201 34.12 77.8601 33.39 80.1201 33.01V32.52C80.1201 32.16 80.0501 31.45 79.0201 31.45C78.3655 31.4834 77.7507 31.7746 77.3101 32.26V31.38C77.8065 30.947 78.4414 30.7058 79.1001 30.7C79.3403 30.6705 79.584 30.6939 79.8142 30.7686C80.0444 30.8432 80.2555 30.9674 80.4327 31.1322C80.6099 31.297 80.7489 31.4985 80.84 31.7227C80.9311 31.9469 80.9721 32.1884 80.9601 32.4301V35.4301C80.9601 35.6601 80.9601 35.72 81.1101 35.72C81.3772 35.6552 81.6222 35.5206 81.8201 35.33L81.8401 35.9ZM80.1401 33.5401C78.7301 33.8001 77.9701 34.26 77.9701 34.95C77.9739 35.0673 78.0012 35.1828 78.0503 35.2894C78.0994 35.3961 78.1693 35.4919 78.256 35.5711C78.3426 35.6503 78.4443 35.7113 78.5549 35.7506C78.6655 35.79 78.7829 35.8068 78.9001 35.8001C79.3725 35.7649 79.8148 35.5544 80.1401 35.21V33.5401Z" fill="#8777B5"/>
<path d="M83.61 36.3H82.77V27.9399H83.61V36.3Z" fill="#8777B5"/>
<path d="M90.8402 27.9399C92.9402 27.9399 93.6002 29.09 93.6002 30.23C93.6002 31.37 92.9402 32.52 90.8402 32.52H89.3702V36.3H88.4502V27.9399H90.8402ZM89.3702 28.75V31.75H90.7402C92.4202 31.75 92.6202 30.87 92.6202 30.27C92.6202 29.67 92.4202 28.79 90.7402 28.79L89.3702 28.75Z" fill="#8777B5"/>
<path d="M97.7001 32C97.246 31.6635 96.7042 31.4656 96.1401 31.4301C95.5801 31.4301 95.2101 31.76 95.2101 32.14C95.2101 32.52 95.5901 32.77 96.9001 33.45C97.0971 33.5032 97.2817 33.5946 97.4433 33.7191C97.6049 33.8437 97.7405 33.9988 97.8421 34.1757C97.9438 34.3526 98.0096 34.5478 98.0359 34.7502C98.0621 34.9525 98.0483 35.158 97.9951 35.355C97.9419 35.552 97.8504 35.7366 97.7259 35.8982C97.6014 36.0599 97.4463 36.1953 97.2694 36.297C97.0925 36.3987 96.8973 36.4646 96.6949 36.4909C96.4926 36.5171 96.2871 36.5032 96.0901 36.45C95.4692 36.4351 94.8628 36.2594 94.3301 35.94V35C94.852 35.3739 95.4692 35.5923 96.1101 35.63C96.5401 35.63 97.0401 35.36 97.0401 34.89C97.0401 34.42 96.5401 34.11 95.8101 33.77C95.0801 33.43 94.3701 33.06 94.3701 32.14C94.381 31.9242 94.436 31.7128 94.5318 31.5191C94.6277 31.3253 94.7622 31.1532 94.9272 31.0136C95.0922 30.8739 95.284 30.7696 95.4909 30.7071C95.6978 30.6445 95.9154 30.6252 96.1301 30.6501C96.6869 30.658 97.2305 30.8207 97.7001 31.12V32Z" fill="#8777B5"/>
<path d="M99.5999 39.12H98.6899L100.59 35.17L98.3599 30.8H99.2799L101.03 34.26L102.69 30.8H103.6L99.5999 39.12Z" fill="#8777B5"/>
<path d="M108.19 31.9201C107.737 31.635 107.215 31.4793 106.68 31.47C106.42 31.4812 106.165 31.5448 105.931 31.657C105.696 31.7692 105.487 31.9278 105.315 32.123C105.143 32.3182 105.012 32.5461 104.931 32.793C104.849 33.04 104.818 33.3009 104.84 33.5601C104.818 33.831 104.855 34.1033 104.947 34.3591C105.039 34.6148 105.184 34.8479 105.374 35.0429C105.563 35.2379 105.792 35.3903 106.045 35.4898C106.297 35.5893 106.569 35.6337 106.84 35.62C107.349 35.6078 107.85 35.4886 108.31 35.2701V36.1C107.814 36.2986 107.285 36.4037 106.75 36.4101C106.377 36.431 106.003 36.372 105.654 36.237C105.305 36.102 104.989 35.894 104.727 35.6271C104.465 35.3602 104.262 35.0404 104.134 34.6891C104.005 34.3379 103.953 33.9631 103.98 33.59C103.948 33.2167 103.994 32.8408 104.116 32.4865C104.239 32.1322 104.434 31.8075 104.689 31.5333C104.944 31.259 105.254 31.0414 105.599 30.8945C105.944 30.7475 106.315 30.6745 106.69 30.6801C107.212 30.6869 107.726 30.8027 108.2 31.0201L108.19 31.9201Z" fill="#8777B5"/>
<path d="M110.27 27.9399V31.63C110.45 31.3329 110.702 31.0857 111.003 30.911C111.303 30.7363 111.643 30.6397 111.99 30.63C113.23 30.63 113.99 31.54 113.99 32.96V36.25H113.14V33.04C113.14 32.1 112.79 31.38 111.82 31.38C111.498 31.3895 111.184 31.488 110.914 31.6644C110.644 31.8409 110.428 32.0885 110.29 32.38V36.28H109.44V27.92L110.27 27.9399Z" fill="#8777B5"/>
<path d="M120.89 33.54C120.89 34.1053 120.722 34.6578 120.409 35.1279C120.095 35.598 119.649 35.9645 119.127 36.1813C118.605 36.398 118.03 36.4552 117.476 36.3457C116.921 36.2362 116.412 35.9648 116.011 35.5658C115.611 35.1668 115.338 34.6581 115.226 34.104C115.115 33.5499 115.17 32.9752 115.385 32.4524C115.6 31.9296 115.965 31.4823 116.434 31.1669C116.903 30.8514 117.455 30.682 118.02 30.6801C118.779 30.6827 119.506 30.9845 120.043 31.52C120.58 32.0555 120.885 32.7814 120.89 33.54ZM116.04 33.54C116.061 33.9302 116.197 34.3055 116.429 34.6196C116.662 34.9337 116.981 35.1728 117.348 35.3075C117.715 35.4421 118.113 35.4663 118.493 35.3772C118.874 35.288 119.22 35.0895 119.488 34.8059C119.757 34.5223 119.937 34.1662 120.006 33.7815C120.074 33.3968 120.029 33.0004 119.875 32.6414C119.721 32.2823 119.465 31.9761 119.139 31.7609C118.813 31.5456 118.431 31.4306 118.04 31.4301C117.764 31.4241 117.491 31.4751 117.236 31.58C116.981 31.6848 116.751 31.8413 116.559 32.0394C116.367 32.2375 116.219 32.4731 116.123 32.7313C116.027 32.9896 115.985 33.2649 116 33.54H116.04Z" fill="#8777B5"/>
<path d="M123.05 36.3H122.21V27.9399H123.05V36.3Z" fill="#8777B5"/>
<path d="M130.09 33.54C130.092 34.1081 129.925 34.6639 129.611 35.1372C129.297 35.6105 128.85 35.9799 128.325 36.1986C127.801 36.4174 127.224 36.4757 126.666 36.3661C126.109 36.2565 125.597 35.9839 125.194 35.5829C124.792 35.1819 124.518 34.6706 124.406 34.1136C124.294 33.5567 124.351 32.979 124.568 32.454C124.785 31.929 125.152 31.4802 125.625 31.1644C126.097 30.8486 126.652 30.6801 127.22 30.6801C127.979 30.6827 128.706 30.9845 129.243 31.52C129.78 32.0555 130.085 32.7814 130.09 33.54ZM125.23 33.54C125.252 33.9302 125.387 34.3055 125.619 34.6196C125.852 34.9337 126.171 35.1728 126.538 35.3075C126.905 35.4421 127.303 35.4663 127.683 35.3772C128.064 35.288 128.41 35.0895 128.679 34.8059C128.947 34.5223 129.127 34.1662 129.196 33.7815C129.265 33.3968 129.219 33.0004 129.065 32.6414C128.911 32.2823 128.655 31.9761 128.329 31.7609C128.003 31.5456 127.621 31.4306 127.23 31.4301C126.958 31.4296 126.689 31.4847 126.438 31.592C126.188 31.6994 125.963 31.8565 125.775 32.0541C125.588 32.2516 125.443 32.4854 125.35 32.7408C125.256 32.9963 125.215 33.2683 125.23 33.54Z" fill="#8777B5"/>
<path d="M135.75 31.47H134.56C134.763 31.6327 134.929 31.8379 135.044 32.071C135.16 32.3042 135.223 32.5597 135.23 32.8199C135.22 33.264 135.05 33.6896 134.753 34.0198C134.456 34.3499 134.051 34.5628 133.61 34.62C132.68 34.84 132.28 34.95 132.28 35.29C132.28 35.63 132.58 35.75 133.48 35.86C135.13 36.06 135.73 36.57 135.73 37.46C135.73 38.59 134.57 39.12 133.23 39.12C131.57 39.12 130.72 38.37 130.72 37.51C130.72 37.03 130.99 36.33 132.22 36.11C131.68 35.92 131.48 35.56 131.48 35.38C131.48 34.88 131.98 34.7 132.48 34.52C132.092 34.4122 131.75 34.1793 131.508 33.8574C131.266 33.5356 131.137 33.1428 131.14 32.74C131.14 31.89 131.57 30.8 133.64 30.8H135.74L135.75 31.47ZM133.14 36.58C131.8 36.58 131.52 37.13 131.52 37.5C131.52 38.37 132.72 38.4399 133.26 38.4399C134.34 38.4399 134.94 38.01 134.94 37.5C134.94 37.14 134.61 36.58 133.14 36.58ZM133.2 31.52C132.874 31.52 132.561 31.6496 132.33 31.8802C132.1 32.1109 131.97 32.4238 131.97 32.75C131.97 33.0762 132.1 33.3891 132.33 33.6198C132.561 33.8504 132.874 33.98 133.2 33.98C133.365 33.9897 133.53 33.9652 133.684 33.9078C133.839 33.8505 133.98 33.7617 134.098 33.647C134.217 33.5323 134.31 33.3941 134.373 33.2415C134.435 33.0888 134.465 32.9249 134.46 32.76C134.459 32.5959 134.425 32.4335 134.361 32.2823C134.297 32.1312 134.204 31.9942 134.087 31.879C133.97 31.7639 133.831 31.6729 133.679 31.6113C133.527 31.5497 133.364 31.5187 133.2 31.52Z" fill="#8777B5"/>
<path d="M137.46 39.12H136.55L138.45 35.17L136.22 30.8H137.14L138.89 34.26L140.55 30.8H141.46L137.46 39.12Z" fill="#8777B5"/>
<path d="M21.6299 43.16C21.6299 36.92 26.3799 33.36 30.9699 29.91C35.5599 26.46 39.8999 23.22 39.8999 17.38C39.8999 9.97001 33.8999 5.38 24.3899 5.38V0C38.8399 0 45.3099 8.76005 45.3099 17.4301C45.3099 26.1001 39.1599 30.59 34.2199 34.29C30.3699 37.18 21.6299 43.21 21.6299 43.21" fill="#8777B5"/>
<path d="M21.5699 51C7.11992 51 0.649902 42.25 0.649902 33.58C0.649902 24.91 6.9299 20.04 11.9799 16.24C15.6999 13.42 24.3299 7.80005 24.3299 7.80005C24.3299 13.69 19.6999 17.18 15.2299 20.55C10.5099 24.11 6.05991 27.48 6.05991 33.55C6.05991 40.96 11.9999 45.55 21.5699 45.55V51Z" fill="#8777B5"/>
</svg>
