<svg width="107" height="365" viewBox="0 0 107 365" fill="none" xmlns="http://www.w3.org/2000/svg">
<path d="M39.17 1.07601H41.258C43.382 1.07601 43.958 2.28801 43.958 3.27201C43.958 4.38801 43.274 4.98801 42.494 5.27601C43.082 5.66001 43.49 6.29601 44.498 7.88001C44.846 8.43201 45.026 8.68401 45.434 9.26001H44.354L43.574 8.02401C43.25 7.50801 42.89 6.99201 42.518 6.51201C41.99 5.84001 41.534 5.51601 40.658 5.51601H40.07V9.26001H39.17V1.07601ZM41.126 1.86801H40.07V4.72401H41.126C42.29 4.72401 42.998 4.22001 42.998 3.28401C42.998 2.43201 42.374 1.86801 41.126 1.86801ZM50.5698 6.42801V6.62001H46.5738C46.5738 7.91601 47.4738 8.63601 48.5058 8.63601C49.5618 8.63601 50.2218 8.09601 50.4858 7.88001V8.72001C50.1498 8.94801 49.5498 9.36801 48.4098 9.36801C46.6098 9.36801 45.7218 8.00001 45.7218 6.54801C45.7218 4.67601 46.9698 3.76401 48.1938 3.76401C49.5258 3.76401 50.5698 4.85601 50.5698 6.42801ZM46.6218 6.02001H49.7178C49.5978 4.85601 48.8058 4.49601 48.2178 4.49601C47.5458 4.49601 46.8258 4.92801 46.6218 6.02001ZM54.8231 4.22001V5.04801C54.2951 4.72401 53.8271 4.49601 53.2991 4.49601C52.7471 4.49601 52.3871 4.82001 52.3871 5.19201C52.3871 5.62401 52.7591 5.80401 54.0431 6.47601C54.3311 6.63201 55.0271 7.01601 55.0271 7.85601C55.0271 8.39601 54.5951 9.36801 53.2511 9.36801C52.6151 9.36801 52.0871 9.17601 51.5231 8.87601V8.02401C52.4111 8.56401 52.9751 8.63601 53.2631 8.63601C53.6831 8.63601 54.1751 8.37201 54.1751 7.91601C54.1751 7.40001 53.6831 7.14801 52.9751 6.81201C52.3151 6.50001 51.5591 6.11601 51.5591 5.21601C51.5591 4.55601 52.0991 3.76401 53.2871 3.76401C54.0311 3.76401 54.5471 4.06401 54.8231 4.22001ZM60.8471 6.42801V6.62001H56.8511C56.8511 7.91601 57.7511 8.63601 58.7831 8.63601C59.8391 8.63601 60.4991 8.09601 60.7631 7.88001V8.72001C60.4271 8.94801 59.8271 9.36801 58.6871 9.36801C56.8871 9.36801 55.9991 8.00001 55.9991 6.54801C55.9991 4.67601 57.2471 3.76401 58.4711 3.76401C59.8031 3.76401 60.8471 4.85601 60.8471 6.42801ZM56.8991 6.02001H59.9951C59.8751 4.85601 59.0831 4.49601 58.4951 4.49601C57.8231 4.49601 57.1031 4.92801 56.8991 6.02001ZM66.3965 8.31201V8.87601C65.7245 9.35601 65.4725 9.36801 65.3285 9.36801C64.8845 9.36801 64.7885 9.00801 64.7405 8.75601C64.0685 9.26001 63.6485 9.36801 63.1685 9.36801C62.4125 9.36801 61.7765 8.79201 61.7765 8.00001C61.7765 7.12401 62.4965 6.41601 64.7285 6.02001V5.54001C64.7285 5.19201 64.6685 4.49601 63.6605 4.49601C62.9525 4.49601 62.4485 4.85601 61.9805 5.28801V4.42401C62.2445 4.19601 62.8565 3.76401 63.7325 3.76401C65.2685 3.76401 65.5565 4.84401 65.5565 5.45601V8.40801C65.5565 8.63601 65.5805 8.69601 65.7005 8.69601C65.8085 8.69601 66.0725 8.57601 66.3965 8.31201ZM64.7285 8.19201V6.56001C63.3485 6.81201 62.6045 7.26801 62.6045 7.94001C62.6045 8.58801 63.2045 8.76801 63.5165 8.76801C64.0925 8.76801 64.5245 8.38401 64.7285 8.19201ZM67.3142 3.87201H68.1422V5.06001C68.2862 4.83201 68.5982 4.36401 69.0422 4.06401C69.1502 3.99201 69.4982 3.76401 69.8582 3.76401C70.3742 3.76401 70.9382 4.23201 71.1422 4.40001L70.6982 5.12001C70.5182 4.96401 70.1222 4.61601 69.6542 4.61601C69.1742 4.61601 68.5862 5.04801 68.3342 5.63601C68.1422 6.06801 68.1422 6.65601 68.1422 6.93201V9.26001H67.3142V3.87201ZM75.3615 4.08801V4.97601C75.0495 4.79601 74.5695 4.53201 73.8855 4.53201C72.4575 4.53201 72.0855 5.88801 72.0855 6.58401C72.0855 7.48401 72.5775 8.60001 74.0295 8.60001C74.6895 8.60001 75.2295 8.36001 75.4695 8.25201V9.06801C75.2175 9.16401 74.6535 9.36801 73.9455 9.36801C72.1935 9.36801 71.2335 8.16801 71.2335 6.60801C71.2335 4.84401 72.3855 3.76401 73.8855 3.76401C74.5335 3.76401 75.0135 3.94401 75.3615 4.08801ZM76.572 1.07601H77.4V4.68801C77.796 4.16001 78.324 3.76401 79.092 3.76401C80.304 3.76401 81.024 4.65201 81.024 6.04401V9.26001H80.196V6.11601C80.196 5.20401 79.848 4.49601 78.9 4.49601C78.588 4.49601 77.904 4.59201 77.4 5.44401V9.26001H76.572V1.07601Z" fill="#ABA7A1"/>
<path d="M8.3618 81.664V82.624C7.0418 81.808 5.76981 81.784 5.4578 81.784C3.4898 81.784 2.0738 83.284 2.0738 85.168C2.0738 87.4 3.8258 88.576 5.4458 88.576C6.48981 88.576 7.34181 88.228 7.62981 88.12V86.176H5.9738V85.384H8.5298V88.684C7.5458 89.116 6.5978 89.368 5.5298 89.368C2.7578 89.368 1.1138 87.376 1.1138 85.18C1.1138 82.864 2.8658 80.968 5.51781 80.968C6.6938 80.968 7.56981 81.328 8.3618 81.664ZM10.0368 83.872H10.8648V85.06C11.0088 84.832 11.3208 84.364 11.7648 84.064C11.8728 83.992 12.2208 83.764 12.5808 83.764C13.0968 83.764 13.6608 84.232 13.8648 84.4L13.4208 85.12C13.2408 84.964 12.8448 84.616 12.3768 84.616C11.8968 84.616 11.3088 85.048 11.0568 85.636C10.8648 86.068 10.8648 86.656 10.8648 86.932V89.26H10.0368V83.872ZM16.7521 83.764C18.3001 83.764 19.5601 85.012 19.5601 86.56C19.5601 88.108 18.3001 89.368 16.7521 89.368C15.2041 89.368 13.9561 88.108 13.9561 86.56C13.9561 85.012 15.2041 83.764 16.7521 83.764ZM16.7641 84.496C15.6361 84.496 14.8081 85.42 14.8081 86.56C14.8081 87.7 15.6361 88.636 16.7641 88.636C17.8921 88.636 18.7081 87.7 18.7081 86.56C18.7081 85.42 17.8921 84.496 16.7641 84.496ZM25.1972 89.26H24.3692V88.444C23.9732 88.972 23.4452 89.368 22.6772 89.368C21.4652 89.368 20.7452 88.48 20.7452 87.088V83.872H21.5732V87.016C21.5732 87.928 21.9212 88.636 22.8692 88.636C23.1812 88.636 23.8652 88.54 24.3692 87.688V83.872H25.1972V89.26ZM26.7595 83.872H28.6555C30.5395 83.872 31.6315 84.832 31.6315 86.56C31.6315 88.072 30.6835 89.368 28.9555 89.368C28.2955 89.368 27.8155 89.14 27.5875 89.044V91.912H26.7595V83.872ZM27.5875 84.604V88.288C27.7795 88.396 28.2115 88.636 28.8235 88.636C30.1555 88.636 30.7795 87.664 30.7795 86.584C30.7795 85.288 29.9155 84.604 28.6435 84.604H27.5875ZM35.9598 84.22V85.048C35.4318 84.724 34.9638 84.496 34.4358 84.496C33.8838 84.496 33.5238 84.82 33.5238 85.192C33.5238 85.624 33.8958 85.804 35.1798 86.476C35.4678 86.632 36.1638 87.016 36.1638 87.856C36.1638 88.396 35.7318 89.368 34.3878 89.368C33.7518 89.368 33.2238 89.176 32.6598 88.876V88.024C33.5478 88.564 34.1118 88.636 34.3998 88.636C34.8198 88.636 35.3118 88.372 35.3118 87.916C35.3118 87.4 34.8198 87.148 34.1118 86.812C33.4518 86.5 32.6958 86.116 32.6958 85.216C32.6958 84.556 33.2358 83.764 34.4238 83.764C35.1678 83.764 35.6838 84.064 35.9598 84.22ZM44.7558 88.312V88.876C44.0838 89.356 43.8318 89.368 43.6878 89.368C43.2438 89.368 43.1478 89.008 43.0998 88.756C42.4278 89.26 42.0078 89.368 41.5278 89.368C40.7718 89.368 40.1358 88.792 40.1358 88C40.1358 87.124 40.8558 86.416 43.0878 86.02V85.54C43.0878 85.192 43.0278 84.496 42.0198 84.496C41.3118 84.496 40.8078 84.856 40.3398 85.288V84.424C40.6038 84.196 41.2158 83.764 42.0918 83.764C43.6278 83.764 43.9158 84.844 43.9158 85.456V88.408C43.9158 88.636 43.9398 88.696 44.0598 88.696C44.1678 88.696 44.4318 88.576 44.7558 88.312ZM43.0878 88.192V86.56C41.7078 86.812 40.9638 87.268 40.9638 87.94C40.9638 88.588 41.5638 88.768 41.8758 88.768C42.4518 88.768 42.8838 88.384 43.0878 88.192ZM45.6736 83.872H46.5016V84.688C46.8976 84.16 47.4256 83.764 48.1936 83.764C49.4056 83.764 50.1256 84.652 50.1256 86.044V89.26H49.2976V86.116C49.2976 85.204 48.9496 84.496 48.0016 84.496C47.6896 84.496 47.0056 84.592 46.5016 85.444V89.26H45.6736V83.872ZM56.1758 89.26H54.2798C52.3958 89.26 51.3038 88.3 51.3038 86.572C51.3038 85.06 52.2518 83.764 53.9798 83.764C54.6398 83.764 55.1198 83.992 55.3478 84.088V81.076H56.1758V89.26ZM55.3478 88.528V84.844C55.1558 84.736 54.7238 84.496 54.1118 84.496C52.7798 84.496 52.1558 85.468 52.1558 86.548C52.1558 87.844 53.0198 88.528 54.2918 88.528H55.3478ZM61.8121 81.076V88.468H65.6761V89.26H60.9121V81.076H61.8121ZM70.8652 88.312V88.876C70.1932 89.356 69.9412 89.368 69.7972 89.368C69.3532 89.368 69.2572 89.008 69.2092 88.756C68.5372 89.26 68.1172 89.368 67.6372 89.368C66.8812 89.368 66.2452 88.792 66.2452 88C66.2452 87.124 66.9652 86.416 69.1972 86.02V85.54C69.1972 85.192 69.1372 84.496 68.1292 84.496C67.4212 84.496 66.9172 84.856 66.4492 85.288V84.424C66.7132 84.196 67.3252 83.764 68.2012 83.764C69.7372 83.764 70.0252 84.844 70.0252 85.456V88.408C70.0252 88.636 70.0492 88.696 70.1692 88.696C70.2772 88.696 70.5412 88.576 70.8652 88.312ZM69.1972 88.192V86.56C67.8172 86.812 67.0732 87.268 67.0732 87.94C67.0732 88.588 67.6732 88.768 67.9852 88.768C68.5612 88.768 68.9932 88.384 69.1972 88.192ZM71.7829 88.96V81.076H72.6109V84.448C72.8749 84.244 73.4269 83.764 74.3149 83.764C75.8269 83.764 76.6789 85.06 76.6789 86.44C76.6789 88.204 75.5629 89.368 73.7749 89.368C73.0909 89.368 72.4069 89.224 71.7829 88.96ZM72.6109 85.288V88.42C73.2229 88.636 73.7389 88.636 73.8469 88.636C74.9749 88.636 75.8269 87.736 75.8269 86.512C75.8269 85.36 75.0829 84.496 74.1469 84.496C73.7509 84.496 73.1509 84.7 72.6109 85.288ZM81.0067 84.22V85.048C80.4787 84.724 80.0107 84.496 79.4827 84.496C78.9307 84.496 78.5707 84.82 78.5707 85.192C78.5707 85.624 78.9427 85.804 80.2267 86.476C80.5147 86.632 81.2107 87.016 81.2107 87.856C81.2107 88.396 80.7787 89.368 79.4347 89.368C78.7987 89.368 78.2707 89.176 77.7067 88.876V88.024C78.5947 88.564 79.1587 88.636 79.4467 88.636C79.8667 88.636 80.3587 88.372 80.3587 87.916C80.3587 87.4 79.8667 87.148 79.1587 86.812C78.4987 86.5 77.7427 86.116 77.7427 85.216C77.7427 84.556 78.2827 83.764 79.4707 83.764C80.2147 83.764 80.7307 84.064 81.0067 84.22Z" fill="#ABA7A1"/>
<path d="M26 241.426H28.34C30.392 241.426 31.04 242.554 31.04 243.67C31.04 244.786 30.392 245.914 28.34 245.914H26.9V249.61H26V241.426ZM28.244 242.218H26.9V245.122H28.244C29.888 245.122 30.08 244.258 30.08 243.67C30.08 243.082 29.888 242.218 28.244 242.218ZM36.3515 249.61H35.5235V248.794C35.1275 249.322 34.5995 249.718 33.8315 249.718C32.6195 249.718 31.8995 248.83 31.8995 247.438V244.222H32.7275V247.366C32.7275 248.278 33.0755 248.986 34.0235 248.986C34.3355 248.986 35.0195 248.89 35.5235 248.038V244.222H36.3515V249.61ZM37.9138 249.31V241.426H38.7418V244.798C39.0058 244.594 39.5578 244.114 40.4458 244.114C41.9578 244.114 42.8098 245.41 42.8098 246.79C42.8098 248.554 41.6938 249.718 39.9058 249.718C39.2218 249.718 38.5378 249.574 37.9138 249.31ZM38.7418 245.638V248.77C39.3538 248.986 39.8698 248.986 39.9778 248.986C41.1058 248.986 41.9578 248.086 41.9578 246.862C41.9578 245.71 41.2138 244.846 40.2778 244.846C39.8818 244.846 39.2818 245.05 38.7418 245.638ZM44.9176 241.426V249.61H44.0896V241.426H44.9176ZM47.3082 244.222V249.61H46.4802V244.222H47.3082ZM46.9002 242.026C47.2002 242.026 47.4402 242.266 47.4402 242.566C47.4402 242.866 47.2002 243.106 46.9002 243.106C46.6002 243.106 46.3602 242.866 46.3602 242.566C46.3602 242.266 46.6002 242.026 46.9002 242.026ZM52.7228 244.438V245.326C52.4108 245.146 51.9308 244.882 51.2468 244.882C49.8188 244.882 49.4468 246.238 49.4468 246.934C49.4468 247.834 49.9388 248.95 51.3908 248.95C52.0508 248.95 52.5908 248.71 52.8308 248.602V249.418C52.5788 249.514 52.0148 249.718 51.3068 249.718C49.5548 249.718 48.5948 248.518 48.5948 246.958C48.5948 245.194 49.7468 244.114 51.2468 244.114C51.8948 244.114 52.3748 244.294 52.7228 244.438ZM58.3594 248.662V249.226C57.6874 249.706 57.4354 249.718 57.2914 249.718C56.8474 249.718 56.7514 249.358 56.7034 249.106C56.0314 249.61 55.6114 249.718 55.1314 249.718C54.3754 249.718 53.7394 249.142 53.7394 248.35C53.7394 247.474 54.4594 246.766 56.6914 246.37V245.89C56.6914 245.542 56.6314 244.846 55.6234 244.846C54.9154 244.846 54.4114 245.206 53.9434 245.638V244.774C54.2074 244.546 54.8194 244.114 55.6954 244.114C57.2314 244.114 57.5194 245.194 57.5194 245.806V248.758C57.5194 248.986 57.5434 249.046 57.6634 249.046C57.7714 249.046 58.0354 248.926 58.3594 248.662ZM56.6914 248.542V246.91C55.3114 247.162 54.5674 247.618 54.5674 248.29C54.5674 248.938 55.1674 249.118 55.4794 249.118C56.0554 249.118 56.4874 248.734 56.6914 248.542ZM58.6171 244.954V244.822L60.3691 242.962V244.222H61.9891V244.954H60.3691V247.774C60.3691 248.47 60.4171 248.95 61.1731 248.95C61.5931 248.95 61.8571 248.818 62.2651 248.626V249.406C62.0371 249.514 61.5931 249.718 61.0051 249.718C59.9251 249.718 59.5411 248.974 59.5411 248.11V244.954H58.6171ZM63.8668 244.222V249.61H63.0388V244.222H63.8668ZM63.4588 242.026C63.7588 242.026 63.9988 242.266 63.9988 242.566C63.9988 242.866 63.7588 243.106 63.4588 243.106C63.1588 243.106 62.9188 242.866 62.9188 242.566C62.9188 242.266 63.1588 242.026 63.4588 242.026ZM67.9494 244.114C69.4974 244.114 70.7574 245.362 70.7574 246.91C70.7574 248.458 69.4974 249.718 67.9494 249.718C66.4014 249.718 65.1534 248.458 65.1534 246.91C65.1534 245.362 66.4014 244.114 67.9494 244.114ZM67.9614 244.846C66.8334 244.846 66.0054 245.77 66.0054 246.91C66.0054 248.05 66.8334 248.986 67.9614 248.986C69.0894 248.986 69.9054 248.05 69.9054 246.91C69.9054 245.77 69.0894 244.846 67.9614 244.846ZM72.0505 244.222H72.8785V245.038C73.2745 244.51 73.8025 244.114 74.5705 244.114C75.7825 244.114 76.5025 245.002 76.5025 246.394V249.61H75.6745V246.466C75.6745 245.554 75.3265 244.846 74.3785 244.846C74.0665 244.846 73.3825 244.942 72.8785 245.794V249.61H72.0505V244.222ZM81.0048 244.57V245.398C80.4768 245.074 80.0088 244.846 79.4808 244.846C78.9288 244.846 78.5688 245.17 78.5688 245.542C78.5688 245.974 78.9408 246.154 80.2248 246.826C80.5128 246.982 81.2088 247.366 81.2088 248.206C81.2088 248.746 80.7768 249.718 79.4328 249.718C78.7968 249.718 78.2688 249.526 77.7048 249.226V248.374C78.5928 248.914 79.1568 248.986 79.4448 248.986C79.8648 248.986 80.3568 248.722 80.3568 248.266C80.3568 247.75 79.8648 247.498 79.1568 247.162C78.4968 246.85 77.7408 246.466 77.7408 245.566C77.7408 244.906 78.2808 244.114 79.4688 244.114C80.2128 244.114 80.7288 244.414 81.0048 244.57Z" fill="#ABA7A1"/>
<path d="M39.1602 154.856H41.2482C43.3722 154.856 43.9482 156.068 43.9482 157.052C43.9482 158.168 43.2642 158.768 42.4842 159.056C43.0722 159.44 43.4802 160.076 44.4882 161.66C44.8362 162.212 45.0162 162.464 45.4242 163.04H44.3442L43.5642 161.804C43.2402 161.288 42.8802 160.772 42.5082 160.292C41.9802 159.62 41.5242 159.296 40.6482 159.296H40.0602V163.04H39.1602V154.856ZM41.1162 155.648H40.0602V158.504H41.1162C42.2802 158.504 42.9882 158 42.9882 157.064C42.9882 156.212 42.3642 155.648 41.1162 155.648ZM50.56 160.208V160.4H46.564C46.564 161.696 47.464 162.416 48.496 162.416C49.552 162.416 50.212 161.876 50.476 161.66V162.5C50.14 162.728 49.54 163.148 48.4 163.148C46.6 163.148 45.712 161.78 45.712 160.328C45.712 158.456 46.96 157.544 48.184 157.544C49.516 157.544 50.56 158.636 50.56 160.208ZM46.612 159.8H49.708C49.588 158.636 48.796 158.276 48.208 158.276C47.536 158.276 46.816 158.708 46.612 159.8ZM54.8134 158V158.828C54.2854 158.504 53.8174 158.276 53.2894 158.276C52.7374 158.276 52.3774 158.6 52.3774 158.972C52.3774 159.404 52.7494 159.584 54.0334 160.256C54.3214 160.412 55.0174 160.796 55.0174 161.636C55.0174 162.176 54.5854 163.148 53.2414 163.148C52.6054 163.148 52.0774 162.956 51.5134 162.656V161.804C52.4014 162.344 52.9654 162.416 53.2534 162.416C53.6734 162.416 54.1654 162.152 54.1654 161.696C54.1654 161.18 53.6734 160.928 52.9654 160.592C52.3054 160.28 51.5494 159.896 51.5494 158.996C51.5494 158.336 52.0894 157.544 53.2774 157.544C54.0214 157.544 54.5374 157.844 54.8134 158ZM60.8374 160.208V160.4H56.8414C56.8414 161.696 57.7414 162.416 58.7734 162.416C59.8294 162.416 60.4894 161.876 60.7534 161.66V162.5C60.4174 162.728 59.8174 163.148 58.6774 163.148C56.8774 163.148 55.9894 161.78 55.9894 160.328C55.9894 158.456 57.2374 157.544 58.4614 157.544C59.7934 157.544 60.8374 158.636 60.8374 160.208ZM56.8894 159.8H59.9854C59.8654 158.636 59.0734 158.276 58.4854 158.276C57.8134 158.276 57.0934 158.708 56.8894 159.8ZM66.3867 162.092V162.656C65.7147 163.136 65.4627 163.148 65.3187 163.148C64.8747 163.148 64.7787 162.788 64.7307 162.536C64.0587 163.04 63.6387 163.148 63.1587 163.148C62.4027 163.148 61.7667 162.572 61.7667 161.78C61.7667 160.904 62.4867 160.196 64.7187 159.8V159.32C64.7187 158.972 64.6587 158.276 63.6507 158.276C62.9427 158.276 62.4387 158.636 61.9707 159.068V158.204C62.2347 157.976 62.8467 157.544 63.7227 157.544C65.2587 157.544 65.5467 158.624 65.5467 159.236V162.188C65.5467 162.416 65.5707 162.476 65.6907 162.476C65.7987 162.476 66.0627 162.356 66.3867 162.092ZM64.7187 161.972V160.34C63.3387 160.592 62.5947 161.048 62.5947 161.72C62.5947 162.368 63.1947 162.548 63.5067 162.548C64.0827 162.548 64.5147 162.164 64.7187 161.972ZM67.3044 157.652H68.1324V158.84C68.2764 158.612 68.5884 158.144 69.0324 157.844C69.1404 157.772 69.4884 157.544 69.8484 157.544C70.3644 157.544 70.9284 158.012 71.1324 158.18L70.6884 158.9C70.5084 158.744 70.1124 158.396 69.6444 158.396C69.1644 158.396 68.5764 158.828 68.3244 159.416C68.1324 159.848 68.1324 160.436 68.1324 160.712V163.04H67.3044V157.652ZM75.3517 157.868V158.756C75.0397 158.576 74.5597 158.312 73.8757 158.312C72.4477 158.312 72.0757 159.668 72.0757 160.364C72.0757 161.264 72.5677 162.38 74.0197 162.38C74.6797 162.38 75.2197 162.14 75.4597 162.032V162.848C75.2077 162.944 74.6437 163.148 73.9357 163.148C72.1837 163.148 71.2237 161.948 71.2237 160.388C71.2237 158.624 72.3757 157.544 73.8757 157.544C74.5237 157.544 75.0037 157.724 75.3517 157.868ZM76.5622 154.856H77.3902V158.468C77.7862 157.94 78.3142 157.544 79.0822 157.544C80.2942 157.544 81.0142 158.432 81.0142 159.824V163.04H80.1862V159.896C80.1862 158.984 79.8382 158.276 78.8902 158.276C78.5782 158.276 77.8942 158.372 77.3902 159.224V163.04H76.5622V154.856Z" fill="#ABA7A1"/>
<path d="M44.0801 167.856H46.4201C48.4721 167.856 49.1201 168.984 49.1201 170.1C49.1201 171.216 48.4721 172.344 46.4201 172.344H44.9801V176.04H44.0801V167.856ZM46.3241 168.648H44.9801V171.552H46.3241C47.9681 171.552 48.1601 170.688 48.1601 170.1C48.1601 169.512 47.9681 168.648 46.3241 168.648ZM50.0876 170.652H50.9156V171.84C51.0596 171.612 51.3716 171.144 51.8156 170.844C51.9236 170.772 52.2716 170.544 52.6316 170.544C53.1476 170.544 53.7116 171.012 53.9156 171.18L53.4716 171.9C53.2916 171.744 52.8956 171.396 52.4276 171.396C51.9476 171.396 51.3596 171.828 51.1076 172.416C50.9156 172.848 50.9156 173.436 50.9156 173.712V176.04H50.0876V170.652ZM56.8029 170.544C58.3509 170.544 59.6109 171.792 59.6109 173.34C59.6109 174.888 58.3509 176.148 56.8029 176.148C55.2549 176.148 54.0069 174.888 54.0069 173.34C54.0069 171.792 55.2549 170.544 56.8029 170.544ZM56.8149 171.276C55.6869 171.276 54.8589 172.2 54.8589 173.34C54.8589 174.48 55.6869 175.416 56.8149 175.416C57.9429 175.416 58.7589 174.48 58.7589 173.34C58.7589 172.2 57.9429 171.276 56.8149 171.276ZM61.732 170.652V176.316C61.732 177.024 61.684 177.492 61.516 177.876C61.456 178.02 61.144 178.632 60.4 178.8L59.92 178.164C60.832 177.984 60.904 177.3 60.904 176.256V170.652H61.732ZM61.324 168.456C61.624 168.456 61.864 168.696 61.864 168.996C61.864 169.296 61.624 169.536 61.324 169.536C61.024 169.536 60.784 169.296 60.784 168.996C60.784 168.696 61.024 168.456 61.324 168.456ZM67.8432 173.208V173.4H63.8472C63.8472 174.696 64.7472 175.416 65.7792 175.416C66.8352 175.416 67.4952 174.876 67.7592 174.66V175.5C67.4232 175.728 66.8232 176.148 65.6832 176.148C63.8832 176.148 62.9952 174.78 62.9952 173.328C62.9952 171.456 64.2432 170.544 65.4672 170.544C66.7992 170.544 67.8432 171.636 67.8432 173.208ZM63.8952 172.8H66.9912C66.8712 171.636 66.0792 171.276 65.4912 171.276C64.8192 171.276 64.0992 171.708 63.8952 172.8ZM72.9006 170.868V171.756C72.5886 171.576 72.1086 171.312 71.4246 171.312C69.9966 171.312 69.6246 172.668 69.6246 173.364C69.6246 174.264 70.1166 175.38 71.5686 175.38C72.2286 175.38 72.7686 175.14 73.0086 175.032V175.848C72.7566 175.944 72.1926 176.148 71.4846 176.148C69.7326 176.148 68.7726 174.948 68.7726 173.388C68.7726 171.624 69.9246 170.544 71.4246 170.544C72.0726 170.544 72.5526 170.724 72.9006 170.868ZM73.5331 171.384V171.252L75.2851 169.392V170.652H76.9051V171.384H75.2851V174.204C75.2851 174.9 75.3331 175.38 76.0891 175.38C76.5091 175.38 76.7731 175.248 77.1811 175.056V175.836C76.9531 175.944 76.5091 176.148 75.9211 176.148C74.8411 176.148 74.4571 175.404 74.4571 174.54V171.384H73.5331ZM81.0028 171V171.828C80.4748 171.504 80.0068 171.276 79.4788 171.276C78.9268 171.276 78.5668 171.6 78.5668 171.972C78.5668 172.404 78.9388 172.584 80.2228 173.256C80.5108 173.412 81.2068 173.796 81.2068 174.636C81.2068 175.176 80.7748 176.148 79.4308 176.148C78.7948 176.148 78.2668 175.956 77.7028 175.656V174.804C78.5908 175.344 79.1548 175.416 79.4428 175.416C79.8628 175.416 80.3548 175.152 80.3548 174.696C80.3548 174.18 79.8628 173.928 79.1548 173.592C78.4948 173.28 77.7388 172.896 77.7388 171.996C77.7388 171.336 78.2788 170.544 79.4668 170.544C80.2108 170.544 80.7268 170.844 81.0028 171Z" fill="#ABA7A1"/>
<path d="M14.6402 314.856H16.7882C17.3762 314.856 17.7722 314.892 18.1562 315.036C18.9362 315.324 19.5362 315.972 19.5362 316.98C19.5362 317.676 19.2242 318.312 18.2882 318.708C19.4882 318.936 20.2442 319.764 20.2442 320.808C20.2442 322.14 19.1402 322.704 18.6482 322.872C18.1682 323.04 17.7842 323.04 16.9082 323.04H14.6402V314.856ZM16.5842 315.9H15.8042V318.36H16.5842C16.8842 318.36 17.4002 318.336 17.6882 318.168C17.9162 318.048 18.3242 317.724 18.3242 317.076C18.3242 316.62 18.1082 316.224 17.7482 316.056C17.4122 315.9 16.9322 315.9 16.5842 315.9ZM16.9082 319.416H15.8042V321.996H16.9682C17.3042 321.996 17.8802 321.996 18.1802 321.876C18.7802 321.648 19.0322 321.132 19.0322 320.7C19.0322 320.352 18.8642 319.836 18.2522 319.584C17.9402 319.452 17.5442 319.416 16.9082 319.416ZM25.7345 321.468V322.512C25.3625 322.752 24.7505 323.148 23.6225 323.148C23.0585 323.148 22.4105 323.064 21.7625 322.392C21.0545 321.66 20.9585 320.832 20.9585 320.316C20.9585 318.636 22.0145 317.544 23.4785 317.544C24.7385 317.544 25.5905 318.444 25.7705 319.632C25.8305 319.992 25.8305 320.232 25.8305 320.436H22.0385C22.0745 321.24 22.6025 322.128 23.7785 322.128C24.4745 322.128 25.1585 321.888 25.7345 321.468ZM22.0625 319.8H24.7745C24.7625 319.584 24.6785 318.468 23.4665 318.468C23.1305 318.468 22.7225 318.6 22.4345 318.924C22.1465 319.236 22.0985 319.56 22.0625 319.8ZM34.5405 322.08V322.728C34.0485 323.052 33.8445 323.148 33.5085 323.148C33.0405 323.148 32.7885 322.98 32.6925 322.596C32.2245 322.968 31.7325 323.148 31.2405 323.148C30.4485 323.148 29.9205 322.524 29.9205 321.828C29.9205 320.76 30.8925 320.436 31.7565 320.124L32.7045 319.788V319.5C32.7045 318.828 32.3805 318.552 31.7325 318.552C31.1445 318.552 30.5445 318.828 30.0285 319.44V318.276C30.4485 317.784 31.0365 317.544 31.8165 317.544C32.9085 317.544 33.7725 318.096 33.7725 319.32V322.092C33.7725 322.296 33.8445 322.368 33.9765 322.368C34.0845 322.368 34.3005 322.26 34.5405 322.08ZM32.7045 321.948V320.376C31.7925 320.688 31.0005 321 31.0005 321.636C31.0005 322.08 31.3245 322.392 31.7685 322.392C32.1045 322.392 32.4165 322.224 32.7045 321.948ZM38.9575 314.856H41.0095C41.3935 314.856 41.8975 314.892 42.4135 315.12C43.2895 315.492 43.6975 316.308 43.6975 317.136C43.6975 318.084 43.2175 318.804 42.3295 319.152C43.0735 319.644 43.5295 320.4 44.1535 321.408C44.5015 321.972 44.7055 322.248 45.2695 323.04H43.8775C43.6015 322.644 42.4615 320.856 42.1975 320.508C41.3935 319.476 40.9975 319.476 40.4335 319.476H40.1215V323.04H38.9575V314.856ZM40.4815 315.852H40.1215V318.432H40.5775C40.7575 318.432 41.3935 318.432 41.7175 318.312C42.2695 318.096 42.4975 317.58 42.4975 317.136C42.4975 316.668 42.2575 316.224 41.8735 316.044C41.5735 315.9 41.1895 315.852 40.4815 315.852ZM50.0978 321.468V322.512C49.7258 322.752 49.1138 323.148 47.9858 323.148C47.4218 323.148 46.7738 323.064 46.1258 322.392C45.4178 321.66 45.3218 320.832 45.3218 320.316C45.3218 318.636 46.3778 317.544 47.8418 317.544C49.1018 317.544 49.9538 318.444 50.1338 319.632C50.1938 319.992 50.1938 320.232 50.1938 320.436H46.4018C46.4378 321.24 46.9658 322.128 48.1418 322.128C48.8378 322.128 49.5218 321.888 50.0978 321.468ZM46.4258 319.8H49.1378C49.1258 319.584 49.0418 318.468 47.8298 318.468C47.4938 318.468 47.0858 318.6 46.7978 318.924C46.5098 319.236 46.4618 319.56 46.4258 319.8ZM54.46 317.988V319.044C53.86 318.672 53.404 318.468 52.9 318.468C52.396 318.468 52.216 318.744 52.216 318.948C52.216 319.296 52.588 319.488 53.38 319.932C54.148 320.352 54.724 320.904 54.724 321.624C54.724 322.128 54.34 323.148 52.876 323.148C52.12 323.148 51.616 322.92 51.076 322.656V321.504C51.844 322.032 52.504 322.212 52.792 322.212C53.128 322.212 53.608 322.02 53.608 321.66C53.608 321.276 53.284 321.096 52.78 320.82C51.892 320.328 51.112 319.848 51.112 318.948C51.112 318.156 51.796 317.544 52.828 317.544C53.632 317.544 54.208 317.856 54.46 317.988ZM60.4572 321.468V322.512C60.0852 322.752 59.4732 323.148 58.3452 323.148C57.7812 323.148 57.1332 323.064 56.4852 322.392C55.7772 321.66 55.6812 320.832 55.6812 320.316C55.6812 318.636 56.7372 317.544 58.2012 317.544C59.4612 317.544 60.3132 318.444 60.4932 319.632C60.5532 319.992 60.5532 320.232 60.5532 320.436H56.7612C56.7972 321.24 57.3252 322.128 58.5012 322.128C59.1972 322.128 59.8812 321.888 60.4572 321.468ZM56.7852 319.8H59.4972C59.4852 319.584 59.4012 318.468 58.1892 318.468C57.8532 318.468 57.4452 318.6 57.1572 318.924C56.8692 319.236 56.8212 319.56 56.7852 319.8ZM65.9234 322.08V322.728C65.4314 323.052 65.2274 323.148 64.8914 323.148C64.4234 323.148 64.1714 322.98 64.0754 322.596C63.6074 322.968 63.1154 323.148 62.6234 323.148C61.8314 323.148 61.3034 322.524 61.3034 321.828C61.3034 320.76 62.2754 320.436 63.1394 320.124L64.0874 319.788V319.5C64.0874 318.828 63.7634 318.552 63.1154 318.552C62.5274 318.552 61.9274 318.828 61.4114 319.44V318.276C61.8314 317.784 62.4194 317.544 63.1994 317.544C64.2914 317.544 65.1554 318.096 65.1554 319.32V322.092C65.1554 322.296 65.2274 322.368 65.3594 322.368C65.4674 322.368 65.6834 322.26 65.9234 322.08ZM64.0874 321.948V320.376C63.1754 320.688 62.3834 321 62.3834 321.636C62.3834 322.08 62.7074 322.392 63.1514 322.392C63.4874 322.392 63.7994 322.224 64.0874 321.948ZM66.7725 317.652H67.8405V318.888C68.1885 318.348 68.6925 317.544 69.4485 317.544C69.6045 317.544 70.0845 317.556 70.7085 318.156L70.1445 319.092C70.0125 318.96 69.5325 318.564 69.1125 318.564C68.7165 318.564 67.8405 318.996 67.8405 320.22V323.04H66.7725V317.652ZM75.0687 317.916V319.056C74.7687 318.864 74.2647 318.54 73.5687 318.54C72.4527 318.54 71.9247 319.488 71.9247 320.34C71.9247 321.24 72.4527 322.14 73.7727 322.14C74.3367 322.14 74.7927 321.96 75.1887 321.78V322.836C74.9487 322.92 74.3847 323.148 73.6167 323.148C71.7567 323.148 70.8447 321.852 70.8447 320.376C70.8447 319.068 71.5887 317.544 73.5087 317.544C74.2047 317.544 74.6487 317.736 75.0687 317.916ZM77.427 314.856V318.36C77.847 317.856 78.447 317.544 79.083 317.544C79.887 317.544 80.463 318.024 80.691 318.564C80.835 318.924 80.895 319.44 80.895 319.968V323.04H79.827V319.704C79.827 319.272 79.719 319.02 79.635 318.876C79.443 318.564 79.107 318.384 78.783 318.384C78.267 318.384 77.895 318.648 77.427 319.176V323.04H76.359V314.856H77.427Z" fill="#223072"/>
<path d="M30.4401 327.856H32.5521C33.5241 327.856 34.2801 327.856 34.9641 328.552C35.3241 328.912 35.6001 329.428 35.6001 330.172C35.6001 330.58 35.5281 331.24 34.9161 331.828C34.4001 332.32 33.7521 332.488 32.4801 332.488H31.6161V336.04H30.4401V327.856ZM32.5041 328.888H31.6161V331.444H32.5521C33.0201 331.444 33.5001 331.444 33.8481 331.228C34.1721 331.036 34.3881 330.664 34.3881 330.148C34.3881 329.86 34.3161 329.5 34.0281 329.236C33.6681 328.888 33.3441 328.888 32.5041 328.888ZM40.6973 335.08V335.728C40.2053 336.052 40.0013 336.148 39.6653 336.148C39.1973 336.148 38.9453 335.98 38.8493 335.596C38.3813 335.968 37.8893 336.148 37.3973 336.148C36.6053 336.148 36.0773 335.524 36.0773 334.828C36.0773 333.76 37.0493 333.436 37.9133 333.124L38.8613 332.788V332.5C38.8613 331.828 38.5373 331.552 37.8893 331.552C37.3013 331.552 36.7013 331.828 36.1853 332.44V331.276C36.6053 330.784 37.1933 330.544 37.9733 330.544C39.0653 330.544 39.9293 331.096 39.9293 332.32V335.092C39.9293 335.296 40.0013 335.368 40.1333 335.368C40.2413 335.368 40.4573 335.26 40.6973 335.08ZM38.8613 334.948V333.376C37.9493 333.688 37.1573 334 37.1573 334.636C37.1573 335.08 37.4813 335.392 37.9253 335.392C38.2613 335.392 38.5733 335.224 38.8613 334.948ZM41.5464 330.652H42.6144V331.888C42.9624 331.348 43.4664 330.544 44.2224 330.544C44.3784 330.544 44.8584 330.556 45.4824 331.156L44.9184 332.092C44.7864 331.96 44.3064 331.564 43.8864 331.564C43.4904 331.564 42.6144 331.996 42.6144 333.22V336.04H41.5464V330.652ZM47.7057 329.536V330.652H49.4097V331.612H47.7057V333.964C47.7177 334.636 47.7297 334.756 47.8977 334.948C48.1017 335.164 48.3657 335.176 48.4737 335.176C48.6897 335.176 49.0977 335.152 49.6857 334.792V335.788C49.1817 336.064 48.6177 336.148 48.3057 336.148C47.9337 336.148 47.2737 335.992 46.9017 335.464C46.6377 335.068 46.6377 334.492 46.6377 334V331.612H45.7017V331.504L47.7057 329.536ZM51.1698 328.384C51.5298 328.384 51.8058 328.672 51.8058 329.008C51.8058 329.344 51.5178 329.644 51.1698 329.644C50.7618 329.644 50.5458 329.272 50.5458 329.008C50.5458 328.708 50.8098 328.384 51.1698 328.384ZM51.7098 330.652V336.04H50.6418V330.652H51.7098ZM57.1668 330.916V332.056C56.8668 331.864 56.3628 331.54 55.6668 331.54C54.5508 331.54 54.0228 332.488 54.0228 333.34C54.0228 334.24 54.5508 335.14 55.8708 335.14C56.4348 335.14 56.8908 334.96 57.2868 334.78V335.836C57.0468 335.92 56.4828 336.148 55.7148 336.148C53.8548 336.148 52.9428 334.852 52.9428 333.376C52.9428 332.068 53.6868 330.544 55.6068 330.544C56.3028 330.544 56.7468 330.736 57.1668 330.916ZM59.0331 328.384C59.3931 328.384 59.6691 328.672 59.6691 329.008C59.6691 329.344 59.3811 329.644 59.0331 329.644C58.6251 329.644 58.4091 329.272 58.4091 329.008C58.4091 328.708 58.6731 328.384 59.0331 328.384ZM59.5731 330.652V336.04H58.5051V330.652H59.5731ZM61.0341 330.652H62.9061C62.9661 330.652 64.0941 330.652 64.8261 331.108C65.7861 331.72 65.9421 332.812 65.9421 333.352C65.9421 334.924 64.8741 336.148 63.2661 336.148C62.7141 336.148 62.3781 336.004 62.1261 335.908V338.8H61.0341V330.652ZM62.8821 331.648H62.1261V334.96C62.6181 335.212 63.0621 335.212 63.1581 335.212C64.1061 335.212 64.8501 334.504 64.8501 333.352C64.8501 331.648 63.4101 331.648 62.8821 331.648ZM71.3301 335.08V335.728C70.8381 336.052 70.6341 336.148 70.2981 336.148C69.8301 336.148 69.5781 335.98 69.4821 335.596C69.0141 335.968 68.5221 336.148 68.0301 336.148C67.2381 336.148 66.7101 335.524 66.7101 334.828C66.7101 333.76 67.6821 333.436 68.5461 333.124L69.4941 332.788V332.5C69.4941 331.828 69.1701 331.552 68.5221 331.552C67.9341 331.552 67.3341 331.828 66.8181 332.44V331.276C67.2381 330.784 67.8261 330.544 68.6061 330.544C69.6981 330.544 70.5621 331.096 70.5621 332.32V335.092C70.5621 335.296 70.6341 335.368 70.7661 335.368C70.8741 335.368 71.0901 335.26 71.3301 335.08ZM69.4941 334.948V333.376C68.5821 333.688 67.7901 334 67.7901 334.636C67.7901 335.08 68.1141 335.392 68.5581 335.392C68.8941 335.392 69.2061 335.224 69.4941 334.948ZM72.2032 330.652H73.2952V331.336C73.7752 330.796 74.4112 330.544 74.9152 330.544C75.2512 330.544 75.9952 330.664 76.4392 331.408C76.6072 331.672 76.7392 331.984 76.7392 332.968V336.04H75.6592V332.968C75.6592 332.392 75.6592 332.092 75.3712 331.768C75.1672 331.54 74.9272 331.432 74.5672 331.432C74.0752 331.432 73.6192 331.72 73.2952 332.188V336.04H72.2032V330.652ZM79.4752 329.536V330.652H81.1792V331.612H79.4752V333.964C79.4872 334.636 79.4992 334.756 79.6672 334.948C79.8712 335.164 80.1352 335.176 80.2432 335.176C80.4592 335.176 80.8672 335.152 81.4552 334.792V335.788C80.9512 336.064 80.3872 336.148 80.0752 336.148C79.7032 336.148 79.0432 335.992 78.6712 335.464C78.4072 335.068 78.4072 334.492 78.4072 334V331.612H77.4712V331.504L79.4752 329.536Z" fill="#223072"/>
<path d="M99.3496 364.03V328.53V248.53V204.03V9.03003" stroke="#223072" stroke-miterlimit="10"/>
<path d="M99.3496 175.03C102.939 175.03 105.85 172.12 105.85 168.53C105.85 164.94 102.939 162.03 99.3496 162.03C95.7598 162.03 92.8496 164.94 92.8496 168.53C92.8496 172.12 95.7598 175.03 99.3496 175.03Z" fill="#F5EFE7" stroke="#ABA7A1" stroke-miterlimit="10"/>
<path d="M99.3496 255.03C102.939 255.03 105.85 252.12 105.85 248.53C105.85 244.94 102.939 242.03 99.3496 242.03C95.7598 242.03 92.8496 244.94 92.8496 248.53C92.8496 252.12 95.7598 255.03 99.3496 255.03Z" fill="#F5EFE7" stroke="#ABA7A1" stroke-miterlimit="10"/>
<path d="M99.3496 335.03C102.939 335.03 105.85 332.12 105.85 328.53C105.85 324.94 102.939 322.03 99.3496 322.03C95.7598 322.03 92.8496 324.94 92.8496 328.53C92.8496 332.12 95.7598 335.03 99.3496 335.03Z" fill="#223072"/>
<path d="M99.3496 95.03C102.939 95.03 105.85 92.1199 105.85 88.53C105.85 84.9402 102.939 82.03 99.3496 82.03C95.7598 82.03 92.8496 84.9402 92.8496 88.53C92.8496 92.1199 95.7598 95.03 99.3496 95.03Z" fill="#F5EFE7" stroke="#ABA7A1" stroke-miterlimit="10"/>
<path d="M99.3496 15.03C102.939 15.03 105.85 12.1199 105.85 8.53003C105.85 4.94018 102.939 2.03003 99.3496 2.03003C95.7598 2.03003 92.8496 4.94018 92.8496 8.53003C92.8496 12.1199 95.7598 15.03 99.3496 15.03Z" fill="#F5EFE7" stroke="#ABA7A1" stroke-miterlimit="10"/>
</svg>
