<svg width="107" height="364" viewBox="0 0 107 364" fill="none" xmlns="http://www.w3.org/2000/svg">
<path d="M99.3496 14.8201C102.939 14.8201 105.85 11.9099 105.85 8.32007C105.85 4.73022 102.939 1.82007 99.3496 1.82007C95.7598 1.82007 92.8496 4.73022 92.8496 8.32007C92.8496 11.9099 95.7598 14.8201 99.3496 14.8201Z" fill="#223072"/>
<path d="M38.956 0.866048H41.008C41.392 0.866048 41.896 0.902049 42.412 1.13005C43.288 1.50205 43.696 2.31805 43.696 3.14605C43.696 4.09405 43.216 4.81405 42.328 5.16205C43.072 5.65405 43.528 6.41005 44.152 7.41805C44.5 7.98205 44.704 8.25805 45.268 9.05005H43.876C43.6 8.65405 42.46 6.86605 42.196 6.51805C41.392 5.48605 40.996 5.48605 40.432 5.48605H40.12V9.05005H38.956V0.866048ZM40.48 1.86205H40.12V4.44205H40.576C40.756 4.44205 41.392 4.44205 41.716 4.32205C42.268 4.10605 42.496 3.59005 42.496 3.14605C42.496 2.67805 42.256 2.23405 41.872 2.05405C41.572 1.91005 41.188 1.86205 40.48 1.86205ZM50.0963 7.47805V8.52205C49.7243 8.76205 49.1123 9.15805 47.9843 9.15805C47.4203 9.15805 46.7723 9.07405 46.1243 8.40205C45.4163 7.67005 45.3203 6.84205 45.3203 6.32605C45.3203 4.64605 46.3763 3.55405 47.8403 3.55405C49.1003 3.55405 49.9523 4.45405 50.1323 5.64205C50.1923 6.00205 50.1923 6.24205 50.1923 6.44605H46.4003C46.4363 7.25005 46.9643 8.13805 48.1403 8.13805C48.8363 8.13805 49.5203 7.89805 50.0963 7.47805ZM46.4243 5.81005H49.1363C49.1243 5.59405 49.0403 4.47805 47.8283 4.47805C47.4923 4.47805 47.0843 4.61005 46.7963 4.93405C46.5083 5.24605 46.4603 5.57005 46.4243 5.81005ZM54.4585 3.99805V5.05405C53.8585 4.68205 53.4025 4.47805 52.8985 4.47805C52.3945 4.47805 52.2145 4.75405 52.2145 4.95805C52.2145 5.30605 52.5865 5.49805 53.3785 5.94205C54.1465 6.36205 54.7225 6.91405 54.7225 7.63405C54.7225 8.13805 54.3385 9.15805 52.8745 9.15805C52.1185 9.15805 51.6145 8.93005 51.0745 8.66605V7.51405C51.8425 8.04205 52.5025 8.22205 52.7905 8.22205C53.1265 8.22205 53.6065 8.03005 53.6065 7.67005C53.6065 7.28605 53.2825 7.10605 52.7785 6.83005C51.8905 6.33805 51.1105 5.85805 51.1105 4.95805C51.1105 4.16605 51.7945 3.55405 52.8265 3.55405C53.6305 3.55405 54.2065 3.86605 54.4585 3.99805ZM60.4557 7.47805V8.52205C60.0837 8.76205 59.4717 9.15805 58.3437 9.15805C57.7797 9.15805 57.1317 9.07405 56.4837 8.40205C55.7757 7.67005 55.6797 6.84205 55.6797 6.32605C55.6797 4.64605 56.7357 3.55405 58.1997 3.55405C59.4597 3.55405 60.3117 4.45405 60.4917 5.64205C60.5517 6.00205 60.5517 6.24205 60.5517 6.44605H56.7597C56.7957 7.25005 57.3237 8.13805 58.4997 8.13805C59.1957 8.13805 59.8797 7.89805 60.4557 7.47805ZM56.7837 5.81005H59.4957C59.4837 5.59405 59.3997 4.47805 58.1877 4.47805C57.8517 4.47805 57.4437 4.61005 57.1557 4.93405C56.8677 5.24605 56.8197 5.57005 56.7837 5.81005ZM65.9219 8.09005V8.73805C65.4299 9.06205 65.2259 9.15805 64.8899 9.15805C64.4219 9.15805 64.1699 8.99005 64.0739 8.60605C63.6059 8.97805 63.1139 9.15805 62.6219 9.15805C61.8299 9.15805 61.3019 8.53405 61.3019 7.83805C61.3019 6.77005 62.2739 6.44605 63.1379 6.13405L64.0859 5.79805V5.51005C64.0859 4.83805 63.7619 4.56205 63.1139 4.56205C62.5259 4.56205 61.9259 4.83805 61.4099 5.45005V4.28605C61.8299 3.79405 62.4179 3.55405 63.1979 3.55405C64.2899 3.55405 65.1539 4.10605 65.1539 5.33005V8.10205C65.1539 8.30605 65.2259 8.37805 65.3579 8.37805C65.4659 8.37805 65.6819 8.27005 65.9219 8.09005ZM64.0859 7.95805V6.38605C63.1739 6.69805 62.3819 7.01005 62.3819 7.64605C62.3819 8.09005 62.7059 8.40205 63.1499 8.40205C63.4859 8.40205 63.7979 8.23405 64.0859 7.95805ZM66.771 3.66205H67.839V4.89805C68.187 4.35805 68.691 3.55405 69.447 3.55405C69.603 3.55405 70.083 3.56605 70.707 4.16605L70.143 5.10205C70.011 4.97005 69.531 4.57405 69.111 4.57405C68.715 4.57405 67.839 5.00605 67.839 6.23005V9.05005H66.771V3.66205ZM75.0672 3.92605V5.06605C74.7672 4.87405 74.2632 4.55005 73.5672 4.55005C72.4512 4.55005 71.9232 5.49805 71.9232 6.35005C71.9232 7.25005 72.4512 8.15005 73.7712 8.15005C74.3352 8.15005 74.7912 7.97005 75.1872 7.79005V8.84605C74.9472 8.93005 74.3832 9.15805 73.6152 9.15805C71.7552 9.15805 70.8432 7.86205 70.8432 6.38605C70.8432 5.07805 71.5872 3.55405 73.5072 3.55405C74.2032 3.55405 74.6472 3.74605 75.0672 3.92605ZM77.4255 0.866048V4.37005C77.8455 3.86605 78.4455 3.55405 79.0815 3.55405C79.8855 3.55405 80.4615 4.03405 80.6895 4.57405C80.8335 4.93405 80.8935 5.45005 80.8935 5.97805V9.05005H79.8255V5.71405C79.8255 5.28205 79.7175 5.03005 79.6335 4.88605C79.4415 4.57405 79.1055 4.39405 78.7815 4.39405C78.2655 4.39405 77.8935 4.65805 77.4255 5.18605V9.05005H76.3575V0.866048H77.4255Z" fill="#223072"/>
<path d="M8.3618 81.454V82.414C7.0418 81.598 5.76981 81.574 5.4578 81.574C3.4898 81.574 2.0738 83.074 2.0738 84.958C2.0738 87.19 3.8258 88.366 5.4458 88.366C6.48981 88.366 7.34181 88.018 7.62981 87.91V85.966H5.9738V85.174H8.5298V88.474C7.5458 88.906 6.5978 89.158 5.5298 89.158C2.7578 89.158 1.1138 87.166 1.1138 84.97C1.1138 82.654 2.8658 80.758 5.51781 80.758C6.6938 80.758 7.56981 81.118 8.3618 81.454ZM10.0368 83.662H10.8648V84.85C11.0088 84.622 11.3208 84.154 11.7648 83.854C11.8728 83.782 12.2208 83.554 12.5808 83.554C13.0968 83.554 13.6608 84.022 13.8648 84.19L13.4208 84.91C13.2408 84.754 12.8448 84.406 12.3768 84.406C11.8968 84.406 11.3088 84.838 11.0568 85.426C10.8648 85.858 10.8648 86.446 10.8648 86.722V89.05H10.0368V83.662ZM16.7521 83.554C18.3001 83.554 19.5601 84.802 19.5601 86.35C19.5601 87.898 18.3001 89.158 16.7521 89.158C15.2041 89.158 13.9561 87.898 13.9561 86.35C13.9561 84.802 15.2041 83.554 16.7521 83.554ZM16.7641 84.286C15.6361 84.286 14.8081 85.21 14.8081 86.35C14.8081 87.49 15.6361 88.426 16.7641 88.426C17.8921 88.426 18.7081 87.49 18.7081 86.35C18.7081 85.21 17.8921 84.286 16.7641 84.286ZM25.1972 89.05H24.3692V88.234C23.9732 88.762 23.4452 89.158 22.6772 89.158C21.4652 89.158 20.7452 88.27 20.7452 86.878V83.662H21.5732V86.806C21.5732 87.718 21.9212 88.426 22.8692 88.426C23.1812 88.426 23.8652 88.33 24.3692 87.478V83.662H25.1972V89.05ZM26.7595 83.662H28.6555C30.5395 83.662 31.6315 84.622 31.6315 86.35C31.6315 87.862 30.6835 89.158 28.9555 89.158C28.2955 89.158 27.8155 88.93 27.5875 88.834V91.702H26.7595V83.662ZM27.5875 84.394V88.078C27.7795 88.186 28.2115 88.426 28.8235 88.426C30.1555 88.426 30.7795 87.454 30.7795 86.374C30.7795 85.078 29.9155 84.394 28.6435 84.394H27.5875ZM35.9598 84.01V84.838C35.4318 84.514 34.9638 84.286 34.4358 84.286C33.8838 84.286 33.5238 84.61 33.5238 84.982C33.5238 85.414 33.8958 85.594 35.1798 86.266C35.4678 86.422 36.1638 86.806 36.1638 87.646C36.1638 88.186 35.7318 89.158 34.3878 89.158C33.7518 89.158 33.2238 88.966 32.6598 88.666V87.814C33.5478 88.354 34.1118 88.426 34.3998 88.426C34.8198 88.426 35.3118 88.162 35.3118 87.706C35.3118 87.19 34.8198 86.938 34.1118 86.602C33.4518 86.29 32.6958 85.906 32.6958 85.006C32.6958 84.346 33.2358 83.554 34.4238 83.554C35.1678 83.554 35.6838 83.854 35.9598 84.01ZM44.7558 88.102V88.666C44.0838 89.146 43.8318 89.158 43.6878 89.158C43.2438 89.158 43.1478 88.798 43.0998 88.546C42.4278 89.05 42.0078 89.158 41.5278 89.158C40.7718 89.158 40.1358 88.582 40.1358 87.79C40.1358 86.914 40.8558 86.206 43.0878 85.81V85.33C43.0878 84.982 43.0278 84.286 42.0198 84.286C41.3118 84.286 40.8078 84.646 40.3398 85.078V84.214C40.6038 83.986 41.2158 83.554 42.0918 83.554C43.6278 83.554 43.9158 84.634 43.9158 85.246V88.198C43.9158 88.426 43.9398 88.486 44.0598 88.486C44.1678 88.486 44.4318 88.366 44.7558 88.102ZM43.0878 87.982V86.35C41.7078 86.602 40.9638 87.058 40.9638 87.73C40.9638 88.378 41.5638 88.558 41.8758 88.558C42.4518 88.558 42.8838 88.174 43.0878 87.982ZM45.6736 83.662H46.5016V84.478C46.8976 83.95 47.4256 83.554 48.1936 83.554C49.4056 83.554 50.1256 84.442 50.1256 85.834V89.05H49.2976V85.906C49.2976 84.994 48.9496 84.286 48.0016 84.286C47.6896 84.286 47.0056 84.382 46.5016 85.234V89.05H45.6736V83.662ZM56.1758 89.05H54.2798C52.3958 89.05 51.3038 88.09 51.3038 86.362C51.3038 84.85 52.2518 83.554 53.9798 83.554C54.6398 83.554 55.1198 83.782 55.3478 83.878V80.866H56.1758V89.05ZM55.3478 88.318V84.634C55.1558 84.526 54.7238 84.286 54.1118 84.286C52.7798 84.286 52.1558 85.258 52.1558 86.338C52.1558 87.634 53.0198 88.318 54.2918 88.318H55.3478ZM61.8121 80.866V88.258H65.6761V89.05H60.9121V80.866H61.8121ZM70.8652 88.102V88.666C70.1932 89.146 69.9412 89.158 69.7972 89.158C69.3532 89.158 69.2572 88.798 69.2092 88.546C68.5372 89.05 68.1172 89.158 67.6372 89.158C66.8812 89.158 66.2452 88.582 66.2452 87.79C66.2452 86.914 66.9652 86.206 69.1972 85.81V85.33C69.1972 84.982 69.1372 84.286 68.1292 84.286C67.4212 84.286 66.9172 84.646 66.4492 85.078V84.214C66.7132 83.986 67.3252 83.554 68.2012 83.554C69.7372 83.554 70.0252 84.634 70.0252 85.246V88.198C70.0252 88.426 70.0492 88.486 70.1692 88.486C70.2772 88.486 70.5412 88.366 70.8652 88.102ZM69.1972 87.982V86.35C67.8172 86.602 67.0732 87.058 67.0732 87.73C67.0732 88.378 67.6732 88.558 67.9852 88.558C68.5612 88.558 68.9932 88.174 69.1972 87.982ZM71.7829 88.75V80.866H72.6109V84.238C72.8749 84.034 73.4269 83.554 74.3149 83.554C75.8269 83.554 76.6789 84.85 76.6789 86.23C76.6789 87.994 75.5629 89.158 73.7749 89.158C73.0909 89.158 72.4069 89.014 71.7829 88.75ZM72.6109 85.078V88.21C73.2229 88.426 73.7389 88.426 73.8469 88.426C74.9749 88.426 75.8269 87.526 75.8269 86.302C75.8269 85.15 75.0829 84.286 74.1469 84.286C73.7509 84.286 73.1509 84.49 72.6109 85.078ZM81.0067 84.01V84.838C80.4787 84.514 80.0107 84.286 79.4827 84.286C78.9307 84.286 78.5707 84.61 78.5707 84.982C78.5707 85.414 78.9427 85.594 80.2267 86.266C80.5147 86.422 81.2107 86.806 81.2107 87.646C81.2107 88.186 80.7787 89.158 79.4347 89.158C78.7987 89.158 78.2707 88.966 77.7067 88.666V87.814C78.5947 88.354 79.1587 88.426 79.4467 88.426C79.8667 88.426 80.3587 88.162 80.3587 87.706C80.3587 87.19 79.8667 86.938 79.1587 86.602C78.4987 86.29 77.7427 85.906 77.7427 85.006C77.7427 84.346 78.2827 83.554 79.4707 83.554C80.2147 83.554 80.7307 83.854 81.0067 84.01Z" fill="#ABA7A1"/>
<path d="M26 241.216H28.34C30.392 241.216 31.04 242.344 31.04 243.46C31.04 244.576 30.392 245.704 28.34 245.704H26.9V249.4H26V241.216ZM28.244 242.008H26.9V244.912H28.244C29.888 244.912 30.08 244.048 30.08 243.46C30.08 242.872 29.888 242.008 28.244 242.008ZM36.3515 249.4H35.5235V248.584C35.1275 249.112 34.5995 249.508 33.8315 249.508C32.6195 249.508 31.8995 248.62 31.8995 247.228V244.012H32.7275V247.156C32.7275 248.068 33.0755 248.776 34.0235 248.776C34.3355 248.776 35.0195 248.68 35.5235 247.828V244.012H36.3515V249.4ZM37.9138 249.1V241.216H38.7418V244.588C39.0058 244.384 39.5578 243.904 40.4458 243.904C41.9578 243.904 42.8098 245.2 42.8098 246.58C42.8098 248.344 41.6938 249.508 39.9058 249.508C39.2218 249.508 38.5378 249.364 37.9138 249.1ZM38.7418 245.428V248.56C39.3538 248.776 39.8698 248.776 39.9778 248.776C41.1058 248.776 41.9578 247.876 41.9578 246.652C41.9578 245.5 41.2138 244.636 40.2778 244.636C39.8818 244.636 39.2818 244.84 38.7418 245.428ZM44.9176 241.216V249.4H44.0896V241.216H44.9176ZM47.3082 244.012V249.4H46.4802V244.012H47.3082ZM46.9002 241.816C47.2002 241.816 47.4402 242.056 47.4402 242.356C47.4402 242.656 47.2002 242.896 46.9002 242.896C46.6002 242.896 46.3602 242.656 46.3602 242.356C46.3602 242.056 46.6002 241.816 46.9002 241.816ZM52.7228 244.228V245.116C52.4108 244.936 51.9308 244.672 51.2468 244.672C49.8188 244.672 49.4468 246.028 49.4468 246.724C49.4468 247.624 49.9388 248.74 51.3908 248.74C52.0508 248.74 52.5908 248.5 52.8308 248.392V249.208C52.5788 249.304 52.0148 249.508 51.3068 249.508C49.5548 249.508 48.5948 248.308 48.5948 246.748C48.5948 244.984 49.7468 243.904 51.2468 243.904C51.8948 243.904 52.3748 244.084 52.7228 244.228ZM58.3594 248.452V249.016C57.6874 249.496 57.4354 249.508 57.2914 249.508C56.8474 249.508 56.7514 249.148 56.7034 248.896C56.0314 249.4 55.6114 249.508 55.1314 249.508C54.3754 249.508 53.7394 248.932 53.7394 248.14C53.7394 247.264 54.4594 246.556 56.6914 246.16V245.68C56.6914 245.332 56.6314 244.636 55.6234 244.636C54.9154 244.636 54.4114 244.996 53.9434 245.428V244.564C54.2074 244.336 54.8194 243.904 55.6954 243.904C57.2314 243.904 57.5194 244.984 57.5194 245.596V248.548C57.5194 248.776 57.5434 248.836 57.6634 248.836C57.7714 248.836 58.0354 248.716 58.3594 248.452ZM56.6914 248.332V246.7C55.3114 246.952 54.5674 247.408 54.5674 248.08C54.5674 248.728 55.1674 248.908 55.4794 248.908C56.0554 248.908 56.4874 248.524 56.6914 248.332ZM58.6171 244.744V244.612L60.3691 242.752V244.012H61.9891V244.744H60.3691V247.564C60.3691 248.26 60.4171 248.74 61.1731 248.74C61.5931 248.74 61.8571 248.608 62.2651 248.416V249.196C62.0371 249.304 61.5931 249.508 61.0051 249.508C59.9251 249.508 59.5411 248.764 59.5411 247.9V244.744H58.6171ZM63.8668 244.012V249.4H63.0388V244.012H63.8668ZM63.4588 241.816C63.7588 241.816 63.9988 242.056 63.9988 242.356C63.9988 242.656 63.7588 242.896 63.4588 242.896C63.1588 242.896 62.9188 242.656 62.9188 242.356C62.9188 242.056 63.1588 241.816 63.4588 241.816ZM67.9494 243.904C69.4974 243.904 70.7574 245.152 70.7574 246.7C70.7574 248.248 69.4974 249.508 67.9494 249.508C66.4014 249.508 65.1534 248.248 65.1534 246.7C65.1534 245.152 66.4014 243.904 67.9494 243.904ZM67.9614 244.636C66.8334 244.636 66.0054 245.56 66.0054 246.7C66.0054 247.84 66.8334 248.776 67.9614 248.776C69.0894 248.776 69.9054 247.84 69.9054 246.7C69.9054 245.56 69.0894 244.636 67.9614 244.636ZM72.0505 244.012H72.8785V244.828C73.2745 244.3 73.8025 243.904 74.5705 243.904C75.7825 243.904 76.5025 244.792 76.5025 246.184V249.4H75.6745V246.256C75.6745 245.344 75.3265 244.636 74.3785 244.636C74.0665 244.636 73.3825 244.732 72.8785 245.584V249.4H72.0505V244.012ZM81.0048 244.36V245.188C80.4768 244.864 80.0088 244.636 79.4808 244.636C78.9288 244.636 78.5688 244.96 78.5688 245.332C78.5688 245.764 78.9408 245.944 80.2248 246.616C80.5128 246.772 81.2088 247.156 81.2088 247.996C81.2088 248.536 80.7768 249.508 79.4328 249.508C78.7968 249.508 78.2688 249.316 77.7048 249.016V248.164C78.5928 248.704 79.1568 248.776 79.4448 248.776C79.8648 248.776 80.3568 248.512 80.3568 248.056C80.3568 247.54 79.8648 247.288 79.1568 246.952C78.4968 246.64 77.7408 246.256 77.7408 245.356C77.7408 244.696 78.2808 243.904 79.4688 243.904C80.2128 243.904 80.7288 244.204 81.0048 244.36Z" fill="#ABA7A1"/>
<path d="M39.1602 154.646H41.2482C43.3722 154.646 43.9482 155.858 43.9482 156.842C43.9482 157.958 43.2642 158.558 42.4842 158.846C43.0722 159.23 43.4802 159.866 44.4882 161.45C44.8362 162.002 45.0162 162.254 45.4242 162.83H44.3442L43.5642 161.594C43.2402 161.078 42.8802 160.562 42.5082 160.082C41.9802 159.41 41.5242 159.086 40.6482 159.086H40.0602V162.83H39.1602V154.646ZM41.1162 155.438H40.0602V158.294H41.1162C42.2802 158.294 42.9882 157.79 42.9882 156.854C42.9882 156.002 42.3642 155.438 41.1162 155.438ZM50.56 159.998V160.19H46.564C46.564 161.486 47.464 162.206 48.496 162.206C49.552 162.206 50.212 161.666 50.476 161.45V162.29C50.14 162.518 49.54 162.938 48.4 162.938C46.6 162.938 45.712 161.57 45.712 160.118C45.712 158.246 46.96 157.334 48.184 157.334C49.516 157.334 50.56 158.426 50.56 159.998ZM46.612 159.59H49.708C49.588 158.426 48.796 158.066 48.208 158.066C47.536 158.066 46.816 158.498 46.612 159.59ZM54.8134 157.79V158.618C54.2854 158.294 53.8174 158.066 53.2894 158.066C52.7374 158.066 52.3774 158.39 52.3774 158.762C52.3774 159.194 52.7494 159.374 54.0334 160.046C54.3214 160.202 55.0174 160.586 55.0174 161.426C55.0174 161.966 54.5854 162.938 53.2414 162.938C52.6054 162.938 52.0774 162.746 51.5134 162.446V161.594C52.4014 162.134 52.9654 162.206 53.2534 162.206C53.6734 162.206 54.1654 161.942 54.1654 161.486C54.1654 160.97 53.6734 160.718 52.9654 160.382C52.3054 160.07 51.5494 159.686 51.5494 158.786C51.5494 158.126 52.0894 157.334 53.2774 157.334C54.0214 157.334 54.5374 157.634 54.8134 157.79ZM60.8374 159.998V160.19H56.8414C56.8414 161.486 57.7414 162.206 58.7734 162.206C59.8294 162.206 60.4894 161.666 60.7534 161.45V162.29C60.4174 162.518 59.8174 162.938 58.6774 162.938C56.8774 162.938 55.9894 161.57 55.9894 160.118C55.9894 158.246 57.2374 157.334 58.4614 157.334C59.7934 157.334 60.8374 158.426 60.8374 159.998ZM56.8894 159.59H59.9854C59.8654 158.426 59.0734 158.066 58.4854 158.066C57.8134 158.066 57.0934 158.498 56.8894 159.59ZM66.3867 161.882V162.446C65.7147 162.926 65.4627 162.938 65.3187 162.938C64.8747 162.938 64.7787 162.578 64.7307 162.326C64.0587 162.83 63.6387 162.938 63.1587 162.938C62.4027 162.938 61.7667 162.362 61.7667 161.57C61.7667 160.694 62.4867 159.986 64.7187 159.59V159.11C64.7187 158.762 64.6587 158.066 63.6507 158.066C62.9427 158.066 62.4387 158.426 61.9707 158.858V157.994C62.2347 157.766 62.8467 157.334 63.7227 157.334C65.2587 157.334 65.5467 158.414 65.5467 159.026V161.978C65.5467 162.206 65.5707 162.266 65.6907 162.266C65.7987 162.266 66.0627 162.146 66.3867 161.882ZM64.7187 161.762V160.13C63.3387 160.382 62.5947 160.838 62.5947 161.51C62.5947 162.158 63.1947 162.338 63.5067 162.338C64.0827 162.338 64.5147 161.954 64.7187 161.762ZM67.3044 157.442H68.1324V158.63C68.2764 158.402 68.5884 157.934 69.0324 157.634C69.1404 157.562 69.4884 157.334 69.8484 157.334C70.3644 157.334 70.9284 157.802 71.1324 157.97L70.6884 158.69C70.5084 158.534 70.1124 158.186 69.6444 158.186C69.1644 158.186 68.5764 158.618 68.3244 159.206C68.1324 159.638 68.1324 160.226 68.1324 160.502V162.83H67.3044V157.442ZM75.3517 157.658V158.546C75.0397 158.366 74.5597 158.102 73.8757 158.102C72.4477 158.102 72.0757 159.458 72.0757 160.154C72.0757 161.054 72.5677 162.17 74.0197 162.17C74.6797 162.17 75.2197 161.93 75.4597 161.822V162.638C75.2077 162.734 74.6437 162.938 73.9357 162.938C72.1837 162.938 71.2237 161.738 71.2237 160.178C71.2237 158.414 72.3757 157.334 73.8757 157.334C74.5237 157.334 75.0037 157.514 75.3517 157.658ZM76.5622 154.646H77.3902V158.258C77.7862 157.73 78.3142 157.334 79.0822 157.334C80.2942 157.334 81.0142 158.222 81.0142 159.614V162.83H80.1862V159.686C80.1862 158.774 79.8382 158.066 78.8902 158.066C78.5782 158.066 77.8942 158.162 77.3902 159.014V162.83H76.5622V154.646Z" fill="#ABA7A1"/>
<path d="M44.0801 167.646H46.4201C48.4721 167.646 49.1201 168.774 49.1201 169.89C49.1201 171.006 48.4721 172.134 46.4201 172.134H44.9801V175.83H44.0801V167.646ZM46.3241 168.438H44.9801V171.342H46.3241C47.9681 171.342 48.1601 170.478 48.1601 169.89C48.1601 169.302 47.9681 168.438 46.3241 168.438ZM50.0876 170.442H50.9156V171.63C51.0596 171.402 51.3716 170.934 51.8156 170.634C51.9236 170.562 52.2716 170.334 52.6316 170.334C53.1476 170.334 53.7116 170.802 53.9156 170.97L53.4716 171.69C53.2916 171.534 52.8956 171.186 52.4276 171.186C51.9476 171.186 51.3596 171.618 51.1076 172.206C50.9156 172.638 50.9156 173.226 50.9156 173.502V175.83H50.0876V170.442ZM56.8029 170.334C58.3509 170.334 59.6109 171.582 59.6109 173.13C59.6109 174.678 58.3509 175.938 56.8029 175.938C55.2549 175.938 54.0069 174.678 54.0069 173.13C54.0069 171.582 55.2549 170.334 56.8029 170.334ZM56.8149 171.066C55.6869 171.066 54.8589 171.99 54.8589 173.13C54.8589 174.27 55.6869 175.206 56.8149 175.206C57.9429 175.206 58.7589 174.27 58.7589 173.13C58.7589 171.99 57.9429 171.066 56.8149 171.066ZM61.732 170.442V176.106C61.732 176.814 61.684 177.282 61.516 177.666C61.456 177.81 61.144 178.422 60.4 178.59L59.92 177.954C60.832 177.774 60.904 177.09 60.904 176.046V170.442H61.732ZM61.324 168.246C61.624 168.246 61.864 168.486 61.864 168.786C61.864 169.086 61.624 169.326 61.324 169.326C61.024 169.326 60.784 169.086 60.784 168.786C60.784 168.486 61.024 168.246 61.324 168.246ZM67.8432 172.998V173.19H63.8472C63.8472 174.486 64.7472 175.206 65.7792 175.206C66.8352 175.206 67.4952 174.666 67.7592 174.45V175.29C67.4232 175.518 66.8232 175.938 65.6832 175.938C63.8832 175.938 62.9952 174.57 62.9952 173.118C62.9952 171.246 64.2432 170.334 65.4672 170.334C66.7992 170.334 67.8432 171.426 67.8432 172.998ZM63.8952 172.59H66.9912C66.8712 171.426 66.0792 171.066 65.4912 171.066C64.8192 171.066 64.0992 171.498 63.8952 172.59ZM72.9006 170.658V171.546C72.5886 171.366 72.1086 171.102 71.4246 171.102C69.9966 171.102 69.6246 172.458 69.6246 173.154C69.6246 174.054 70.1166 175.17 71.5686 175.17C72.2286 175.17 72.7686 174.93 73.0086 174.822V175.638C72.7566 175.734 72.1926 175.938 71.4846 175.938C69.7326 175.938 68.7726 174.738 68.7726 173.178C68.7726 171.414 69.9246 170.334 71.4246 170.334C72.0726 170.334 72.5526 170.514 72.9006 170.658ZM73.5331 171.174V171.042L75.2851 169.182V170.442H76.9051V171.174H75.2851V173.994C75.2851 174.69 75.3331 175.17 76.0891 175.17C76.5091 175.17 76.7731 175.038 77.1811 174.846V175.626C76.9531 175.734 76.5091 175.938 75.9211 175.938C74.8411 175.938 74.4571 175.194 74.4571 174.33V171.174H73.5331ZM81.0028 170.79V171.618C80.4748 171.294 80.0068 171.066 79.4788 171.066C78.9268 171.066 78.5668 171.39 78.5668 171.762C78.5668 172.194 78.9388 172.374 80.2228 173.046C80.5108 173.202 81.2068 173.586 81.2068 174.426C81.2068 174.966 80.7748 175.938 79.4308 175.938C78.7948 175.938 78.2668 175.746 77.7028 175.446V174.594C78.5908 175.134 79.1548 175.206 79.4428 175.206C79.8628 175.206 80.3548 174.942 80.3548 174.486C80.3548 173.97 79.8628 173.718 79.1548 173.382C78.4948 173.07 77.7388 172.686 77.7388 171.786C77.7388 171.126 78.2788 170.334 79.4668 170.334C80.2108 170.334 80.7268 170.634 81.0028 170.79Z" fill="#ABA7A1"/>
<path d="M15.5098 314.646H17.5618C18.7738 314.646 20.1658 315.114 20.1658 316.77C20.1658 317.946 19.2778 318.402 18.9538 318.534C20.5378 318.834 20.8858 319.938 20.8858 320.634C20.8858 321.57 20.1658 322.83 18.4738 322.83H15.5098V314.646ZM17.2978 315.438H16.4098V318.294H17.2978C18.6658 318.294 19.2058 317.73 19.2058 316.842C19.2058 315.834 18.6178 315.438 17.2978 315.438ZM17.8378 319.086H16.4098V322.038H17.8618C19.6258 322.038 19.9258 321.258 19.9258 320.562C19.9258 319.878 19.4698 319.086 17.8378 319.086ZM26.5229 319.998V320.19H22.5269C22.5269 321.486 23.4269 322.206 24.4589 322.206C25.5149 322.206 26.1749 321.666 26.4389 321.45V322.29C26.1029 322.518 25.5029 322.938 24.3629 322.938C22.5629 322.938 21.6749 321.57 21.6749 320.118C21.6749 318.246 22.9229 317.334 24.1469 317.334C25.4789 317.334 26.5229 318.426 26.5229 319.998ZM22.5749 319.59H25.6709C25.5509 318.426 24.7589 318.066 24.1709 318.066C23.4989 318.066 22.7789 318.498 22.5749 319.59ZM35.0722 321.882V322.446C34.4002 322.926 34.1482 322.938 34.0042 322.938C33.5602 322.938 33.4642 322.578 33.4162 322.326C32.7442 322.83 32.3242 322.938 31.8442 322.938C31.0882 322.938 30.4522 322.362 30.4522 321.57C30.4522 320.694 31.1722 319.986 33.4042 319.59V319.11C33.4042 318.762 33.3442 318.066 32.3362 318.066C31.6282 318.066 31.1242 318.426 30.6562 318.858V317.994C30.9202 317.766 31.5322 317.334 32.4082 317.334C33.9442 317.334 34.2322 318.414 34.2322 319.026V321.978C34.2322 322.206 34.2562 322.266 34.3762 322.266C34.4842 322.266 34.7482 322.146 35.0722 321.882ZM33.4042 321.762V320.13C32.0242 320.382 31.2802 320.838 31.2802 321.51C31.2802 322.158 31.8802 322.338 32.1922 322.338C32.7682 322.338 33.2002 321.954 33.4042 321.762ZM39.17 314.646H41.258C43.382 314.646 43.958 315.858 43.958 316.842C43.958 317.958 43.274 318.558 42.494 318.846C43.082 319.23 43.49 319.866 44.498 321.45C44.846 322.002 45.026 322.254 45.434 322.83H44.354L43.574 321.594C43.25 321.078 42.89 320.562 42.518 320.082C41.99 319.41 41.534 319.086 40.658 319.086H40.07V322.83H39.17V314.646ZM41.126 315.438H40.07V318.294H41.126C42.29 318.294 42.998 317.79 42.998 316.854C42.998 316.002 42.374 315.438 41.126 315.438ZM50.5698 319.998V320.19H46.5738C46.5738 321.486 47.4738 322.206 48.5058 322.206C49.5618 322.206 50.2218 321.666 50.4858 321.45V322.29C50.1498 322.518 49.5498 322.938 48.4098 322.938C46.6098 322.938 45.7218 321.57 45.7218 320.118C45.7218 318.246 46.9698 317.334 48.1938 317.334C49.5258 317.334 50.5698 318.426 50.5698 319.998ZM46.6218 319.59H49.7178C49.5978 318.426 48.8058 318.066 48.2178 318.066C47.5458 318.066 46.8258 318.498 46.6218 319.59ZM54.8231 317.79V318.618C54.2951 318.294 53.8271 318.066 53.2991 318.066C52.7471 318.066 52.3871 318.39 52.3871 318.762C52.3871 319.194 52.7591 319.374 54.0431 320.046C54.3311 320.202 55.0271 320.586 55.0271 321.426C55.0271 321.966 54.5951 322.938 53.2511 322.938C52.6151 322.938 52.0871 322.746 51.5231 322.446V321.594C52.4111 322.134 52.9751 322.206 53.2631 322.206C53.6831 322.206 54.1751 321.942 54.1751 321.486C54.1751 320.97 53.6831 320.718 52.9751 320.382C52.3151 320.07 51.5591 319.686 51.5591 318.786C51.5591 318.126 52.0991 317.334 53.2871 317.334C54.0311 317.334 54.5471 317.634 54.8231 317.79ZM60.8471 319.998V320.19H56.8511C56.8511 321.486 57.7511 322.206 58.7831 322.206C59.8391 322.206 60.4991 321.666 60.7631 321.45V322.29C60.4271 322.518 59.8271 322.938 58.6871 322.938C56.8871 322.938 55.9991 321.57 55.9991 320.118C55.9991 318.246 57.2471 317.334 58.4711 317.334C59.8031 317.334 60.8471 318.426 60.8471 319.998ZM56.8991 319.59H59.9951C59.8751 318.426 59.0831 318.066 58.4951 318.066C57.8231 318.066 57.1031 318.498 56.8991 319.59ZM66.3965 321.882V322.446C65.7245 322.926 65.4725 322.938 65.3285 322.938C64.8845 322.938 64.7885 322.578 64.7405 322.326C64.0685 322.83 63.6485 322.938 63.1685 322.938C62.4125 322.938 61.7765 322.362 61.7765 321.57C61.7765 320.694 62.4965 319.986 64.7285 319.59V319.11C64.7285 318.762 64.6685 318.066 63.6605 318.066C62.9525 318.066 62.4485 318.426 61.9805 318.858V317.994C62.2445 317.766 62.8565 317.334 63.7325 317.334C65.2685 317.334 65.5565 318.414 65.5565 319.026V321.978C65.5565 322.206 65.5805 322.266 65.7005 322.266C65.8085 322.266 66.0725 322.146 66.3965 321.882ZM64.7285 321.762V320.13C63.3485 320.382 62.6045 320.838 62.6045 321.51C62.6045 322.158 63.2045 322.338 63.5165 322.338C64.0925 322.338 64.5245 321.954 64.7285 321.762ZM67.3142 317.442H68.1422V318.63C68.2862 318.402 68.5982 317.934 69.0422 317.634C69.1502 317.562 69.4982 317.334 69.8582 317.334C70.3742 317.334 70.9382 317.802 71.1422 317.97L70.6982 318.69C70.5182 318.534 70.1222 318.186 69.6542 318.186C69.1742 318.186 68.5862 318.618 68.3342 319.206C68.1422 319.638 68.1422 320.226 68.1422 320.502V322.83H67.3142V317.442ZM75.3615 317.658V318.546C75.0495 318.366 74.5695 318.102 73.8855 318.102C72.4575 318.102 72.0855 319.458 72.0855 320.154C72.0855 321.054 72.5775 322.17 74.0295 322.17C74.6895 322.17 75.2295 321.93 75.4695 321.822V322.638C75.2175 322.734 74.6535 322.938 73.9455 322.938C72.1935 322.938 71.2335 321.738 71.2335 320.178C71.2335 318.414 72.3855 317.334 73.8855 317.334C74.5335 317.334 75.0135 317.514 75.3615 317.658ZM76.572 314.646H77.4V318.258C77.796 317.73 78.324 317.334 79.092 317.334C80.304 317.334 81.024 318.222 81.024 319.614V322.83H80.196V319.686C80.196 318.774 79.848 318.066 78.9 318.066C78.588 318.066 77.904 318.162 77.4 319.014V322.83H76.572V314.646Z" fill="#ABA7A1"/>
<path d="M32.3296 327.646H34.6696C36.7216 327.646 37.3696 328.774 37.3696 329.89C37.3696 331.006 36.7216 332.134 34.6696 332.134H33.2296V335.83H32.3296V327.646ZM34.5736 328.438H33.2296V331.342H34.5736C36.2176 331.342 36.4096 330.478 36.4096 329.89C36.4096 329.302 36.2176 328.438 34.5736 328.438ZM42.3296 334.882V335.446C41.6576 335.926 41.4056 335.938 41.2616 335.938C40.8176 335.938 40.7216 335.578 40.6736 335.326C40.0016 335.83 39.5816 335.938 39.1016 335.938C38.3456 335.938 37.7096 335.362 37.7096 334.57C37.7096 333.694 38.4296 332.986 40.6616 332.59V332.11C40.6616 331.762 40.6016 331.066 39.5936 331.066C38.8856 331.066 38.3816 331.426 37.9136 331.858V330.994C38.1776 330.766 38.7896 330.334 39.6656 330.334C41.2016 330.334 41.4896 331.414 41.4896 332.026V334.978C41.4896 335.206 41.5136 335.266 41.6336 335.266C41.7416 335.266 42.0056 335.146 42.3296 334.882ZM40.6616 334.762V333.13C39.2816 333.382 38.5376 333.838 38.5376 334.51C38.5376 335.158 39.1376 335.338 39.4496 335.338C40.0256 335.338 40.4576 334.954 40.6616 334.762ZM43.2473 330.442H44.0753V331.63C44.2193 331.402 44.5313 330.934 44.9753 330.634C45.0833 330.562 45.4313 330.334 45.7913 330.334C46.3073 330.334 46.8713 330.802 47.0753 330.97L46.6313 331.69C46.4513 331.534 46.0553 331.186 45.5873 331.186C45.1073 331.186 44.5193 331.618 44.2673 332.206C44.0753 332.638 44.0753 333.226 44.0753 333.502V335.83H43.2473V330.442ZM47.1107 331.174V331.042L48.8627 329.182V330.442H50.4827V331.174H48.8627V333.994C48.8627 334.69 48.9107 335.17 49.6667 335.17C50.0867 335.17 50.3507 335.038 50.7587 334.846V335.626C50.5307 335.734 50.0867 335.938 49.4987 335.938C48.4187 335.938 48.0347 335.194 48.0347 334.33V331.174H47.1107ZM52.3604 330.442V335.83H51.5324V330.442H52.3604ZM51.9524 328.246C52.2524 328.246 52.4924 328.486 52.4924 328.786C52.4924 329.086 52.2524 329.326 51.9524 329.326C51.6524 329.326 51.4124 329.086 51.4124 328.786C51.4124 328.486 51.6524 328.246 51.9524 328.246ZM57.7751 330.658V331.546C57.4631 331.366 56.9831 331.102 56.2991 331.102C54.8711 331.102 54.4991 332.458 54.4991 333.154C54.4991 334.054 54.9911 335.17 56.4431 335.17C57.1031 335.17 57.6431 334.93 57.8831 334.822V335.638C57.6311 335.734 57.0671 335.938 56.3591 335.938C54.6071 335.938 53.6471 334.738 53.6471 333.178C53.6471 331.414 54.7991 330.334 56.2991 330.334C56.9471 330.334 57.4271 330.514 57.7751 330.658ZM59.8136 330.442V335.83H58.9856V330.442H59.8136ZM59.4056 328.246C59.7056 328.246 59.9456 328.486 59.9456 328.786C59.9456 329.086 59.7056 329.326 59.4056 329.326C59.1056 329.326 58.8656 329.086 58.8656 328.786C58.8656 328.486 59.1056 328.246 59.4056 328.246ZM61.3762 330.442H63.2722C65.1562 330.442 66.2482 331.402 66.2482 333.13C66.2482 334.642 65.3002 335.938 63.5722 335.938C62.9122 335.938 62.4322 335.71 62.2042 335.614V338.482H61.3762V330.442ZM62.2042 331.174V334.858C62.3962 334.966 62.8282 335.206 63.4402 335.206C64.7722 335.206 65.3962 334.234 65.3962 333.154C65.3962 331.858 64.5322 331.174 63.2602 331.174H62.2042ZM71.8725 334.882V335.446C71.2005 335.926 70.9485 335.938 70.8045 335.938C70.3605 335.938 70.2645 335.578 70.2165 335.326C69.5445 335.83 69.1245 335.938 68.6445 335.938C67.8885 335.938 67.2525 335.362 67.2525 334.57C67.2525 333.694 67.9725 332.986 70.2045 332.59V332.11C70.2045 331.762 70.1445 331.066 69.1365 331.066C68.4285 331.066 67.9245 331.426 67.4565 331.858V330.994C67.7205 330.766 68.3325 330.334 69.2085 330.334C70.7445 330.334 71.0325 331.414 71.0325 332.026V334.978C71.0325 335.206 71.0565 335.266 71.1765 335.266C71.2845 335.266 71.5485 335.146 71.8725 334.882ZM70.2045 334.762V333.13C68.8245 333.382 68.0805 333.838 68.0805 334.51C68.0805 335.158 68.6805 335.338 68.9925 335.338C69.5685 335.338 70.0005 334.954 70.2045 334.762ZM72.7903 330.442H73.6183V331.258C74.0143 330.73 74.5423 330.334 75.3103 330.334C76.5223 330.334 77.2423 331.222 77.2423 332.614V335.83H76.4143V332.686C76.4143 331.774 76.0663 331.066 75.1183 331.066C74.8063 331.066 74.1223 331.162 73.6183 332.014V335.83H72.7903V330.442ZM78.0365 331.174V331.042L79.7885 329.182V330.442H81.4085V331.174H79.7885V333.994C79.7885 334.69 79.8365 335.17 80.5925 335.17C81.0125 335.17 81.2765 335.038 81.6845 334.846V335.626C81.4565 335.734 81.0125 335.938 80.4245 335.938C79.3445 335.938 78.9605 335.194 78.9605 334.33V331.174H78.0365Z" fill="#ABA7A1"/>
<path d="M99.3496 363.82V328.32V248.32V203.82V8.82007" stroke="#223072" stroke-miterlimit="10"/>
<path d="M99.3496 174.82C102.939 174.82 105.85 171.91 105.85 168.32C105.85 164.73 102.939 161.82 99.3496 161.82C95.7598 161.82 92.8496 164.73 92.8496 168.32C92.8496 171.91 95.7598 174.82 99.3496 174.82Z" fill="#F5EFE7" stroke="#ABA7A1" stroke-miterlimit="10"/>
<path d="M99.3496 254.82C102.939 254.82 105.85 251.91 105.85 248.32C105.85 244.73 102.939 241.82 99.3496 241.82C95.7598 241.82 92.8496 244.73 92.8496 248.32C92.8496 251.91 95.7598 254.82 99.3496 254.82Z" fill="#F5EFE7" stroke="#ABA7A1" stroke-miterlimit="10"/>
<path d="M99.3496 334.82C102.939 334.82 105.85 331.91 105.85 328.32C105.85 324.73 102.939 321.82 99.3496 321.82C95.7598 321.82 92.8496 324.73 92.8496 328.32C92.8496 331.91 95.7598 334.82 99.3496 334.82Z" fill="#F5EFE7" stroke="#ABA7A1" stroke-miterlimit="10"/>
<path d="M99.3496 94.8201C102.939 94.8201 105.85 91.9099 105.85 88.3201C105.85 84.7302 102.939 81.8201 99.3496 81.8201C95.7598 81.8201 92.8496 84.7302 92.8496 88.3201C92.8496 91.9099 95.7598 94.8201 99.3496 94.8201Z" fill="#F5EFE7" stroke="#ABA7A1" stroke-miterlimit="10"/>
</svg>
