<svg width="108" height="365" viewBox="0 0 108 365" fill="none" xmlns="http://www.w3.org/2000/svg">
<path d="M40.17 1.50594H42.258C44.382 1.50594 44.958 2.71794 44.958 3.70194C44.958 4.81794 44.274 5.41794 43.494 5.70594C44.082 6.08994 44.49 6.72594 45.498 8.30994C45.846 8.86194 46.026 9.11394 46.434 9.68994H45.354L44.574 8.45394C44.25 7.93794 43.89 7.42194 43.518 6.94194C42.99 6.26994 42.534 5.94594 41.658 5.94594H41.07V9.68994H40.17V1.50594ZM42.126 2.29794H41.07V5.15394H42.126C43.29 5.15394 43.998 4.64994 43.998 3.71394C43.998 2.86194 43.374 2.29794 42.126 2.29794ZM51.5698 6.85794V7.04994H47.5738C47.5738 8.34594 48.4738 9.06594 49.5058 9.06594C50.5618 9.06594 51.2218 8.52594 51.4858 8.30994V9.14994C51.1498 9.37794 50.5498 9.79794 49.4098 9.79794C47.6098 9.79794 46.7218 8.42994 46.7218 6.97794C46.7218 5.10594 47.9698 4.19394 49.1938 4.19394C50.5258 4.19394 51.5698 5.28594 51.5698 6.85794ZM47.6218 6.44994H50.7178C50.5978 5.28594 49.8058 4.92594 49.2178 4.92594C48.5458 4.92594 47.8258 5.35794 47.6218 6.44994ZM55.8231 4.64994V5.47794C55.2951 5.15394 54.8271 4.92594 54.2991 4.92594C53.7471 4.92594 53.3871 5.24994 53.3871 5.62194C53.3871 6.05394 53.7591 6.23394 55.0431 6.90594C55.3311 7.06194 56.0271 7.44594 56.0271 8.28594C56.0271 8.82594 55.5951 9.79794 54.2511 9.79794C53.6151 9.79794 53.0871 9.60594 52.5231 9.30594V8.45394C53.4111 8.99394 53.9751 9.06594 54.2631 9.06594C54.6831 9.06594 55.1751 8.80194 55.1751 8.34594C55.1751 7.82994 54.6831 7.57794 53.9751 7.24194C53.3151 6.92994 52.5591 6.54594 52.5591 5.64594C52.5591 4.98594 53.0991 4.19394 54.2871 4.19394C55.0311 4.19394 55.5471 4.49394 55.8231 4.64994ZM61.8471 6.85794V7.04994H57.8511C57.8511 8.34594 58.7511 9.06594 59.7831 9.06594C60.8391 9.06594 61.4991 8.52594 61.7631 8.30994V9.14994C61.4271 9.37794 60.8271 9.79794 59.6871 9.79794C57.8871 9.79794 56.9991 8.42994 56.9991 6.97794C56.9991 5.10594 58.2471 4.19394 59.4711 4.19394C60.8031 4.19394 61.8471 5.28594 61.8471 6.85794ZM57.8991 6.44994H60.9951C60.8751 5.28594 60.0831 4.92594 59.4951 4.92594C58.8231 4.92594 58.1031 5.35794 57.8991 6.44994ZM67.3965 8.74194V9.30594C66.7245 9.78594 66.4725 9.79794 66.3285 9.79794C65.8845 9.79794 65.7885 9.43794 65.7405 9.18594C65.0685 9.68994 64.6485 9.79794 64.1685 9.79794C63.4125 9.79794 62.7765 9.22194 62.7765 8.42994C62.7765 7.55394 63.4965 6.84594 65.7285 6.44994V5.96994C65.7285 5.62194 65.6685 4.92594 64.6605 4.92594C63.9525 4.92594 63.4485 5.28594 62.9805 5.71794V4.85394C63.2445 4.62594 63.8565 4.19394 64.7325 4.19394C66.2685 4.19394 66.5565 5.27394 66.5565 5.88594V8.83794C66.5565 9.06594 66.5805 9.12594 66.7005 9.12594C66.8085 9.12594 67.0725 9.00594 67.3965 8.74194ZM65.7285 8.62194V6.98994C64.3485 7.24194 63.6045 7.69794 63.6045 8.36994C63.6045 9.01794 64.2045 9.19794 64.5165 9.19794C65.0925 9.19794 65.5245 8.81394 65.7285 8.62194ZM68.3142 4.30194H69.1422V5.48994C69.2862 5.26194 69.5982 4.79394 70.0422 4.49394C70.1502 4.42194 70.4982 4.19394 70.8582 4.19394C71.3742 4.19394 71.9382 4.66194 72.1422 4.82994L71.6982 5.54994C71.5182 5.39394 71.1222 5.04594 70.6542 5.04594C70.1742 5.04594 69.5862 5.47794 69.3342 6.06594C69.1422 6.49794 69.1422 7.08594 69.1422 7.36194V9.68994H68.3142V4.30194ZM76.3615 4.51794V5.40594C76.0495 5.22594 75.5695 4.96194 74.8855 4.96194C73.4575 4.96194 73.0855 6.31794 73.0855 7.01394C73.0855 7.91394 73.5775 9.02994 75.0295 9.02994C75.6895 9.02994 76.2295 8.78994 76.4695 8.68194V9.49794C76.2175 9.59394 75.6535 9.79794 74.9455 9.79794C73.1935 9.79794 72.2335 8.59794 72.2335 7.03794C72.2335 5.27394 73.3855 4.19394 74.8855 4.19394C75.5335 4.19394 76.0135 4.37394 76.3615 4.51794ZM77.572 1.50594H78.4V5.11794C78.796 4.58994 79.324 4.19394 80.092 4.19394C81.304 4.19394 82.024 5.08194 82.024 6.47394V9.68994H81.196V6.54594C81.196 5.63394 80.848 4.92594 79.9 4.92594C79.588 4.92594 78.904 5.02194 78.4 5.87394V9.68994H77.572V1.50594Z" fill="#ABA7A1"/>
<path d="M8.74592 85.6699V89.1259C8.12192 89.4019 7.11392 89.7979 5.74592 89.7979C2.57792 89.7979 1.26992 87.5299 1.26992 85.6699C1.26992 83.5099 2.88992 81.3979 5.69792 81.3979C6.84992 81.3979 7.70192 81.7219 8.57792 82.0939V83.2939C7.23392 82.5139 6.12992 82.4419 5.67392 82.4419C4.04192 82.4419 2.49392 83.6659 2.49392 85.5979C2.49392 87.4099 3.80192 88.7659 5.78192 88.7659C6.38192 88.7659 6.78992 88.6579 7.56992 88.4059V86.7019H5.99792V85.6699H8.74592ZM10.2607 84.3019H11.3287V85.5379C11.6767 84.9979 12.1807 84.1939 12.9367 84.1939C13.0927 84.1939 13.5727 84.2059 14.1967 84.8059L13.6327 85.7419C13.5007 85.6099 13.0207 85.2139 12.6007 85.2139C12.2047 85.2139 11.3287 85.6459 11.3287 86.8699V89.6899H10.2607V84.3019ZM17.213 84.1939C18.821 84.1939 20.069 85.3099 20.069 87.0139C20.069 88.9339 18.509 89.7979 17.177 89.7979C15.449 89.7979 14.309 88.5259 14.309 86.9899C14.309 85.4779 15.413 84.1939 17.213 84.1939ZM17.153 85.1539C16.193 85.1539 15.401 85.8139 15.401 87.0019C15.401 88.3579 16.409 88.8379 17.201 88.8379C18.257 88.8379 18.977 88.0819 18.977 86.9899C18.977 85.6339 17.921 85.1539 17.153 85.1539ZM25.754 89.6899H24.674V89.0059C24.182 89.5459 23.546 89.7979 23.042 89.7979C22.706 89.7979 21.962 89.6779 21.518 88.9339C21.35 88.6699 21.218 88.3579 21.218 87.3739V84.3019H22.298V87.3739C22.298 87.9859 22.298 88.9099 23.39 88.9099C23.894 88.9099 24.35 88.6099 24.674 88.1539V84.3019H25.754V89.6899ZM27.182 84.3019H29.054C29.114 84.3019 30.242 84.3019 30.974 84.7579C31.934 85.3699 32.09 86.4619 32.09 87.0019C32.09 88.5739 31.022 89.7979 29.414 89.7979C28.862 89.7979 28.526 89.6539 28.274 89.5579V92.4499H27.182V84.3019ZM29.03 85.2979H28.274V88.6099C28.766 88.8619 29.21 88.8619 29.306 88.8619C30.254 88.8619 30.998 88.1539 30.998 87.0019C30.998 85.2979 29.558 85.2979 29.03 85.2979ZM36.374 84.6379V85.6939C35.774 85.3219 35.318 85.1179 34.814 85.1179C34.31 85.1179 34.13 85.3939 34.13 85.5979C34.13 85.9459 34.502 86.1379 35.294 86.5819C36.062 87.0019 36.638 87.5539 36.638 88.2739C36.638 88.7779 36.254 89.7979 34.79 89.7979C34.034 89.7979 33.53 89.5699 32.99 89.3059V88.1539C33.758 88.6819 34.418 88.8619 34.706 88.8619C35.042 88.8619 35.522 88.6699 35.522 88.3099C35.522 87.9259 35.198 87.7459 34.694 87.4699C33.806 86.9779 33.026 86.4979 33.026 85.5979C33.026 84.8059 33.71 84.1939 34.742 84.1939C35.546 84.1939 36.122 84.5059 36.374 84.6379ZM45.4351 88.7299V89.3779C44.9431 89.7019 44.7391 89.7979 44.4031 89.7979C43.9351 89.7979 43.6831 89.6299 43.5871 89.2459C43.1191 89.6179 42.6271 89.7979 42.1351 89.7979C41.3431 89.7979 40.8151 89.1739 40.8151 88.4779C40.8151 87.4099 41.7871 87.0859 42.6511 86.7739L43.5991 86.4379V86.1499C43.5991 85.4779 43.2751 85.2019 42.6271 85.2019C42.0391 85.2019 41.4391 85.4779 40.9231 86.0899V84.9259C41.3431 84.4339 41.9311 84.1939 42.7111 84.1939C43.8031 84.1939 44.6671 84.7459 44.6671 85.9699V88.7419C44.6671 88.9459 44.7391 89.0179 44.8711 89.0179C44.9791 89.0179 45.1951 88.9099 45.4351 88.7299ZM43.5991 88.5979V87.0259C42.6871 87.3379 41.8951 87.6499 41.8951 88.2859C41.8951 88.7299 42.2191 89.0419 42.6631 89.0419C42.9991 89.0419 43.3111 88.8739 43.5991 88.5979ZM46.3082 84.3019H47.4002V84.9859C47.8802 84.4459 48.5162 84.1939 49.0202 84.1939C49.3562 84.1939 50.1002 84.3139 50.5442 85.0579C50.7122 85.3219 50.8442 85.6339 50.8442 86.6179V89.6899H49.7642V86.6179C49.7642 86.0419 49.7642 85.7419 49.4762 85.4179C49.2722 85.1899 49.0322 85.0819 48.6722 85.0819C48.1802 85.0819 47.7242 85.3699 47.4002 85.8379V89.6899H46.3082V84.3019ZM57.0002 81.5059V89.6899H54.7202C52.6082 89.6899 52.1042 87.9499 52.1042 86.9059C52.1042 85.1539 53.4002 84.1939 54.7562 84.1939C55.2962 84.1939 55.7042 84.3259 55.9202 84.4099V81.5059H57.0002ZM55.9202 88.7899V85.3579C55.7162 85.2499 55.4282 85.1059 54.9242 85.1059C54.0242 85.1059 53.1842 85.6819 53.1842 87.0379C53.1842 87.9499 53.5682 88.4179 53.9762 88.6219C54.2642 88.7659 54.5402 88.7899 55.1042 88.7899H55.9202ZM63.1092 81.5059V88.6219H66.7932V89.6899H61.9212V81.5059H63.1092ZM71.896 88.7299V89.3779C71.404 89.7019 71.2 89.7979 70.864 89.7979C70.396 89.7979 70.144 89.6299 70.048 89.2459C69.58 89.6179 69.088 89.7979 68.596 89.7979C67.804 89.7979 67.276 89.1739 67.276 88.4779C67.276 87.4099 68.248 87.0859 69.112 86.7739L70.06 86.4379V86.1499C70.06 85.4779 69.736 85.2019 69.088 85.2019C68.5 85.2019 67.9 85.4779 67.384 86.0899V84.9259C67.804 84.4339 68.392 84.1939 69.172 84.1939C70.264 84.1939 71.128 84.7459 71.128 85.9699V88.7419C71.128 88.9459 71.2 89.0179 71.332 89.0179C71.44 89.0179 71.656 88.9099 71.896 88.7299ZM70.06 88.5979V87.0259C69.148 87.3379 68.356 87.6499 68.356 88.2859C68.356 88.7299 68.68 89.0419 69.124 89.0419C69.46 89.0419 69.772 88.8739 70.06 88.5979ZM73.8131 81.5059V84.6859C73.9931 84.5539 74.4971 84.1939 75.3011 84.1939C76.7411 84.1939 77.6171 85.4299 77.6171 86.9419C77.6171 88.8379 76.3091 89.8099 74.8331 89.8099C74.1491 89.8099 73.2611 89.6419 72.7451 89.3899V81.5059H73.8131ZM73.8131 85.7059V88.6219C74.2451 88.7539 74.7611 88.7899 74.9411 88.7899C75.5771 88.7899 76.5371 88.3339 76.5371 86.9899C76.5371 85.7779 75.7931 85.1779 75.0251 85.1779C74.4251 85.1779 74.0291 85.5139 73.8131 85.7059ZM81.9131 84.6379V85.6939C81.3131 85.3219 80.8571 85.1179 80.3531 85.1179C79.8491 85.1179 79.6691 85.3939 79.6691 85.5979C79.6691 85.9459 80.0411 86.1379 80.8331 86.5819C81.6011 87.0019 82.1771 87.5539 82.1771 88.2739C82.1771 88.7779 81.7931 89.7979 80.3291 89.7979C79.5731 89.7979 79.0691 89.5699 78.5291 89.3059V88.1539C79.2971 88.6819 79.9571 88.8619 80.2451 88.8619C80.5811 88.8619 81.0611 88.6699 81.0611 88.3099C81.0611 87.9259 80.7371 87.7459 80.2331 87.4699C79.3451 86.9779 78.5651 86.4979 78.5651 85.5979C78.5651 84.8059 79.2491 84.1939 80.2811 84.1939C81.0851 84.1939 81.6611 84.5059 81.9131 84.6379Z" fill="#223072"/>
<path d="M27 241.856H29.34C31.392 241.856 32.04 242.984 32.04 244.1C32.04 245.216 31.392 246.344 29.34 246.344H27.9V250.04H27V241.856ZM29.244 242.648H27.9V245.552H29.244C30.888 245.552 31.08 244.688 31.08 244.1C31.08 243.512 30.888 242.648 29.244 242.648ZM37.3515 250.04H36.5235V249.224C36.1275 249.752 35.5995 250.148 34.8315 250.148C33.6195 250.148 32.8995 249.26 32.8995 247.868V244.652H33.7275V247.796C33.7275 248.708 34.0755 249.416 35.0235 249.416C35.3355 249.416 36.0195 249.32 36.5235 248.468V244.652H37.3515V250.04ZM38.9138 249.74V241.856H39.7418V245.228C40.0058 245.024 40.5578 244.544 41.4458 244.544C42.9578 244.544 43.8098 245.84 43.8098 247.22C43.8098 248.984 42.6938 250.148 40.9058 250.148C40.2218 250.148 39.5378 250.004 38.9138 249.74ZM39.7418 246.068V249.2C40.3538 249.416 40.8698 249.416 40.9778 249.416C42.1058 249.416 42.9578 248.516 42.9578 247.292C42.9578 246.14 42.2138 245.276 41.2778 245.276C40.8818 245.276 40.2818 245.48 39.7418 246.068ZM45.9176 241.856V250.04H45.0896V241.856H45.9176ZM48.3082 244.652V250.04H47.4802V244.652H48.3082ZM47.9002 242.456C48.2002 242.456 48.4402 242.696 48.4402 242.996C48.4402 243.296 48.2002 243.536 47.9002 243.536C47.6002 243.536 47.3602 243.296 47.3602 242.996C47.3602 242.696 47.6002 242.456 47.9002 242.456ZM53.7228 244.868V245.756C53.4108 245.576 52.9308 245.312 52.2468 245.312C50.8188 245.312 50.4468 246.668 50.4468 247.364C50.4468 248.264 50.9388 249.38 52.3908 249.38C53.0508 249.38 53.5908 249.14 53.8308 249.032V249.848C53.5788 249.944 53.0148 250.148 52.3068 250.148C50.5548 250.148 49.5948 248.948 49.5948 247.388C49.5948 245.624 50.7468 244.544 52.2468 244.544C52.8948 244.544 53.3748 244.724 53.7228 244.868ZM59.3594 249.092V249.656C58.6874 250.136 58.4354 250.148 58.2914 250.148C57.8474 250.148 57.7514 249.788 57.7034 249.536C57.0314 250.04 56.6114 250.148 56.1314 250.148C55.3754 250.148 54.7394 249.572 54.7394 248.78C54.7394 247.904 55.4594 247.196 57.6914 246.8V246.32C57.6914 245.972 57.6314 245.276 56.6234 245.276C55.9154 245.276 55.4114 245.636 54.9434 246.068V245.204C55.2074 244.976 55.8194 244.544 56.6954 244.544C58.2314 244.544 58.5194 245.624 58.5194 246.236V249.188C58.5194 249.416 58.5434 249.476 58.6634 249.476C58.7714 249.476 59.0354 249.356 59.3594 249.092ZM57.6914 248.972V247.34C56.3114 247.592 55.5674 248.048 55.5674 248.72C55.5674 249.368 56.1674 249.548 56.4794 249.548C57.0554 249.548 57.4874 249.164 57.6914 248.972ZM59.6171 245.384V245.252L61.3691 243.392V244.652H62.9891V245.384H61.3691V248.204C61.3691 248.9 61.4171 249.38 62.1731 249.38C62.5931 249.38 62.8571 249.248 63.2651 249.056V249.836C63.0371 249.944 62.5931 250.148 62.0051 250.148C60.9251 250.148 60.5411 249.404 60.5411 248.54V245.384H59.6171ZM64.8668 244.652V250.04H64.0388V244.652H64.8668ZM64.4588 242.456C64.7588 242.456 64.9988 242.696 64.9988 242.996C64.9988 243.296 64.7588 243.536 64.4588 243.536C64.1588 243.536 63.9188 243.296 63.9188 242.996C63.9188 242.696 64.1588 242.456 64.4588 242.456ZM68.9494 244.544C70.4974 244.544 71.7574 245.792 71.7574 247.34C71.7574 248.888 70.4974 250.148 68.9494 250.148C67.4014 250.148 66.1534 248.888 66.1534 247.34C66.1534 245.792 67.4014 244.544 68.9494 244.544ZM68.9614 245.276C67.8334 245.276 67.0054 246.2 67.0054 247.34C67.0054 248.48 67.8334 249.416 68.9614 249.416C70.0894 249.416 70.9054 248.48 70.9054 247.34C70.9054 246.2 70.0894 245.276 68.9614 245.276ZM73.0505 244.652H73.8785V245.468C74.2745 244.94 74.8025 244.544 75.5705 244.544C76.7825 244.544 77.5025 245.432 77.5025 246.824V250.04H76.6745V246.896C76.6745 245.984 76.3265 245.276 75.3785 245.276C75.0665 245.276 74.3825 245.372 73.8785 246.224V250.04H73.0505V244.652ZM82.0048 245V245.828C81.4768 245.504 81.0088 245.276 80.4808 245.276C79.9288 245.276 79.5688 245.6 79.5688 245.972C79.5688 246.404 79.9408 246.584 81.2248 247.256C81.5128 247.412 82.2088 247.796 82.2088 248.636C82.2088 249.176 81.7768 250.148 80.4328 250.148C79.7968 250.148 79.2688 249.956 78.7048 249.656V248.804C79.5928 249.344 80.1568 249.416 80.4448 249.416C80.8648 249.416 81.3568 249.152 81.3568 248.696C81.3568 248.18 80.8648 247.928 80.1568 247.592C79.4968 247.28 78.7408 246.896 78.7408 245.996C78.7408 245.336 79.2808 244.544 80.4688 244.544C81.2128 244.544 81.7288 244.844 82.0048 245Z" fill="#ABA7A1"/>
<path d="M40.1602 155.286H42.2482C44.3722 155.286 44.9482 156.498 44.9482 157.482C44.9482 158.598 44.2642 159.198 43.4842 159.486C44.0722 159.87 44.4802 160.506 45.4882 162.09C45.8362 162.642 46.0162 162.894 46.4242 163.47H45.3442L44.5642 162.234C44.2402 161.718 43.8802 161.202 43.5082 160.722C42.9802 160.05 42.5242 159.726 41.6482 159.726H41.0602V163.47H40.1602V155.286ZM42.1162 156.078H41.0602V158.934H42.1162C43.2802 158.934 43.9882 158.43 43.9882 157.494C43.9882 156.642 43.3642 156.078 42.1162 156.078ZM51.56 160.638V160.83H47.564C47.564 162.126 48.464 162.846 49.496 162.846C50.552 162.846 51.212 162.306 51.476 162.09V162.93C51.14 163.158 50.54 163.578 49.4 163.578C47.6 163.578 46.712 162.21 46.712 160.758C46.712 158.886 47.96 157.974 49.184 157.974C50.516 157.974 51.56 159.066 51.56 160.638ZM47.612 160.23H50.708C50.588 159.066 49.796 158.706 49.208 158.706C48.536 158.706 47.816 159.138 47.612 160.23ZM55.8134 158.43V159.258C55.2854 158.934 54.8174 158.706 54.2894 158.706C53.7374 158.706 53.3774 159.03 53.3774 159.402C53.3774 159.834 53.7494 160.014 55.0334 160.686C55.3214 160.842 56.0174 161.226 56.0174 162.066C56.0174 162.606 55.5854 163.578 54.2414 163.578C53.6054 163.578 53.0774 163.386 52.5134 163.086V162.234C53.4014 162.774 53.9654 162.846 54.2534 162.846C54.6734 162.846 55.1654 162.582 55.1654 162.126C55.1654 161.61 54.6734 161.358 53.9654 161.022C53.3054 160.71 52.5494 160.326 52.5494 159.426C52.5494 158.766 53.0894 157.974 54.2774 157.974C55.0214 157.974 55.5374 158.274 55.8134 158.43ZM61.8374 160.638V160.83H57.8414C57.8414 162.126 58.7414 162.846 59.7734 162.846C60.8294 162.846 61.4894 162.306 61.7534 162.09V162.93C61.4174 163.158 60.8174 163.578 59.6774 163.578C57.8774 163.578 56.9894 162.21 56.9894 160.758C56.9894 158.886 58.2374 157.974 59.4614 157.974C60.7934 157.974 61.8374 159.066 61.8374 160.638ZM57.8894 160.23H60.9854C60.8654 159.066 60.0734 158.706 59.4854 158.706C58.8134 158.706 58.0934 159.138 57.8894 160.23ZM67.3867 162.522V163.086C66.7147 163.566 66.4627 163.578 66.3187 163.578C65.8747 163.578 65.7787 163.218 65.7307 162.966C65.0587 163.47 64.6387 163.578 64.1587 163.578C63.4027 163.578 62.7667 163.002 62.7667 162.21C62.7667 161.334 63.4867 160.626 65.7187 160.23V159.75C65.7187 159.402 65.6587 158.706 64.6507 158.706C63.9427 158.706 63.4387 159.066 62.9707 159.498V158.634C63.2347 158.406 63.8467 157.974 64.7227 157.974C66.2587 157.974 66.5467 159.054 66.5467 159.666V162.618C66.5467 162.846 66.5707 162.906 66.6907 162.906C66.7987 162.906 67.0627 162.786 67.3867 162.522ZM65.7187 162.402V160.77C64.3387 161.022 63.5947 161.478 63.5947 162.15C63.5947 162.798 64.1947 162.978 64.5067 162.978C65.0827 162.978 65.5147 162.594 65.7187 162.402ZM68.3044 158.082H69.1324V159.27C69.2764 159.042 69.5884 158.574 70.0324 158.274C70.1404 158.202 70.4884 157.974 70.8484 157.974C71.3644 157.974 71.9284 158.442 72.1324 158.61L71.6884 159.33C71.5084 159.174 71.1124 158.826 70.6444 158.826C70.1644 158.826 69.5764 159.258 69.3244 159.846C69.1324 160.278 69.1324 160.866 69.1324 161.142V163.47H68.3044V158.082ZM76.3517 158.298V159.186C76.0397 159.006 75.5597 158.742 74.8757 158.742C73.4477 158.742 73.0757 160.098 73.0757 160.794C73.0757 161.694 73.5677 162.81 75.0197 162.81C75.6797 162.81 76.2197 162.57 76.4597 162.462V163.278C76.2077 163.374 75.6437 163.578 74.9357 163.578C73.1837 163.578 72.2237 162.378 72.2237 160.818C72.2237 159.054 73.3757 157.974 74.8757 157.974C75.5237 157.974 76.0037 158.154 76.3517 158.298ZM77.5622 155.286H78.3902V158.898C78.7862 158.37 79.3142 157.974 80.0822 157.974C81.2942 157.974 82.0142 158.862 82.0142 160.254V163.47H81.1862V160.326C81.1862 159.414 80.8382 158.706 79.8902 158.706C79.5782 158.706 78.8942 158.802 78.3902 159.654V163.47H77.5622V155.286Z" fill="#ABA7A1"/>
<path d="M45.0801 168.286H47.4201C49.4721 168.286 50.1201 169.414 50.1201 170.53C50.1201 171.646 49.4721 172.774 47.4201 172.774H45.9801V176.47H45.0801V168.286ZM47.3241 169.078H45.9801V171.982H47.3241C48.9681 171.982 49.1601 171.118 49.1601 170.53C49.1601 169.942 48.9681 169.078 47.3241 169.078ZM51.0876 171.082H51.9156V172.27C52.0596 172.042 52.3716 171.574 52.8156 171.274C52.9236 171.202 53.2716 170.974 53.6316 170.974C54.1476 170.974 54.7116 171.442 54.9156 171.61L54.4716 172.33C54.2916 172.174 53.8956 171.826 53.4276 171.826C52.9476 171.826 52.3596 172.258 52.1076 172.846C51.9156 173.278 51.9156 173.866 51.9156 174.142V176.47H51.0876V171.082ZM57.8029 170.974C59.3509 170.974 60.6109 172.222 60.6109 173.77C60.6109 175.318 59.3509 176.578 57.8029 176.578C56.2549 176.578 55.0069 175.318 55.0069 173.77C55.0069 172.222 56.2549 170.974 57.8029 170.974ZM57.8149 171.706C56.6869 171.706 55.8589 172.63 55.8589 173.77C55.8589 174.91 56.6869 175.846 57.8149 175.846C58.9429 175.846 59.7589 174.91 59.7589 173.77C59.7589 172.63 58.9429 171.706 57.8149 171.706ZM62.732 171.082V176.746C62.732 177.454 62.684 177.922 62.516 178.306C62.456 178.45 62.144 179.062 61.4 179.23L60.92 178.594C61.832 178.414 61.904 177.73 61.904 176.686V171.082H62.732ZM62.324 168.886C62.624 168.886 62.864 169.126 62.864 169.426C62.864 169.726 62.624 169.966 62.324 169.966C62.024 169.966 61.784 169.726 61.784 169.426C61.784 169.126 62.024 168.886 62.324 168.886ZM68.8432 173.638V173.83H64.8472C64.8472 175.126 65.7472 175.846 66.7792 175.846C67.8352 175.846 68.4952 175.306 68.7592 175.09V175.93C68.4232 176.158 67.8232 176.578 66.6832 176.578C64.8832 176.578 63.9952 175.21 63.9952 173.758C63.9952 171.886 65.2432 170.974 66.4672 170.974C67.7992 170.974 68.8432 172.066 68.8432 173.638ZM64.8952 173.23H67.9912C67.8712 172.066 67.0792 171.706 66.4912 171.706C65.8192 171.706 65.0992 172.138 64.8952 173.23ZM73.9006 171.298V172.186C73.5886 172.006 73.1086 171.742 72.4246 171.742C70.9966 171.742 70.6246 173.098 70.6246 173.794C70.6246 174.694 71.1166 175.81 72.5686 175.81C73.2286 175.81 73.7686 175.57 74.0086 175.462V176.278C73.7566 176.374 73.1926 176.578 72.4846 176.578C70.7326 176.578 69.7726 175.378 69.7726 173.818C69.7726 172.054 70.9246 170.974 72.4246 170.974C73.0726 170.974 73.5526 171.154 73.9006 171.298ZM74.5331 171.814V171.682L76.2851 169.822V171.082H77.9051V171.814H76.2851V174.634C76.2851 175.33 76.3331 175.81 77.0891 175.81C77.5091 175.81 77.7731 175.678 78.1811 175.486V176.266C77.9531 176.374 77.5091 176.578 76.9211 176.578C75.8411 176.578 75.4571 175.834 75.4571 174.97V171.814H74.5331ZM82.0028 171.43V172.258C81.4748 171.934 81.0068 171.706 80.4788 171.706C79.9268 171.706 79.5668 172.03 79.5668 172.402C79.5668 172.834 79.9388 173.014 81.2228 173.686C81.5108 173.842 82.2068 174.226 82.2068 175.066C82.2068 175.606 81.7748 176.578 80.4308 176.578C79.7948 176.578 79.2668 176.386 78.7028 176.086V175.234C79.5908 175.774 80.1548 175.846 80.4428 175.846C80.8628 175.846 81.3548 175.582 81.3548 175.126C81.3548 174.61 80.8628 174.358 80.1548 174.022C79.4948 173.71 78.7388 173.326 78.7388 172.426C78.7388 171.766 79.2788 170.974 80.4668 170.974C81.2108 170.974 81.7268 171.274 82.0028 171.43Z" fill="#ABA7A1"/>
<path d="M16.5098 315.286H18.5618C19.7738 315.286 21.1658 315.754 21.1658 317.41C21.1658 318.586 20.2778 319.042 19.9538 319.174C21.5378 319.474 21.8858 320.578 21.8858 321.274C21.8858 322.21 21.1658 323.47 19.4738 323.47H16.5098V315.286ZM18.2978 316.078H17.4098V318.934H18.2978C19.6658 318.934 20.2058 318.37 20.2058 317.482C20.2058 316.474 19.6178 316.078 18.2978 316.078ZM18.8378 319.726H17.4098V322.678H18.8618C20.6258 322.678 20.9258 321.898 20.9258 321.202C20.9258 320.518 20.4698 319.726 18.8378 319.726ZM27.5229 320.638V320.83H23.5269C23.5269 322.126 24.4269 322.846 25.4589 322.846C26.5149 322.846 27.1749 322.306 27.4389 322.09V322.93C27.1029 323.158 26.5029 323.578 25.3629 323.578C23.5629 323.578 22.6749 322.21 22.6749 320.758C22.6749 318.886 23.9229 317.974 25.1469 317.974C26.4789 317.974 27.5229 319.066 27.5229 320.638ZM23.5749 320.23H26.6709C26.5509 319.066 25.7589 318.706 25.1709 318.706C24.4989 318.706 23.7789 319.138 23.5749 320.23ZM36.0722 322.522V323.086C35.4002 323.566 35.1482 323.578 35.0042 323.578C34.5602 323.578 34.4642 323.218 34.4162 322.966C33.7442 323.47 33.3242 323.578 32.8442 323.578C32.0882 323.578 31.4522 323.002 31.4522 322.21C31.4522 321.334 32.1722 320.626 34.4042 320.23V319.75C34.4042 319.402 34.3442 318.706 33.3362 318.706C32.6282 318.706 32.1242 319.066 31.6562 319.498V318.634C31.9202 318.406 32.5322 317.974 33.4082 317.974C34.9442 317.974 35.2322 319.054 35.2322 319.666V322.618C35.2322 322.846 35.2562 322.906 35.3762 322.906C35.4842 322.906 35.7482 322.786 36.0722 322.522ZM34.4042 322.402V320.77C33.0242 321.022 32.2802 321.478 32.2802 322.15C32.2802 322.798 32.8802 322.978 33.1922 322.978C33.7682 322.978 34.2002 322.594 34.4042 322.402ZM40.17 315.286H42.258C44.382 315.286 44.958 316.498 44.958 317.482C44.958 318.598 44.274 319.198 43.494 319.486C44.082 319.87 44.49 320.506 45.498 322.09C45.846 322.642 46.026 322.894 46.434 323.47H45.354L44.574 322.234C44.25 321.718 43.89 321.202 43.518 320.722C42.99 320.05 42.534 319.726 41.658 319.726H41.07V323.47H40.17V315.286ZM42.126 316.078H41.07V318.934H42.126C43.29 318.934 43.998 318.43 43.998 317.494C43.998 316.642 43.374 316.078 42.126 316.078ZM51.5698 320.638V320.83H47.5738C47.5738 322.126 48.4738 322.846 49.5058 322.846C50.5618 322.846 51.2218 322.306 51.4858 322.09V322.93C51.1498 323.158 50.5498 323.578 49.4098 323.578C47.6098 323.578 46.7218 322.21 46.7218 320.758C46.7218 318.886 47.9698 317.974 49.1938 317.974C50.5258 317.974 51.5698 319.066 51.5698 320.638ZM47.6218 320.23H50.7178C50.5978 319.066 49.8058 318.706 49.2178 318.706C48.5458 318.706 47.8258 319.138 47.6218 320.23ZM55.8231 318.43V319.258C55.2951 318.934 54.8271 318.706 54.2991 318.706C53.7471 318.706 53.3871 319.03 53.3871 319.402C53.3871 319.834 53.7591 320.014 55.0431 320.686C55.3311 320.842 56.0271 321.226 56.0271 322.066C56.0271 322.606 55.5951 323.578 54.2511 323.578C53.6151 323.578 53.0871 323.386 52.5231 323.086V322.234C53.4111 322.774 53.9751 322.846 54.2631 322.846C54.6831 322.846 55.1751 322.582 55.1751 322.126C55.1751 321.61 54.6831 321.358 53.9751 321.022C53.3151 320.71 52.5591 320.326 52.5591 319.426C52.5591 318.766 53.0991 317.974 54.2871 317.974C55.0311 317.974 55.5471 318.274 55.8231 318.43ZM61.8471 320.638V320.83H57.8511C57.8511 322.126 58.7511 322.846 59.7831 322.846C60.8391 322.846 61.4991 322.306 61.7631 322.09V322.93C61.4271 323.158 60.8271 323.578 59.6871 323.578C57.8871 323.578 56.9991 322.21 56.9991 320.758C56.9991 318.886 58.2471 317.974 59.4711 317.974C60.8031 317.974 61.8471 319.066 61.8471 320.638ZM57.8991 320.23H60.9951C60.8751 319.066 60.0831 318.706 59.4951 318.706C58.8231 318.706 58.1031 319.138 57.8991 320.23ZM67.3965 322.522V323.086C66.7245 323.566 66.4725 323.578 66.3285 323.578C65.8845 323.578 65.7885 323.218 65.7405 322.966C65.0685 323.47 64.6485 323.578 64.1685 323.578C63.4125 323.578 62.7765 323.002 62.7765 322.21C62.7765 321.334 63.4965 320.626 65.7285 320.23V319.75C65.7285 319.402 65.6685 318.706 64.6605 318.706C63.9525 318.706 63.4485 319.066 62.9805 319.498V318.634C63.2445 318.406 63.8565 317.974 64.7325 317.974C66.2685 317.974 66.5565 319.054 66.5565 319.666V322.618C66.5565 322.846 66.5805 322.906 66.7005 322.906C66.8085 322.906 67.0725 322.786 67.3965 322.522ZM65.7285 322.402V320.77C64.3485 321.022 63.6045 321.478 63.6045 322.15C63.6045 322.798 64.2045 322.978 64.5165 322.978C65.0925 322.978 65.5245 322.594 65.7285 322.402ZM68.3142 318.082H69.1422V319.27C69.2862 319.042 69.5982 318.574 70.0422 318.274C70.1502 318.202 70.4982 317.974 70.8582 317.974C71.3742 317.974 71.9382 318.442 72.1422 318.61L71.6982 319.33C71.5182 319.174 71.1222 318.826 70.6542 318.826C70.1742 318.826 69.5862 319.258 69.3342 319.846C69.1422 320.278 69.1422 320.866 69.1422 321.142V323.47H68.3142V318.082ZM76.3615 318.298V319.186C76.0495 319.006 75.5695 318.742 74.8855 318.742C73.4575 318.742 73.0855 320.098 73.0855 320.794C73.0855 321.694 73.5775 322.81 75.0295 322.81C75.6895 322.81 76.2295 322.57 76.4695 322.462V323.278C76.2175 323.374 75.6535 323.578 74.9455 323.578C73.1935 323.578 72.2335 322.378 72.2335 320.818C72.2335 319.054 73.3855 317.974 74.8855 317.974C75.5335 317.974 76.0135 318.154 76.3615 318.298ZM77.572 315.286H78.4V318.898C78.796 318.37 79.324 317.974 80.092 317.974C81.304 317.974 82.024 318.862 82.024 320.254V323.47H81.196V320.326C81.196 319.414 80.848 318.706 79.9 318.706C79.588 318.706 78.904 318.802 78.4 319.654V323.47H77.572V315.286Z" fill="#ABA7A1"/>
<path d="M33.3296 328.286H35.6696C37.7216 328.286 38.3696 329.414 38.3696 330.53C38.3696 331.646 37.7216 332.774 35.6696 332.774H34.2296V336.47H33.3296V328.286ZM35.5736 329.078H34.2296V331.982H35.5736C37.2176 331.982 37.4096 331.118 37.4096 330.53C37.4096 329.942 37.2176 329.078 35.5736 329.078ZM43.3296 335.522V336.086C42.6576 336.566 42.4056 336.578 42.2616 336.578C41.8176 336.578 41.7216 336.218 41.6736 335.966C41.0016 336.47 40.5816 336.578 40.1016 336.578C39.3456 336.578 38.7096 336.002 38.7096 335.21C38.7096 334.334 39.4296 333.626 41.6616 333.23V332.75C41.6616 332.402 41.6016 331.706 40.5936 331.706C39.8856 331.706 39.3816 332.066 38.9136 332.498V331.634C39.1776 331.406 39.7896 330.974 40.6656 330.974C42.2016 330.974 42.4896 332.054 42.4896 332.666V335.618C42.4896 335.846 42.5136 335.906 42.6336 335.906C42.7416 335.906 43.0056 335.786 43.3296 335.522ZM41.6616 335.402V333.77C40.2816 334.022 39.5376 334.478 39.5376 335.15C39.5376 335.798 40.1376 335.978 40.4496 335.978C41.0256 335.978 41.4576 335.594 41.6616 335.402ZM44.2473 331.082H45.0753V332.27C45.2193 332.042 45.5313 331.574 45.9753 331.274C46.0833 331.202 46.4313 330.974 46.7913 330.974C47.3073 330.974 47.8713 331.442 48.0753 331.61L47.6313 332.33C47.4513 332.174 47.0553 331.826 46.5873 331.826C46.1073 331.826 45.5193 332.258 45.2673 332.846C45.0753 333.278 45.0753 333.866 45.0753 334.142V336.47H44.2473V331.082ZM48.1107 331.814V331.682L49.8627 329.822V331.082H51.4827V331.814H49.8627V334.634C49.8627 335.33 49.9107 335.81 50.6667 335.81C51.0867 335.81 51.3507 335.678 51.7587 335.486V336.266C51.5307 336.374 51.0867 336.578 50.4987 336.578C49.4187 336.578 49.0347 335.834 49.0347 334.97V331.814H48.1107ZM53.3604 331.082V336.47H52.5324V331.082H53.3604ZM52.9524 328.886C53.2524 328.886 53.4924 329.126 53.4924 329.426C53.4924 329.726 53.2524 329.966 52.9524 329.966C52.6524 329.966 52.4124 329.726 52.4124 329.426C52.4124 329.126 52.6524 328.886 52.9524 328.886ZM58.7751 331.298V332.186C58.4631 332.006 57.9831 331.742 57.2991 331.742C55.8711 331.742 55.4991 333.098 55.4991 333.794C55.4991 334.694 55.9911 335.81 57.4431 335.81C58.1031 335.81 58.6431 335.57 58.8831 335.462V336.278C58.6311 336.374 58.0671 336.578 57.3591 336.578C55.6071 336.578 54.6471 335.378 54.6471 333.818C54.6471 332.054 55.7991 330.974 57.2991 330.974C57.9471 330.974 58.4271 331.154 58.7751 331.298ZM60.8136 331.082V336.47H59.9856V331.082H60.8136ZM60.4056 328.886C60.7056 328.886 60.9456 329.126 60.9456 329.426C60.9456 329.726 60.7056 329.966 60.4056 329.966C60.1056 329.966 59.8656 329.726 59.8656 329.426C59.8656 329.126 60.1056 328.886 60.4056 328.886ZM62.3762 331.082H64.2722C66.1562 331.082 67.2482 332.042 67.2482 333.77C67.2482 335.282 66.3002 336.578 64.5722 336.578C63.9122 336.578 63.4322 336.35 63.2042 336.254V339.122H62.3762V331.082ZM63.2042 331.814V335.498C63.3962 335.606 63.8282 335.846 64.4402 335.846C65.7722 335.846 66.3962 334.874 66.3962 333.794C66.3962 332.498 65.5322 331.814 64.2602 331.814H63.2042ZM72.8725 335.522V336.086C72.2005 336.566 71.9485 336.578 71.8045 336.578C71.3605 336.578 71.2645 336.218 71.2165 335.966C70.5445 336.47 70.1245 336.578 69.6445 336.578C68.8885 336.578 68.2525 336.002 68.2525 335.21C68.2525 334.334 68.9725 333.626 71.2045 333.23V332.75C71.2045 332.402 71.1445 331.706 70.1365 331.706C69.4285 331.706 68.9245 332.066 68.4565 332.498V331.634C68.7205 331.406 69.3325 330.974 70.2085 330.974C71.7445 330.974 72.0325 332.054 72.0325 332.666V335.618C72.0325 335.846 72.0565 335.906 72.1765 335.906C72.2845 335.906 72.5485 335.786 72.8725 335.522ZM71.2045 335.402V333.77C69.8245 334.022 69.0805 334.478 69.0805 335.15C69.0805 335.798 69.6805 335.978 69.9925 335.978C70.5685 335.978 71.0005 335.594 71.2045 335.402ZM73.7903 331.082H74.6183V331.898C75.0143 331.37 75.5423 330.974 76.3103 330.974C77.5223 330.974 78.2423 331.862 78.2423 333.254V336.47H77.4143V333.326C77.4143 332.414 77.0663 331.706 76.1183 331.706C75.8063 331.706 75.1223 331.802 74.6183 332.654V336.47H73.7903V331.082ZM79.0365 331.814V331.682L80.7885 329.822V331.082H82.4085V331.814H80.7885V334.634C80.7885 335.33 80.8365 335.81 81.5925 335.81C82.0125 335.81 82.2765 335.678 82.6845 335.486V336.266C82.4565 336.374 82.0125 336.578 81.4245 336.578C80.3445 336.578 79.9605 335.834 79.9605 334.97V331.814H79.0365Z" fill="#ABA7A1"/>
<path d="M100.35 364.46V328.96V248.96V204.46V9.45996" stroke="#223072" stroke-miterlimit="10"/>
<path d="M100.35 175.46C103.939 175.46 106.85 172.55 106.85 168.96C106.85 165.37 103.939 162.46 100.35 162.46C96.7598 162.46 93.8496 165.37 93.8496 168.96C93.8496 172.55 96.7598 175.46 100.35 175.46Z" fill="#F5EFE7" stroke="#ABA7A1" stroke-miterlimit="10"/>
<path d="M100.35 255.46C103.939 255.46 106.85 252.55 106.85 248.96C106.85 245.37 103.939 242.46 100.35 242.46C96.7598 242.46 93.8496 245.37 93.8496 248.96C93.8496 252.55 96.7598 255.46 100.35 255.46Z" fill="#F5EFE7" stroke="#ABA7A1" stroke-miterlimit="10"/>
<path d="M100.35 335.46C103.939 335.46 106.85 332.55 106.85 328.96C106.85 325.37 103.939 322.46 100.35 322.46C96.7598 322.46 93.8496 325.37 93.8496 328.96C93.8496 332.55 96.7598 335.46 100.35 335.46Z" fill="#F5EFE7" stroke="#ABA7A1" stroke-miterlimit="10"/>
<path d="M100.35 95.46C103.939 95.46 106.85 92.5498 106.85 88.96C106.85 85.3701 103.939 82.46 100.35 82.46C96.7598 82.46 93.8496 85.3701 93.8496 88.96C93.8496 92.5498 96.7598 95.46 100.35 95.46Z" fill="#223072"/>
<path d="M100.35 15.46C103.939 15.46 106.85 12.5498 106.85 8.95996C106.85 5.37011 103.939 2.45996 100.35 2.45996C96.7598 2.45996 93.8496 5.37011 93.8496 8.95996C93.8496 12.5498 96.7598 15.46 100.35 15.46Z" fill="#F5EFE7" stroke="#ABA7A1" stroke-miterlimit="10"/>
</svg>
