<svg width="106" height="365" viewBox="0 0 106 365" fill="none" xmlns="http://www.w3.org/2000/svg">
<path d="M19.96 1.48604H22.048C24.172 1.48604 24.748 2.69804 24.748 3.68204C24.748 4.79804 24.064 5.39804 23.284 5.68604C23.872 6.07004 24.28 6.70604 25.288 8.29004C25.636 8.84204 25.816 9.09404 26.224 9.67004H25.144L24.364 8.43404C24.04 7.91804 23.68 7.40204 23.308 6.92204C22.78 6.25004 22.324 5.92604 21.448 5.92604H20.86V9.67004H19.96V1.48604ZM21.916 2.27804H20.86V5.13404H21.916C23.08 5.13404 23.788 4.63004 23.788 3.69404C23.788 2.84204 23.164 2.27804 21.916 2.27804ZM31.3598 6.83804V7.03004H27.3638C27.3638 8.32604 28.2638 9.04604 29.2958 9.04604C30.3518 9.04604 31.0118 8.50604 31.2758 8.29004V9.13004C30.9398 9.35804 30.3398 9.77804 29.1998 9.77804C27.3998 9.77804 26.5118 8.41004 26.5118 6.95804C26.5118 5.08604 27.7598 4.17404 28.9838 4.17404C30.3158 4.17404 31.3598 5.26604 31.3598 6.83804ZM27.4118 6.43004H30.5078C30.3878 5.26604 29.5958 4.90604 29.0078 4.90604C28.3358 4.90604 27.6158 5.33804 27.4118 6.43004ZM35.6132 4.63004V5.45804C35.0852 5.13404 34.6172 4.90604 34.0892 4.90604C33.5372 4.90604 33.1772 5.23004 33.1772 5.60204C33.1772 6.03404 33.5492 6.21404 34.8332 6.88604C35.1212 7.04204 35.8172 7.42604 35.8172 8.26604C35.8172 8.80604 35.3852 9.77804 34.0412 9.77804C33.4052 9.77804 32.8772 9.58604 32.3132 9.28604V8.43404C33.2012 8.97404 33.7652 9.04604 34.0532 9.04604C34.4732 9.04604 34.9652 8.78204 34.9652 8.32604C34.9652 7.81004 34.4732 7.55804 33.7652 7.22204C33.1052 6.91004 32.3492 6.52604 32.3492 5.62604C32.3492 4.96604 32.8892 4.17404 34.0772 4.17404C34.8212 4.17404 35.3372 4.47404 35.6132 4.63004ZM41.6372 6.83804V7.03004H37.6412C37.6412 8.32604 38.5412 9.04604 39.5732 9.04604C40.6292 9.04604 41.2892 8.50604 41.5532 8.29004V9.13004C41.2172 9.35804 40.6172 9.77804 39.4772 9.77804C37.6772 9.77804 36.7892 8.41004 36.7892 6.95804C36.7892 5.08604 38.0372 4.17404 39.2612 4.17404C40.5932 4.17404 41.6372 5.26604 41.6372 6.83804ZM37.6892 6.43004H40.7852C40.6652 5.26604 39.8732 4.90604 39.2852 4.90604C38.6132 4.90604 37.8932 5.33804 37.6892 6.43004ZM47.1865 8.72204V9.28604C46.5145 9.76604 46.2625 9.77804 46.1185 9.77804C45.6745 9.77804 45.5785 9.41804 45.5305 9.16604C44.8585 9.67004 44.4385 9.77804 43.9585 9.77804C43.2025 9.77804 42.5665 9.20204 42.5665 8.41004C42.5665 7.53404 43.2865 6.82604 45.5185 6.43004V5.95004C45.5185 5.60204 45.4585 4.90604 44.4505 4.90604C43.7425 4.90604 43.2385 5.26604 42.7705 5.69804V4.83404C43.0345 4.60604 43.6465 4.17404 44.5225 4.17404C46.0585 4.17404 46.3465 5.25404 46.3465 5.86604V8.81804C46.3465 9.04604 46.3705 9.10604 46.4905 9.10604C46.5985 9.10604 46.8625 8.98604 47.1865 8.72204ZM45.5185 8.60204V6.97004C44.1385 7.22204 43.3945 7.67804 43.3945 8.35004C43.3945 8.99804 43.9945 9.17804 44.3065 9.17804C44.8825 9.17804 45.3145 8.79404 45.5185 8.60204ZM48.1042 4.28204H48.9322V5.47004C49.0762 5.24204 49.3882 4.77404 49.8322 4.47404C49.9402 4.40204 50.2882 4.17404 50.6482 4.17404C51.1642 4.17404 51.7282 4.64204 51.9322 4.81004L51.4882 5.53004C51.3082 5.37404 50.9122 5.02604 50.4442 5.02604C49.9642 5.02604 49.3762 5.45804 49.1242 6.04604C48.9322 6.47804 48.9322 7.06604 48.9322 7.34204V9.67004H48.1042V4.28204ZM56.1515 4.49804V5.38604C55.8395 5.20604 55.3595 4.94204 54.6755 4.94204C53.2475 4.94204 52.8755 6.29804 52.8755 6.99404C52.8755 7.89404 53.3675 9.01004 54.8195 9.01004C55.4795 9.01004 56.0195 8.77004 56.2595 8.66204V9.47804C56.0075 9.57404 55.4435 9.77804 54.7355 9.77804C52.9835 9.77804 52.0235 8.57804 52.0235 7.01804C52.0235 5.25404 53.1755 4.17404 54.6755 4.17404C55.3235 4.17404 55.8035 4.35404 56.1515 4.49804ZM57.362 1.48604H58.19V5.09804C58.586 4.57004 59.114 4.17404 59.882 4.17404C61.094 4.17404 61.814 5.06204 61.814 6.45404V9.67004H60.986V6.52604C60.986 5.61404 60.638 4.90604 59.69 4.90604C59.378 4.90604 58.694 5.00204 58.19 5.85404V9.67004H57.362V1.48604Z" fill="#ABA7A1"/>
<path d="M7.812 82.074V83.034C6.492 82.218 5.22 82.194 4.908 82.194C2.94 82.194 1.524 83.694 1.524 85.578C1.524 87.81 3.276 88.986 4.896 88.986C5.94 88.986 6.792 88.638 7.08 88.53V86.586H5.424V85.794H7.98V89.094C6.996 89.526 6.048 89.778 4.98 89.778C2.208 89.778 0.564 87.786 0.564 85.59C0.564 83.274 2.316 81.378 4.968 81.378C6.144 81.378 7.02 81.738 7.812 82.074ZM9.48703 84.282H10.315V85.47C10.459 85.242 10.771 84.774 11.215 84.474C11.323 84.402 11.671 84.174 12.031 84.174C12.547 84.174 13.111 84.642 13.315 84.81L12.871 85.53C12.691 85.374 12.295 85.026 11.827 85.026C11.347 85.026 10.759 85.458 10.507 86.046C10.315 86.478 10.315 87.066 10.315 87.342V89.67H9.48703V84.282ZM16.2023 84.174C17.7503 84.174 19.0103 85.422 19.0103 86.97C19.0103 88.518 17.7503 89.778 16.2023 89.778C14.6543 89.778 13.4063 88.518 13.4063 86.97C13.4063 85.422 14.6543 84.174 16.2023 84.174ZM16.2143 84.906C15.0863 84.906 14.2583 85.83 14.2583 86.97C14.2583 88.11 15.0863 89.046 16.2143 89.046C17.3423 89.046 18.1583 88.11 18.1583 86.97C18.1583 85.83 17.3423 84.906 16.2143 84.906ZM24.6474 89.67H23.8194V88.854C23.4234 89.382 22.8954 89.778 22.1274 89.778C20.9154 89.778 20.1954 88.89 20.1954 87.498V84.282H21.0234V87.426C21.0234 88.338 21.3714 89.046 22.3194 89.046C22.6314 89.046 23.3154 88.95 23.8194 88.098V84.282H24.6474V89.67ZM26.2097 84.282H28.1057C29.9897 84.282 31.0817 85.242 31.0817 86.97C31.0817 88.482 30.1337 89.778 28.4057 89.778C27.7457 89.778 27.2657 89.55 27.0377 89.454V92.322H26.2097V84.282ZM27.0377 85.014V88.698C27.2297 88.806 27.6617 89.046 28.2737 89.046C29.6057 89.046 30.2297 88.074 30.2297 86.994C30.2297 85.698 29.3657 85.014 28.0937 85.014H27.0377ZM35.41 84.63V85.458C34.882 85.134 34.414 84.906 33.886 84.906C33.334 84.906 32.974 85.23 32.974 85.602C32.974 86.034 33.346 86.214 34.63 86.886C34.918 87.042 35.614 87.426 35.614 88.266C35.614 88.806 35.182 89.778 33.838 89.778C33.202 89.778 32.674 89.586 32.11 89.286V88.434C32.998 88.974 33.562 89.046 33.85 89.046C34.27 89.046 34.762 88.782 34.762 88.326C34.762 87.81 34.27 87.558 33.562 87.222C32.902 86.91 32.146 86.526 32.146 85.626C32.146 84.966 32.686 84.174 33.874 84.174C34.618 84.174 35.134 84.474 35.41 84.63ZM44.206 88.722V89.286C43.534 89.766 43.282 89.778 43.138 89.778C42.694 89.778 42.598 89.418 42.55 89.166C41.878 89.67 41.458 89.778 40.978 89.778C40.222 89.778 39.586 89.202 39.586 88.41C39.586 87.534 40.306 86.826 42.538 86.43V85.95C42.538 85.602 42.478 84.906 41.47 84.906C40.762 84.906 40.258 85.266 39.79 85.698V84.834C40.054 84.606 40.666 84.174 41.542 84.174C43.078 84.174 43.366 85.254 43.366 85.866V88.818C43.366 89.046 43.39 89.106 43.51 89.106C43.618 89.106 43.882 88.986 44.206 88.722ZM42.538 88.602V86.97C41.158 87.222 40.414 87.678 40.414 88.35C40.414 88.998 41.014 89.178 41.326 89.178C41.902 89.178 42.334 88.794 42.538 88.602ZM45.1238 84.282H45.9518V85.098C46.3478 84.57 46.8758 84.174 47.6438 84.174C48.8558 84.174 49.5758 85.062 49.5758 86.454V89.67H48.7478V86.526C48.7478 85.614 48.3998 84.906 47.4518 84.906C47.1398 84.906 46.4558 85.002 45.9518 85.854V89.67H45.1238V84.282ZM55.626 89.67H53.73C51.846 89.67 50.754 88.71 50.754 86.982C50.754 85.47 51.702 84.174 53.43 84.174C54.09 84.174 54.57 84.402 54.798 84.498V81.486H55.626V89.67ZM54.798 88.938V85.254C54.606 85.146 54.174 84.906 53.562 84.906C52.23 84.906 51.606 85.878 51.606 86.958C51.606 88.254 52.47 88.938 53.742 88.938H54.798ZM61.2623 81.486V88.878H65.1263V89.67H60.3623V81.486H61.2623ZM70.3154 88.722V89.286C69.6434 89.766 69.3914 89.778 69.2474 89.778C68.8034 89.778 68.7074 89.418 68.6594 89.166C67.9874 89.67 67.5674 89.778 67.0874 89.778C66.3314 89.778 65.6954 89.202 65.6954 88.41C65.6954 87.534 66.4154 86.826 68.6474 86.43V85.95C68.6474 85.602 68.5874 84.906 67.5794 84.906C66.8714 84.906 66.3674 85.266 65.8994 85.698V84.834C66.1634 84.606 66.7754 84.174 67.6514 84.174C69.1874 84.174 69.4754 85.254 69.4754 85.866V88.818C69.4754 89.046 69.4994 89.106 69.6194 89.106C69.7274 89.106 69.9914 88.986 70.3154 88.722ZM68.6474 88.602V86.97C67.2674 87.222 66.5234 87.678 66.5234 88.35C66.5234 88.998 67.1234 89.178 67.4354 89.178C68.0114 89.178 68.4434 88.794 68.6474 88.602ZM71.2331 89.37V81.486H72.0611V84.858C72.3251 84.654 72.8771 84.174 73.7651 84.174C75.2771 84.174 76.1291 85.47 76.1291 86.85C76.1291 88.614 75.0131 89.778 73.2251 89.778C72.5411 89.778 71.8571 89.634 71.2331 89.37ZM72.0611 85.698V88.83C72.6731 89.046 73.1891 89.046 73.2971 89.046C74.4251 89.046 75.2771 88.146 75.2771 86.922C75.2771 85.77 74.5331 84.906 73.5971 84.906C73.2011 84.906 72.6011 85.11 72.0611 85.698ZM80.4569 84.63V85.458C79.9289 85.134 79.4609 84.906 78.9329 84.906C78.3809 84.906 78.0209 85.23 78.0209 85.602C78.0209 86.034 78.3929 86.214 79.6769 86.886C79.9649 87.042 80.6609 87.426 80.6609 88.266C80.6609 88.806 80.2289 89.778 78.8849 89.778C78.2489 89.778 77.7209 89.586 77.1569 89.286V88.434C78.0449 88.974 78.6089 89.046 78.8969 89.046C79.3169 89.046 79.8089 88.782 79.8089 88.326C79.8089 87.81 79.3169 87.558 78.6089 87.222C77.9489 86.91 77.1929 86.526 77.1929 85.626C77.1929 84.966 77.7329 84.174 78.9209 84.174C79.6649 84.174 80.1809 84.474 80.4569 84.63Z" fill="#ABA7A1"/>
<path d="M25 241.836H27.34C29.392 241.836 30.04 242.964 30.04 244.08C30.04 245.196 29.392 246.324 27.34 246.324H25.9V250.02H25V241.836ZM27.244 242.628H25.9V245.532H27.244C28.888 245.532 29.08 244.668 29.08 244.08C29.08 243.492 28.888 242.628 27.244 242.628ZM35.3515 250.02H34.5235V249.204C34.1275 249.732 33.5995 250.128 32.8315 250.128C31.6195 250.128 30.8995 249.24 30.8995 247.848V244.632H31.7275V247.776C31.7275 248.688 32.0755 249.396 33.0235 249.396C33.3355 249.396 34.0195 249.3 34.5235 248.448V244.632H35.3515V250.02ZM36.9138 249.72V241.836H37.7418V245.208C38.0058 245.004 38.5578 244.524 39.4458 244.524C40.9578 244.524 41.8098 245.82 41.8098 247.2C41.8098 248.964 40.6938 250.128 38.9058 250.128C38.2218 250.128 37.5378 249.984 36.9138 249.72ZM37.7418 246.048V249.18C38.3538 249.396 38.8698 249.396 38.9778 249.396C40.1058 249.396 40.9578 248.496 40.9578 247.272C40.9578 246.12 40.2138 245.256 39.2778 245.256C38.8818 245.256 38.2818 245.46 37.7418 246.048ZM43.9176 241.836V250.02H43.0896V241.836H43.9176ZM46.3082 244.632V250.02H45.4802V244.632H46.3082ZM45.9002 242.436C46.2002 242.436 46.4402 242.676 46.4402 242.976C46.4402 243.276 46.2002 243.516 45.9002 243.516C45.6002 243.516 45.3602 243.276 45.3602 242.976C45.3602 242.676 45.6002 242.436 45.9002 242.436ZM51.7228 244.848V245.736C51.4108 245.556 50.9308 245.292 50.2468 245.292C48.8188 245.292 48.4468 246.648 48.4468 247.344C48.4468 248.244 48.9388 249.36 50.3908 249.36C51.0508 249.36 51.5908 249.12 51.8308 249.012V249.828C51.5788 249.924 51.0148 250.128 50.3068 250.128C48.5548 250.128 47.5948 248.928 47.5948 247.368C47.5948 245.604 48.7468 244.524 50.2468 244.524C50.8948 244.524 51.3748 244.704 51.7228 244.848ZM57.3594 249.072V249.636C56.6874 250.116 56.4354 250.128 56.2914 250.128C55.8474 250.128 55.7514 249.768 55.7034 249.516C55.0314 250.02 54.6114 250.128 54.1314 250.128C53.3754 250.128 52.7394 249.552 52.7394 248.76C52.7394 247.884 53.4594 247.176 55.6914 246.78V246.3C55.6914 245.952 55.6314 245.256 54.6234 245.256C53.9154 245.256 53.4114 245.616 52.9434 246.048V245.184C53.2074 244.956 53.8194 244.524 54.6954 244.524C56.2314 244.524 56.5194 245.604 56.5194 246.216V249.168C56.5194 249.396 56.5434 249.456 56.6634 249.456C56.7714 249.456 57.0354 249.336 57.3594 249.072ZM55.6914 248.952V247.32C54.3114 247.572 53.5674 248.028 53.5674 248.7C53.5674 249.348 54.1674 249.528 54.4794 249.528C55.0554 249.528 55.4874 249.144 55.6914 248.952ZM57.6171 245.364V245.232L59.3691 243.372V244.632H60.9891V245.364H59.3691V248.184C59.3691 248.88 59.4171 249.36 60.1731 249.36C60.5931 249.36 60.8571 249.228 61.2651 249.036V249.816C61.0371 249.924 60.5931 250.128 60.0051 250.128C58.9251 250.128 58.5411 249.384 58.5411 248.52V245.364H57.6171ZM62.8668 244.632V250.02H62.0388V244.632H62.8668ZM62.4588 242.436C62.7588 242.436 62.9988 242.676 62.9988 242.976C62.9988 243.276 62.7588 243.516 62.4588 243.516C62.1588 243.516 61.9188 243.276 61.9188 242.976C61.9188 242.676 62.1588 242.436 62.4588 242.436ZM66.9494 244.524C68.4974 244.524 69.7574 245.772 69.7574 247.32C69.7574 248.868 68.4974 250.128 66.9494 250.128C65.4014 250.128 64.1534 248.868 64.1534 247.32C64.1534 245.772 65.4014 244.524 66.9494 244.524ZM66.9614 245.256C65.8334 245.256 65.0054 246.18 65.0054 247.32C65.0054 248.46 65.8334 249.396 66.9614 249.396C68.0894 249.396 68.9054 248.46 68.9054 247.32C68.9054 246.18 68.0894 245.256 66.9614 245.256ZM71.0505 244.632H71.8785V245.448C72.2745 244.92 72.8025 244.524 73.5705 244.524C74.7825 244.524 75.5025 245.412 75.5025 246.804V250.02H74.6745V246.876C74.6745 245.964 74.3265 245.256 73.3785 245.256C73.0665 245.256 72.3825 245.352 71.8785 246.204V250.02H71.0505V244.632ZM80.0048 244.98V245.808C79.4768 245.484 79.0088 245.256 78.4808 245.256C77.9288 245.256 77.5688 245.58 77.5688 245.952C77.5688 246.384 77.9408 246.564 79.2248 247.236C79.5128 247.392 80.2088 247.776 80.2088 248.616C80.2088 249.156 79.7768 250.128 78.4328 250.128C77.7968 250.128 77.2688 249.936 76.7048 249.636V248.784C77.5928 249.324 78.1568 249.396 78.4448 249.396C78.8648 249.396 79.3568 249.132 79.3568 248.676C79.3568 248.16 78.8648 247.908 78.1568 247.572C77.4968 247.26 76.7408 246.876 76.7408 245.976C76.7408 245.316 77.2808 244.524 78.4688 244.524C79.2128 244.524 79.7288 244.824 80.0048 244.98Z" fill="#ABA7A1"/>
<path d="M37.956 155.266H40.008C40.392 155.266 40.896 155.302 41.412 155.53C42.288 155.902 42.696 156.718 42.696 157.546C42.696 158.494 42.216 159.214 41.328 159.562C42.072 160.054 42.528 160.81 43.152 161.818C43.5 162.382 43.704 162.658 44.268 163.45H42.876C42.6 163.054 41.46 161.266 41.196 160.918C40.392 159.886 39.996 159.886 39.432 159.886H39.12V163.45H37.956V155.266ZM39.48 156.262H39.12V158.842H39.576C39.756 158.842 40.392 158.842 40.716 158.722C41.268 158.506 41.496 157.99 41.496 157.546C41.496 157.078 41.256 156.634 40.872 156.454C40.572 156.31 40.188 156.262 39.48 156.262ZM49.0963 161.878V162.922C48.7243 163.162 48.1123 163.558 46.9843 163.558C46.4203 163.558 45.7723 163.474 45.1243 162.802C44.4163 162.07 44.3203 161.242 44.3203 160.726C44.3203 159.046 45.3763 157.954 46.8403 157.954C48.1003 157.954 48.9523 158.854 49.1323 160.042C49.1923 160.402 49.1923 160.642 49.1923 160.846H45.4003C45.4363 161.65 45.9643 162.538 47.1403 162.538C47.8363 162.538 48.5203 162.298 49.0963 161.878ZM45.4243 160.21H48.1363C48.1243 159.994 48.0403 158.878 46.8283 158.878C46.4923 158.878 46.0843 159.01 45.7963 159.334C45.5083 159.646 45.4603 159.97 45.4243 160.21ZM53.4585 158.398V159.454C52.8585 159.082 52.4025 158.878 51.8985 158.878C51.3945 158.878 51.2145 159.154 51.2145 159.358C51.2145 159.706 51.5865 159.898 52.3785 160.342C53.1465 160.762 53.7225 161.314 53.7225 162.034C53.7225 162.538 53.3385 163.558 51.8745 163.558C51.1185 163.558 50.6145 163.33 50.0745 163.066V161.914C50.8425 162.442 51.5025 162.622 51.7905 162.622C52.1265 162.622 52.6065 162.43 52.6065 162.07C52.6065 161.686 52.2825 161.506 51.7785 161.23C50.8905 160.738 50.1105 160.258 50.1105 159.358C50.1105 158.566 50.7945 157.954 51.8265 157.954C52.6305 157.954 53.2065 158.266 53.4585 158.398ZM59.4557 161.878V162.922C59.0837 163.162 58.4717 163.558 57.3437 163.558C56.7797 163.558 56.1317 163.474 55.4837 162.802C54.7757 162.07 54.6797 161.242 54.6797 160.726C54.6797 159.046 55.7357 157.954 57.1997 157.954C58.4597 157.954 59.3117 158.854 59.4917 160.042C59.5517 160.402 59.5517 160.642 59.5517 160.846H55.7597C55.7957 161.65 56.3237 162.538 57.4997 162.538C58.1957 162.538 58.8797 162.298 59.4557 161.878ZM55.7837 160.21H58.4957C58.4837 159.994 58.3997 158.878 57.1877 158.878C56.8517 158.878 56.4437 159.01 56.1557 159.334C55.8677 159.646 55.8197 159.97 55.7837 160.21ZM64.9219 162.49V163.138C64.4299 163.462 64.2259 163.558 63.8899 163.558C63.4219 163.558 63.1699 163.39 63.0739 163.006C62.6059 163.378 62.1139 163.558 61.6219 163.558C60.8299 163.558 60.3019 162.934 60.3019 162.238C60.3019 161.17 61.2739 160.846 62.1379 160.534L63.0859 160.198V159.91C63.0859 159.238 62.7619 158.962 62.1139 158.962C61.5259 158.962 60.9259 159.238 60.4099 159.85V158.686C60.8299 158.194 61.4179 157.954 62.1979 157.954C63.2899 157.954 64.1539 158.506 64.1539 159.73V162.502C64.1539 162.706 64.2259 162.778 64.3579 162.778C64.4659 162.778 64.6819 162.67 64.9219 162.49ZM63.0859 162.358V160.786C62.1739 161.098 61.3819 161.41 61.3819 162.046C61.3819 162.49 61.7059 162.802 62.1499 162.802C62.4859 162.802 62.7979 162.634 63.0859 162.358ZM65.771 158.062H66.839V159.298C67.187 158.758 67.691 157.954 68.447 157.954C68.603 157.954 69.083 157.966 69.707 158.566L69.143 159.502C69.011 159.37 68.531 158.974 68.111 158.974C67.715 158.974 66.839 159.406 66.839 160.63V163.45H65.771V158.062ZM74.0672 158.326V159.466C73.7672 159.274 73.2632 158.95 72.5672 158.95C71.4512 158.95 70.9232 159.898 70.9232 160.75C70.9232 161.65 71.4512 162.55 72.7712 162.55C73.3352 162.55 73.7912 162.37 74.1872 162.19V163.246C73.9472 163.33 73.3832 163.558 72.6152 163.558C70.7552 163.558 69.8432 162.262 69.8432 160.786C69.8432 159.478 70.5872 157.954 72.5072 157.954C73.2032 157.954 73.6472 158.146 74.0672 158.326ZM76.4255 155.266V158.77C76.8455 158.266 77.4455 157.954 78.0815 157.954C78.8855 157.954 79.4615 158.434 79.6895 158.974C79.8335 159.334 79.8935 159.85 79.8935 160.378V163.45H78.8255V160.114C78.8255 159.682 78.7175 159.43 78.6335 159.286C78.4415 158.974 78.1055 158.794 77.7815 158.794C77.2655 158.794 76.8935 159.058 76.4255 159.586V163.45H75.3575V155.266H76.4255Z" fill="#223072"/>
<path d="M42.0202 168.266H44.1322C45.1042 168.266 45.8602 168.266 46.5442 168.962C46.9042 169.322 47.1802 169.838 47.1802 170.582C47.1802 170.99 47.1082 171.65 46.4962 172.238C45.9802 172.73 45.3322 172.898 44.0602 172.898H43.1962V176.45H42.0202V168.266ZM44.0842 169.298H43.1962V171.854H44.1322C44.6002 171.854 45.0802 171.854 45.4282 171.638C45.7522 171.446 45.9682 171.074 45.9682 170.558C45.9682 170.27 45.8962 169.91 45.6082 169.646C45.2482 169.298 44.9242 169.298 44.0842 169.298ZM48.0054 171.062H49.0734V172.298C49.4214 171.758 49.9254 170.954 50.6814 170.954C50.8374 170.954 51.3174 170.966 51.9414 171.566L51.3774 172.502C51.2454 172.37 50.7654 171.974 50.3454 171.974C49.9494 171.974 49.0734 172.406 49.0734 173.63V176.45H48.0054V171.062ZM54.9576 170.954C56.5656 170.954 57.8136 172.07 57.8136 173.774C57.8136 175.694 56.2536 176.558 54.9216 176.558C53.1936 176.558 52.0536 175.286 52.0536 173.75C52.0536 172.238 53.1576 170.954 54.9576 170.954ZM54.8976 171.914C53.9376 171.914 53.1456 172.574 53.1456 173.762C53.1456 175.118 54.1536 175.598 54.9456 175.598C56.0016 175.598 56.7216 174.842 56.7216 173.75C56.7216 172.394 55.6656 171.914 54.8976 171.914ZM59.4907 168.794C59.7787 168.794 60.1267 169.01 60.1267 169.418C60.1267 169.742 59.8987 170.054 59.5027 170.054C59.0827 170.054 58.8667 169.67 58.8667 169.418C58.8667 169.118 59.1307 168.794 59.4907 168.794ZM60.0547 171.062V176.774C60.0547 177.722 60.0547 178.622 58.9747 179.21L58.1707 178.43C58.5547 178.298 58.7347 178.022 58.8067 177.926C58.9867 177.626 58.9747 177.41 58.9747 176.714V171.062H60.0547ZM66.1237 174.878V175.922C65.7517 176.162 65.1397 176.558 64.0117 176.558C63.4477 176.558 62.7997 176.474 62.1517 175.802C61.4437 175.07 61.3477 174.242 61.3477 173.726C61.3477 172.046 62.4037 170.954 63.8677 170.954C65.1277 170.954 65.9797 171.854 66.1597 173.042C66.2197 173.402 66.2197 173.642 66.2197 173.846H62.4277C62.4637 174.65 62.9917 175.538 64.1677 175.538C64.8637 175.538 65.5477 175.298 66.1237 174.878ZM62.4517 173.21H65.1637C65.1517 172.994 65.0677 171.878 63.8557 171.878C63.5197 171.878 63.1117 172.01 62.8237 172.334C62.5357 172.646 62.4877 172.97 62.4517 173.21ZM71.2899 171.326V172.466C70.9899 172.274 70.4859 171.95 69.7899 171.95C68.6739 171.95 68.1459 172.898 68.1459 173.75C68.1459 174.65 68.6739 175.55 69.9939 175.55C70.5579 175.55 71.0139 175.37 71.4099 175.19V176.246C71.1699 176.33 70.6059 176.558 69.8379 176.558C67.9779 176.558 67.0659 175.262 67.0659 173.786C67.0659 172.478 67.8099 170.954 69.7299 170.954C70.4259 170.954 70.8699 171.146 71.2899 171.326ZM73.8521 169.946V171.062H75.5561V172.022H73.8521V174.374C73.8641 175.046 73.8761 175.166 74.0441 175.358C74.2481 175.574 74.5121 175.586 74.6201 175.586C74.8361 175.586 75.2441 175.562 75.8321 175.202V176.198C75.3281 176.474 74.7641 176.558 74.4521 176.558C74.0801 176.558 73.4201 176.402 73.0481 175.874C72.7841 175.478 72.7841 174.902 72.7841 174.41V172.022H71.8481V171.914L73.8521 169.946ZM79.8843 171.398V172.454C79.2843 172.082 78.8283 171.878 78.3243 171.878C77.8203 171.878 77.6403 172.154 77.6403 172.358C77.6403 172.706 78.0123 172.898 78.8043 173.342C79.5723 173.762 80.1483 174.314 80.1483 175.034C80.1483 175.538 79.7643 176.558 78.3003 176.558C77.5443 176.558 77.0403 176.33 76.5003 176.066V174.914C77.2683 175.442 77.9283 175.622 78.2163 175.622C78.5523 175.622 79.0323 175.43 79.0323 175.07C79.0323 174.686 78.7083 174.506 78.2043 174.23C77.3163 173.738 76.5363 173.258 76.5363 172.358C76.5363 171.566 77.2203 170.954 78.2523 170.954C79.0563 170.954 79.6323 171.266 79.8843 171.398Z" fill="#223072"/>
<path d="M14.5098 315.256H16.5618C17.7738 315.256 19.1658 315.724 19.1658 317.38C19.1658 318.556 18.2778 319.012 17.9538 319.144C19.5378 319.444 19.8858 320.548 19.8858 321.244C19.8858 322.18 19.1658 323.44 17.4738 323.44H14.5098V315.256ZM16.2978 316.048H15.4098V318.904H16.2978C17.6658 318.904 18.2058 318.34 18.2058 317.452C18.2058 316.444 17.6178 316.048 16.2978 316.048ZM16.8378 319.696H15.4098V322.648H16.8618C18.6258 322.648 18.9258 321.868 18.9258 321.172C18.9258 320.488 18.4698 319.696 16.8378 319.696ZM25.5229 320.608V320.8H21.5269C21.5269 322.096 22.4269 322.816 23.4589 322.816C24.5149 322.816 25.1749 322.276 25.4389 322.06V322.9C25.1029 323.128 24.5029 323.548 23.3629 323.548C21.5629 323.548 20.6749 322.18 20.6749 320.728C20.6749 318.856 21.9229 317.944 23.1469 317.944C24.4789 317.944 25.5229 319.036 25.5229 320.608ZM21.5749 320.2H24.6709C24.5509 319.036 23.7589 318.676 23.1709 318.676C22.4989 318.676 21.7789 319.108 21.5749 320.2ZM34.0722 322.492V323.056C33.4002 323.536 33.1482 323.548 33.0042 323.548C32.5602 323.548 32.4642 323.188 32.4162 322.936C31.7442 323.44 31.3242 323.548 30.8442 323.548C30.0882 323.548 29.4522 322.972 29.4522 322.18C29.4522 321.304 30.1722 320.596 32.4042 320.2V319.72C32.4042 319.372 32.3442 318.676 31.3362 318.676C30.6282 318.676 30.1242 319.036 29.6562 319.468V318.604C29.9202 318.376 30.5322 317.944 31.4082 317.944C32.9442 317.944 33.2322 319.024 33.2322 319.636V322.588C33.2322 322.816 33.2562 322.876 33.3762 322.876C33.4842 322.876 33.7482 322.756 34.0722 322.492ZM32.4042 322.372V320.74C31.0242 320.992 30.2802 321.448 30.2802 322.12C30.2802 322.768 30.8802 322.948 31.1922 322.948C31.7682 322.948 32.2002 322.564 32.4042 322.372ZM38.17 315.256H40.258C42.382 315.256 42.958 316.468 42.958 317.452C42.958 318.568 42.274 319.168 41.494 319.456C42.082 319.84 42.49 320.476 43.498 322.06C43.846 322.612 44.026 322.864 44.434 323.44H43.354L42.574 322.204C42.25 321.688 41.89 321.172 41.518 320.692C40.99 320.02 40.534 319.696 39.658 319.696H39.07V323.44H38.17V315.256ZM40.126 316.048H39.07V318.904H40.126C41.29 318.904 41.998 318.4 41.998 317.464C41.998 316.612 41.374 316.048 40.126 316.048ZM49.5698 320.608V320.8H45.5738C45.5738 322.096 46.4738 322.816 47.5058 322.816C48.5618 322.816 49.2218 322.276 49.4858 322.06V322.9C49.1498 323.128 48.5498 323.548 47.4098 323.548C45.6098 323.548 44.7218 322.18 44.7218 320.728C44.7218 318.856 45.9698 317.944 47.1938 317.944C48.5258 317.944 49.5698 319.036 49.5698 320.608ZM45.6218 320.2H48.7178C48.5978 319.036 47.8058 318.676 47.2178 318.676C46.5458 318.676 45.8258 319.108 45.6218 320.2ZM53.8231 318.4V319.228C53.2951 318.904 52.8271 318.676 52.2991 318.676C51.7471 318.676 51.3871 319 51.3871 319.372C51.3871 319.804 51.7591 319.984 53.0431 320.656C53.3311 320.812 54.0271 321.196 54.0271 322.036C54.0271 322.576 53.5951 323.548 52.2511 323.548C51.6151 323.548 51.0871 323.356 50.5231 323.056V322.204C51.4111 322.744 51.9751 322.816 52.2631 322.816C52.6831 322.816 53.1751 322.552 53.1751 322.096C53.1751 321.58 52.6831 321.328 51.9751 320.992C51.3151 320.68 50.5591 320.296 50.5591 319.396C50.5591 318.736 51.0991 317.944 52.2871 317.944C53.0311 317.944 53.5471 318.244 53.8231 318.4ZM59.8471 320.608V320.8H55.8511C55.8511 322.096 56.7511 322.816 57.7831 322.816C58.8391 322.816 59.4991 322.276 59.7631 322.06V322.9C59.4271 323.128 58.8271 323.548 57.6871 323.548C55.8871 323.548 54.9991 322.18 54.9991 320.728C54.9991 318.856 56.2471 317.944 57.4711 317.944C58.8031 317.944 59.8471 319.036 59.8471 320.608ZM55.8991 320.2H58.9951C58.8751 319.036 58.0831 318.676 57.4951 318.676C56.8231 318.676 56.1031 319.108 55.8991 320.2ZM65.3965 322.492V323.056C64.7245 323.536 64.4725 323.548 64.3285 323.548C63.8845 323.548 63.7885 323.188 63.7405 322.936C63.0685 323.44 62.6485 323.548 62.1685 323.548C61.4125 323.548 60.7765 322.972 60.7765 322.18C60.7765 321.304 61.4965 320.596 63.7285 320.2V319.72C63.7285 319.372 63.6685 318.676 62.6605 318.676C61.9525 318.676 61.4485 319.036 60.9805 319.468V318.604C61.2445 318.376 61.8565 317.944 62.7325 317.944C64.2685 317.944 64.5565 319.024 64.5565 319.636V322.588C64.5565 322.816 64.5805 322.876 64.7005 322.876C64.8085 322.876 65.0725 322.756 65.3965 322.492ZM63.7285 322.372V320.74C62.3485 320.992 61.6045 321.448 61.6045 322.12C61.6045 322.768 62.2045 322.948 62.5165 322.948C63.0925 322.948 63.5245 322.564 63.7285 322.372ZM66.3142 318.052H67.1422V319.24C67.2862 319.012 67.5982 318.544 68.0422 318.244C68.1502 318.172 68.4982 317.944 68.8582 317.944C69.3742 317.944 69.9382 318.412 70.1422 318.58L69.6982 319.3C69.5182 319.144 69.1222 318.796 68.6542 318.796C68.1742 318.796 67.5862 319.228 67.3342 319.816C67.1422 320.248 67.1422 320.836 67.1422 321.112V323.44H66.3142V318.052ZM74.3615 318.268V319.156C74.0495 318.976 73.5695 318.712 72.8855 318.712C71.4575 318.712 71.0855 320.068 71.0855 320.764C71.0855 321.664 71.5775 322.78 73.0295 322.78C73.6895 322.78 74.2295 322.54 74.4695 322.432V323.248C74.2175 323.344 73.6535 323.548 72.9455 323.548C71.1935 323.548 70.2335 322.348 70.2335 320.788C70.2335 319.024 71.3855 317.944 72.8855 317.944C73.5335 317.944 74.0135 318.124 74.3615 318.268ZM75.572 315.256H76.4V318.868C76.796 318.34 77.324 317.944 78.092 317.944C79.304 317.944 80.024 318.832 80.024 320.224V323.44H79.196V320.296C79.196 319.384 78.848 318.676 77.9 318.676C77.588 318.676 76.904 318.772 76.4 319.624V323.44H75.572V315.256Z" fill="#ABA7A1"/>
<path d="M31.3296 328.256H33.6696C35.7216 328.256 36.3696 329.384 36.3696 330.5C36.3696 331.616 35.7216 332.744 33.6696 332.744H32.2296V336.44H31.3296V328.256ZM33.5736 329.048H32.2296V331.952H33.5736C35.2176 331.952 35.4096 331.088 35.4096 330.5C35.4096 329.912 35.2176 329.048 33.5736 329.048ZM41.3296 335.492V336.056C40.6576 336.536 40.4056 336.548 40.2616 336.548C39.8176 336.548 39.7216 336.188 39.6736 335.936C39.0016 336.44 38.5816 336.548 38.1016 336.548C37.3456 336.548 36.7096 335.972 36.7096 335.18C36.7096 334.304 37.4296 333.596 39.6616 333.2V332.72C39.6616 332.372 39.6016 331.676 38.5936 331.676C37.8856 331.676 37.3816 332.036 36.9136 332.468V331.604C37.1776 331.376 37.7896 330.944 38.6656 330.944C40.2016 330.944 40.4896 332.024 40.4896 332.636V335.588C40.4896 335.816 40.5136 335.876 40.6336 335.876C40.7416 335.876 41.0056 335.756 41.3296 335.492ZM39.6616 335.372V333.74C38.2816 333.992 37.5376 334.448 37.5376 335.12C37.5376 335.768 38.1376 335.948 38.4496 335.948C39.0256 335.948 39.4576 335.564 39.6616 335.372ZM42.2473 331.052H43.0753V332.24C43.2193 332.012 43.5313 331.544 43.9753 331.244C44.0833 331.172 44.4313 330.944 44.7913 330.944C45.3073 330.944 45.8713 331.412 46.0753 331.58L45.6313 332.3C45.4513 332.144 45.0553 331.796 44.5873 331.796C44.1073 331.796 43.5193 332.228 43.2673 332.816C43.0753 333.248 43.0753 333.836 43.0753 334.112V336.44H42.2473V331.052ZM46.1107 331.784V331.652L47.8627 329.792V331.052H49.4827V331.784H47.8627V334.604C47.8627 335.3 47.9107 335.78 48.6667 335.78C49.0867 335.78 49.3507 335.648 49.7587 335.456V336.236C49.5307 336.344 49.0867 336.548 48.4987 336.548C47.4187 336.548 47.0347 335.804 47.0347 334.94V331.784H46.1107ZM51.3604 331.052V336.44H50.5324V331.052H51.3604ZM50.9524 328.856C51.2524 328.856 51.4924 329.096 51.4924 329.396C51.4924 329.696 51.2524 329.936 50.9524 329.936C50.6524 329.936 50.4124 329.696 50.4124 329.396C50.4124 329.096 50.6524 328.856 50.9524 328.856ZM56.7751 331.268V332.156C56.4631 331.976 55.9831 331.712 55.2991 331.712C53.8711 331.712 53.4991 333.068 53.4991 333.764C53.4991 334.664 53.9911 335.78 55.4431 335.78C56.1031 335.78 56.6431 335.54 56.8831 335.432V336.248C56.6311 336.344 56.0671 336.548 55.3591 336.548C53.6071 336.548 52.6471 335.348 52.6471 333.788C52.6471 332.024 53.7991 330.944 55.2991 330.944C55.9471 330.944 56.4271 331.124 56.7751 331.268ZM58.8136 331.052V336.44H57.9856V331.052H58.8136ZM58.4056 328.856C58.7056 328.856 58.9456 329.096 58.9456 329.396C58.9456 329.696 58.7056 329.936 58.4056 329.936C58.1056 329.936 57.8656 329.696 57.8656 329.396C57.8656 329.096 58.1056 328.856 58.4056 328.856ZM60.3762 331.052H62.2722C64.1562 331.052 65.2482 332.012 65.2482 333.74C65.2482 335.252 64.3002 336.548 62.5722 336.548C61.9122 336.548 61.4322 336.32 61.2042 336.224V339.092H60.3762V331.052ZM61.2042 331.784V335.468C61.3962 335.576 61.8282 335.816 62.4402 335.816C63.7722 335.816 64.3962 334.844 64.3962 333.764C64.3962 332.468 63.5322 331.784 62.2602 331.784H61.2042ZM70.8725 335.492V336.056C70.2005 336.536 69.9485 336.548 69.8045 336.548C69.3605 336.548 69.2645 336.188 69.2165 335.936C68.5445 336.44 68.1245 336.548 67.6445 336.548C66.8885 336.548 66.2525 335.972 66.2525 335.18C66.2525 334.304 66.9725 333.596 69.2045 333.2V332.72C69.2045 332.372 69.1445 331.676 68.1365 331.676C67.4285 331.676 66.9245 332.036 66.4565 332.468V331.604C66.7205 331.376 67.3325 330.944 68.2085 330.944C69.7445 330.944 70.0325 332.024 70.0325 332.636V335.588C70.0325 335.816 70.0565 335.876 70.1765 335.876C70.2845 335.876 70.5485 335.756 70.8725 335.492ZM69.2045 335.372V333.74C67.8245 333.992 67.0805 334.448 67.0805 335.12C67.0805 335.768 67.6805 335.948 67.9925 335.948C68.5685 335.948 69.0005 335.564 69.2045 335.372ZM71.7903 331.052H72.6183V331.868C73.0143 331.34 73.5423 330.944 74.3103 330.944C75.5223 330.944 76.2423 331.832 76.2423 333.224V336.44H75.4143V333.296C75.4143 332.384 75.0663 331.676 74.1183 331.676C73.8063 331.676 73.1223 331.772 72.6183 332.624V336.44H71.7903V331.052ZM77.0365 331.784V331.652L78.7885 329.792V331.052H80.4085V331.784H78.7885V334.604C78.7885 335.3 78.8365 335.78 79.5925 335.78C80.0125 335.78 80.2765 335.648 80.6845 335.456V336.236C80.4565 336.344 80.0125 336.548 79.4245 336.548C78.3445 336.548 77.9605 335.804 77.9605 334.94V331.784H77.0365Z" fill="#ABA7A1"/>
<path d="M98.3496 364.44V328.94V248.94V204.44V9.43994" stroke="#223072" stroke-miterlimit="10"/>
<path d="M98.3496 175.44C101.939 175.44 104.85 172.53 104.85 168.94C104.85 165.35 101.939 162.44 98.3496 162.44C94.7598 162.44 91.8496 165.35 91.8496 168.94C91.8496 172.53 94.7598 175.44 98.3496 175.44Z" fill="#223072"/>
<path d="M98.3496 255.44C101.939 255.44 104.85 252.53 104.85 248.94C104.85 245.35 101.939 242.44 98.3496 242.44C94.7598 242.44 91.8496 245.35 91.8496 248.94C91.8496 252.53 94.7598 255.44 98.3496 255.44Z" fill="#F5EFE7" stroke="#ABA7A1" stroke-miterlimit="10"/>
<path d="M98.3496 335.44C101.939 335.44 104.85 332.53 104.85 328.94C104.85 325.35 101.939 322.44 98.3496 322.44C94.7598 322.44 91.8496 325.35 91.8496 328.94C91.8496 332.53 94.7598 335.44 98.3496 335.44Z" fill="#F5EFE7" stroke="#ABA7A1" stroke-miterlimit="10"/>
<path d="M98.3496 95.4399C101.939 95.4399 104.85 92.5298 104.85 88.9399C104.85 85.3501 101.939 82.4399 98.3496 82.4399C94.7598 82.4399 91.8496 85.3501 91.8496 88.9399C91.8496 92.5298 94.7598 95.4399 98.3496 95.4399Z" fill="#F5EFE7" stroke="#ABA7A1" stroke-miterlimit="10"/>
<path d="M98.3496 14C101.939 14 104.85 11.0899 104.85 7.5C104.85 3.91015 101.939 1 98.3496 1C94.7598 1 91.8496 3.91015 91.8496 7.5C91.8496 11.0899 94.7598 14 98.3496 14Z" fill="#F5EFE7" stroke="#ABA7A1" stroke-miterlimit="10"/>
</svg>
