<svg width="107" height="365" viewBox="0 0 107 365" fill="none" xmlns="http://www.w3.org/2000/svg">
<path d="M39.17 1.24605H41.258C43.382 1.24605 43.958 2.45805 43.958 3.44205C43.958 4.55805 43.274 5.15805 42.494 5.44605C43.082 5.83005 43.49 6.46605 44.498 8.05005C44.846 8.60205 45.026 8.85405 45.434 9.43005H44.354L43.574 8.19405C43.25 7.67805 42.89 7.16205 42.518 6.68205C41.99 6.01005 41.534 5.68605 40.658 5.68605H40.07V9.43005H39.17V1.24605ZM41.126 2.03805H40.07V4.89405H41.126C42.29 4.89405 42.998 4.39005 42.998 3.45405C42.998 2.60205 42.374 2.03805 41.126 2.03805ZM50.5698 6.59805V6.79005H46.5738C46.5738 8.08605 47.4738 8.80605 48.5058 8.80605C49.5618 8.80605 50.2218 8.26605 50.4858 8.05005V8.89005C50.1498 9.11805 49.5498 9.53805 48.4098 9.53805C46.6098 9.53805 45.7218 8.17005 45.7218 6.71805C45.7218 4.84605 46.9698 3.93405 48.1938 3.93405C49.5258 3.93405 50.5698 5.02605 50.5698 6.59805ZM46.6218 6.19005H49.7178C49.5978 5.02605 48.8058 4.66605 48.2178 4.66605C47.5458 4.66605 46.8258 5.09805 46.6218 6.19005ZM54.8231 4.39005V5.21805C54.2951 4.89405 53.8271 4.66605 53.2991 4.66605C52.7471 4.66605 52.3871 4.99005 52.3871 5.36205C52.3871 5.79405 52.7591 5.97405 54.0431 6.64605C54.3311 6.80205 55.0271 7.18605 55.0271 8.02605C55.0271 8.56605 54.5951 9.53805 53.2511 9.53805C52.6151 9.53805 52.0871 9.34605 51.5231 9.04605V8.19405C52.4111 8.73405 52.9751 8.80605 53.2631 8.80605C53.6831 8.80605 54.1751 8.54205 54.1751 8.08605C54.1751 7.57005 53.6831 7.31805 52.9751 6.98205C52.3151 6.67005 51.5591 6.28605 51.5591 5.38605C51.5591 4.72605 52.0991 3.93405 53.2871 3.93405C54.0311 3.93405 54.5471 4.23405 54.8231 4.39005ZM60.8471 6.59805V6.79005H56.8511C56.8511 8.08605 57.7511 8.80605 58.7831 8.80605C59.8391 8.80605 60.4991 8.26605 60.7631 8.05005V8.89005C60.4271 9.11805 59.8271 9.53805 58.6871 9.53805C56.8871 9.53805 55.9991 8.17005 55.9991 6.71805C55.9991 4.84605 57.2471 3.93405 58.4711 3.93405C59.8031 3.93405 60.8471 5.02605 60.8471 6.59805ZM56.8991 6.19005H59.9951C59.8751 5.02605 59.0831 4.66605 58.4951 4.66605C57.8231 4.66605 57.1031 5.09805 56.8991 6.19005ZM66.3965 8.48205V9.04605C65.7245 9.52605 65.4725 9.53805 65.3285 9.53805C64.8845 9.53805 64.7885 9.17805 64.7405 8.92605C64.0685 9.43005 63.6485 9.53805 63.1685 9.53805C62.4125 9.53805 61.7765 8.96205 61.7765 8.17005C61.7765 7.29405 62.4965 6.58605 64.7285 6.19005V5.71005C64.7285 5.36205 64.6685 4.66605 63.6605 4.66605C62.9525 4.66605 62.4485 5.02605 61.9805 5.45805V4.59405C62.2445 4.36605 62.8565 3.93405 63.7325 3.93405C65.2685 3.93405 65.5565 5.01405 65.5565 5.62605V8.57805C65.5565 8.80605 65.5805 8.86605 65.7005 8.86605C65.8085 8.86605 66.0725 8.74605 66.3965 8.48205ZM64.7285 8.36205V6.73005C63.3485 6.98205 62.6045 7.43805 62.6045 8.11005C62.6045 8.75805 63.2045 8.93805 63.5165 8.93805C64.0925 8.93805 64.5245 8.55405 64.7285 8.36205ZM67.3142 4.04205H68.1422V5.23005C68.2862 5.00205 68.5982 4.53405 69.0422 4.23405C69.1502 4.16205 69.4982 3.93405 69.8582 3.93405C70.3742 3.93405 70.9382 4.40205 71.1422 4.57005L70.6982 5.29005C70.5182 5.13405 70.1222 4.78605 69.6542 4.78605C69.1742 4.78605 68.5862 5.21805 68.3342 5.80605C68.1422 6.23805 68.1422 6.82605 68.1422 7.10205V9.43005H67.3142V4.04205ZM75.3615 4.25805V5.14605C75.0495 4.96605 74.5695 4.70205 73.8855 4.70205C72.4575 4.70205 72.0855 6.05805 72.0855 6.75405C72.0855 7.65405 72.5775 8.77005 74.0295 8.77005C74.6895 8.77005 75.2295 8.53005 75.4695 8.42205V9.23805C75.2175 9.33405 74.6535 9.53805 73.9455 9.53805C72.1935 9.53805 71.2335 8.33805 71.2335 6.77805C71.2335 5.01405 72.3855 3.93405 73.8855 3.93405C74.5335 3.93405 75.0135 4.11405 75.3615 4.25805ZM76.572 1.24605H77.4V4.85805C77.796 4.33005 78.324 3.93405 79.092 3.93405C80.304 3.93405 81.024 4.82205 81.024 6.21405V9.43005H80.196V6.28605C80.196 5.37405 79.848 4.66605 78.9 4.66605C78.588 4.66605 77.904 4.76205 77.4 5.61405V9.43005H76.572V1.24605Z" fill="#ABA7A1"/>
<path d="M8.3618 81.8341V82.7941C7.0418 81.9781 5.76981 81.9541 5.4578 81.9541C3.4898 81.9541 2.0738 83.4541 2.0738 85.3381C2.0738 87.5701 3.8258 88.7461 5.4458 88.7461C6.48981 88.7461 7.34181 88.3981 7.62981 88.2901V86.3461H5.9738V85.5541H8.5298V88.8541C7.5458 89.2861 6.5978 89.5381 5.5298 89.5381C2.7578 89.5381 1.1138 87.5461 1.1138 85.3501C1.1138 83.0341 2.8658 81.1381 5.51781 81.1381C6.6938 81.1381 7.56981 81.4981 8.3618 81.8341ZM10.0368 84.0421H10.8648V85.2301C11.0088 85.0021 11.3208 84.5341 11.7648 84.2341C11.8728 84.1621 12.2208 83.9341 12.5808 83.9341C13.0968 83.9341 13.6608 84.4021 13.8648 84.5701L13.4208 85.2901C13.2408 85.1341 12.8448 84.7861 12.3768 84.7861C11.8968 84.7861 11.3088 85.2181 11.0568 85.8061C10.8648 86.2381 10.8648 86.8261 10.8648 87.1021V89.4301H10.0368V84.0421ZM16.7521 83.9341C18.3001 83.9341 19.5601 85.1821 19.5601 86.7301C19.5601 88.2781 18.3001 89.5381 16.7521 89.5381C15.2041 89.5381 13.9561 88.2781 13.9561 86.7301C13.9561 85.1821 15.2041 83.9341 16.7521 83.9341ZM16.7641 84.6661C15.6361 84.6661 14.8081 85.5901 14.8081 86.7301C14.8081 87.8701 15.6361 88.8061 16.7641 88.8061C17.8921 88.8061 18.7081 87.8701 18.7081 86.7301C18.7081 85.5901 17.8921 84.6661 16.7641 84.6661ZM25.1972 89.4301H24.3692V88.6141C23.9732 89.1421 23.4452 89.5381 22.6772 89.5381C21.4652 89.5381 20.7452 88.6501 20.7452 87.2581V84.0421H21.5732V87.1861C21.5732 88.0981 21.9212 88.8061 22.8692 88.8061C23.1812 88.8061 23.8652 88.7101 24.3692 87.8581V84.0421H25.1972V89.4301ZM26.7595 84.0421H28.6555C30.5395 84.0421 31.6315 85.0021 31.6315 86.7301C31.6315 88.2421 30.6835 89.5381 28.9555 89.5381C28.2955 89.5381 27.8155 89.3101 27.5875 89.2141V92.0821H26.7595V84.0421ZM27.5875 84.7741V88.4581C27.7795 88.5661 28.2115 88.8061 28.8235 88.8061C30.1555 88.8061 30.7795 87.8341 30.7795 86.7541C30.7795 85.4581 29.9155 84.7741 28.6435 84.7741H27.5875ZM35.9598 84.3901V85.2181C35.4318 84.8941 34.9638 84.6661 34.4358 84.6661C33.8838 84.6661 33.5238 84.9901 33.5238 85.3621C33.5238 85.7941 33.8958 85.9741 35.1798 86.6461C35.4678 86.8021 36.1638 87.1861 36.1638 88.0261C36.1638 88.5661 35.7318 89.5381 34.3878 89.5381C33.7518 89.5381 33.2238 89.3461 32.6598 89.0461V88.1941C33.5478 88.7341 34.1118 88.8061 34.3998 88.8061C34.8198 88.8061 35.3118 88.5421 35.3118 88.0861C35.3118 87.5701 34.8198 87.3181 34.1118 86.9821C33.4518 86.6701 32.6958 86.2861 32.6958 85.3861C32.6958 84.7261 33.2358 83.9341 34.4238 83.9341C35.1678 83.9341 35.6838 84.2341 35.9598 84.3901ZM44.7558 88.4821V89.0461C44.0838 89.5261 43.8318 89.5381 43.6878 89.5381C43.2438 89.5381 43.1478 89.1781 43.0998 88.9261C42.4278 89.4301 42.0078 89.5381 41.5278 89.5381C40.7718 89.5381 40.1358 88.9621 40.1358 88.1701C40.1358 87.2941 40.8558 86.5861 43.0878 86.1901V85.7101C43.0878 85.3621 43.0278 84.6661 42.0198 84.6661C41.3118 84.6661 40.8078 85.0261 40.3398 85.4581V84.5941C40.6038 84.3661 41.2158 83.9341 42.0918 83.9341C43.6278 83.9341 43.9158 85.0141 43.9158 85.6261V88.5781C43.9158 88.8061 43.9398 88.8661 44.0598 88.8661C44.1678 88.8661 44.4318 88.7461 44.7558 88.4821ZM43.0878 88.3621V86.7301C41.7078 86.9821 40.9638 87.4381 40.9638 88.1101C40.9638 88.7581 41.5638 88.9381 41.8758 88.9381C42.4518 88.9381 42.8838 88.5541 43.0878 88.3621ZM45.6736 84.0421H46.5016V84.8581C46.8976 84.3301 47.4256 83.9341 48.1936 83.9341C49.4056 83.9341 50.1256 84.8221 50.1256 86.2141V89.4301H49.2976V86.2861C49.2976 85.3741 48.9496 84.6661 48.0016 84.6661C47.6896 84.6661 47.0056 84.7621 46.5016 85.6141V89.4301H45.6736V84.0421ZM56.1758 89.4301H54.2798C52.3958 89.4301 51.3038 88.4701 51.3038 86.7421C51.3038 85.2301 52.2518 83.9341 53.9798 83.9341C54.6398 83.9341 55.1198 84.1621 55.3478 84.2581V81.2461H56.1758V89.4301ZM55.3478 88.6981V85.0141C55.1558 84.9061 54.7238 84.6661 54.1118 84.6661C52.7798 84.6661 52.1558 85.6381 52.1558 86.7181C52.1558 88.0141 53.0198 88.6981 54.2918 88.6981H55.3478ZM61.8121 81.2461V88.6381H65.6761V89.4301H60.9121V81.2461H61.8121ZM70.8652 88.4821V89.0461C70.1932 89.5261 69.9412 89.5381 69.7972 89.5381C69.3532 89.5381 69.2572 89.1781 69.2092 88.9261C68.5372 89.4301 68.1172 89.5381 67.6372 89.5381C66.8812 89.5381 66.2452 88.9621 66.2452 88.1701C66.2452 87.2941 66.9652 86.5861 69.1972 86.1901V85.7101C69.1972 85.3621 69.1372 84.6661 68.1292 84.6661C67.4212 84.6661 66.9172 85.0261 66.4492 85.4581V84.5941C66.7132 84.3661 67.3252 83.9341 68.2012 83.9341C69.7372 83.9341 70.0252 85.0141 70.0252 85.6261V88.5781C70.0252 88.8061 70.0492 88.8661 70.1692 88.8661C70.2772 88.8661 70.5412 88.7461 70.8652 88.4821ZM69.1972 88.3621V86.7301C67.8172 86.9821 67.0732 87.4381 67.0732 88.1101C67.0732 88.7581 67.6732 88.9381 67.9852 88.9381C68.5612 88.9381 68.9932 88.5541 69.1972 88.3621ZM71.7829 89.1301V81.2461H72.6109V84.6181C72.8749 84.4141 73.4269 83.9341 74.3149 83.9341C75.8269 83.9341 76.6789 85.2301 76.6789 86.6101C76.6789 88.3741 75.5629 89.5381 73.7749 89.5381C73.0909 89.5381 72.4069 89.3941 71.7829 89.1301ZM72.6109 85.4581V88.5901C73.2229 88.8061 73.7389 88.8061 73.8469 88.8061C74.9749 88.8061 75.8269 87.9061 75.8269 86.6821C75.8269 85.5301 75.0829 84.6661 74.1469 84.6661C73.7509 84.6661 73.1509 84.8701 72.6109 85.4581ZM81.0067 84.3901V85.2181C80.4787 84.8941 80.0107 84.6661 79.4827 84.6661C78.9307 84.6661 78.5707 84.9901 78.5707 85.3621C78.5707 85.7941 78.9427 85.9741 80.2267 86.6461C80.5147 86.8021 81.2107 87.1861 81.2107 88.0261C81.2107 88.5661 80.7787 89.5381 79.4347 89.5381C78.7987 89.5381 78.2707 89.3461 77.7067 89.0461V88.1941C78.5947 88.7341 79.1587 88.8061 79.4467 88.8061C79.8667 88.8061 80.3587 88.5421 80.3587 88.0861C80.3587 87.5701 79.8667 87.3181 79.1587 86.9821C78.4987 86.6701 77.7427 86.2861 77.7427 85.3861C77.7427 84.7261 78.2827 83.9341 79.4707 83.9341C80.2147 83.9341 80.7307 84.2341 81.0067 84.3901Z" fill="#ABA7A1"/>
<path d="M24.7296 241.596H26.8416C27.8136 241.596 28.5696 241.596 29.2536 242.292C29.6136 242.652 29.8896 243.168 29.8896 243.912C29.8896 244.32 29.8176 244.98 29.2056 245.568C28.6896 246.06 28.0416 246.228 26.7696 246.228H25.9056V249.78H24.7296V241.596ZM26.7936 242.628H25.9056V245.184H26.8416C27.3096 245.184 27.7896 245.184 28.1376 244.968C28.4616 244.776 28.6776 244.404 28.6776 243.888C28.6776 243.6 28.6056 243.24 28.3176 242.976C27.9576 242.628 27.6336 242.628 26.7936 242.628ZM35.2628 249.78H34.1828V249.096C33.6908 249.636 33.0548 249.888 32.5508 249.888C32.2148 249.888 31.4708 249.768 31.0268 249.024C30.8588 248.76 30.7268 248.448 30.7268 247.464V244.392H31.8068V247.464C31.8068 248.076 31.8068 249 32.8988 249C33.4028 249 33.8588 248.7 34.1828 248.244V244.392H35.2628V249.78ZM37.7828 241.596V244.776C37.9628 244.644 38.4668 244.284 39.2708 244.284C40.7108 244.284 41.5868 245.52 41.5868 247.032C41.5868 248.928 40.2788 249.9 38.8028 249.9C38.1188 249.9 37.2308 249.732 36.7148 249.48V241.596H37.7828ZM37.7828 245.796V248.712C38.2148 248.844 38.7308 248.88 38.9108 248.88C39.5468 248.88 40.5068 248.424 40.5068 247.08C40.5068 245.868 39.7628 245.268 38.9948 245.268C38.3948 245.268 37.9988 245.604 37.7828 245.796ZM43.8548 241.596V249.78H42.7868V241.596H43.8548ZM45.9398 242.124C46.2998 242.124 46.5758 242.412 46.5758 242.748C46.5758 243.084 46.2878 243.384 45.9398 243.384C45.5318 243.384 45.3158 243.012 45.3158 242.748C45.3158 242.448 45.5798 242.124 45.9398 242.124ZM46.4798 244.392V249.78H45.4118V244.392H46.4798ZM51.9368 244.656V245.796C51.6368 245.604 51.1328 245.28 50.4368 245.28C49.3208 245.28 48.7928 246.228 48.7928 247.08C48.7928 247.98 49.3208 248.88 50.6408 248.88C51.2048 248.88 51.6608 248.7 52.0568 248.52V249.576C51.8168 249.66 51.2528 249.888 50.4848 249.888C48.6248 249.888 47.7128 248.592 47.7128 247.116C47.7128 245.808 48.4568 244.284 50.3768 244.284C51.0728 244.284 51.5168 244.476 51.9368 244.656ZM57.4751 248.82V249.468C56.9831 249.792 56.7791 249.888 56.4431 249.888C55.9751 249.888 55.7231 249.72 55.6271 249.336C55.1591 249.708 54.6671 249.888 54.1751 249.888C53.3831 249.888 52.8551 249.264 52.8551 248.568C52.8551 247.5 53.8271 247.176 54.6911 246.864L55.6391 246.528V246.24C55.6391 245.568 55.3151 245.292 54.6671 245.292C54.0791 245.292 53.4791 245.568 52.9631 246.18V245.016C53.3831 244.524 53.9711 244.284 54.7511 244.284C55.8431 244.284 56.7071 244.836 56.7071 246.06V248.832C56.7071 249.036 56.7791 249.108 56.9111 249.108C57.0191 249.108 57.2351 249 57.4751 248.82ZM55.6391 248.688V247.116C54.7271 247.428 53.9351 247.74 53.9351 248.376C53.9351 248.82 54.2591 249.132 54.7031 249.132C55.0391 249.132 55.3511 248.964 55.6391 248.688ZM59.6202 243.276V244.392H61.3242V245.352H59.6202V247.704C59.6322 248.376 59.6442 248.496 59.8122 248.688C60.0162 248.904 60.2802 248.916 60.3882 248.916C60.6042 248.916 61.0122 248.892 61.6002 248.532V249.528C61.0962 249.804 60.5322 249.888 60.2202 249.888C59.8482 249.888 59.1882 249.732 58.8162 249.204C58.5522 248.808 58.5522 248.232 58.5522 247.74V245.352H57.6162V245.244L59.6202 243.276ZM63.0844 242.124C63.4444 242.124 63.7204 242.412 63.7204 242.748C63.7204 243.084 63.4324 243.384 63.0844 243.384C62.6764 243.384 62.4604 243.012 62.4604 242.748C62.4604 242.448 62.7244 242.124 63.0844 242.124ZM63.6244 244.392V249.78H62.5564V244.392H63.6244ZM67.7374 244.284C69.3454 244.284 70.5934 245.4 70.5934 247.104C70.5934 249.024 69.0334 249.888 67.7014 249.888C65.9734 249.888 64.8334 248.616 64.8334 247.08C64.8334 245.568 65.9374 244.284 67.7374 244.284ZM67.6774 245.244C66.7174 245.244 65.9254 245.904 65.9254 247.092C65.9254 248.448 66.9334 248.928 67.7254 248.928C68.7814 248.928 69.5014 248.172 69.5014 247.08C69.5014 245.724 68.4454 245.244 67.6774 245.244ZM71.7545 244.392H72.8465V245.076C73.3265 244.536 73.9625 244.284 74.4665 244.284C74.8025 244.284 75.5465 244.404 75.9905 245.148C76.1585 245.412 76.2905 245.724 76.2905 246.708V249.78H75.2105V246.708C75.2105 246.132 75.2105 245.832 74.9225 245.508C74.7185 245.28 74.4785 245.172 74.1185 245.172C73.6265 245.172 73.1705 245.46 72.8465 245.928V249.78H71.7545V244.392ZM80.8985 244.728V245.784C80.2985 245.412 79.8425 245.208 79.3385 245.208C78.8345 245.208 78.6545 245.484 78.6545 245.688C78.6545 246.036 79.0265 246.228 79.8185 246.672C80.5865 247.092 81.1625 247.644 81.1625 248.364C81.1625 248.868 80.7785 249.888 79.3145 249.888C78.5585 249.888 78.0545 249.66 77.5145 249.396V248.244C78.2825 248.772 78.9425 248.952 79.2305 248.952C79.5665 248.952 80.0465 248.76 80.0465 248.4C80.0465 248.016 79.7225 247.836 79.2185 247.56C78.3305 247.068 77.5505 246.588 77.5505 245.688C77.5505 244.896 78.2345 244.284 79.2665 244.284C80.0705 244.284 80.6465 244.596 80.8985 244.728Z" fill="#223072"/>
<path d="M39.1602 155.026H41.2482C43.3722 155.026 43.9482 156.238 43.9482 157.222C43.9482 158.338 43.2642 158.938 42.4842 159.226C43.0722 159.61 43.4802 160.246 44.4882 161.83C44.8362 162.382 45.0162 162.634 45.4242 163.21H44.3442L43.5642 161.974C43.2402 161.458 42.8802 160.942 42.5082 160.462C41.9802 159.79 41.5242 159.466 40.6482 159.466H40.0602V163.21H39.1602V155.026ZM41.1162 155.818H40.0602V158.674H41.1162C42.2802 158.674 42.9882 158.17 42.9882 157.234C42.9882 156.382 42.3642 155.818 41.1162 155.818ZM50.56 160.378V160.57H46.564C46.564 161.866 47.464 162.586 48.496 162.586C49.552 162.586 50.212 162.046 50.476 161.83V162.67C50.14 162.898 49.54 163.318 48.4 163.318C46.6 163.318 45.712 161.95 45.712 160.498C45.712 158.626 46.96 157.714 48.184 157.714C49.516 157.714 50.56 158.806 50.56 160.378ZM46.612 159.97H49.708C49.588 158.806 48.796 158.446 48.208 158.446C47.536 158.446 46.816 158.878 46.612 159.97ZM54.8134 158.17V158.998C54.2854 158.674 53.8174 158.446 53.2894 158.446C52.7374 158.446 52.3774 158.77 52.3774 159.142C52.3774 159.574 52.7494 159.754 54.0334 160.426C54.3214 160.582 55.0174 160.966 55.0174 161.806C55.0174 162.346 54.5854 163.318 53.2414 163.318C52.6054 163.318 52.0774 163.126 51.5134 162.826V161.974C52.4014 162.514 52.9654 162.586 53.2534 162.586C53.6734 162.586 54.1654 162.322 54.1654 161.866C54.1654 161.35 53.6734 161.098 52.9654 160.762C52.3054 160.45 51.5494 160.066 51.5494 159.166C51.5494 158.506 52.0894 157.714 53.2774 157.714C54.0214 157.714 54.5374 158.014 54.8134 158.17ZM60.8374 160.378V160.57H56.8414C56.8414 161.866 57.7414 162.586 58.7734 162.586C59.8294 162.586 60.4894 162.046 60.7534 161.83V162.67C60.4174 162.898 59.8174 163.318 58.6774 163.318C56.8774 163.318 55.9894 161.95 55.9894 160.498C55.9894 158.626 57.2374 157.714 58.4614 157.714C59.7934 157.714 60.8374 158.806 60.8374 160.378ZM56.8894 159.97H59.9854C59.8654 158.806 59.0734 158.446 58.4854 158.446C57.8134 158.446 57.0934 158.878 56.8894 159.97ZM66.3867 162.262V162.826C65.7147 163.306 65.4627 163.318 65.3187 163.318C64.8747 163.318 64.7787 162.958 64.7307 162.706C64.0587 163.21 63.6387 163.318 63.1587 163.318C62.4027 163.318 61.7667 162.742 61.7667 161.95C61.7667 161.074 62.4867 160.366 64.7187 159.97V159.49C64.7187 159.142 64.6587 158.446 63.6507 158.446C62.9427 158.446 62.4387 158.806 61.9707 159.238V158.374C62.2347 158.146 62.8467 157.714 63.7227 157.714C65.2587 157.714 65.5467 158.794 65.5467 159.406V162.358C65.5467 162.586 65.5707 162.646 65.6907 162.646C65.7987 162.646 66.0627 162.526 66.3867 162.262ZM64.7187 162.142V160.51C63.3387 160.762 62.5947 161.218 62.5947 161.89C62.5947 162.538 63.1947 162.718 63.5067 162.718C64.0827 162.718 64.5147 162.334 64.7187 162.142ZM67.3044 157.822H68.1324V159.01C68.2764 158.782 68.5884 158.314 69.0324 158.014C69.1404 157.942 69.4884 157.714 69.8484 157.714C70.3644 157.714 70.9284 158.182 71.1324 158.35L70.6884 159.07C70.5084 158.914 70.1124 158.566 69.6444 158.566C69.1644 158.566 68.5764 158.998 68.3244 159.586C68.1324 160.018 68.1324 160.606 68.1324 160.882V163.21H67.3044V157.822ZM75.3517 158.038V158.926C75.0397 158.746 74.5597 158.482 73.8757 158.482C72.4477 158.482 72.0757 159.838 72.0757 160.534C72.0757 161.434 72.5677 162.55 74.0197 162.55C74.6797 162.55 75.2197 162.31 75.4597 162.202V163.018C75.2077 163.114 74.6437 163.318 73.9357 163.318C72.1837 163.318 71.2237 162.118 71.2237 160.558C71.2237 158.794 72.3757 157.714 73.8757 157.714C74.5237 157.714 75.0037 157.894 75.3517 158.038ZM76.5622 155.026H77.3902V158.638C77.7862 158.11 78.3142 157.714 79.0822 157.714C80.2942 157.714 81.0142 158.602 81.0142 159.994V163.21H80.1862V160.066C80.1862 159.154 79.8382 158.446 78.8902 158.446C78.5782 158.446 77.8942 158.542 77.3902 159.394V163.21H76.5622V155.026Z" fill="#ABA7A1"/>
<path d="M44.0801 168.026H46.4201C48.4721 168.026 49.1201 169.154 49.1201 170.27C49.1201 171.386 48.4721 172.514 46.4201 172.514H44.9801V176.21H44.0801V168.026ZM46.3241 168.818H44.9801V171.722H46.3241C47.9681 171.722 48.1601 170.858 48.1601 170.27C48.1601 169.682 47.9681 168.818 46.3241 168.818ZM50.0876 170.822H50.9156V172.01C51.0596 171.782 51.3716 171.314 51.8156 171.014C51.9236 170.942 52.2716 170.714 52.6316 170.714C53.1476 170.714 53.7116 171.182 53.9156 171.35L53.4716 172.07C53.2916 171.914 52.8956 171.566 52.4276 171.566C51.9476 171.566 51.3596 171.998 51.1076 172.586C50.9156 173.018 50.9156 173.606 50.9156 173.882V176.21H50.0876V170.822ZM56.8029 170.714C58.3509 170.714 59.6109 171.962 59.6109 173.51C59.6109 175.058 58.3509 176.318 56.8029 176.318C55.2549 176.318 54.0069 175.058 54.0069 173.51C54.0069 171.962 55.2549 170.714 56.8029 170.714ZM56.8149 171.446C55.6869 171.446 54.8589 172.37 54.8589 173.51C54.8589 174.65 55.6869 175.586 56.8149 175.586C57.9429 175.586 58.7589 174.65 58.7589 173.51C58.7589 172.37 57.9429 171.446 56.8149 171.446ZM61.732 170.822V176.486C61.732 177.194 61.684 177.662 61.516 178.046C61.456 178.19 61.144 178.802 60.4 178.97L59.92 178.334C60.832 178.154 60.904 177.47 60.904 176.426V170.822H61.732ZM61.324 168.626C61.624 168.626 61.864 168.866 61.864 169.166C61.864 169.466 61.624 169.706 61.324 169.706C61.024 169.706 60.784 169.466 60.784 169.166C60.784 168.866 61.024 168.626 61.324 168.626ZM67.8432 173.378V173.57H63.8472C63.8472 174.866 64.7472 175.586 65.7792 175.586C66.8352 175.586 67.4952 175.046 67.7592 174.83V175.67C67.4232 175.898 66.8232 176.318 65.6832 176.318C63.8832 176.318 62.9952 174.95 62.9952 173.498C62.9952 171.626 64.2432 170.714 65.4672 170.714C66.7992 170.714 67.8432 171.806 67.8432 173.378ZM63.8952 172.97H66.9912C66.8712 171.806 66.0792 171.446 65.4912 171.446C64.8192 171.446 64.0992 171.878 63.8952 172.97ZM72.9006 171.038V171.926C72.5886 171.746 72.1086 171.482 71.4246 171.482C69.9966 171.482 69.6246 172.838 69.6246 173.534C69.6246 174.434 70.1166 175.55 71.5686 175.55C72.2286 175.55 72.7686 175.31 73.0086 175.202V176.018C72.7566 176.114 72.1926 176.318 71.4846 176.318C69.7326 176.318 68.7726 175.118 68.7726 173.558C68.7726 171.794 69.9246 170.714 71.4246 170.714C72.0726 170.714 72.5526 170.894 72.9006 171.038ZM73.5331 171.554V171.422L75.2851 169.562V170.822H76.9051V171.554H75.2851V174.374C75.2851 175.07 75.3331 175.55 76.0891 175.55C76.5091 175.55 76.7731 175.418 77.1811 175.226V176.006C76.9531 176.114 76.5091 176.318 75.9211 176.318C74.8411 176.318 74.4571 175.574 74.4571 174.71V171.554H73.5331ZM81.0028 171.17V171.998C80.4748 171.674 80.0068 171.446 79.4788 171.446C78.9268 171.446 78.5668 171.77 78.5668 172.142C78.5668 172.574 78.9388 172.754 80.2228 173.426C80.5108 173.582 81.2068 173.966 81.2068 174.806C81.2068 175.346 80.7748 176.318 79.4308 176.318C78.7948 176.318 78.2668 176.126 77.7028 175.826V174.974C78.5908 175.514 79.1548 175.586 79.4428 175.586C79.8628 175.586 80.3548 175.322 80.3548 174.866C80.3548 174.35 79.8628 174.098 79.1548 173.762C78.4948 173.45 77.7388 173.066 77.7388 172.166C77.7388 171.506 78.2788 170.714 79.4668 170.714C80.2108 170.714 80.7268 171.014 81.0028 171.17Z" fill="#ABA7A1"/>
<path d="M15.5098 315.026H17.5618C18.7738 315.026 20.1658 315.494 20.1658 317.15C20.1658 318.326 19.2778 318.782 18.9538 318.914C20.5378 319.214 20.8858 320.318 20.8858 321.014C20.8858 321.95 20.1658 323.21 18.4738 323.21H15.5098V315.026ZM17.2978 315.818H16.4098V318.674H17.2978C18.6658 318.674 19.2058 318.11 19.2058 317.222C19.2058 316.214 18.6178 315.818 17.2978 315.818ZM17.8378 319.466H16.4098V322.418H17.8618C19.6258 322.418 19.9258 321.638 19.9258 320.942C19.9258 320.258 19.4698 319.466 17.8378 319.466ZM26.5229 320.378V320.57H22.5269C22.5269 321.866 23.4269 322.586 24.4589 322.586C25.5149 322.586 26.1749 322.046 26.4389 321.83V322.67C26.1029 322.898 25.5029 323.318 24.3629 323.318C22.5629 323.318 21.6749 321.95 21.6749 320.498C21.6749 318.626 22.9229 317.714 24.1469 317.714C25.4789 317.714 26.5229 318.806 26.5229 320.378ZM22.5749 319.97H25.6709C25.5509 318.806 24.7589 318.446 24.1709 318.446C23.4989 318.446 22.7789 318.878 22.5749 319.97ZM35.0722 322.262V322.826C34.4002 323.306 34.1482 323.318 34.0042 323.318C33.5602 323.318 33.4642 322.958 33.4162 322.706C32.7442 323.21 32.3242 323.318 31.8442 323.318C31.0882 323.318 30.4522 322.742 30.4522 321.95C30.4522 321.074 31.1722 320.366 33.4042 319.97V319.49C33.4042 319.142 33.3442 318.446 32.3362 318.446C31.6282 318.446 31.1242 318.806 30.6562 319.238V318.374C30.9202 318.146 31.5322 317.714 32.4082 317.714C33.9442 317.714 34.2322 318.794 34.2322 319.406V322.358C34.2322 322.586 34.2562 322.646 34.3762 322.646C34.4842 322.646 34.7482 322.526 35.0722 322.262ZM33.4042 322.142V320.51C32.0242 320.762 31.2802 321.218 31.2802 321.89C31.2802 322.538 31.8802 322.718 32.1922 322.718C32.7682 322.718 33.2002 322.334 33.4042 322.142ZM39.17 315.026H41.258C43.382 315.026 43.958 316.238 43.958 317.222C43.958 318.338 43.274 318.938 42.494 319.226C43.082 319.61 43.49 320.246 44.498 321.83C44.846 322.382 45.026 322.634 45.434 323.21H44.354L43.574 321.974C43.25 321.458 42.89 320.942 42.518 320.462C41.99 319.79 41.534 319.466 40.658 319.466H40.07V323.21H39.17V315.026ZM41.126 315.818H40.07V318.674H41.126C42.29 318.674 42.998 318.17 42.998 317.234C42.998 316.382 42.374 315.818 41.126 315.818ZM50.5698 320.378V320.57H46.5738C46.5738 321.866 47.4738 322.586 48.5058 322.586C49.5618 322.586 50.2218 322.046 50.4858 321.83V322.67C50.1498 322.898 49.5498 323.318 48.4098 323.318C46.6098 323.318 45.7218 321.95 45.7218 320.498C45.7218 318.626 46.9698 317.714 48.1938 317.714C49.5258 317.714 50.5698 318.806 50.5698 320.378ZM46.6218 319.97H49.7178C49.5978 318.806 48.8058 318.446 48.2178 318.446C47.5458 318.446 46.8258 318.878 46.6218 319.97ZM54.8231 318.17V318.998C54.2951 318.674 53.8271 318.446 53.2991 318.446C52.7471 318.446 52.3871 318.77 52.3871 319.142C52.3871 319.574 52.7591 319.754 54.0431 320.426C54.3311 320.582 55.0271 320.966 55.0271 321.806C55.0271 322.346 54.5951 323.318 53.2511 323.318C52.6151 323.318 52.0871 323.126 51.5231 322.826V321.974C52.4111 322.514 52.9751 322.586 53.2631 322.586C53.6831 322.586 54.1751 322.322 54.1751 321.866C54.1751 321.35 53.6831 321.098 52.9751 320.762C52.3151 320.45 51.5591 320.066 51.5591 319.166C51.5591 318.506 52.0991 317.714 53.2871 317.714C54.0311 317.714 54.5471 318.014 54.8231 318.17ZM60.8471 320.378V320.57H56.8511C56.8511 321.866 57.7511 322.586 58.7831 322.586C59.8391 322.586 60.4991 322.046 60.7631 321.83V322.67C60.4271 322.898 59.8271 323.318 58.6871 323.318C56.8871 323.318 55.9991 321.95 55.9991 320.498C55.9991 318.626 57.2471 317.714 58.4711 317.714C59.8031 317.714 60.8471 318.806 60.8471 320.378ZM56.8991 319.97H59.9951C59.8751 318.806 59.0831 318.446 58.4951 318.446C57.8231 318.446 57.1031 318.878 56.8991 319.97ZM66.3965 322.262V322.826C65.7245 323.306 65.4725 323.318 65.3285 323.318C64.8845 323.318 64.7885 322.958 64.7405 322.706C64.0685 323.21 63.6485 323.318 63.1685 323.318C62.4125 323.318 61.7765 322.742 61.7765 321.95C61.7765 321.074 62.4965 320.366 64.7285 319.97V319.49C64.7285 319.142 64.6685 318.446 63.6605 318.446C62.9525 318.446 62.4485 318.806 61.9805 319.238V318.374C62.2445 318.146 62.8565 317.714 63.7325 317.714C65.2685 317.714 65.5565 318.794 65.5565 319.406V322.358C65.5565 322.586 65.5805 322.646 65.7005 322.646C65.8085 322.646 66.0725 322.526 66.3965 322.262ZM64.7285 322.142V320.51C63.3485 320.762 62.6045 321.218 62.6045 321.89C62.6045 322.538 63.2045 322.718 63.5165 322.718C64.0925 322.718 64.5245 322.334 64.7285 322.142ZM67.3142 317.822H68.1422V319.01C68.2862 318.782 68.5982 318.314 69.0422 318.014C69.1502 317.942 69.4982 317.714 69.8582 317.714C70.3742 317.714 70.9382 318.182 71.1422 318.35L70.6982 319.07C70.5182 318.914 70.1222 318.566 69.6542 318.566C69.1742 318.566 68.5862 318.998 68.3342 319.586C68.1422 320.018 68.1422 320.606 68.1422 320.882V323.21H67.3142V317.822ZM75.3615 318.038V318.926C75.0495 318.746 74.5695 318.482 73.8855 318.482C72.4575 318.482 72.0855 319.838 72.0855 320.534C72.0855 321.434 72.5775 322.55 74.0295 322.55C74.6895 322.55 75.2295 322.31 75.4695 322.202V323.018C75.2175 323.114 74.6535 323.318 73.9455 323.318C72.1935 323.318 71.2335 322.118 71.2335 320.558C71.2335 318.794 72.3855 317.714 73.8855 317.714C74.5335 317.714 75.0135 317.894 75.3615 318.038ZM76.572 315.026H77.4V318.638C77.796 318.11 78.324 317.714 79.092 317.714C80.304 317.714 81.024 318.602 81.024 319.994V323.21H80.196V320.066C80.196 319.154 79.848 318.446 78.9 318.446C78.588 318.446 77.904 318.542 77.4 319.394V323.21H76.572V315.026Z" fill="#ABA7A1"/>
<path d="M32.3296 328.026H34.6696C36.7216 328.026 37.3696 329.154 37.3696 330.27C37.3696 331.386 36.7216 332.514 34.6696 332.514H33.2296V336.21H32.3296V328.026ZM34.5736 328.818H33.2296V331.722H34.5736C36.2176 331.722 36.4096 330.858 36.4096 330.27C36.4096 329.682 36.2176 328.818 34.5736 328.818ZM42.3296 335.262V335.826C41.6576 336.306 41.4056 336.318 41.2616 336.318C40.8176 336.318 40.7216 335.958 40.6736 335.706C40.0016 336.21 39.5816 336.318 39.1016 336.318C38.3456 336.318 37.7096 335.742 37.7096 334.95C37.7096 334.074 38.4296 333.366 40.6616 332.97V332.49C40.6616 332.142 40.6016 331.446 39.5936 331.446C38.8856 331.446 38.3816 331.806 37.9136 332.238V331.374C38.1776 331.146 38.7896 330.714 39.6656 330.714C41.2016 330.714 41.4896 331.794 41.4896 332.406V335.358C41.4896 335.586 41.5136 335.646 41.6336 335.646C41.7416 335.646 42.0056 335.526 42.3296 335.262ZM40.6616 335.142V333.51C39.2816 333.762 38.5376 334.218 38.5376 334.89C38.5376 335.538 39.1376 335.718 39.4496 335.718C40.0256 335.718 40.4576 335.334 40.6616 335.142ZM43.2473 330.822H44.0753V332.01C44.2193 331.782 44.5313 331.314 44.9753 331.014C45.0833 330.942 45.4313 330.714 45.7913 330.714C46.3073 330.714 46.8713 331.182 47.0753 331.35L46.6313 332.07C46.4513 331.914 46.0553 331.566 45.5873 331.566C45.1073 331.566 44.5193 331.998 44.2673 332.586C44.0753 333.018 44.0753 333.606 44.0753 333.882V336.21H43.2473V330.822ZM47.1107 331.554V331.422L48.8627 329.562V330.822H50.4827V331.554H48.8627V334.374C48.8627 335.07 48.9107 335.55 49.6667 335.55C50.0867 335.55 50.3507 335.418 50.7587 335.226V336.006C50.5307 336.114 50.0867 336.318 49.4987 336.318C48.4187 336.318 48.0347 335.574 48.0347 334.71V331.554H47.1107ZM52.3604 330.822V336.21H51.5324V330.822H52.3604ZM51.9524 328.626C52.2524 328.626 52.4924 328.866 52.4924 329.166C52.4924 329.466 52.2524 329.706 51.9524 329.706C51.6524 329.706 51.4124 329.466 51.4124 329.166C51.4124 328.866 51.6524 328.626 51.9524 328.626ZM57.7751 331.038V331.926C57.4631 331.746 56.9831 331.482 56.2991 331.482C54.8711 331.482 54.4991 332.838 54.4991 333.534C54.4991 334.434 54.9911 335.55 56.4431 335.55C57.1031 335.55 57.6431 335.31 57.8831 335.202V336.018C57.6311 336.114 57.0671 336.318 56.3591 336.318C54.6071 336.318 53.6471 335.118 53.6471 333.558C53.6471 331.794 54.7991 330.714 56.2991 330.714C56.9471 330.714 57.4271 330.894 57.7751 331.038ZM59.8136 330.822V336.21H58.9856V330.822H59.8136ZM59.4056 328.626C59.7056 328.626 59.9456 328.866 59.9456 329.166C59.9456 329.466 59.7056 329.706 59.4056 329.706C59.1056 329.706 58.8656 329.466 58.8656 329.166C58.8656 328.866 59.1056 328.626 59.4056 328.626ZM61.3762 330.822H63.2722C65.1562 330.822 66.2482 331.782 66.2482 333.51C66.2482 335.022 65.3002 336.318 63.5722 336.318C62.9122 336.318 62.4322 336.09 62.2042 335.994V338.862H61.3762V330.822ZM62.2042 331.554V335.238C62.3962 335.346 62.8282 335.586 63.4402 335.586C64.7722 335.586 65.3962 334.614 65.3962 333.534C65.3962 332.238 64.5322 331.554 63.2602 331.554H62.2042ZM71.8725 335.262V335.826C71.2005 336.306 70.9485 336.318 70.8045 336.318C70.3605 336.318 70.2645 335.958 70.2165 335.706C69.5445 336.21 69.1245 336.318 68.6445 336.318C67.8885 336.318 67.2525 335.742 67.2525 334.95C67.2525 334.074 67.9725 333.366 70.2045 332.97V332.49C70.2045 332.142 70.1445 331.446 69.1365 331.446C68.4285 331.446 67.9245 331.806 67.4565 332.238V331.374C67.7205 331.146 68.3325 330.714 69.2085 330.714C70.7445 330.714 71.0325 331.794 71.0325 332.406V335.358C71.0325 335.586 71.0565 335.646 71.1765 335.646C71.2845 335.646 71.5485 335.526 71.8725 335.262ZM70.2045 335.142V333.51C68.8245 333.762 68.0805 334.218 68.0805 334.89C68.0805 335.538 68.6805 335.718 68.9925 335.718C69.5685 335.718 70.0005 335.334 70.2045 335.142ZM72.7903 330.822H73.6183V331.638C74.0143 331.11 74.5423 330.714 75.3103 330.714C76.5223 330.714 77.2423 331.602 77.2423 332.994V336.21H76.4143V333.066C76.4143 332.154 76.0663 331.446 75.1183 331.446C74.8063 331.446 74.1223 331.542 73.6183 332.394V336.21H72.7903V330.822ZM78.0365 331.554V331.422L79.7885 329.562V330.822H81.4085V331.554H79.7885V334.374C79.7885 335.07 79.8365 335.55 80.5925 335.55C81.0125 335.55 81.2765 335.418 81.6845 335.226V336.006C81.4565 336.114 81.0125 336.318 80.4245 336.318C79.3445 336.318 78.9605 335.574 78.9605 334.71V331.554H78.0365Z" fill="#ABA7A1"/>
<path d="M99.3496 364.2V328.7V248.7V204.2V9.19995" stroke="#223072" stroke-miterlimit="10"/>
<path d="M99.3496 175.2C102.939 175.2 105.85 172.29 105.85 168.7C105.85 165.11 102.939 162.2 99.3496 162.2C95.7598 162.2 92.8496 165.11 92.8496 168.7C92.8496 172.29 95.7598 175.2 99.3496 175.2Z" fill="#F5EFE7" stroke="#ABA7A1" stroke-miterlimit="10"/>
<path d="M99.3496 255.2C102.939 255.2 105.85 252.29 105.85 248.7C105.85 245.11 102.939 242.2 99.3496 242.2C95.7598 242.2 92.8496 245.11 92.8496 248.7C92.8496 252.29 95.7598 255.2 99.3496 255.2Z" fill="#223072"/>
<path d="M99.3496 335.2C102.939 335.2 105.85 332.29 105.85 328.7C105.85 325.11 102.939 322.2 99.3496 322.2C95.7598 322.2 92.8496 325.11 92.8496 328.7C92.8496 332.29 95.7598 335.2 99.3496 335.2Z" fill="#F5EFE7" stroke="#ABA7A1" stroke-miterlimit="10"/>
<path d="M99.3496 95.2C102.939 95.2 105.85 92.2898 105.85 88.7C105.85 85.1101 102.939 82.2 99.3496 82.2C95.7598 82.2 92.8496 85.1101 92.8496 88.7C92.8496 92.2898 95.7598 95.2 99.3496 95.2Z" fill="#F5EFE7" stroke="#ABA7A1" stroke-miterlimit="10"/>
<path d="M99.3496 15.2C102.939 15.2 105.85 12.2898 105.85 8.69995C105.85 5.1101 102.939 2.19995 99.3496 2.19995C95.7598 2.19995 92.8496 5.1101 92.8496 8.69995C92.8496 12.2898 95.7598 15.2 99.3496 15.2Z" fill="#F5EFE7" stroke="#ABA7A1" stroke-miterlimit="10"/>
</svg>
