<svg width="143" height="52" viewBox="0 0 143 52" fill="none" xmlns="http://www.w3.org/2000/svg">
<path d="M59.35 14.3699C61.45 14.3699 62.11 15.5199 62.11 16.6599C62.11 17.7999 61.45 18.9499 59.35 18.9499H57.88V22.7199H56.96V14.3599H59.35V14.3699ZM57.88 15.1799V18.1499H59.25C60.93 18.1499 61.12 17.2699 61.12 16.6699C61.12 16.0699 60.92 15.1899 59.25 15.1899H57.88V15.1799Z" fill="#EE7A60"/>
<path d="M66.2098 18.4299C65.6698 18.0999 65.1898 17.8699 64.6498 17.8699C64.0898 17.8699 63.7198 18.1999 63.7198 18.5799C63.7198 19.0199 64.0998 19.2099 65.4098 19.8899C65.6998 20.0499 66.4098 20.4399 66.4098 21.2999C66.4098 21.8499 65.9698 22.8399 64.5998 22.8399C63.9498 22.8399 63.4098 22.6399 62.8398 22.3399V21.4699C63.7498 22.0199 64.3198 22.0899 64.6198 22.0899C65.0498 22.0899 65.5498 21.8199 65.5498 21.3499C65.5498 20.8199 65.0498 20.5699 64.3198 20.2199C63.6498 19.8999 62.8698 19.5099 62.8698 18.5899C62.8698 17.9199 63.4198 17.1099 64.6298 17.1099C65.3898 17.1099 65.9198 17.4199 66.1998 17.5799V18.4299H66.2098Z" fill="#EE7A60"/>
<path d="M68.1101 25.55H67.2001L69.1001 21.6L66.8701 17.23H67.7901L69.5401 20.7L71.1901 17.23H72.1101L68.1101 25.55Z" fill="#EE7A60"/>
<path d="M76.6897 18.3599C76.3697 18.1799 75.8797 17.9099 75.1797 17.9099C73.7197 17.9099 73.3397 19.2899 73.3397 20.0099C73.3397 20.9299 73.8397 22.0699 75.3297 22.0699C75.9997 22.0699 76.5597 21.8199 76.7997 21.7099V22.5399C76.5397 22.6399 75.9697 22.8499 75.2397 22.8499C73.4497 22.8499 72.4697 21.6199 72.4697 20.0299C72.4697 18.2299 73.6497 17.1299 75.1797 17.1299C75.8397 17.1299 76.3297 17.3099 76.6897 17.4599V18.3599Z" fill="#EE7A60"/>
<path d="M78.7699 14.3699V18.0599C79.1699 17.5199 79.7099 17.1199 80.4999 17.1199C81.7399 17.1199 82.4699 18.0299 82.4699 19.4499V22.7299H81.6199V19.5199C81.6199 18.5899 81.2599 17.8699 80.2999 17.8699C79.9799 17.8699 79.2799 17.9699 78.7699 18.8399V22.7399H77.9199V14.3799H78.7699V14.3699Z" fill="#EE7A60"/>
<path d="M89.4002 19.9699C89.4002 21.5499 88.1102 22.8399 86.5302 22.8399C84.9502 22.8399 83.6802 21.5499 83.6802 19.9699C83.6802 18.3899 84.9502 17.1199 86.5302 17.1199C88.1102 17.1199 89.4002 18.3899 89.4002 19.9699ZM84.5402 19.9699C84.5402 21.1299 85.3902 22.0899 86.5402 22.0899C87.6902 22.0899 88.5302 21.1399 88.5302 19.9699C88.5302 18.8099 87.7002 17.8599 86.5402 17.8599C85.3802 17.8599 84.5402 18.8099 84.5402 19.9699Z" fill="#EE7A60"/>
<path d="M93.83 18.4299C93.29 18.0999 92.81 17.8699 92.27 17.8699C91.71 17.8699 91.34 18.1999 91.34 18.5799C91.34 19.0199 91.72 19.2099 93.03 19.8899C93.32 20.0499 94.03 20.4399 94.03 21.2999C94.03 21.8499 93.59 22.8399 92.22 22.8399C91.57 22.8399 91.03 22.6399 90.46 22.3399V21.4699C91.37 22.0199 91.94 22.0899 92.24 22.0899C92.67 22.0899 93.17 21.8199 93.17 21.3499C93.17 20.8199 92.67 20.5699 91.94 20.2199C91.27 19.8999 90.49 19.5099 90.49 18.5899C90.49 17.9199 91.04 17.1099 92.25 17.1099C93.01 17.1099 93.54 17.4199 93.82 17.5799V18.4299H93.83Z" fill="#EE7A60"/>
<path d="M100.75 19.9699C100.75 21.5499 99.4598 22.8399 97.8798 22.8399C96.2998 22.8399 95.0298 21.5499 95.0298 19.9699C95.0298 18.3899 96.2998 17.1199 97.8798 17.1199C99.4598 17.1199 100.75 18.3899 100.75 19.9699ZM95.8998 19.9699C95.8998 21.1299 96.7498 22.0899 97.8998 22.0899C99.0498 22.0899 99.8898 21.1399 99.8898 19.9699C99.8898 18.8099 99.0598 17.8599 97.8998 17.8599C96.7398 17.8599 95.8998 18.8099 95.8998 19.9699Z" fill="#EE7A60"/>
<path d="M106 18.3599C105.68 18.1799 105.19 17.9099 104.49 17.9099C103.03 17.9099 102.65 19.2899 102.65 20.0099C102.65 20.9299 103.15 22.0699 104.64 22.0699C105.31 22.0699 105.87 21.8199 106.11 21.7099V22.5399C105.85 22.6399 105.28 22.8499 104.55 22.8499C102.76 22.8499 101.78 21.6199 101.78 20.0299C101.78 18.2299 102.96 17.1299 104.49 17.1299C105.15 17.1299 105.64 17.3099 106 17.4599V18.3599Z" fill="#EE7A60"/>
<path d="M108.22 15.5397C108.22 15.8497 107.97 16.0897 107.67 16.0897C107.37 16.0897 107.12 15.8397 107.12 15.5397C107.12 15.2297 107.37 14.9897 107.67 14.9897C107.97 14.9897 108.22 15.2297 108.22 15.5397ZM108.09 22.7298H107.24V17.2298H108.09V22.7298Z" fill="#EE7A60"/>
<path d="M114.11 22.3399C113.42 22.8299 113.17 22.8399 113.02 22.8399C112.57 22.8399 112.47 22.4699 112.42 22.2099C111.73 22.7299 111.3 22.8399 110.81 22.8399C110.04 22.8399 109.39 22.2499 109.39 21.4399C109.39 20.5499 110.13 19.8199 112.4 19.4199V18.9299C112.4 18.5699 112.34 17.8599 111.31 17.8599C110.59 17.8599 110.07 18.2299 109.59 18.6699V17.7899C109.86 17.5599 110.48 17.1199 111.38 17.1199C112.95 17.1199 113.24 18.2199 113.24 18.8499V21.8599C113.24 22.0899 113.26 22.1499 113.39 22.1499C113.5 22.1499 113.77 22.0299 114.1 21.7599V22.3399H114.11ZM112.41 19.9699C111 20.2299 110.24 20.6899 110.24 21.3799C110.24 22.0399 110.85 22.2299 111.17 22.2299C111.76 22.2299 112.2 21.8399 112.41 21.6399V19.9699Z" fill="#EE7A60"/>
<path d="M115.89 22.7299H115.04V14.3699H115.89V22.7299Z" fill="#EE7A60"/>
<path d="M59.0897 29.2C61.2597 29.2 61.8497 30.44 61.8497 31.44C61.8497 32.58 61.1497 33.19 60.3597 33.49C60.9597 33.88 61.3797 34.5299 62.4097 36.1499C62.7697 36.7099 62.9497 36.97 63.3697 37.56H62.2697L61.4697 36.3C61.1397 35.77 60.7697 35.2499 60.3897 34.7599C59.8497 34.0699 59.3797 33.74 58.4897 33.74H57.8897V37.56H56.9697V29.2H59.0897ZM57.8797 30.0099V32.9299H58.9597C60.1497 32.9299 60.8697 32.42 60.8697 31.46C60.8697 30.59 60.2297 30.0099 58.9597 30.0099H57.8797Z" fill="#EE7A60"/>
<path d="M68.5999 34.86H64.5199C64.5199 36.18 65.4399 36.92 66.4899 36.92C67.5699 36.92 68.2399 36.3699 68.5099 36.1499V37.0099C68.1699 37.2399 67.5499 37.67 66.3899 37.67C64.5499 37.67 63.6499 36.2699 63.6499 34.7899C63.6499 32.8799 64.9199 31.95 66.1699 31.95C67.5299 31.95 68.5999 33.06 68.5999 34.67V34.86ZM67.7299 34.25C67.6099 33.06 66.7999 32.69 66.1999 32.69C65.5099 32.69 64.7799 33.13 64.5699 34.25H67.7299Z" fill="#EE7A60"/>
<path d="M70.6698 29.2V32.89C71.0698 32.35 71.6098 31.95 72.3998 31.95C73.6398 31.95 74.3698 32.86 74.3698 34.28V37.56H73.5198V34.35C73.5198 33.42 73.1598 32.7 72.1998 32.7C71.8798 32.7 71.1798 32.8 70.6698 33.67V37.57H69.8198V29.21H70.6698V29.2Z" fill="#EE7A60"/>
<path d="M80.2801 37.17C79.5901 37.66 79.3401 37.67 79.1901 37.67C78.7401 37.67 78.6401 37.2999 78.5901 37.0399C77.9001 37.5599 77.4701 37.67 76.9801 37.67C76.2101 37.67 75.5601 37.08 75.5601 36.27C75.5601 35.38 76.3001 34.65 78.5701 34.25V33.7599C78.5701 33.3999 78.5101 32.69 77.4801 32.69C76.7601 32.69 76.2401 33.06 75.7601 33.5V32.6199C76.0301 32.3899 76.6501 31.95 77.5501 31.95C79.1201 31.95 79.4101 33.0499 79.4101 33.6799V36.69C79.4101 36.92 79.4301 36.9799 79.5601 36.9799C79.6701 36.9799 79.9401 36.86 80.2701 36.59V37.17H80.2801ZM78.5801 34.8C77.1701 35.06 76.4101 35.52 76.4101 36.21C76.4101 36.87 77.0201 37.06 77.3401 37.06C77.9301 37.06 78.3701 36.67 78.5801 36.47V34.8Z" fill="#EE7A60"/>
<path d="M81.21 29.2H82.06V32.64C82.33 32.43 82.89 31.94 83.8 31.94C85.34 31.94 86.21 33.26 86.21 34.67C86.21 36.47 85.07 37.66 83.24 37.66C82.54 37.66 81.84 37.51 81.21 37.24V29.2ZM82.06 36.7C82.69 36.92 83.21 36.92 83.32 36.92C84.47 36.92 85.34 36 85.34 34.75C85.34 33.57 84.58 32.69 83.62 32.69C83.22 32.69 82.6 32.9 82.05 33.5V36.7H82.06Z" fill="#EE7A60"/>
<path d="M88.4999 30.3698C88.4999 30.6798 88.2499 30.9198 87.9499 30.9198C87.6499 30.9198 87.3999 30.6698 87.3999 30.3698C87.3999 30.0698 87.6499 29.8198 87.9499 29.8198C88.2499 29.8198 88.4999 30.0598 88.4999 30.3698ZM88.3699 37.5598H87.5199V32.0598H88.3699V37.5598Z" fill="#EE7A60"/>
<path d="M90.8002 37.56H89.9502V29.2H90.8002V37.56Z" fill="#EE7A60"/>
<path d="M93.37 30.3698C93.37 30.6798 93.12 30.9198 92.82 30.9198C92.52 30.9198 92.27 30.6698 92.27 30.3698C92.27 30.0698 92.52 29.8198 92.82 29.8198C93.12 29.8198 93.37 30.0598 93.37 30.3698ZM93.24 37.5598H92.39V32.0598H93.24V37.5598Z" fill="#EE7A60"/>
<path d="M94.1602 32.6698L95.9501 30.7698V32.0598H97.6002V32.8098H95.9501V35.6898C95.9501 36.3998 96.0001 36.8898 96.7701 36.8898C97.2001 36.8898 97.4702 36.7598 97.8902 36.5598V37.3598C97.6602 37.4698 97.2002 37.6798 96.6002 37.6798C95.5002 37.6798 95.1102 36.9198 95.1102 36.0398V32.8198H94.1702V32.6698H94.1602Z" fill="#EE7A60"/>
<path d="M103.1 37.17C102.41 37.66 102.16 37.67 102.01 37.67C101.56 37.67 101.46 37.2999 101.41 37.0399C100.72 37.5599 100.29 37.67 99.7999 37.67C99.0299 37.67 98.3799 37.08 98.3799 36.27C98.3799 35.38 99.1199 34.65 101.39 34.25V33.7599C101.39 33.3999 101.33 32.69 100.3 32.69C99.5799 32.69 99.0599 33.06 98.5799 33.5V32.6199C98.8499 32.3899 99.4699 31.95 100.37 31.95C101.94 31.95 102.23 33.0499 102.23 33.6799V36.69C102.23 36.92 102.25 36.9799 102.38 36.9799C102.49 36.9799 102.76 36.86 103.09 36.59V37.17H103.1ZM101.4 34.8C99.9899 35.06 99.2299 35.52 99.2299 36.21C99.2299 36.87 99.8399 37.06 100.16 37.06C100.75 37.06 101.19 36.67 101.4 36.47V34.8Z" fill="#EE7A60"/>
<path d="M103.36 32.6698L105.15 30.7698V32.0598H106.8V32.8098H105.15V35.6898C105.15 36.3998 105.2 36.8898 105.97 36.8898C106.4 36.8898 106.67 36.7598 107.09 36.5598V37.3598C106.86 37.4698 106.4 37.6798 105.8 37.6798C104.7 37.6798 104.31 36.9198 104.31 36.0398V32.8198H103.37V32.6698H103.36Z" fill="#EE7A60"/>
<path d="M108.84 30.3698C108.84 30.6798 108.59 30.9198 108.29 30.9198C107.99 30.9198 107.74 30.6698 107.74 30.3698C107.74 30.0698 107.99 29.8198 108.29 29.8198C108.59 29.8198 108.84 30.0598 108.84 30.3698ZM108.71 37.5598H107.86V32.0598H108.71V37.5598Z" fill="#EE7A60"/>
<path d="M115.74 34.8C115.74 36.38 114.45 37.67 112.87 37.67C111.29 37.67 110.02 36.38 110.02 34.8C110.02 33.22 111.29 31.95 112.87 31.95C114.45 31.95 115.74 33.22 115.74 34.8ZM110.89 34.8C110.89 35.96 111.74 36.92 112.89 36.92C114.04 36.92 114.88 35.97 114.88 34.8C114.88 33.64 114.05 32.69 112.89 32.69C111.74 32.69 110.89 33.64 110.89 34.8Z" fill="#EE7A60"/>
<path d="M117.91 32.06V32.89C118.31 32.35 118.85 31.95 119.64 31.95C120.88 31.95 121.61 32.86 121.61 34.28V37.56H120.76V34.35C120.76 33.42 120.4 32.7 119.44 32.7C119.12 32.7 118.42 32.8 117.91 33.67V37.57H117.06V32.07H117.91V32.06Z" fill="#EE7A60"/>
<path d="M127.25 36.75H131.2V37.56H126.33V29.2H127.25V36.75Z" fill="#EE7A60"/>
<path d="M136.49 37.17C135.8 37.66 135.55 37.67 135.4 37.67C134.95 37.67 134.85 37.2999 134.8 37.0399C134.11 37.5599 133.68 37.67 133.19 37.67C132.42 37.67 131.77 37.08 131.77 36.27C131.77 35.38 132.51 34.65 134.78 34.25V33.7599C134.78 33.3999 134.72 32.69 133.69 32.69C132.97 32.69 132.45 33.06 131.97 33.5V32.6199C132.24 32.3899 132.86 31.95 133.76 31.95C135.33 31.95 135.62 33.0499 135.62 33.6799V36.69C135.62 36.92 135.64 36.9799 135.77 36.9799C135.88 36.9799 136.15 36.86 136.48 36.59V37.17H136.49ZM134.79 34.8C133.38 35.06 132.62 35.52 132.62 36.21C132.62 36.87 133.23 37.06 133.55 37.06C134.14 37.06 134.58 36.67 134.79 36.47V34.8Z" fill="#EE7A60"/>
<path d="M137.42 29.2H138.27V32.64C138.54 32.43 139.1 31.94 140.01 31.94C141.55 31.94 142.42 33.26 142.42 34.67C142.42 36.47 141.28 37.66 139.45 37.66C138.75 37.66 138.05 37.51 137.42 37.24V29.2ZM138.26 36.7C138.89 36.92 139.41 36.92 139.52 36.92C140.67 36.92 141.54 36 141.54 34.75C141.54 33.57 140.78 32.69 139.82 32.69C139.42 32.69 138.8 32.9 138.25 33.5V36.7H138.26Z" fill="#EE7A60"/>
<path d="M20.9902 44.0999C20.9902 37.8499 25.7402 34.2899 30.3302 30.8499C34.9202 27.4099 39.2602 24.1599 39.2602 18.3199C39.2602 10.9099 33.3102 6.2999 23.7402 6.2999V0.889893C38.1902 0.889893 44.6602 9.63989 44.6602 18.3199C44.6602 26.8599 38.5102 31.4699 33.5702 35.1799C29.7202 38.0699 20.9902 44.0999 20.9902 44.0999Z" fill="#EE7A60"/>
<path d="M20.92 51.8899C6.47 51.8899 0 43.1399 0 34.4699C0 25.6799 6.28 20.9399 11.33 17.1299C15.06 14.3199 23.68 8.68994 23.68 8.68994C23.68 14.5899 19.06 18.0699 14.58 21.4499C9.86 25.0099 5.41 28.3799 5.41 34.4699C5.41 41.8899 11.35 46.4899 20.92 46.4899V51.8899Z" fill="#EE7A60"/>
</svg>
