<svg width="142" height="52" viewBox="0 0 142 52" fill="none" xmlns="http://www.w3.org/2000/svg">
<path d="M60.12 21.7898C62.22 21.7898 62.88 22.9398 62.88 24.0798C62.88 25.2198 62.22 26.3698 60.12 26.3698H58.65V30.1398H57.73V21.7798H60.12V21.7898ZM58.65 22.5998V25.5698H60.02C61.7 25.5698 61.89 24.6898 61.89 24.0898C61.89 23.4898 61.69 22.6098 60.02 22.6098H58.65V22.5998Z" fill="#C13718"/>
<path d="M66.9799 25.8498C66.4399 25.5198 65.9599 25.2898 65.4199 25.2898C64.8599 25.2898 64.4899 25.6198 64.4899 25.9998C64.4899 26.4398 64.8699 26.6298 66.1799 27.3098C66.4699 27.4698 67.1799 27.8598 67.1799 28.7198C67.1799 29.2698 66.7399 30.2598 65.3699 30.2598C64.7199 30.2598 64.1799 30.0598 63.6099 29.7598V28.8898C64.5199 29.4398 65.0899 29.5098 65.3899 29.5098C65.8199 29.5098 66.3199 29.2398 66.3199 28.7698C66.3199 28.2398 65.8199 27.9898 65.0899 27.6398C64.4199 27.3198 63.6399 26.9298 63.6399 26.0098C63.6399 25.3398 64.1899 24.5298 65.3999 24.5298C66.1599 24.5298 66.6899 24.8398 66.9699 24.9998V25.8498H66.9799Z" fill="#C13718"/>
<path d="M68.8801 32.9699H67.9701L69.8701 29.0199L67.6401 24.6499H68.5601L70.3101 28.1199L71.9601 24.6499H72.8801L68.8801 32.9699Z" fill="#C13718"/>
<path d="M77.47 25.7698C77.15 25.5898 76.66 25.3198 75.96 25.3198C74.5 25.3198 74.12 26.6998 74.12 27.4198C74.12 28.3398 74.62 29.4798 76.11 29.4798C76.78 29.4798 77.34 29.2398 77.58 29.1198V29.9498C77.32 30.0498 76.75 30.2598 76.02 30.2598C74.23 30.2598 73.25 29.0298 73.25 27.4398C73.25 25.6398 74.43 24.5398 75.96 24.5398C76.62 24.5398 77.11 24.7198 77.47 24.8698V25.7698Z" fill="#C13718"/>
<path d="M79.5502 21.7898V25.4798C79.9502 24.9398 80.4902 24.5398 81.2802 24.5398C82.5202 24.5398 83.2502 25.4498 83.2502 26.8698V30.1498H82.4002V26.9398C82.4002 26.0098 82.0402 25.2898 81.0802 25.2898C80.7602 25.2898 80.0602 25.3898 79.5502 26.2598V30.1598H78.7002V21.7998H79.5502V21.7898Z" fill="#C13718"/>
<path d="M90.1702 27.3898C90.1702 28.9698 88.8802 30.2598 87.3002 30.2598C85.7202 30.2598 84.4502 28.9698 84.4502 27.3898C84.4502 25.8098 85.7202 24.5398 87.3002 24.5398C88.8802 24.5398 90.1702 25.8098 90.1702 27.3898ZM85.3202 27.3898C85.3202 28.5498 86.1702 29.5098 87.3202 29.5098C88.4702 29.5098 89.3102 28.5598 89.3102 27.3898C89.3102 26.2298 88.4802 25.2798 87.3202 25.2798C86.1602 25.2798 85.3202 26.2298 85.3202 27.3898Z" fill="#C13718"/>
<path d="M90.73 25.2599L92.52 23.3599V24.6499H94.17V25.3999H92.52V28.2799C92.52 28.9899 92.57 29.4799 93.34 29.4799C93.77 29.4799 94.04 29.3499 94.46 29.1499V29.9499C94.23 30.0599 93.77 30.2699 93.17 30.2699C92.07 30.2699 91.68 29.5099 91.68 28.6299V25.4099H90.74V25.2599H90.73Z" fill="#C13718"/>
<path d="M99.9002 27.4498H95.8202C95.8202 28.7698 96.7402 29.5098 97.7902 29.5098C98.8702 29.5098 99.5402 28.9598 99.8102 28.7398V29.5998C99.4702 29.8298 98.8502 30.2598 97.6902 30.2598C95.8502 30.2598 94.9502 28.8598 94.9502 27.3798C94.9502 25.4698 96.2202 24.5398 97.4702 24.5398C98.8302 24.5398 99.9002 25.6498 99.9002 27.2598V27.4498ZM99.0302 26.8398C98.9102 25.6498 98.1002 25.2798 97.5002 25.2798C96.8102 25.2798 96.0802 25.7198 95.8702 26.8398H99.0302Z" fill="#C13718"/>
<path d="M101.97 24.6498V25.8598C102.12 25.6298 102.44 25.1498 102.89 24.8398C103 24.7698 103.36 24.5298 103.72 24.5298C104.25 24.5298 104.82 25.0098 105.03 25.1798L104.58 25.9198C104.4 25.7598 103.99 25.3998 103.51 25.3998C103.02 25.3998 102.42 25.8398 102.16 26.4398C101.96 26.8798 101.96 27.4798 101.96 27.7598V30.1398H101.11V24.6398H101.97V24.6498Z" fill="#C13718"/>
<path d="M110.01 29.7598C109.32 30.2498 109.07 30.2598 108.92 30.2598C108.47 30.2598 108.37 29.8898 108.32 29.6298C107.63 30.1498 107.2 30.2598 106.71 30.2598C105.94 30.2598 105.29 29.6698 105.29 28.8598C105.29 27.9698 106.03 27.2398 108.3 26.8398V26.3498C108.3 25.9898 108.24 25.2798 107.21 25.2798C106.49 25.2798 105.97 25.6498 105.49 26.0898V25.2098C105.76 24.9798 106.38 24.5398 107.28 24.5398C108.85 24.5398 109.14 25.6398 109.14 26.2698V29.2798C109.14 29.5098 109.16 29.5698 109.29 29.5698C109.4 29.5698 109.67 29.4498 110 29.1798V29.7598H110.01ZM108.31 27.3898C106.9 27.6498 106.14 28.1098 106.14 28.7998C106.14 29.4598 106.75 29.6498 107.07 29.6498C107.66 29.6498 108.1 29.2598 108.31 29.0598V27.3898Z" fill="#C13718"/>
<path d="M112.87 24.6499C114.79 24.6499 115.91 25.6299 115.91 27.3899C115.91 28.9299 114.94 30.2599 113.18 30.2599C112.51 30.2599 112.02 30.0299 111.78 29.9299V32.8599H110.93V24.6499H112.87ZM111.78 29.1599C111.98 29.2699 112.42 29.5099 113.04 29.5099C114.4 29.5099 115.04 28.5199 115.04 27.4199C115.04 26.0999 114.16 25.3999 112.86 25.3999H111.78V29.1599Z" fill="#C13718"/>
<path d="M117.5 32.9699H116.59L118.49 29.0199L116.26 24.6499H117.18L118.93 28.1199L120.58 24.6499H121.5L117.5 32.9699Z" fill="#C13718"/>
<path d="M126.49 29.3398H130.44V30.1498H125.57V21.7898H126.49V29.3398Z" fill="#C13718"/>
<path d="M135.73 29.7598C135.04 30.2498 134.79 30.2598 134.64 30.2598C134.19 30.2598 134.09 29.8898 134.04 29.6298C133.35 30.1498 132.92 30.2598 132.43 30.2598C131.66 30.2598 131.01 29.6698 131.01 28.8598C131.01 27.9698 131.75 27.2398 134.02 26.8398V26.3498C134.02 25.9898 133.96 25.2798 132.93 25.2798C132.21 25.2798 131.69 25.6498 131.21 26.0898V25.2098C131.48 24.9798 132.1 24.5398 133 24.5398C134.57 24.5398 134.86 25.6398 134.86 26.2698V29.2798C134.86 29.5098 134.88 29.5698 135.01 29.5698C135.12 29.5698 135.39 29.4498 135.72 29.1798V29.7598H135.73ZM134.03 27.3898C132.62 27.6498 131.86 28.1098 131.86 28.7998C131.86 29.4598 132.47 29.6498 132.79 29.6498C133.38 29.6498 133.82 29.2598 134.03 29.0598V27.3898Z" fill="#C13718"/>
<path d="M136.66 21.7898H137.51V25.2298C137.78 25.0198 138.34 24.5298 139.25 24.5298C140.79 24.5298 141.66 25.8498 141.66 27.2598C141.66 29.0598 140.52 30.2498 138.69 30.2498C137.99 30.2498 137.29 30.0998 136.66 29.8298V21.7898ZM137.51 29.2898C138.14 29.5098 138.66 29.5098 138.77 29.5098C139.92 29.5098 140.79 28.5898 140.79 27.3398C140.79 26.1598 140.03 25.2798 139.07 25.2798C138.67 25.2798 138.05 25.4898 137.5 26.0898V29.2898H137.51Z" fill="#C13718"/>
<path d="M21.7598 44.1099C21.7598 37.8599 26.5098 34.2999 31.0998 30.8599C35.6898 27.4199 40.0298 24.1699 40.0298 18.3299C40.0298 10.9099 34.0798 6.3099 24.5098 6.3099V0.899902C38.9598 0.899902 45.4297 9.6499 45.4297 18.3299C45.4297 26.8699 39.2798 31.4799 34.3398 35.1899C30.4898 38.0699 21.7598 44.1099 21.7598 44.1099Z" fill="#C13718"/>
<path d="M21.6998 51.8899C7.2398 51.8899 0.779785 43.1399 0.779785 34.4599C0.779785 25.6699 7.05977 20.9299 12.1098 17.1199C15.8398 14.3099 24.4598 8.67993 24.4598 8.67993C24.4598 14.5799 19.8398 18.0699 15.3598 21.4399C10.6398 24.9999 6.18979 28.3699 6.18979 34.4599C6.18979 41.8699 12.1298 46.4799 21.6998 46.4799V51.8899Z" fill="#C13718"/>
</svg>
