<svg width="88" height="51" viewBox="0 0 88 51" fill="none" xmlns="http://www.w3.org/2000/svg">
<path d="M61.4899 22.33C60.9549 21.8787 60.2886 21.6121 59.5899 21.57C59.402 21.5449 59.211 21.559 59.0289 21.6115C58.8467 21.664 58.6775 21.7537 58.5318 21.8749C58.3861 21.9962 58.2672 22.1463 58.1825 22.3158C58.0978 22.4854 58.0492 22.6707 58.0399 22.86C58.0399 23.7 58.8799 24.13 59.6199 24.5C61.2499 25.31 61.8399 25.7901 61.8399 27.0201C61.8362 27.333 61.7695 27.6419 61.6438 27.9285C61.5181 28.2151 61.3359 28.4735 61.1082 28.6882C60.8805 28.9028 60.6119 29.0693 60.3184 29.1779C60.0248 29.2865 59.7125 29.3348 59.3999 29.32C58.6065 29.2952 57.8394 29.0303 57.1999 28.5601V27.4301C57.7712 28.0252 58.5463 28.3824 59.3699 28.4301C59.5647 28.4465 59.7608 28.423 59.9462 28.3611C60.1317 28.2993 60.3026 28.2003 60.4485 28.0702C60.5945 27.9402 60.7125 27.7818 60.7952 27.6047C60.878 27.4275 60.9238 27.2355 60.9299 27.0401C60.9299 26.5101 60.7699 26.04 59.0499 25.2C57.6399 24.54 57.1299 23.8401 57.1299 22.9101C57.137 22.5991 57.2076 22.2927 57.3375 22.0101C57.4674 21.7274 57.6538 21.4742 57.8852 21.2663C58.1166 21.0583 58.388 20.8999 58.6829 20.8008C58.9778 20.7017 59.2898 20.664 59.5999 20.69C60.2696 20.6882 60.9257 20.8792 61.4899 21.24V22.33Z" fill="#BE233C"/>
<path d="M67.72 26.51H63.6301C63.6116 26.7802 63.6502 27.0512 63.7434 27.3054C63.8366 27.5597 63.9822 27.7915 64.1708 27.9858C64.3595 28.1801 64.5869 28.3326 64.8383 28.4332C65.0897 28.5339 65.3595 28.5804 65.6301 28.5699C66.3674 28.561 67.0771 28.2879 67.6301 27.8V28.65C67.0199 29.1075 66.2723 29.3437 65.5101 29.3199C65.1356 29.3294 64.7634 29.2602 64.4173 29.1169C64.0712 28.9737 63.759 28.7595 63.5009 28.4882C63.2427 28.2168 63.0443 27.8943 62.9184 27.5415C62.7925 27.1887 62.742 26.8134 62.7701 26.4399C62.7326 26.0841 62.7694 25.7246 62.8784 25.3838C62.9874 25.043 63.1661 24.7286 63.4031 24.4606C63.6401 24.1926 63.9301 23.9768 64.255 23.8269C64.5799 23.677 64.9323 23.5963 65.29 23.59C65.6309 23.6011 65.9659 23.6812 66.2748 23.8256C66.5838 23.9699 66.8602 24.1755 67.0874 24.4298C67.3146 24.6841 67.4878 24.9819 67.5966 25.3051C67.7053 25.6282 67.7473 25.9702 67.72 26.3101V26.51ZM66.85 25.9C66.8501 25.4897 66.6885 25.0959 66.4003 24.804C66.112 24.512 65.7203 24.3452 65.3101 24.34C64.8939 24.3535 64.4974 24.5202 64.1966 24.8081C63.8958 25.096 63.7119 25.4849 63.68 25.9H66.85Z" fill="#BE233C"/>
<path d="M69.1699 29.21H68.1699L70.4799 26.41L68.1699 23.7H69.2399L70.9999 25.77L72.7299 23.7H73.7299L71.4999 26.39L73.9 29.21H72.84L70.9999 27L69.1699 29.21Z" fill="#BE233C"/>
<path d="M75.5598 29.21H74.7197V20.85H75.5598V29.21Z" fill="#BE233C"/>
<path d="M81.5899 28.8101C80.9099 29.3001 80.6499 29.32 80.4999 29.32C80.0499 29.32 79.9499 28.95 79.8999 28.69C79.4627 29.0904 78.8927 29.3148 78.2999 29.32C78.114 29.324 77.9292 29.2908 77.7564 29.2221C77.5837 29.1534 77.4264 29.0507 77.294 28.9202C77.1616 28.7897 77.0567 28.6339 76.9856 28.4621C76.9144 28.2903 76.8785 28.106 76.8799 27.9201C76.8799 27.0201 77.6099 26.3001 79.8799 25.9201V25.4301C79.8799 25.0701 79.8199 24.36 78.7899 24.36C78.1323 24.393 77.5142 24.6841 77.0699 25.1701V24.2901C77.5654 23.8555 78.2009 23.614 78.8599 23.61C79.1009 23.579 79.3458 23.6013 79.5772 23.6752C79.8086 23.7491 80.021 23.8729 80.1993 24.0379C80.3777 24.2029 80.5176 24.4051 80.6093 24.63C80.701 24.855 80.7421 25.0974 80.7299 25.34V28.34C80.7299 28.57 80.7299 28.63 80.8699 28.63C81.137 28.5653 81.382 28.4307 81.5799 28.24L81.5899 28.8101ZM79.8899 26.45C78.4799 26.71 77.7199 27.17 77.7199 27.86C77.7236 27.977 77.7509 28.0919 77.8001 28.198C77.8494 28.3042 77.9195 28.3994 78.0063 28.4778C78.0931 28.5562 78.1949 28.6163 78.3055 28.6545C78.416 28.6927 78.5332 28.7081 78.6499 28.7C79.1234 28.6687 79.567 28.4577 79.8899 28.11V26.45Z" fill="#BE233C"/>
<path d="M82.52 20.85H83.37V24.29C83.8468 23.8547 84.4646 23.6061 85.11 23.59C85.4509 23.6035 85.7856 23.6863 86.0936 23.833C86.4017 23.9798 86.6766 24.1875 86.902 24.4437C87.1273 24.6999 87.2983 24.9992 87.4045 25.3235C87.5108 25.6477 87.5501 25.9901 87.52 26.33C87.5516 26.732 87.4957 27.1361 87.3561 27.5144C87.2165 27.8927 86.9966 28.2362 86.7114 28.5214C86.4263 28.8065 86.0827 29.0264 85.7044 29.166C85.3261 29.3056 84.922 29.3615 84.52 29.33C83.8324 29.3215 83.153 29.1789 82.52 28.91V20.85ZM83.37 28.35C83.7747 28.4934 84.2006 28.5678 84.63 28.5699C84.9076 28.571 85.1823 28.5142 85.4368 28.4032C85.6912 28.2922 85.9198 28.1295 86.1079 27.9254C86.296 27.7213 86.4396 27.4803 86.5295 27.2177C86.6194 26.955 86.6536 26.6766 86.63 26.4C86.6548 26.1522 86.63 25.9018 86.5572 25.6636C86.4844 25.4254 86.365 25.204 86.2059 25.0123C86.0468 24.8207 85.8512 24.6625 85.6304 24.5471C85.4097 24.4317 85.1682 24.3613 84.92 24.34C84.6172 24.3621 84.322 24.4453 84.0522 24.5845C83.7824 24.7237 83.5435 24.9161 83.35 25.15L83.37 28.35Z" fill="#BE233C"/>
<path d="M21.6401 43.17C21.6401 36.91 26.3901 33.36 30.9801 29.91C35.5701 26.46 39.9101 23.22 39.9101 17.38C39.9101 9.97001 33.9601 5.38 24.3901 5.38V0C38.8501 0 45.3201 8.76005 45.3201 17.4301C45.3201 26.1001 39.1701 30.59 34.2301 34.29C30.3801 37.18 21.6401 43.22 21.6401 43.22" fill="#BE233C"/>
<path d="M21.5802 51C7.1202 51 0.660156 42.25 0.660156 33.58C0.660156 24.91 6.94016 20.04 11.9802 16.23C15.7102 13.42 24.3402 7.79004 24.3402 7.79004C24.3402 13.69 19.7102 17.18 15.2402 20.55C10.5202 24.11 6.07019 27.48 6.07019 33.55C6.07019 40.96 12.0102 45.55 21.5802 45.55V51Z" fill="#BE233C"/>
</svg>
