<svg width="102" height="47" viewBox="0 0 102 47" fill="none" xmlns="http://www.w3.org/2000/svg">
<path d="M56.1101 20.5C55.6225 20.0887 55.0165 19.8435 54.3801 19.8C54.2098 19.7836 54.0379 19.802 53.8749 19.8541C53.7119 19.9063 53.5613 19.9911 53.4321 20.1034C53.303 20.2157 53.1982 20.353 53.1239 20.5072C53.0496 20.6613 53.0075 20.829 53.0001 21C53.0001 21.77 53.7701 22.16 54.4401 22.5C55.9201 23.23 56.4401 23.67 56.4401 24.8C56.4378 25.0849 56.3778 25.3663 56.2638 25.6274C56.1497 25.8885 55.9839 26.1239 55.7765 26.3192C55.569 26.5145 55.3243 26.6657 55.0568 26.7638C54.7893 26.8619 54.5046 26.9049 54.2201 26.89C53.4995 26.8649 52.8029 26.6245 52.2201 26.1999V25.1999C52.733 25.7785 53.4495 26.1368 54.2201 26.1999C54.3978 26.215 54.5768 26.1936 54.746 26.1371C54.9151 26.0805 55.0709 25.99 55.2039 25.8711C55.3368 25.7522 55.4442 25.6074 55.5192 25.4455C55.5942 25.2837 55.6353 25.1083 55.6401 24.93C55.6401 24.45 55.5002 23.99 53.9302 23.25C52.6502 22.64 52.1802 22.01 52.1802 21.16C52.1914 20.8783 52.2594 20.6018 52.3802 20.347C52.5011 20.0923 52.6723 19.8647 52.8834 19.6778C53.0946 19.491 53.3414 19.3487 53.6089 19.2598C53.8764 19.1708 54.1591 19.1369 54.4401 19.16C55.0503 19.1625 55.6472 19.3395 56.1602 19.67L56.1101 20.5Z" fill="#E61F69"/>
<path d="M59.2903 21.75C61.0503 21.75 62.0702 22.64 62.0702 24.25C62.0955 24.5903 62.0491 24.9322 61.9341 25.2535C61.819 25.5748 61.6378 25.8684 61.4022 26.1154C61.1666 26.3623 60.8818 26.557 60.5663 26.687C60.2507 26.817 59.9114 26.8793 59.5702 26.87C59.1302 26.8625 58.6971 26.7601 58.3003 26.5699V29.24H57.5303V21.75H59.2903ZM58.2903 25.87C58.6386 26.0765 59.0353 26.1868 59.4402 26.1899C59.6871 26.1788 59.9294 26.1192 60.1532 26.0144C60.377 25.9096 60.5781 25.7617 60.7448 25.5792C60.9114 25.3968 61.0405 25.1833 61.1246 24.9509C61.2088 24.7186 61.2464 24.4719 61.2352 24.225C61.2241 23.9781 61.1644 23.7359 61.0596 23.5121C60.9548 23.2883 60.807 23.0872 60.6245 22.9205C60.442 22.7539 60.2286 22.6247 59.9962 22.5405C59.7639 22.4564 59.5171 22.4189 59.2703 22.4301H58.2703L58.2903 25.87Z" fill="#E61F69"/>
<path d="M67.52 24.3101H63.8001C63.7833 24.5545 63.8177 24.7997 63.9012 25.03C63.9846 25.2604 64.1151 25.4707 64.2846 25.6477C64.454 25.8247 64.6585 25.9644 64.885 26.0577C65.1115 26.1511 65.3551 26.1961 65.6 26.1899C66.28 26.1889 66.9355 25.936 67.44 25.48V26.27C66.881 26.6786 66.2021 26.8897 65.51 26.87C65.1676 26.8793 64.8269 26.8168 64.5102 26.6863C64.1934 26.5558 63.9075 26.3603 63.6709 26.1124C63.4344 25.8646 63.2526 25.5698 63.137 25.2473C63.0214 24.9248 62.9747 24.5817 63 24.24C62.9682 23.9155 63.004 23.5878 63.1051 23.2778C63.2062 22.9678 63.3705 22.6822 63.5876 22.4388C63.8046 22.1955 64.0696 21.9998 64.3661 21.864C64.6626 21.7282 64.9841 21.6554 65.3101 21.65C65.6207 21.6598 65.926 21.7327 66.2075 21.8643C66.4891 21.9958 66.7409 22.1833 66.9477 22.4153C67.1544 22.6473 67.3118 22.919 67.4102 23.2137C67.5086 23.5085 67.546 23.8203 67.52 24.13V24.3101ZM66.73 23.75C66.7313 23.5648 66.6961 23.3812 66.6265 23.2096C66.5569 23.038 66.4541 22.8819 66.3241 22.75C66.1941 22.6181 66.0394 22.5132 65.8688 22.4412C65.6982 22.3691 65.5152 22.3313 65.33 22.33C64.9495 22.3389 64.5861 22.4894 64.3106 22.752C64.0351 23.0145 63.8673 23.3704 63.84 23.75H66.73Z" fill="#E61F69"/>
<path d="M72.9 24.3101H69.17C69.1532 24.5545 69.1877 24.7997 69.2711 25.03C69.3545 25.2604 69.4852 25.4707 69.6546 25.6477C69.8241 25.8247 70.0285 25.9644 70.255 26.0577C70.4815 26.1511 70.725 26.1961 70.97 26.1899C71.6529 26.1885 72.3114 25.9359 72.8199 25.48V26.27C72.2579 26.6801 71.5754 26.8912 70.88 26.87C70.5379 26.8795 70.1976 26.8169 69.8813 26.6863C69.565 26.5557 69.2798 26.3601 69.0441 26.1121C68.8083 25.864 68.6273 25.5691 68.5129 25.2466C68.3985 24.9241 68.3532 24.5811 68.38 24.24C68.3467 23.916 68.3811 23.5887 68.4811 23.2787C68.581 22.9687 68.7443 22.6829 68.9606 22.4393C69.1768 22.1958 69.4413 21.9999 69.7373 21.864C70.0333 21.7281 70.3544 21.6552 70.68 21.65C70.9911 21.6599 71.2968 21.7327 71.5788 21.8641C71.8609 21.9956 72.1132 22.1829 72.3208 22.4148C72.5283 22.6466 72.6867 22.9182 72.7862 23.213C72.8858 23.5078 72.9245 23.8198 72.9 24.13V24.3101ZM72.1 23.75C72.1026 23.3778 71.958 23.0196 71.6976 22.7535C71.4372 22.4875 71.0822 22.3352 70.7099 22.33C70.3295 22.3389 69.966 22.4894 69.6905 22.752C69.415 23.0145 69.2472 23.3704 69.22 23.75H72.1Z" fill="#E61F69"/>
<path d="M77.6 22.78C77.1915 22.5149 76.7169 22.3694 76.23 22.3599C75.9921 22.3712 75.7589 22.4304 75.5444 22.5339C75.3298 22.6374 75.1384 22.7832 74.9815 22.9625C74.8246 23.1417 74.7055 23.3508 74.6314 23.5772C74.5573 23.8036 74.5296 24.0426 74.5501 24.28C74.53 24.526 74.5624 24.7734 74.6453 25.0059C74.7282 25.2384 74.8596 25.4506 75.0308 25.6284C75.202 25.8062 75.4091 25.9455 75.6382 26.0372C75.8674 26.1288 76.1134 26.1707 76.36 26.16C76.8254 26.1488 77.2827 26.0361 77.7 25.8299V26.5899C77.2481 26.7704 76.7667 26.8653 76.2801 26.8699C75.9397 26.8895 75.5992 26.836 75.2812 26.7131C74.9632 26.5901 74.6751 26.4006 74.4364 26.1572C74.1978 25.9138 74.0139 25.6222 73.8973 25.3018C73.7806 24.9815 73.7338 24.6399 73.7601 24.3C73.7306 23.9598 73.7729 23.6172 73.8842 23.2944C73.9955 22.9716 74.1732 22.6757 74.4061 22.426C74.6389 22.1762 74.9216 21.9781 75.2358 21.8444C75.55 21.7108 75.8886 21.6445 76.23 21.65C76.7023 21.656 77.1684 21.758 77.6 21.9499V22.78Z" fill="#E61F69"/>
<path d="M79.5 19.14V22.51C79.6731 22.2485 79.9077 22.0335 80.1831 21.8835C80.4585 21.7336 80.7664 21.6534 81.08 21.65C82.21 21.65 82.88 22.48 82.88 23.77V26.77H82.11V23.84C82.11 22.99 81.78 22.33 80.9 22.33C80.6089 22.3363 80.3249 22.4216 80.0784 22.5765C79.8318 22.7315 79.632 22.9504 79.5 23.21V26.77H78.73V19.14H79.5Z" fill="#E61F69"/>
<path d="M88.0001 26H91.6001V26.74H87.1602V19.11H88.0001V26Z" fill="#E61F69"/>
<path d="M96.4598 26.41C95.8298 26.86 95.5998 26.87 95.4598 26.87C95.0498 26.87 94.9599 26.54 94.9199 26.3C94.5152 26.6619 93.9927 26.8644 93.4498 26.87C93.2809 26.8726 93.1131 26.8418 92.9562 26.7793C92.7992 26.7167 92.6563 26.6238 92.5354 26.5057C92.4145 26.3876 92.3182 26.2469 92.2521 26.0914C92.1859 25.9359 92.1512 25.7689 92.1499 25.5999C92.1499 24.7799 92.8199 24.12 94.8999 23.75V23.3C94.8999 22.98 94.8499 22.3 93.8999 22.3C93.2997 22.3311 92.7358 22.5969 92.3298 23.04V22.2299C92.7879 21.8403 93.3685 21.6244 93.9698 21.62C94.1895 21.5918 94.4128 21.6122 94.6237 21.6799C94.8345 21.7476 95.0278 21.8609 95.1901 22.0117C95.3523 22.1625 95.4793 22.347 95.5623 22.5523C95.6452 22.7577 95.682 22.9788 95.6699 23.1999V26C95.6699 26.21 95.6699 26.26 95.7999 26.26C96.0432 26.2013 96.267 26.0808 96.4498 25.91L96.4598 26.41ZM94.8999 24.25C93.6199 24.49 92.8999 24.91 92.8999 25.54C92.9024 25.6464 92.9264 25.7512 92.9703 25.8481C93.0143 25.945 93.0774 26.0321 93.1559 26.104C93.2343 26.1759 93.3265 26.2312 93.4269 26.2666C93.5272 26.302 93.6337 26.3168 93.7399 26.31C94.1691 26.2792 94.5717 26.0903 94.8699 25.78L94.8999 24.25Z" fill="#E61F69"/>
<path d="M97.3101 19.14H98.08V22.29C98.5151 21.8915 99.0801 21.6641 99.67 21.65C99.9803 21.6624 100.285 21.7375 100.565 21.8707C100.845 22.004 101.096 22.1926 101.302 22.4253C101.507 22.658 101.664 22.9298 101.761 23.2245C101.859 23.5192 101.896 23.8306 101.87 24.14C101.898 24.504 101.848 24.8697 101.722 25.2124C101.596 25.5551 101.397 25.8665 101.14 26.1256C100.883 26.3847 100.573 26.5853 100.231 26.7137C99.8896 26.8422 99.5242 26.8955 99.16 26.87C98.524 26.8704 97.8945 26.7411 97.3101 26.49V19.14ZM98.08 25.99C98.4495 26.12 98.8382 26.1876 99.23 26.1899C99.4848 26.1879 99.7365 26.1336 99.9695 26.0303C100.202 25.927 100.412 25.7769 100.584 25.5894C100.757 25.4018 100.889 25.1809 100.972 24.9402C101.056 24.6995 101.089 24.444 101.07 24.1899C101.092 23.9639 101.069 23.7358 101.002 23.5187C100.936 23.3015 100.827 23.0997 100.682 22.9249C100.537 22.7501 100.358 22.6058 100.157 22.5002C99.9562 22.3947 99.7362 22.3301 99.51 22.3101C99.2334 22.3276 98.9635 22.4024 98.7173 22.5298C98.4711 22.6572 98.254 22.8343 98.08 23.05V25.99Z" fill="#E61F69"/>
<path d="M19.75 39.51C19.75 33.8 24.08 30.51 28.27 27.41C32.46 24.31 36.42 21.31 36.42 15.98C36.42 9.20998 30.99 4.97998 22.26 4.97998V0.0500488C35.45 0.0500488 41.35 8.04995 41.35 15.95C41.35 23.85 35.74 27.95 31.23 31.33C27.72 33.97 19.75 39.48 19.75 39.48" fill="#E61F69"/>
<path d="M19.6901 46.62C6.50012 46.62 0.600098 38.62 0.600098 30.71C0.600098 22.8 6.33011 18.36 10.9301 14.89C14.3301 12.32 22.2101 7.18994 22.2101 7.18994C22.2101 12.5699 17.9901 15.75 13.9001 18.83C9.60015 22.08 5.53015 25.15 5.53015 30.71C5.53015 37.48 10.9601 41.71 19.6901 41.71V46.62Z" fill="#E61F69"/>
</svg>
