<svg width="143" height="51" viewBox="0 0 143 51" fill="none" xmlns="http://www.w3.org/2000/svg">
<path d="M65.36 22.2H65.14L62.37 15.2L59.6 22.2H59.37L56.02 13.76H56.94L59.49 20.11L62.04 13.76H62.71L65.26 20.11L67.8 13.76H68.72L65.36 22.2Z" fill="#B297C7"/>
<path d="M74.4602 19.36C74.4602 19.9252 74.2927 20.4778 73.9789 20.9479C73.6651 21.418 73.219 21.7846 72.697 22.0013C72.175 22.2181 71.6004 22.2753 71.0459 22.1658C70.4914 22.0562 69.9818 21.7848 69.5814 21.3859C69.181 20.9869 68.9079 20.4782 68.7964 19.9241C68.6849 19.3699 68.7401 18.7952 68.9551 18.2725C69.17 17.7497 69.535 17.3023 70.004 16.9868C70.473 16.6714 71.025 16.502 71.5902 16.5C72.3489 16.5026 73.0758 16.8045 73.6132 17.34C74.1506 17.8755 74.455 18.6014 74.4602 19.36ZM69.6102 19.36C69.6102 19.8904 69.8209 20.3991 70.196 20.7742C70.5711 21.1492 71.0798 21.36 71.6102 21.36C72.1406 21.36 72.6494 21.1492 73.0245 20.7742C73.3995 20.3991 73.6102 19.8904 73.6102 19.36C73.6102 18.8296 73.3995 18.3209 73.0245 17.9458C72.6494 17.5707 72.1406 17.36 71.6102 17.36C71.0798 17.36 70.5711 17.5707 70.196 17.9458C69.8209 18.3209 69.6102 18.8296 69.6102 19.36Z" fill="#B297C7"/>
<path d="M76.6302 16.61V17.83C76.8622 17.4381 77.1719 17.0978 77.5402 16.83C77.7873 16.653 78.0775 16.546 78.3802 16.52C78.8721 16.6007 79.3285 16.8271 79.6902 17.17L79.2402 17.91C78.9542 17.6184 78.5762 17.4347 78.1702 17.39C77.8772 17.4235 77.5982 17.5336 77.3613 17.7091C77.1243 17.8846 76.9377 18.1195 76.8203 18.39C76.6754 18.8178 76.611 19.2687 76.6302 19.72V22.1H75.7803V16.59L76.6302 16.61Z" fill="#B297C7"/>
<path d="M81.07 22.12H80.23V13.76H81.07V22.12ZM82.24 19.26L85.4 22.12H84.25L81.13 19.26L83.87 16.61H84.87L82.24 19.26Z" fill="#B297C7"/>
<path d="M91.5001 13.76C93.5901 13.76 94.2501 14.91 94.2501 16.05C94.2501 17.19 93.5901 18.34 91.5001 18.34H90.0001V22.12H89.0801V13.76H91.5001ZM90.0301 14.5699V17.5699H91.4001C93.0801 17.5699 93.2701 16.69 93.2701 16.09C93.2701 15.49 93.0801 14.61 91.4001 14.61L90.0301 14.5699Z" fill="#B297C7"/>
<path d="M98.36 17.8101C97.9029 17.4806 97.3623 17.2865 96.8 17.25C96.23 17.25 95.87 17.58 95.87 17.96C95.87 18.34 96.25 18.59 97.56 19.27C97.9578 19.3775 98.2967 19.6385 98.502 19.9958C98.7074 20.353 98.7624 20.7772 98.655 21.1751C98.5476 21.5729 98.2865 21.9117 97.9293 22.1171C97.572 22.3224 97.1478 22.3775 96.75 22.27C96.1259 22.2555 95.5161 22.0798 94.98 21.76V20.89C95.5051 21.2578 96.1205 21.4756 96.76 21.52C97.19 21.52 97.69 21.2501 97.69 20.7801C97.69 20.3101 97.19 20.0001 96.47 19.6601C95.75 19.3201 95 18.9 95 18C95.0122 17.7837 95.0684 17.5721 95.1653 17.3783C95.2622 17.1845 95.3978 17.0126 95.5635 16.8731C95.7293 16.7335 95.9218 16.6294 96.1293 16.5669C96.3367 16.5045 96.5548 16.4852 96.77 16.51C97.3264 16.521 97.8692 16.6835 98.34 16.98L98.36 17.8101Z" fill="#B297C7"/>
<path d="M100.25 24.9301H99.3497L101.24 20.99L99.0098 16.61H99.9297L101.69 20.08L103.34 16.61H104.26L100.25 24.9301Z" fill="#B297C7"/>
<path d="M108.84 17.7399C108.387 17.4549 107.865 17.2993 107.33 17.29C107.071 17.3025 106.817 17.367 106.584 17.4798C106.35 17.5926 106.142 17.7512 105.971 17.9462C105.8 18.1413 105.671 18.3689 105.59 18.6152C105.509 18.8615 105.478 19.1216 105.5 19.38C105.478 19.6509 105.515 19.9233 105.607 20.179C105.699 20.4347 105.844 20.6679 106.033 20.8629C106.223 21.0578 106.452 21.2101 106.704 21.3096C106.957 21.4092 107.229 21.4536 107.5 21.4399C108.009 21.4288 108.51 21.3095 108.97 21.0899V21.92C108.474 22.1197 107.945 22.2247 107.41 22.2299C107.037 22.251 106.664 22.192 106.315 22.057C105.967 21.9219 105.651 21.7138 105.39 21.4467C105.128 21.1796 104.927 20.8597 104.799 20.5084C104.672 20.1571 104.621 19.7826 104.65 19.41C104.616 19.0372 104.661 18.6615 104.782 18.3072C104.903 17.9529 105.097 17.628 105.352 17.3536C105.606 17.0792 105.916 16.8614 106.26 16.7143C106.604 16.5672 106.976 16.4942 107.35 16.4999C107.87 16.5078 108.384 16.62 108.86 16.8299L108.84 17.7399Z" fill="#B297C7"/>
<path d="M110.92 13.76V17.45C111.103 17.1533 111.357 16.9067 111.659 16.7322C111.961 16.5577 112.301 16.4607 112.65 16.45C113.89 16.45 114.65 17.36 114.65 18.78V22.0699H113.81V18.85C113.81 17.92 113.45 17.2 112.48 17.2C112.158 17.2106 111.845 17.3095 111.575 17.4858C111.305 17.6622 111.089 17.9091 110.95 18.2V22.1H110.11V13.74L110.92 13.76Z" fill="#B297C7"/>
<path d="M121.54 19.36C121.54 19.9256 121.372 20.4787 121.058 20.949C120.744 21.4193 120.297 21.7859 119.774 22.0023C119.252 22.2188 118.677 22.2754 118.122 22.165C117.567 22.0547 117.057 21.7823 116.657 21.3823C116.258 20.9823 115.985 20.4728 115.875 19.918C115.764 19.3632 115.821 18.7881 116.038 18.2655C116.254 17.7429 116.621 17.2963 117.091 16.9821C117.561 16.6678 118.114 16.5 118.68 16.5C119.438 16.5026 120.163 16.8048 120.699 17.3406C121.235 17.8764 121.537 18.6023 121.54 19.36ZM116.69 19.36C116.69 19.8904 116.901 20.3991 117.276 20.7742C117.651 21.1492 118.159 21.36 118.69 21.36C119.22 21.36 119.729 21.1492 120.104 20.7742C120.479 20.3991 120.69 19.8904 120.69 19.36C120.69 18.8296 120.479 18.3209 120.104 17.9458C119.729 17.5707 119.22 17.36 118.69 17.36C118.159 17.36 117.651 17.5707 117.276 17.9458C116.901 18.3209 116.69 18.8296 116.69 19.36Z" fill="#B297C7"/>
<path d="M123.71 22.12H122.86V13.76H123.71V22.12Z" fill="#B297C7"/>
<path d="M130.74 19.36C130.74 19.9256 130.572 20.4787 130.258 20.949C129.944 21.4193 129.497 21.7859 128.975 22.0023C128.452 22.2188 127.877 22.2754 127.322 22.165C126.767 22.0547 126.258 21.7823 125.858 21.3823C125.458 20.9823 125.185 20.4728 125.075 19.918C124.965 19.3632 125.021 18.7881 125.238 18.2655C125.454 17.7429 125.821 17.2963 126.291 16.9821C126.761 16.6678 127.314 16.5 127.88 16.5C128.638 16.5026 129.364 16.8048 129.899 17.3406C130.435 17.8764 130.737 18.6023 130.74 19.36ZM125.89 19.36C125.89 19.8904 126.101 20.3991 126.476 20.7742C126.851 21.1492 127.36 21.36 127.89 21.36C128.42 21.36 128.929 21.1492 129.304 20.7742C129.679 20.3991 129.89 19.8904 129.89 19.36C129.89 18.8296 129.679 18.3209 129.304 17.9458C128.929 17.5707 128.42 17.36 127.89 17.36C127.36 17.36 126.851 17.5707 126.476 17.9458C126.101 18.3209 125.89 18.8296 125.89 19.36Z" fill="#B297C7"/>
<path d="M136.4 17.29H135.21C135.416 17.4484 135.584 17.6509 135.702 17.8828C135.82 18.1147 135.884 18.37 135.89 18.63C135.878 19.0746 135.708 19.5004 135.411 19.8318C135.115 20.1632 134.71 20.3786 134.27 20.4399C133.34 20.6599 132.93 20.77 132.93 21.11C132.93 21.45 133.24 21.56 134.13 21.67C135.79 21.88 136.39 22.38 136.39 23.28C136.39 24.41 135.22 24.9301 133.89 24.9301C132.22 24.9301 131.38 24.19 131.38 23.33C131.38 22.85 131.65 22.1501 132.87 21.9301C132.33 21.7401 132.14 21.38 132.14 21.2C132.14 20.69 132.64 20.52 133.14 20.34C132.753 20.2291 132.414 19.9955 132.172 19.6743C131.93 19.3532 131.799 18.9621 131.8 18.5601C131.8 17.7001 132.23 16.5601 134.31 16.5601H136.4V17.29ZM133.79 22.4C132.45 22.4 132.17 22.9499 132.17 23.3199C132.17 24.1899 133.37 24.26 133.91 24.26C134.99 24.26 135.59 23.8299 135.59 23.3199C135.59 22.9999 135.26 22.4 133.79 22.4ZM133.85 17.34C133.524 17.34 133.211 17.4696 132.98 17.7003C132.749 17.931 132.62 18.2437 132.62 18.5699C132.62 18.8962 132.749 19.209 132.98 19.4397C133.211 19.6704 133.524 19.8 133.85 19.8C134.015 19.8099 134.181 19.785 134.336 19.7271C134.492 19.6691 134.633 19.5794 134.752 19.4636C134.871 19.3478 134.964 19.2086 135.025 19.0547C135.087 18.9008 135.116 18.7356 135.11 18.5699C135.109 18.4063 135.075 18.2445 135.011 18.0939C134.947 17.9433 134.853 17.8069 134.736 17.6925C134.619 17.5782 134.48 17.4881 134.328 17.4276C134.176 17.3671 134.014 17.3373 133.85 17.34Z" fill="#B297C7"/>
<path d="M138.11 24.9301H137.21L139.11 20.99L136.87 16.61H137.79L139.55 20.08L141.2 16.61H142.12L138.11 24.9301Z" fill="#B297C7"/>
<path d="M64.15 36.3H63.15L61.94 33.61H58.11L57 36.3H56L59.71 27.89H60.33L64.15 36.3ZM60.03 29.3L58.51 32.77H61.6L60.03 29.3Z" fill="#B297C7"/>
<path d="M64.2199 31.41L66.0099 29.51V30.8H67.6599V31.54H65.9999V34.42C65.9999 35.13 65.9999 35.62 66.8199 35.62C67.212 35.6065 67.5941 35.4929 67.9299 35.29V36.09C67.5305 36.2951 67.0889 36.4047 66.64 36.41C65.54 36.41 65.15 35.65 65.15 34.77V31.54H64.21L64.2199 31.41Z" fill="#B297C7"/>
<path d="M73.3899 33.6H69.3099C69.2898 33.8705 69.3273 34.1422 69.4199 34.3972C69.5125 34.6522 69.6581 34.8847 69.847 35.0793C70.036 35.274 70.2641 35.4264 70.5162 35.5265C70.7684 35.6266 71.0389 35.6721 71.3099 35.66C72.0467 35.6484 72.7555 35.3755 73.3099 34.89V35.75C72.6949 36.1969 71.9499 36.4289 71.1899 36.41C70.815 36.4193 70.4424 36.3501 70.0958 36.2069C69.7493 36.0637 69.4365 35.8497 69.1776 35.5785C68.9186 35.3073 68.7193 34.985 68.5922 34.6322C68.4652 34.2794 68.4133 33.904 68.4399 33.53C68.4039 33.1737 68.4422 32.8138 68.5523 32.473C68.6625 32.1322 68.8421 31.818 69.0798 31.5502C69.3176 31.2823 69.6083 31.0666 69.9337 30.9169C70.259 30.7671 70.6118 30.6865 70.9699 30.6801C71.3112 30.691 71.6468 30.7714 71.9559 30.9165C72.2651 31.0616 72.5414 31.2681 72.7679 31.5237C72.9945 31.7792 73.1665 32.0784 73.2734 32.4027C73.3804 32.727 73.42 33.0699 73.3899 33.41V33.6ZM72.5199 32.99C72.5225 32.7869 72.4849 32.5854 72.4094 32.3969C72.3338 32.2083 72.2217 32.0366 72.0795 31.8916C71.9373 31.7466 71.7678 31.6312 71.5808 31.552C71.3938 31.4728 71.193 31.4314 70.9899 31.4301C70.573 31.4414 70.1753 31.6073 69.874 31.8956C69.5728 32.184 69.3895 32.574 69.3599 32.99H72.5199Z" fill="#B297C7"/>
<path d="M75.4601 36.3H74.6201V27.9399H75.4601V36.3Z" fill="#B297C7"/>
<path d="M77.9999 29.1C78.0012 29.1726 77.9879 29.2447 77.9608 29.312C77.9336 29.3794 77.8931 29.4406 77.8418 29.4919C77.7905 29.5433 77.7293 29.5837 77.6619 29.6108C77.5946 29.638 77.5225 29.6514 77.4499 29.65C77.304 29.65 77.1641 29.592 77.061 29.4889C76.9578 29.3857 76.8999 29.2458 76.8999 29.1C76.8999 28.9541 76.9578 28.8142 77.061 28.7111C77.1641 28.6079 77.304 28.55 77.4499 28.55C77.5958 28.55 77.7357 28.6079 77.8388 28.7111C77.942 28.8142 77.9999 28.9541 77.9999 29.1ZM77.8699 36.3H77.0199V30.8H77.8699V36.3Z" fill="#B297C7"/>
<path d="M84.1598 33.6H80.0798C80.0598 33.8705 80.0973 34.1422 80.1899 34.3972C80.2825 34.6522 80.428 34.8847 80.617 35.0793C80.806 35.274 81.034 35.4264 81.2862 35.5265C81.5383 35.6266 81.8088 35.6721 82.0798 35.66C82.8172 35.6511 83.5268 35.3778 84.0798 34.89V35.75C83.4666 36.2003 82.7203 36.4327 81.9598 36.41C81.5854 36.4195 81.2131 36.3503 80.8671 36.207C80.521 36.0637 80.2088 35.8495 79.9506 35.5781C79.6924 35.3068 79.494 34.9842 79.3682 34.6315C79.2423 34.2787 79.1917 33.9035 79.2198 33.53C79.1823 33.1742 79.2192 32.8145 79.3282 32.4738C79.4371 32.133 79.6158 31.8186 79.8528 31.5505C80.0898 31.2825 80.3799 31.0667 80.7048 30.9169C81.0296 30.767 81.3821 30.6864 81.7398 30.6801C82.0815 30.6911 82.4174 30.7714 82.7271 30.9164C83.0368 31.0613 83.3137 31.2678 83.541 31.5232C83.7683 31.7786 83.9413 32.0776 84.0494 32.402C84.1575 32.7263 84.1985 33.0693 84.1698 33.41L84.1598 33.6ZM83.2898 32.99C83.2924 32.7869 83.2549 32.5854 83.1793 32.3969C83.1037 32.2083 82.9916 32.0366 82.8494 31.8916C82.7072 31.7466 82.5377 31.6312 82.3507 31.552C82.1637 31.4728 81.9629 31.4314 81.7598 31.4301C81.343 31.4414 80.9452 31.6073 80.644 31.8956C80.3427 32.184 80.1594 32.574 80.1298 32.99H83.2898Z" fill="#B297C7"/>
<path d="M86.2299 30.8V32C86.4657 31.6078 86.7787 31.2676 87.1499 31C87.3931 30.8229 87.6801 30.7157 87.9799 30.6899C88.4725 30.7682 88.9295 30.995 89.2899 31.34L88.8399 32.08C88.5539 31.7884 88.1759 31.6047 87.7699 31.5601C87.4772 31.5946 87.1986 31.705 86.9618 31.8804C86.725 32.0558 86.5382 32.2901 86.4199 32.5601C86.2744 32.9843 86.21 33.432 86.2299 33.88V36.26H85.3799V30.76L86.2299 30.8Z" fill="#B297C7"/>
<path d="M21 43.16C21 36.92 25.75 33.36 30.34 29.91C34.93 26.46 39.27 23.22 39.27 17.38C39.27 9.97001 33.32 5.38 23.75 5.38V0C38.21 0 44.68 8.76005 44.68 17.4301C44.68 26.1001 38.53 30.59 33.59 34.29C29.74 37.18 21 43.21 21 43.21" fill="#B297C7"/>
<path d="M20.9297 51C6.46975 51 0.00976562 42.25 0.00976562 33.58C0.00976562 24.91 6.28974 20.04 11.3297 16.24C15.0597 13.42 23.6797 7.80005 23.6797 7.80005C23.6797 13.69 19.0598 17.18 14.5898 20.55C9.86975 24.11 5.40976 27.48 5.40976 33.55C5.40976 40.96 11.3597 45.55 20.9297 45.55V51Z" fill="#B297C7"/>
</svg>
