<svg width="29" height="29" viewBox="0 0 29 29" fill="none" xmlns="http://www.w3.org/2000/svg">
<path d="M26.88 13.7001V14.2001C26.88 17.5701 25.57 20.7301 23.2 23.1101C20.82 25.4901 17.66 26.7901 14.29 26.7901C10.92 26.7901 7.75999 25.4801 5.37999 23.1101C2.99999 20.7401 1.69999 17.5701 1.69999 14.2001C1.69999 10.8301 3.00999 7.67012 5.37999 5.29012C7.75999 2.91012 10.92 1.61012 14.29 1.61012H14.79V0.120117H14.29C10.52 0.120117 6.98999 1.58012 4.32999 4.24012C-1.16001 9.73012 -1.16001 18.6601 4.32999 24.1601C7.07999 26.9101 10.68 28.2801 14.29 28.2801C17.9 28.2801 21.5 26.9101 24.25 24.1601C26.91 21.5001 28.37 17.9701 28.37 14.2001V13.7001H26.88Z" fill="white"/>
<path d="M18.67 18.5601V9.83008H9.92V11.3201H16.12L9.75 17.6901L10.8 18.7401L17.18 12.3501V18.5601H18.67Z" fill="white"/>
</svg>
