<svg width="29" height="29" viewBox="0 0 29 29" fill="none" xmlns="http://www.w3.org/2000/svg">
<path d="M12.89 8.94991L17.28 13.3399H8.27V14.8199H17.29L12.91 19.2099L13.95 20.2599L20.13 14.0899L13.94 7.8999L12.89 8.94991Z" fill="#E84E1B"/>
<path d="M14.08 0C6.32 0 0 6.32 0 14.08C0 21.84 6.32 28.16 14.08 28.16C21.84 28.16 28.16 21.84 28.16 14.08C28.16 6.32 21.85 0 14.08 0ZM14.08 26.68C7.13 26.68 1.48 21.03 1.48 14.08C1.48 7.13 7.13 1.48 14.08 1.48C21.03 1.48 26.68 7.13 26.68 14.08C26.68 21.03 21.03 26.68 14.08 26.68Z" fill="#E84E1B"/>
</svg>
