<svg width="1014" height="38" viewBox="0 0 1014 38" fill="none" xmlns="http://www.w3.org/2000/svg">
<path d="M16.1299 31.73C16.1299 27.15 19.5999 24.55 22.9599 22.03C26.3199 19.51 29.4999 17.1301 29.4999 12.8501C29.4999 7.4301 25.1499 4.05005 18.1399 4.05005V0.0500488C28.7199 0.0500488 33.4599 6.45005 33.4599 12.8C33.4599 19.15 28.9599 22.4299 25.3399 25.1399C22.5199 27.2599 16.1299 31.6799 16.1299 31.6799" fill="#28348A"/>
<path d="M16.0798 37.4299C5.49977 37.4299 0.759766 31.0199 0.759766 24.6699C0.759766 18.3199 5.35977 14.76 9.05977 11.98C11.7798 9.91998 18.0598 5.80005 18.0598 5.80005C18.0598 10.11 14.6698 12.6699 11.3998 15.1399C7.94977 17.7399 4.67976 20.2099 4.67976 24.6699C4.67976 30.0999 9.02976 33.47 16.0398 33.47L16.0798 37.4299Z" fill="#28348A"/>
<path d="M55.1299 18.76H1013.2" stroke="#28348A" stroke-width="0.75" stroke-miterlimit="10"/>
</svg>
