<svg width="17" height="17" viewBox="0 0 17 17" fill="none" xmlns="http://www.w3.org/2000/svg">
<path d="M10.8502 12.2801C9.58567 13.3436 7.95937 13.8777 6.31057 13.771C4.66177 13.6643 3.11786 12.9251 2.00094 11.7075C0.884016 10.49 0.280359 8.88818 0.315941 7.23631C0.351524 5.58445 1.0236 4.01012 2.19192 2.8418C3.36023 1.67349 4.93452 1.00143 6.58639 0.965844C8.23825 0.930261 9.8401 1.5339 11.0576 2.65083C12.2752 3.76775 13.0144 5.31167 13.1211 6.96047C13.2277 8.60928 12.6937 10.2356 11.6302 11.5001L11.7502 11.6301L15.6702 15.5501L15.8802 15.7601C15.9774 15.8608 16.0316 15.9952 16.0316 16.1351C16.0316 16.275 15.9774 16.4094 15.8802 16.5101C15.7791 16.6103 15.6425 16.6664 15.5002 16.6664C15.3579 16.6664 15.2213 16.6103 15.1202 16.5101C14.8202 16.2201 14.5402 15.9301 14.2502 15.6401L11.0002 12.3901C10.9473 12.3576 10.8971 12.3208 10.8502 12.2801ZM6.72018 2.0701C5.31082 2.07006 3.95864 2.62717 2.95834 3.61998C1.95803 4.61279 1.39077 5.96079 1.38021 7.3701C1.42728 8.76532 2.00126 10.0909 2.98653 11.0799C3.97181 12.0688 5.29518 12.6478 6.69021 12.7001C8.09828 12.6899 9.44669 12.1301 10.448 11.1401C11.4492 10.15 12.0242 8.80797 12.0502 7.4001C12.0075 6.00001 11.4323 4.66894 10.4419 3.67847C9.45138 2.68799 8.12027 2.11275 6.72018 2.0701Z" fill="#243277"/>
</svg>
