<svg width="138" height="137" viewBox="0 0 138 137" fill="none" xmlns="http://www.w3.org/2000/svg">
<path d="M69.0004 136.95C106.727 136.95 137.31 106.367 137.31 68.6401C137.31 30.9135 106.727 0.330078 69.0004 0.330078C31.2739 0.330078 0.69043 30.9135 0.69043 68.6401C0.69043 106.367 31.2739 136.95 69.0004 136.95Z" fill="#28348A"/>
<path d="M68.9405 35.4801H37.3305C35.9305 35.4801 35.8305 35.5801 35.8305 36.9801C35.8305 37.8901 35.8305 38.8001 35.8305 39.7001C35.8486 39.9363 35.8176 40.1737 35.7396 40.3974C35.6616 40.6211 35.5382 40.8263 35.3772 41.0001C35.2162 41.1739 35.021 41.3125 34.8039 41.4074C34.5868 41.5022 34.3524 41.5511 34.1155 41.5511C33.8786 41.5511 33.6442 41.5022 33.4271 41.4074C33.21 41.3125 33.0148 41.1739 32.8538 41.0001C32.6927 40.8263 32.5694 40.6211 32.4914 40.3974C32.4134 40.1737 32.3825 39.9363 32.4005 39.7001C32.4005 38.4801 32.4005 37.2601 32.4005 36.0501C32.4135 34.9932 32.8391 33.9833 33.5864 33.236C34.3338 32.4886 35.3437 32.063 36.4005 32.0501H100.92C101.574 31.9933 102.232 32.0782 102.85 32.2991C103.468 32.5201 104.031 32.8717 104.5 33.3301C105.156 33.999 105.556 34.8766 105.63 35.8101C105.63 36.1901 105.63 36.5701 105.63 36.9601C105.63 55.0534 105.63 73.1467 105.63 91.2401C105.653 91.8331 105.609 92.4267 105.5 93.0101C105.286 93.9123 104.776 94.7166 104.051 95.2948C103.326 95.873 102.428 96.1917 101.5 96.2001C100 96.2001 98.5005 96.2001 97.0005 96.2001C96.0005 96.2001 95.7505 96.51 96.0005 97.47C96.2336 98.3674 96.2636 99.3055 96.0881 100.216C95.9127 101.126 95.5362 101.986 94.9862 102.732C94.4362 103.479 93.7266 104.093 92.9091 104.53C92.0915 104.968 91.1866 105.217 90.2605 105.26C89.9805 105.26 89.6905 105.26 89.4005 105.26H48.6105C47.5842 105.328 46.5567 105.149 45.6137 104.739C44.6707 104.328 43.8398 103.698 43.1905 102.9C42.5663 102.157 42.1289 101.276 41.9149 100.329C41.7009 99.383 41.7166 98.3992 41.9605 97.4601C42.2105 96.3801 42.0405 96.1701 40.9605 96.1701H36.6705C36.1199 96.182 35.5723 96.085 35.0593 95.8847C34.5463 95.6843 34.0779 95.3846 33.6811 95.0026C33.2844 94.6207 32.967 94.1641 32.7472 93.6591C32.5274 93.1541 32.4096 92.6107 32.4005 92.0601C32.4005 91.8201 32.4005 91.58 32.4005 91.35V46.2901C32.4005 46.0501 32.4005 45.8101 32.4005 45.5801C32.4022 45.1441 32.5693 44.7249 32.8682 44.4075C33.167 44.09 33.5754 43.898 34.0105 43.8701C34.2703 43.8551 34.5307 43.8551 34.7905 43.8701H91.3005C91.5868 43.8501 91.8741 43.8501 92.1605 43.8701C92.5788 43.9254 92.9628 44.1308 93.241 44.4481C93.5191 44.7655 93.6725 45.1731 93.6725 45.595C93.6725 46.017 93.5191 46.4247 93.241 46.742C92.9628 47.0594 92.5788 47.2648 92.1605 47.3201C91.8605 47.3201 91.5405 47.3201 91.2305 47.3201H37.3205C35.9205 47.3201 35.8305 47.4101 35.8305 48.8201V91.16C35.8305 92.51 35.9105 92.5801 37.2305 92.5901C39.2305 92.5901 41.3405 92.5901 43.3905 92.5901C43.693 92.6251 43.9987 92.5612 44.2619 92.408C44.5251 92.2548 44.7315 92.0204 44.8505 91.7401C49.8571 82.6934 54.8571 73.6501 59.8505 64.6101C61.0505 62.4434 62.2538 60.2767 63.4605 58.1101C63.9817 57.1008 64.7704 56.2544 65.7405 55.6636C66.7106 55.0727 67.8246 54.7601 68.9605 54.7601C70.0964 54.7601 71.2103 55.0727 72.1804 55.6636C73.1505 56.2544 73.9393 57.1008 74.4605 58.1101C80.6072 69.2034 86.7538 80.2901 92.9005 91.3701C93.0533 91.7631 93.3332 92.0938 93.6956 92.3094C94.058 92.525 94.4822 92.6133 94.9005 92.5601C96.9005 92.4801 98.9005 92.5601 100.901 92.5601C101.841 92.5601 102 92.4001 102 91.5001C102 73.1934 102 54.8834 102 36.5701C102 35.5701 101.82 35.4501 100.8 35.4501L68.9405 35.4801ZM68.9405 101.8H85.2505C86.7305 101.8 88.2505 101.8 89.6805 101.8C90.3679 101.828 91.0426 101.609 91.5833 101.184C92.1241 100.759 92.4954 100.155 92.6305 99.4801C92.75 98.6242 92.5469 97.7544 92.0605 97.0401C87.4471 88.7534 82.8472 80.46 78.2605 72.16C76.0005 68.0667 73.7405 63.9801 71.4805 59.9001C71.2509 59.3828 70.8652 58.9503 70.3774 58.6633C69.8896 58.3764 69.3242 58.2493 68.7605 58.3001C68.2598 58.346 67.7808 58.5263 67.3742 58.822C66.9676 59.1178 66.6484 59.5179 66.4505 59.9801C60.9572 69.9067 55.4605 79.8267 49.9605 89.7401C48.5305 92.3301 47.0805 94.9101 45.6705 97.5001C45.4516 97.8577 45.3159 98.26 45.2733 98.6771C45.2307 99.0943 45.2824 99.5157 45.4244 99.9102C45.5665 100.305 45.7954 100.662 46.0941 100.956C46.3929 101.251 46.7539 101.474 47.1505 101.61C47.6301 101.754 48.1301 101.818 48.6305 101.8H68.9405Z" fill="white"/>
<path d="M97.7201 47.3299C97.4101 47.3299 97.1001 47.3299 96.8001 47.3299C96.3676 47.3046 95.9608 47.116 95.662 46.8023C95.3631 46.4886 95.1945 46.0731 95.1902 45.6399C95.168 45.205 95.3166 44.7786 95.6043 44.4517C95.892 44.1248 96.2959 43.9232 96.7301 43.8899C97.4384 43.8199 98.1519 43.8199 98.8601 43.8899C99.2823 43.9305 99.6713 44.136 99.9428 44.4618C100.214 44.7876 100.346 45.2073 100.31 45.6299C100.324 46.0523 100.173 46.4637 99.8897 46.7771C99.6061 47.0905 99.2119 47.2816 98.7901 47.3099C98.4337 47.3299 98.0765 47.3299 97.7201 47.3099V47.3299Z" fill="white"/>
<path d="M48.6205 41.25C48.2876 41.275 47.9533 41.275 47.6205 41.25C47.1934 41.2171 46.7945 41.0243 46.5035 40.71C46.2125 40.3958 46.0508 39.9833 46.0508 39.555C46.0508 39.1266 46.2125 38.7141 46.5035 38.3999C46.7945 38.0856 47.1934 37.8928 47.6205 37.86C48.3051 37.785 48.9959 37.785 49.6805 37.86C50.0987 37.9174 50.4789 38.1329 50.743 38.4621C51.0072 38.7914 51.1351 39.2093 51.1005 39.63C51.0856 40.0381 50.9235 40.427 50.644 40.7248C50.3646 41.0226 49.9868 41.2092 49.5805 41.25C49.2742 41.2701 48.9668 41.2701 48.6605 41.25H48.6205Z" fill="white"/>
<path d="M41.5203 41.2599C41.2139 41.28 40.9066 41.28 40.6002 41.2599C40.1786 41.2142 39.7887 41.0143 39.5054 40.6987C39.2221 40.3831 39.0654 39.974 39.0654 39.5498C39.0654 39.1257 39.2221 38.7166 39.5054 38.401C39.7887 38.0854 40.1786 37.8856 40.6002 37.8399C41.0998 37.8099 41.6007 37.8099 42.1002 37.8399C42.3378 37.8218 42.5765 37.8529 42.8015 37.9314C43.0265 38.0099 43.2328 38.134 43.4076 38.2959C43.5824 38.4579 43.7218 38.6542 43.8171 38.8725C43.9125 39.0909 43.9617 39.3266 43.9617 39.5649C43.9617 39.8031 43.9125 40.0388 43.8171 40.2572C43.7218 40.4755 43.5824 40.6718 43.4076 40.8338C43.2328 40.9957 43.0265 41.1198 42.8015 41.1983C42.5765 41.2768 42.3378 41.3079 42.1002 41.2898H41.4603L41.5203 41.2599Z" fill="white"/>
<path d="M55.7003 37.8199C55.9403 37.8199 56.1802 37.8199 56.4102 37.8199C56.8664 37.8199 57.3039 38.0011 57.6265 38.3237C57.949 38.6463 58.1303 39.0837 58.1303 39.5399C58.1303 39.9961 57.949 40.4336 57.6265 40.7561C57.3039 41.0787 56.8664 41.2599 56.4102 41.2599C55.9144 41.2999 55.4161 41.2999 54.9202 41.2599C54.4641 41.252 54.0298 41.0631 53.7128 40.7349C53.3959 40.4067 53.2223 39.9661 53.2302 39.5099C53.2382 39.0538 53.4271 38.6194 53.7553 38.3025C54.0835 37.9855 54.5241 37.812 54.9802 37.8199C55.2302 37.7999 55.4603 37.8199 55.7003 37.8199Z" fill="white"/>
<path d="M66.1101 77.2899C66.1101 75.0499 66.1101 72.8099 66.1101 70.5699C66.0793 70.1259 66.155 69.6808 66.3306 69.2718C66.5062 68.8628 66.7768 68.5016 67.12 68.2181C67.4631 67.9345 67.8689 67.737 68.3037 67.6416C68.7385 67.5463 69.1898 67.556 69.6201 67.6699C70.2781 67.7661 70.8764 68.1045 71.2981 68.6186C71.7198 69.1328 71.9345 69.7858 71.9001 70.4499C71.9001 72.2599 71.9001 74.0699 71.9001 75.8799C71.9001 78.6199 71.9001 81.3599 71.9001 84.0999C71.9272 84.5799 71.8323 85.059 71.6244 85.4925C71.4165 85.9261 71.1024 86.2999 70.7111 86.5794C70.3199 86.8588 69.8643 87.0348 69.3868 87.0908C68.9093 87.1469 68.4254 87.0812 67.9801 86.9C67.4033 86.7207 66.9043 86.3511 66.5647 85.8516C66.225 85.3521 66.0647 84.7523 66.1101 84.15C66.1001 81.87 66.1101 79.5799 66.1101 77.2899Z" fill="white"/>
<path d="M66.1105 92.8401C66.1105 92.6301 66.1105 92.4101 66.1105 92.2001C66.0873 91.8056 66.145 91.4106 66.28 91.0392C66.415 90.6678 66.6245 90.3279 66.8956 90.0404C67.1667 89.7529 67.4937 89.5238 67.8565 89.3672C68.2193 89.2107 68.6103 89.1299 69.0055 89.1299C69.4007 89.1299 69.7916 89.2107 70.1545 89.3672C70.5173 89.5238 70.8443 89.7529 71.1154 90.0404C71.3865 90.3279 71.596 90.6678 71.731 91.0392C71.866 91.4106 71.9237 91.8056 71.9005 92.2001C71.9005 92.6801 71.9005 93.2001 71.9005 93.6301C71.8571 94.3685 71.5331 95.0624 70.995 95.5698C70.4568 96.0773 69.7451 96.3599 69.0055 96.3599C68.2658 96.3599 67.5541 96.0773 67.016 95.5698C66.4778 95.0624 66.1539 94.3685 66.1105 93.6301C66.1005 93.3601 66.1105 93.1001 66.1105 92.8401Z" fill="white"/>
</svg>
