<svg width="329" height="375" viewBox="0 0 329 375" fill="none" xmlns="http://www.w3.org/2000/svg">
<path d="M154.57 317.71C154.57 271.82 189.45 245.71 223.16 220.39C256.87 195.07 288.73 171.24 288.73 128.39C288.73 73.9299 245.06 40.1101 174.79 40.1101V0.399902C280.92 0.399902 328.45 64.6799 328.45 128.4C328.45 191.12 283.28 225 247 252.2C218.71 273.4 154.57 317.74 154.57 317.74" fill="#D9D9D9"/>
<path d="M154.12 374.92C47.9599 374.92 0.459961 310.64 0.459961 246.92C0.459961 182.33 46.59 147.54 83.64 119.58C111 98.9201 174.35 57.5801 174.35 57.5801C174.35 100.88 140.35 126.51 107.56 151.28C72.91 177.42 40.18 202.14 40.18 246.92C40.18 301.37 83.8199 335.2 154.12 335.2V374.92Z" fill="#28348A"/>
</svg>
