<svg width="27" height="27" viewBox="0 0 27 27" fill="none" xmlns="http://www.w3.org/2000/svg">
<path d="M8.16016 13.4201L8.4801 13.1001L13.2601 17.8701L18.0502 13.0801L18.3701 13.4001L13.2601 18.5101L8.16016 13.4201Z" fill="#ABA7A1" stroke="#ABA7A1" stroke-miterlimit="10"/>
<path d="M13.49 8.58008H13.04V18.1901H13.49V8.58008Z" fill="#ABA7A1" stroke="#ABA7A1" stroke-miterlimit="10"/>
<path d="M0.599609 13.5299C0.59961 11.0236 1.34296 8.57355 2.7356 6.48977C4.12824 4.40598 6.10762 2.78202 8.42334 1.82335C10.7391 0.864685 13.2871 0.614368 15.7451 1.10405C18.2031 1.59374 20.4606 2.80143 22.2322 4.57436C24.0037 6.34729 25.2096 8.6058 25.6974 11.0642C26.1851 13.5226 25.9328 16.0704 24.9723 18.3854C24.0118 20.7004 22.3863 22.6785 20.3014 24.0694C18.2165 25.4604 15.766 26.2019 13.2596 26.1999C9.9019 26.1946 6.68329 24.8577 4.30994 22.4824C1.93659 20.1072 0.602253 16.8876 0.599609 13.5299ZM25.4796 13.5299C25.4796 11.113 24.7629 8.75037 23.4202 6.7408C22.0774 4.73123 20.1689 3.16497 17.936 2.24007C15.7031 1.31517 13.2461 1.07316 10.8756 1.54467C8.50516 2.01618 6.32777 3.18003 4.61877 4.88903C2.90978 6.59802 1.74593 8.77541 1.27441 11.1459C0.802903 13.5163 1.04495 15.9733 1.96985 18.2063C2.89475 20.4392 4.46101 22.3477 6.47058 23.6904C8.48015 25.0332 10.8428 25.7499 13.2596 25.7499C16.4998 25.7472 19.6065 24.4589 21.8976 22.1678C24.1887 19.8767 25.477 16.77 25.4796 13.5299Z" fill="#ABA7A1" stroke="#ABA7A1" stroke-miterlimit="10"/>
</svg>
