<svg width="27" height="27" viewBox="0 0 27 27" fill="none" xmlns="http://www.w3.org/2000/svg">
<path d="M18.24 19.32C16.1241 21.0846 13.4086 21.9642 10.6598 21.7752C7.91112 21.5862 5.34149 20.3432 3.48704 18.3055C1.6326 16.2678 0.636506 13.5928 0.706587 10.8385C0.776669 8.08417 1.90753 5.46328 3.8632 3.52253C5.81888 1.58179 8.44834 0.471075 11.2031 0.422101C13.9579 0.373127 16.6252 1.38965 18.6486 3.25966C20.672 5.12966 21.8953 7.70873 22.0633 10.4588C22.2312 13.2089 21.3308 15.9176 19.55 18.0199L19.75 18.23C21.93 20.4166 24.1166 22.5999 26.31 24.7799C26.42 24.9 26.54 25.01 26.64 25.13C26.8071 25.301 26.8993 25.5314 26.8965 25.7705C26.8937 26.0097 26.796 26.2379 26.625 26.4049C26.4539 26.572 26.2235 26.6643 25.9844 26.6615C25.7452 26.6587 25.517 26.561 25.35 26.39C24.86 25.92 24.35 25.39 23.89 24.94L18.43 19.4899L18.24 19.32ZM11.35 2.23994C8.99751 2.25799 6.74566 3.19645 5.07658 4.85432C3.4075 6.51219 2.45388 8.75766 2.41997 11.1099C2.50374 13.4395 3.46398 15.6515 5.10856 17.3035C6.75315 18.9555 8.96082 19.9257 11.29 20.0199C13.6529 20.0202 15.9211 19.0913 17.605 17.4336C19.2888 15.7759 20.2532 13.5226 20.29 11.16C20.34 6.60995 16 2.09994 11.35 2.23994Z" fill="#ABA7A1"/>
</svg>
